M48
;DRILL file {KiCad 4.0.7-e2-6376~58~ubuntu16.04.1} date Wed Sep  5 16:42:31 2018
;FORMAT={-:-/ absolute / inch / decimal}
FMAT,2
INCH,TZ
T1C0.043
%
G90
G05
M72
T1
X4.0732Y-1.6618
X4.0732Y-1.7618
X4.0732Y-1.9193
X4.0732Y-2.0193
X4.0732Y-2.1835
X4.0732Y-2.2835
X4.1634Y-3.7024
X4.2634Y-3.7024
X4.4783Y-3.7024
X4.5783Y-3.7024
X4.7933Y-3.7024
X4.8933Y-3.7024
X5.1083Y-3.7024
X5.2083Y-3.7024
X5.4232Y-3.7024
X5.5232Y-3.7024
X5.7382Y-3.7024
X5.8382Y-3.7024
X6.0531Y-3.7024
X6.1531Y-3.7024
X6.3681Y-3.7024
X6.4681Y-3.7024
T0
M30
