G04 #@! TF.FileFunction,Legend,Top*
%FSLAX46Y46*%
G04 Gerber Fmt 4.6, Leading zero omitted, Abs format (unit mm)*
G04 Created by KiCad (PCBNEW 4.0.7-e2-6376~58~ubuntu16.04.1) date Wed Sep  5 16:40:10 2018*
%MOMM*%
%LPD*%
G01*
G04 APERTURE LIST*
%ADD10C,0.100000*%
%ADD11C,0.075000*%
%ADD12C,0.120000*%
%ADD13C,0.150000*%
G04 APERTURE END LIST*
D10*
D11*
X107059524Y-76785714D02*
X107440476Y-76785714D01*
X107250000Y-76976190D02*
X107250000Y-76595238D01*
D12*
X118100000Y-86000000D02*
X118100000Y-85000000D01*
X116400000Y-85000000D02*
X116400000Y-86000000D01*
X134100000Y-86000000D02*
X134100000Y-85000000D01*
X132400000Y-85000000D02*
X132400000Y-86000000D01*
X150100000Y-86000000D02*
X150100000Y-85000000D01*
X148400000Y-85000000D02*
X148400000Y-86000000D01*
X166100000Y-86000000D02*
X166100000Y-85000000D01*
X164400000Y-85000000D02*
X164400000Y-86000000D01*
X105700000Y-65800000D02*
X105700000Y-67200000D01*
X105700000Y-67200000D02*
X108500000Y-67200000D01*
X105700000Y-65800000D02*
X108500000Y-65800000D01*
D13*
X103399040Y-46279080D02*
X103399040Y-40680920D01*
X102901200Y-40879040D02*
X103399040Y-40879040D01*
X103399040Y-46080960D02*
X102901200Y-46080960D01*
X102901200Y-43480000D02*
X103399040Y-43480000D01*
X108700020Y-40680920D02*
X108700020Y-46279080D01*
X102901200Y-40680920D02*
X102901200Y-46279080D01*
X102901200Y-46279080D02*
X109098800Y-46279080D01*
X109098800Y-46279080D02*
X109098800Y-40680920D01*
X109098800Y-40680920D02*
X102901200Y-40680920D01*
X103150000Y-72750000D02*
X102750000Y-72750000D01*
X104250000Y-69250000D02*
X104250000Y-76250000D01*
X103150000Y-69250000D02*
X103150000Y-76250000D01*
X110350000Y-69250000D02*
X102750000Y-69250000D01*
X102750000Y-76250000D02*
X110350000Y-76250000D01*
X110350000Y-76250000D02*
X110350000Y-69250000D01*
X151080600Y-34098800D02*
X166879400Y-34098800D01*
X151080600Y-33700020D02*
X166879400Y-33700020D01*
X166879400Y-27901200D02*
X151080600Y-27901200D01*
X151080600Y-28399040D02*
X166879400Y-28399040D01*
X153879680Y-28399040D02*
X153879680Y-27901200D01*
X156480640Y-28399040D02*
X156480640Y-27901200D01*
X158982540Y-28399040D02*
X158982540Y-27901200D01*
X161479360Y-28399040D02*
X161479360Y-27901200D01*
X166676200Y-27901200D02*
X166676200Y-28399040D01*
X151283800Y-28399040D02*
X151283800Y-27901200D01*
X164077780Y-27901200D02*
X164077780Y-28399040D01*
X151085680Y-27901200D02*
X151085680Y-34098800D01*
X166874320Y-34098800D02*
X166874320Y-27901200D01*
X103399040Y-52819080D02*
X103399040Y-47220920D01*
X102901200Y-47419040D02*
X103399040Y-47419040D01*
X103399040Y-52620960D02*
X102901200Y-52620960D01*
X102901200Y-50020000D02*
X103399040Y-50020000D01*
X108700020Y-47220920D02*
X108700020Y-52819080D01*
X102901200Y-47220920D02*
X102901200Y-52819080D01*
X102901200Y-52819080D02*
X109098800Y-52819080D01*
X109098800Y-52819080D02*
X109098800Y-47220920D01*
X109098800Y-47220920D02*
X102901200Y-47220920D01*
X103399040Y-59529080D02*
X103399040Y-53930920D01*
X102901200Y-54129040D02*
X103399040Y-54129040D01*
X103399040Y-59330960D02*
X102901200Y-59330960D01*
X102901200Y-56730000D02*
X103399040Y-56730000D01*
X108700020Y-53930920D02*
X108700020Y-59529080D01*
X102901200Y-53930920D02*
X102901200Y-59529080D01*
X102901200Y-59529080D02*
X109098800Y-59529080D01*
X109098800Y-59529080D02*
X109098800Y-53930920D01*
X109098800Y-53930920D02*
X102901200Y-53930920D01*
D12*
X119670000Y-78050000D02*
X122330000Y-78050000D01*
X119670000Y-32270000D02*
X119670000Y-78050000D01*
X122330000Y-32270000D02*
X122330000Y-78050000D01*
X119670000Y-32270000D02*
X122330000Y-32270000D01*
X119670000Y-31000000D02*
X119670000Y-29670000D01*
X119670000Y-29670000D02*
X121000000Y-29670000D01*
D13*
X109819080Y-94100960D02*
X104220920Y-94100960D01*
X104419040Y-94598800D02*
X104419040Y-94100960D01*
X109620960Y-94100960D02*
X109620960Y-94598800D01*
X107020000Y-94598800D02*
X107020000Y-94100960D01*
X104220920Y-88799980D02*
X109819080Y-88799980D01*
X104220920Y-94598800D02*
X109819080Y-94598800D01*
X109819080Y-94598800D02*
X109819080Y-88401200D01*
X109819080Y-88401200D02*
X104220920Y-88401200D01*
X104220920Y-88401200D02*
X104220920Y-94598800D01*
X117819080Y-94100960D02*
X112220920Y-94100960D01*
X112419040Y-94598800D02*
X112419040Y-94100960D01*
X117620960Y-94100960D02*
X117620960Y-94598800D01*
X115020000Y-94598800D02*
X115020000Y-94100960D01*
X112220920Y-88799980D02*
X117819080Y-88799980D01*
X112220920Y-94598800D02*
X117819080Y-94598800D01*
X117819080Y-94598800D02*
X117819080Y-88401200D01*
X117819080Y-88401200D02*
X112220920Y-88401200D01*
X112220920Y-88401200D02*
X112220920Y-94598800D01*
X125819080Y-94100960D02*
X120220920Y-94100960D01*
X120419040Y-94598800D02*
X120419040Y-94100960D01*
X125620960Y-94100960D02*
X125620960Y-94598800D01*
X123020000Y-94598800D02*
X123020000Y-94100960D01*
X120220920Y-88799980D02*
X125819080Y-88799980D01*
X120220920Y-94598800D02*
X125819080Y-94598800D01*
X125819080Y-94598800D02*
X125819080Y-88401200D01*
X125819080Y-88401200D02*
X120220920Y-88401200D01*
X120220920Y-88401200D02*
X120220920Y-94598800D01*
X133819080Y-94100960D02*
X128220920Y-94100960D01*
X128419040Y-94598800D02*
X128419040Y-94100960D01*
X133620960Y-94100960D02*
X133620960Y-94598800D01*
X131020000Y-94598800D02*
X131020000Y-94100960D01*
X128220920Y-88799980D02*
X133819080Y-88799980D01*
X128220920Y-94598800D02*
X133819080Y-94598800D01*
X133819080Y-94598800D02*
X133819080Y-88401200D01*
X133819080Y-88401200D02*
X128220920Y-88401200D01*
X128220920Y-88401200D02*
X128220920Y-94598800D01*
X141819080Y-94100960D02*
X136220920Y-94100960D01*
X136419040Y-94598800D02*
X136419040Y-94100960D01*
X141620960Y-94100960D02*
X141620960Y-94598800D01*
X139020000Y-94598800D02*
X139020000Y-94100960D01*
X136220920Y-88799980D02*
X141819080Y-88799980D01*
X136220920Y-94598800D02*
X141819080Y-94598800D01*
X141819080Y-94598800D02*
X141819080Y-88401200D01*
X141819080Y-88401200D02*
X136220920Y-88401200D01*
X136220920Y-88401200D02*
X136220920Y-94598800D01*
X149819080Y-94100960D02*
X144220920Y-94100960D01*
X144419040Y-94598800D02*
X144419040Y-94100960D01*
X149620960Y-94100960D02*
X149620960Y-94598800D01*
X147020000Y-94598800D02*
X147020000Y-94100960D01*
X144220920Y-88799980D02*
X149819080Y-88799980D01*
X144220920Y-94598800D02*
X149819080Y-94598800D01*
X149819080Y-94598800D02*
X149819080Y-88401200D01*
X149819080Y-88401200D02*
X144220920Y-88401200D01*
X144220920Y-88401200D02*
X144220920Y-94598800D01*
X157819080Y-94100960D02*
X152220920Y-94100960D01*
X152419040Y-94598800D02*
X152419040Y-94100960D01*
X157620960Y-94100960D02*
X157620960Y-94598800D01*
X155020000Y-94598800D02*
X155020000Y-94100960D01*
X152220920Y-88799980D02*
X157819080Y-88799980D01*
X152220920Y-94598800D02*
X157819080Y-94598800D01*
X157819080Y-94598800D02*
X157819080Y-88401200D01*
X157819080Y-88401200D02*
X152220920Y-88401200D01*
X152220920Y-88401200D02*
X152220920Y-94598800D01*
X165819080Y-94100960D02*
X160220920Y-94100960D01*
X160419040Y-94598800D02*
X160419040Y-94100960D01*
X165620960Y-94100960D02*
X165620960Y-94598800D01*
X163020000Y-94598800D02*
X163020000Y-94100960D01*
X160220920Y-88799980D02*
X165819080Y-88799980D01*
X160220920Y-94598800D02*
X165819080Y-94598800D01*
X165819080Y-94598800D02*
X165819080Y-88401200D01*
X165819080Y-88401200D02*
X160220920Y-88401200D01*
X160220920Y-88401200D02*
X160220920Y-94598800D01*
D12*
X145070000Y-78050000D02*
X147730000Y-78050000D01*
X145070000Y-32270000D02*
X145070000Y-78050000D01*
X147730000Y-32270000D02*
X147730000Y-78050000D01*
X145070000Y-32270000D02*
X147730000Y-32270000D01*
X145070000Y-31000000D02*
X145070000Y-29670000D01*
X145070000Y-29670000D02*
X146400000Y-29670000D01*
X114850000Y-45630000D02*
X113650000Y-45630000D01*
X113650000Y-43870000D02*
X114850000Y-43870000D01*
X113650000Y-47870000D02*
X114850000Y-47870000D01*
X114850000Y-49630000D02*
X113650000Y-49630000D01*
X114850000Y-56380000D02*
X113650000Y-56380000D01*
X113650000Y-54620000D02*
X114850000Y-54620000D01*
X129350000Y-55630000D02*
X128150000Y-55630000D01*
X128150000Y-53870000D02*
X129350000Y-53870000D01*
X129350000Y-58130000D02*
X128150000Y-58130000D01*
X128150000Y-56370000D02*
X129350000Y-56370000D01*
X113650000Y-65620000D02*
X114850000Y-65620000D01*
X114850000Y-67380000D02*
X113650000Y-67380000D01*
X154370000Y-38100000D02*
X154370000Y-36900000D01*
X156130000Y-36900000D02*
X156130000Y-38100000D01*
X151620000Y-38100000D02*
X151620000Y-36900000D01*
X153380000Y-36900000D02*
X153380000Y-38100000D01*
D13*
X109575000Y-82825000D02*
X109575000Y-83050000D01*
X112925000Y-82825000D02*
X112925000Y-83125000D01*
X112925000Y-86175000D02*
X112925000Y-85875000D01*
X109575000Y-86175000D02*
X109575000Y-85875000D01*
X109575000Y-82825000D02*
X112925000Y-82825000D01*
X109575000Y-86175000D02*
X112925000Y-86175000D01*
X109575000Y-83050000D02*
X108350000Y-83050000D01*
X125325000Y-82825000D02*
X125325000Y-83050000D01*
X128675000Y-82825000D02*
X128675000Y-83125000D01*
X128675000Y-86175000D02*
X128675000Y-85875000D01*
X125325000Y-86175000D02*
X125325000Y-85875000D01*
X125325000Y-82825000D02*
X128675000Y-82825000D01*
X125325000Y-86175000D02*
X128675000Y-86175000D01*
X125325000Y-83050000D02*
X124100000Y-83050000D01*
X141325000Y-82825000D02*
X141325000Y-83050000D01*
X144675000Y-82825000D02*
X144675000Y-83125000D01*
X144675000Y-86175000D02*
X144675000Y-85875000D01*
X141325000Y-86175000D02*
X141325000Y-85875000D01*
X141325000Y-82825000D02*
X144675000Y-82825000D01*
X141325000Y-86175000D02*
X144675000Y-86175000D01*
X141325000Y-83050000D02*
X140100000Y-83050000D01*
X157075000Y-82825000D02*
X157075000Y-83050000D01*
X160425000Y-82825000D02*
X160425000Y-83125000D01*
X160425000Y-86175000D02*
X160425000Y-85875000D01*
X157075000Y-86175000D02*
X157075000Y-85875000D01*
X157075000Y-82825000D02*
X160425000Y-82825000D01*
X157075000Y-86175000D02*
X160425000Y-86175000D01*
X157075000Y-83050000D02*
X155850000Y-83050000D01*
D11*
X118666667Y-85678571D02*
X118642857Y-85702381D01*
X118571429Y-85726190D01*
X118523810Y-85726190D01*
X118452381Y-85702381D01*
X118404762Y-85654762D01*
X118380953Y-85607143D01*
X118357143Y-85511905D01*
X118357143Y-85440476D01*
X118380953Y-85345238D01*
X118404762Y-85297619D01*
X118452381Y-85250000D01*
X118523810Y-85226190D01*
X118571429Y-85226190D01*
X118642857Y-85250000D01*
X118666667Y-85273810D01*
X119095238Y-85226190D02*
X119000000Y-85226190D01*
X118952381Y-85250000D01*
X118928572Y-85273810D01*
X118880953Y-85345238D01*
X118857143Y-85440476D01*
X118857143Y-85630952D01*
X118880953Y-85678571D01*
X118904762Y-85702381D01*
X118952381Y-85726190D01*
X119047619Y-85726190D01*
X119095238Y-85702381D01*
X119119048Y-85678571D01*
X119142857Y-85630952D01*
X119142857Y-85511905D01*
X119119048Y-85464286D01*
X119095238Y-85440476D01*
X119047619Y-85416667D01*
X118952381Y-85416667D01*
X118904762Y-85440476D01*
X118880953Y-85464286D01*
X118857143Y-85511905D01*
X134666667Y-85678571D02*
X134642857Y-85702381D01*
X134571429Y-85726190D01*
X134523810Y-85726190D01*
X134452381Y-85702381D01*
X134404762Y-85654762D01*
X134380953Y-85607143D01*
X134357143Y-85511905D01*
X134357143Y-85440476D01*
X134380953Y-85345238D01*
X134404762Y-85297619D01*
X134452381Y-85250000D01*
X134523810Y-85226190D01*
X134571429Y-85226190D01*
X134642857Y-85250000D01*
X134666667Y-85273810D01*
X134833334Y-85226190D02*
X135166667Y-85226190D01*
X134952381Y-85726190D01*
X150666667Y-85678571D02*
X150642857Y-85702381D01*
X150571429Y-85726190D01*
X150523810Y-85726190D01*
X150452381Y-85702381D01*
X150404762Y-85654762D01*
X150380953Y-85607143D01*
X150357143Y-85511905D01*
X150357143Y-85440476D01*
X150380953Y-85345238D01*
X150404762Y-85297619D01*
X150452381Y-85250000D01*
X150523810Y-85226190D01*
X150571429Y-85226190D01*
X150642857Y-85250000D01*
X150666667Y-85273810D01*
X150952381Y-85440476D02*
X150904762Y-85416667D01*
X150880953Y-85392857D01*
X150857143Y-85345238D01*
X150857143Y-85321429D01*
X150880953Y-85273810D01*
X150904762Y-85250000D01*
X150952381Y-85226190D01*
X151047619Y-85226190D01*
X151095238Y-85250000D01*
X151119048Y-85273810D01*
X151142857Y-85321429D01*
X151142857Y-85345238D01*
X151119048Y-85392857D01*
X151095238Y-85416667D01*
X151047619Y-85440476D01*
X150952381Y-85440476D01*
X150904762Y-85464286D01*
X150880953Y-85488095D01*
X150857143Y-85535714D01*
X150857143Y-85630952D01*
X150880953Y-85678571D01*
X150904762Y-85702381D01*
X150952381Y-85726190D01*
X151047619Y-85726190D01*
X151095238Y-85702381D01*
X151119048Y-85678571D01*
X151142857Y-85630952D01*
X151142857Y-85535714D01*
X151119048Y-85488095D01*
X151095238Y-85464286D01*
X151047619Y-85440476D01*
X166666667Y-85678571D02*
X166642857Y-85702381D01*
X166571429Y-85726190D01*
X166523810Y-85726190D01*
X166452381Y-85702381D01*
X166404762Y-85654762D01*
X166380953Y-85607143D01*
X166357143Y-85511905D01*
X166357143Y-85440476D01*
X166380953Y-85345238D01*
X166404762Y-85297619D01*
X166452381Y-85250000D01*
X166523810Y-85226190D01*
X166571429Y-85226190D01*
X166642857Y-85250000D01*
X166666667Y-85273810D01*
X166904762Y-85726190D02*
X167000000Y-85726190D01*
X167047619Y-85702381D01*
X167071429Y-85678571D01*
X167119048Y-85607143D01*
X167142857Y-85511905D01*
X167142857Y-85321429D01*
X167119048Y-85273810D01*
X167095238Y-85250000D01*
X167047619Y-85226190D01*
X166952381Y-85226190D01*
X166904762Y-85250000D01*
X166880953Y-85273810D01*
X166857143Y-85321429D01*
X166857143Y-85440476D01*
X166880953Y-85488095D01*
X166904762Y-85511905D01*
X166952381Y-85535714D01*
X167047619Y-85535714D01*
X167095238Y-85511905D01*
X167119048Y-85488095D01*
X167142857Y-85440476D01*
X107130953Y-68226190D02*
X107130953Y-67726190D01*
X107250000Y-67726190D01*
X107321429Y-67750000D01*
X107369048Y-67797619D01*
X107392857Y-67845238D01*
X107416667Y-67940476D01*
X107416667Y-68011905D01*
X107392857Y-68107143D01*
X107369048Y-68154762D01*
X107321429Y-68202381D01*
X107250000Y-68226190D01*
X107130953Y-68226190D01*
X107583334Y-67726190D02*
X107892857Y-67726190D01*
X107726191Y-67916667D01*
X107797619Y-67916667D01*
X107845238Y-67940476D01*
X107869048Y-67964286D01*
X107892857Y-68011905D01*
X107892857Y-68130952D01*
X107869048Y-68178571D01*
X107845238Y-68202381D01*
X107797619Y-68226190D01*
X107654762Y-68226190D01*
X107607143Y-68202381D01*
X107583334Y-68178571D01*
X109916667Y-43464286D02*
X109988096Y-43488095D01*
X110011905Y-43511905D01*
X110035715Y-43559524D01*
X110035715Y-43630952D01*
X110011905Y-43678571D01*
X109988096Y-43702381D01*
X109940477Y-43726190D01*
X109750001Y-43726190D01*
X109750001Y-43226190D01*
X109916667Y-43226190D01*
X109964286Y-43250000D01*
X109988096Y-43273810D01*
X110011905Y-43321429D01*
X110011905Y-43369048D01*
X109988096Y-43416667D01*
X109964286Y-43440476D01*
X109916667Y-43464286D01*
X109750001Y-43464286D01*
X110250001Y-43726190D02*
X110250001Y-43392857D01*
X110250001Y-43226190D02*
X110226191Y-43250000D01*
X110250001Y-43273810D01*
X110273810Y-43250000D01*
X110250001Y-43226190D01*
X110250001Y-43273810D01*
X110488096Y-43726190D02*
X110488096Y-43392857D01*
X110488096Y-43488095D02*
X110511905Y-43440476D01*
X110535715Y-43416667D01*
X110583334Y-43392857D01*
X110630953Y-43392857D01*
X111011905Y-43392857D02*
X111011905Y-43726190D01*
X110797620Y-43392857D02*
X110797620Y-43654762D01*
X110821429Y-43702381D01*
X110869048Y-43726190D01*
X110940477Y-43726190D01*
X110988096Y-43702381D01*
X111011905Y-43678571D01*
X111178572Y-43392857D02*
X111369048Y-43392857D01*
X111250001Y-43226190D02*
X111250001Y-43654762D01*
X111273810Y-43702381D01*
X111321429Y-43726190D01*
X111369048Y-43726190D01*
X111750000Y-43726190D02*
X111750000Y-43464286D01*
X111726191Y-43416667D01*
X111678572Y-43392857D01*
X111583334Y-43392857D01*
X111535715Y-43416667D01*
X111750000Y-43702381D02*
X111702381Y-43726190D01*
X111583334Y-43726190D01*
X111535715Y-43702381D01*
X111511905Y-43654762D01*
X111511905Y-43607143D01*
X111535715Y-43559524D01*
X111583334Y-43535714D01*
X111702381Y-43535714D01*
X111750000Y-43511905D01*
X111011905Y-72976190D02*
X111011905Y-72476190D01*
X111202381Y-72476190D01*
X111250000Y-72500000D01*
X111273809Y-72523810D01*
X111297619Y-72571429D01*
X111297619Y-72642857D01*
X111273809Y-72690476D01*
X111250000Y-72714286D01*
X111202381Y-72738095D01*
X111011905Y-72738095D01*
X111583333Y-72976190D02*
X111535714Y-72952381D01*
X111511905Y-72928571D01*
X111488095Y-72880952D01*
X111488095Y-72738095D01*
X111511905Y-72690476D01*
X111535714Y-72666667D01*
X111583333Y-72642857D01*
X111654762Y-72642857D01*
X111702381Y-72666667D01*
X111726190Y-72690476D01*
X111750000Y-72738095D01*
X111750000Y-72880952D01*
X111726190Y-72928571D01*
X111702381Y-72952381D01*
X111654762Y-72976190D01*
X111583333Y-72976190D01*
X111916667Y-72642857D02*
X112011905Y-72976190D01*
X112107143Y-72738095D01*
X112202381Y-72976190D01*
X112297619Y-72642857D01*
X112678572Y-72952381D02*
X112630953Y-72976190D01*
X112535715Y-72976190D01*
X112488096Y-72952381D01*
X112464286Y-72904762D01*
X112464286Y-72714286D01*
X112488096Y-72666667D01*
X112535715Y-72642857D01*
X112630953Y-72642857D01*
X112678572Y-72666667D01*
X112702381Y-72714286D01*
X112702381Y-72761905D01*
X112464286Y-72809524D01*
X112916667Y-72976190D02*
X112916667Y-72642857D01*
X112916667Y-72738095D02*
X112940476Y-72690476D01*
X112964286Y-72666667D01*
X113011905Y-72642857D01*
X113059524Y-72642857D01*
X158813334Y-35227070D02*
X158813334Y-35584213D01*
X158789524Y-35655642D01*
X158741905Y-35703261D01*
X158670477Y-35727070D01*
X158622858Y-35727070D01*
X159265714Y-35393737D02*
X159265714Y-35727070D01*
X159146667Y-35203261D02*
X159027619Y-35560404D01*
X159337143Y-35560404D01*
X109654763Y-51726190D02*
X109654763Y-51226190D01*
X109845239Y-51226190D01*
X109892858Y-51250000D01*
X109916667Y-51273810D01*
X109940477Y-51321429D01*
X109940477Y-51392857D01*
X109916667Y-51440476D01*
X109892858Y-51464286D01*
X109845239Y-51488095D01*
X109654763Y-51488095D01*
X110226191Y-51726190D02*
X110178572Y-51702381D01*
X110154763Y-51654762D01*
X110154763Y-51226190D01*
X110630953Y-51392857D02*
X110630953Y-51726190D01*
X110416668Y-51392857D02*
X110416668Y-51654762D01*
X110440477Y-51702381D01*
X110488096Y-51726190D01*
X110559525Y-51726190D01*
X110607144Y-51702381D01*
X110630953Y-51678571D01*
X110821430Y-51392857D02*
X110940477Y-51726190D01*
X111059525Y-51392857D01*
X111250001Y-51726190D02*
X111250001Y-51392857D01*
X111250001Y-51226190D02*
X111226191Y-51250000D01*
X111250001Y-51273810D01*
X111273810Y-51250000D01*
X111250001Y-51226190D01*
X111250001Y-51273810D01*
X111559524Y-51726190D02*
X111511905Y-51702381D01*
X111488096Y-51678571D01*
X111464286Y-51630952D01*
X111464286Y-51488095D01*
X111488096Y-51440476D01*
X111511905Y-51416667D01*
X111559524Y-51392857D01*
X111630953Y-51392857D01*
X111678572Y-51416667D01*
X111702381Y-51440476D01*
X111726191Y-51488095D01*
X111726191Y-51630952D01*
X111702381Y-51678571D01*
X111678572Y-51702381D01*
X111630953Y-51726190D01*
X111559524Y-51726190D01*
X111940477Y-51726190D02*
X111940477Y-51392857D01*
X111940477Y-51440476D02*
X111964286Y-51416667D01*
X112011905Y-51392857D01*
X112083334Y-51392857D01*
X112130953Y-51416667D01*
X112154762Y-51464286D01*
X112154762Y-51726190D01*
X112154762Y-51464286D02*
X112178572Y-51416667D01*
X112226191Y-51392857D01*
X112297619Y-51392857D01*
X112345239Y-51416667D01*
X112369048Y-51464286D01*
X112369048Y-51726190D01*
X112797620Y-51702381D02*
X112750001Y-51726190D01*
X112654763Y-51726190D01*
X112607144Y-51702381D01*
X112583334Y-51654762D01*
X112583334Y-51464286D01*
X112607144Y-51416667D01*
X112654763Y-51392857D01*
X112750001Y-51392857D01*
X112797620Y-51416667D01*
X112821429Y-51464286D01*
X112821429Y-51511905D01*
X112583334Y-51559524D01*
X112964286Y-51392857D02*
X113154762Y-51392857D01*
X113035715Y-51226190D02*
X113035715Y-51654762D01*
X113059524Y-51702381D01*
X113107143Y-51726190D01*
X113154762Y-51726190D01*
X113321429Y-51726190D02*
X113321429Y-51392857D01*
X113321429Y-51488095D02*
X113345238Y-51440476D01*
X113369048Y-51416667D01*
X113416667Y-51392857D01*
X113464286Y-51392857D01*
X113702381Y-51726190D02*
X113654762Y-51702381D01*
X113630953Y-51678571D01*
X113607143Y-51630952D01*
X113607143Y-51488095D01*
X113630953Y-51440476D01*
X113654762Y-51416667D01*
X113702381Y-51392857D01*
X113773810Y-51392857D01*
X113821429Y-51416667D01*
X113845238Y-51440476D01*
X113869048Y-51488095D01*
X113869048Y-51630952D01*
X113845238Y-51678571D01*
X113821429Y-51702381D01*
X113773810Y-51726190D01*
X113702381Y-51726190D01*
X109809524Y-58333333D02*
X110047619Y-58333333D01*
X109761905Y-58476190D02*
X109928572Y-57976190D01*
X110095238Y-58476190D01*
X110261905Y-58142857D02*
X110261905Y-58476190D01*
X110261905Y-58190476D02*
X110285714Y-58166667D01*
X110333333Y-58142857D01*
X110404762Y-58142857D01*
X110452381Y-58166667D01*
X110476190Y-58214286D01*
X110476190Y-58476190D01*
X110904762Y-58452381D02*
X110857143Y-58476190D01*
X110761905Y-58476190D01*
X110714286Y-58452381D01*
X110690476Y-58404762D01*
X110690476Y-58214286D01*
X110714286Y-58166667D01*
X110761905Y-58142857D01*
X110857143Y-58142857D01*
X110904762Y-58166667D01*
X110928571Y-58214286D01*
X110928571Y-58261905D01*
X110690476Y-58309524D01*
X111142857Y-58476190D02*
X111142857Y-58142857D01*
X111142857Y-58190476D02*
X111166666Y-58166667D01*
X111214285Y-58142857D01*
X111285714Y-58142857D01*
X111333333Y-58166667D01*
X111357142Y-58214286D01*
X111357142Y-58476190D01*
X111357142Y-58214286D02*
X111380952Y-58166667D01*
X111428571Y-58142857D01*
X111499999Y-58142857D01*
X111547619Y-58166667D01*
X111571428Y-58214286D01*
X111571428Y-58476190D01*
X111880952Y-58476190D02*
X111833333Y-58452381D01*
X111809524Y-58428571D01*
X111785714Y-58380952D01*
X111785714Y-58238095D01*
X111809524Y-58190476D01*
X111833333Y-58166667D01*
X111880952Y-58142857D01*
X111952381Y-58142857D01*
X112000000Y-58166667D01*
X112023809Y-58190476D01*
X112047619Y-58238095D01*
X112047619Y-58380952D01*
X112023809Y-58428571D01*
X112000000Y-58452381D01*
X111952381Y-58476190D01*
X111880952Y-58476190D01*
X112261905Y-58476190D02*
X112261905Y-58142857D01*
X112261905Y-58190476D02*
X112285714Y-58166667D01*
X112333333Y-58142857D01*
X112404762Y-58142857D01*
X112452381Y-58166667D01*
X112476190Y-58214286D01*
X112476190Y-58476190D01*
X112476190Y-58214286D02*
X112500000Y-58166667D01*
X112547619Y-58142857D01*
X112619047Y-58142857D01*
X112666667Y-58166667D01*
X112690476Y-58214286D01*
X112690476Y-58476190D01*
X113119048Y-58452381D02*
X113071429Y-58476190D01*
X112976191Y-58476190D01*
X112928572Y-58452381D01*
X112904762Y-58404762D01*
X112904762Y-58214286D01*
X112928572Y-58166667D01*
X112976191Y-58142857D01*
X113071429Y-58142857D01*
X113119048Y-58166667D01*
X113142857Y-58214286D01*
X113142857Y-58261905D01*
X112904762Y-58309524D01*
X113285714Y-58142857D02*
X113476190Y-58142857D01*
X113357143Y-57976190D02*
X113357143Y-58404762D01*
X113380952Y-58452381D01*
X113428571Y-58476190D01*
X113476190Y-58476190D01*
X113642857Y-58476190D02*
X113642857Y-58142857D01*
X113642857Y-58238095D02*
X113666666Y-58190476D01*
X113690476Y-58166667D01*
X113738095Y-58142857D01*
X113785714Y-58142857D01*
X114023809Y-58476190D02*
X113976190Y-58452381D01*
X113952381Y-58428571D01*
X113928571Y-58380952D01*
X113928571Y-58238095D01*
X113952381Y-58190476D01*
X113976190Y-58166667D01*
X114023809Y-58142857D01*
X114095238Y-58142857D01*
X114142857Y-58166667D01*
X114166666Y-58190476D01*
X114190476Y-58238095D01*
X114190476Y-58380952D01*
X114166666Y-58428571D01*
X114142857Y-58452381D01*
X114095238Y-58476190D01*
X114023809Y-58476190D01*
X120833334Y-28396190D02*
X120833334Y-28753333D01*
X120809524Y-28824762D01*
X120761905Y-28872381D01*
X120690477Y-28896190D01*
X120642858Y-28896190D01*
X121023810Y-28396190D02*
X121357143Y-28396190D01*
X121142857Y-28896190D01*
X106853334Y-86725310D02*
X106853334Y-87082453D01*
X106829524Y-87153882D01*
X106781905Y-87201501D01*
X106710477Y-87225310D01*
X106662858Y-87225310D01*
X107162857Y-86939596D02*
X107115238Y-86915787D01*
X107091429Y-86891977D01*
X107067619Y-86844358D01*
X107067619Y-86820549D01*
X107091429Y-86772930D01*
X107115238Y-86749120D01*
X107162857Y-86725310D01*
X107258095Y-86725310D01*
X107305714Y-86749120D01*
X107329524Y-86772930D01*
X107353333Y-86820549D01*
X107353333Y-86844358D01*
X107329524Y-86891977D01*
X107305714Y-86915787D01*
X107258095Y-86939596D01*
X107162857Y-86939596D01*
X107115238Y-86963406D01*
X107091429Y-86987215D01*
X107067619Y-87034834D01*
X107067619Y-87130072D01*
X107091429Y-87177691D01*
X107115238Y-87201501D01*
X107162857Y-87225310D01*
X107258095Y-87225310D01*
X107305714Y-87201501D01*
X107329524Y-87177691D01*
X107353333Y-87130072D01*
X107353333Y-87034834D01*
X107329524Y-86987215D01*
X107305714Y-86963406D01*
X107258095Y-86939596D01*
X114853334Y-86725310D02*
X114853334Y-87082453D01*
X114829524Y-87153882D01*
X114781905Y-87201501D01*
X114710477Y-87225310D01*
X114662858Y-87225310D01*
X115115238Y-87225310D02*
X115210476Y-87225310D01*
X115258095Y-87201501D01*
X115281905Y-87177691D01*
X115329524Y-87106263D01*
X115353333Y-87011025D01*
X115353333Y-86820549D01*
X115329524Y-86772930D01*
X115305714Y-86749120D01*
X115258095Y-86725310D01*
X115162857Y-86725310D01*
X115115238Y-86749120D01*
X115091429Y-86772930D01*
X115067619Y-86820549D01*
X115067619Y-86939596D01*
X115091429Y-86987215D01*
X115115238Y-87011025D01*
X115162857Y-87034834D01*
X115258095Y-87034834D01*
X115305714Y-87011025D01*
X115329524Y-86987215D01*
X115353333Y-86939596D01*
X122615239Y-86725310D02*
X122615239Y-87082453D01*
X122591429Y-87153882D01*
X122543810Y-87201501D01*
X122472382Y-87225310D01*
X122424763Y-87225310D01*
X123115238Y-87225310D02*
X122829524Y-87225310D01*
X122972381Y-87225310D02*
X122972381Y-86725310D01*
X122924762Y-86796739D01*
X122877143Y-86844358D01*
X122829524Y-86868168D01*
X123424762Y-86725310D02*
X123472381Y-86725310D01*
X123520000Y-86749120D01*
X123543809Y-86772930D01*
X123567619Y-86820549D01*
X123591428Y-86915787D01*
X123591428Y-87034834D01*
X123567619Y-87130072D01*
X123543809Y-87177691D01*
X123520000Y-87201501D01*
X123472381Y-87225310D01*
X123424762Y-87225310D01*
X123377143Y-87201501D01*
X123353333Y-87177691D01*
X123329524Y-87130072D01*
X123305714Y-87034834D01*
X123305714Y-86915787D01*
X123329524Y-86820549D01*
X123353333Y-86772930D01*
X123377143Y-86749120D01*
X123424762Y-86725310D01*
X130615239Y-86725310D02*
X130615239Y-87082453D01*
X130591429Y-87153882D01*
X130543810Y-87201501D01*
X130472382Y-87225310D01*
X130424763Y-87225310D01*
X131115238Y-87225310D02*
X130829524Y-87225310D01*
X130972381Y-87225310D02*
X130972381Y-86725310D01*
X130924762Y-86796739D01*
X130877143Y-86844358D01*
X130829524Y-86868168D01*
X131591428Y-87225310D02*
X131305714Y-87225310D01*
X131448571Y-87225310D02*
X131448571Y-86725310D01*
X131400952Y-86796739D01*
X131353333Y-86844358D01*
X131305714Y-86868168D01*
X138615239Y-86725310D02*
X138615239Y-87082453D01*
X138591429Y-87153882D01*
X138543810Y-87201501D01*
X138472382Y-87225310D01*
X138424763Y-87225310D01*
X139115238Y-87225310D02*
X138829524Y-87225310D01*
X138972381Y-87225310D02*
X138972381Y-86725310D01*
X138924762Y-86796739D01*
X138877143Y-86844358D01*
X138829524Y-86868168D01*
X139305714Y-86772930D02*
X139329524Y-86749120D01*
X139377143Y-86725310D01*
X139496190Y-86725310D01*
X139543809Y-86749120D01*
X139567619Y-86772930D01*
X139591428Y-86820549D01*
X139591428Y-86868168D01*
X139567619Y-86939596D01*
X139281905Y-87225310D01*
X139591428Y-87225310D01*
X146615239Y-86725310D02*
X146615239Y-87082453D01*
X146591429Y-87153882D01*
X146543810Y-87201501D01*
X146472382Y-87225310D01*
X146424763Y-87225310D01*
X147115238Y-87225310D02*
X146829524Y-87225310D01*
X146972381Y-87225310D02*
X146972381Y-86725310D01*
X146924762Y-86796739D01*
X146877143Y-86844358D01*
X146829524Y-86868168D01*
X147281905Y-86725310D02*
X147591428Y-86725310D01*
X147424762Y-86915787D01*
X147496190Y-86915787D01*
X147543809Y-86939596D01*
X147567619Y-86963406D01*
X147591428Y-87011025D01*
X147591428Y-87130072D01*
X147567619Y-87177691D01*
X147543809Y-87201501D01*
X147496190Y-87225310D01*
X147353333Y-87225310D01*
X147305714Y-87201501D01*
X147281905Y-87177691D01*
X154615239Y-86725310D02*
X154615239Y-87082453D01*
X154591429Y-87153882D01*
X154543810Y-87201501D01*
X154472382Y-87225310D01*
X154424763Y-87225310D01*
X155115238Y-87225310D02*
X154829524Y-87225310D01*
X154972381Y-87225310D02*
X154972381Y-86725310D01*
X154924762Y-86796739D01*
X154877143Y-86844358D01*
X154829524Y-86868168D01*
X155543809Y-86891977D02*
X155543809Y-87225310D01*
X155424762Y-86701501D02*
X155305714Y-87058644D01*
X155615238Y-87058644D01*
X162615239Y-86725310D02*
X162615239Y-87082453D01*
X162591429Y-87153882D01*
X162543810Y-87201501D01*
X162472382Y-87225310D01*
X162424763Y-87225310D01*
X163115238Y-87225310D02*
X162829524Y-87225310D01*
X162972381Y-87225310D02*
X162972381Y-86725310D01*
X162924762Y-86796739D01*
X162877143Y-86844358D01*
X162829524Y-86868168D01*
X163567619Y-86725310D02*
X163329524Y-86725310D01*
X163305714Y-86963406D01*
X163329524Y-86939596D01*
X163377143Y-86915787D01*
X163496190Y-86915787D01*
X163543809Y-86939596D01*
X163567619Y-86963406D01*
X163591428Y-87011025D01*
X163591428Y-87130072D01*
X163567619Y-87177691D01*
X163543809Y-87201501D01*
X163496190Y-87225310D01*
X163377143Y-87225310D01*
X163329524Y-87201501D01*
X163305714Y-87177691D01*
X145995239Y-28396190D02*
X145995239Y-28753333D01*
X145971429Y-28824762D01*
X145923810Y-28872381D01*
X145852382Y-28896190D01*
X145804763Y-28896190D01*
X146495238Y-28896190D02*
X146209524Y-28896190D01*
X146352381Y-28896190D02*
X146352381Y-28396190D01*
X146304762Y-28467619D01*
X146257143Y-28515238D01*
X146209524Y-28539048D01*
X146923809Y-28396190D02*
X146828571Y-28396190D01*
X146780952Y-28420000D01*
X146757143Y-28443810D01*
X146709524Y-28515238D01*
X146685714Y-28610476D01*
X146685714Y-28800952D01*
X146709524Y-28848571D01*
X146733333Y-28872381D01*
X146780952Y-28896190D01*
X146876190Y-28896190D01*
X146923809Y-28872381D01*
X146947619Y-28848571D01*
X146971428Y-28800952D01*
X146971428Y-28681905D01*
X146947619Y-28634286D01*
X146923809Y-28610476D01*
X146876190Y-28586667D01*
X146780952Y-28586667D01*
X146733333Y-28610476D01*
X146709524Y-28634286D01*
X146685714Y-28681905D01*
X114166667Y-46726190D02*
X114000000Y-46488095D01*
X113880953Y-46726190D02*
X113880953Y-46226190D01*
X114071429Y-46226190D01*
X114119048Y-46250000D01*
X114142857Y-46273810D01*
X114166667Y-46321429D01*
X114166667Y-46392857D01*
X114142857Y-46440476D01*
X114119048Y-46464286D01*
X114071429Y-46488095D01*
X113880953Y-46488095D01*
X114642857Y-46726190D02*
X114357143Y-46726190D01*
X114500000Y-46726190D02*
X114500000Y-46226190D01*
X114452381Y-46297619D01*
X114404762Y-46345238D01*
X114357143Y-46369048D01*
X114166667Y-50626190D02*
X114000000Y-50388095D01*
X113880953Y-50626190D02*
X113880953Y-50126190D01*
X114071429Y-50126190D01*
X114119048Y-50150000D01*
X114142857Y-50173810D01*
X114166667Y-50221429D01*
X114166667Y-50292857D01*
X114142857Y-50340476D01*
X114119048Y-50364286D01*
X114071429Y-50388095D01*
X113880953Y-50388095D01*
X114357143Y-50173810D02*
X114380953Y-50150000D01*
X114428572Y-50126190D01*
X114547619Y-50126190D01*
X114595238Y-50150000D01*
X114619048Y-50173810D01*
X114642857Y-50221429D01*
X114642857Y-50269048D01*
X114619048Y-50340476D01*
X114333334Y-50626190D01*
X114642857Y-50626190D01*
X114166667Y-57476190D02*
X114000000Y-57238095D01*
X113880953Y-57476190D02*
X113880953Y-56976190D01*
X114071429Y-56976190D01*
X114119048Y-57000000D01*
X114142857Y-57023810D01*
X114166667Y-57071429D01*
X114166667Y-57142857D01*
X114142857Y-57190476D01*
X114119048Y-57214286D01*
X114071429Y-57238095D01*
X113880953Y-57238095D01*
X114333334Y-56976190D02*
X114642857Y-56976190D01*
X114476191Y-57166667D01*
X114547619Y-57166667D01*
X114595238Y-57190476D01*
X114619048Y-57214286D01*
X114642857Y-57261905D01*
X114642857Y-57380952D01*
X114619048Y-57428571D01*
X114595238Y-57452381D01*
X114547619Y-57476190D01*
X114404762Y-57476190D01*
X114357143Y-57452381D01*
X114333334Y-57428571D01*
X126166667Y-54976190D02*
X126000000Y-54738095D01*
X125880953Y-54976190D02*
X125880953Y-54476190D01*
X126071429Y-54476190D01*
X126119048Y-54500000D01*
X126142857Y-54523810D01*
X126166667Y-54571429D01*
X126166667Y-54642857D01*
X126142857Y-54690476D01*
X126119048Y-54714286D01*
X126071429Y-54738095D01*
X125880953Y-54738095D01*
X126404762Y-54976190D02*
X126500000Y-54976190D01*
X126547619Y-54952381D01*
X126571429Y-54928571D01*
X126619048Y-54857143D01*
X126642857Y-54761905D01*
X126642857Y-54571429D01*
X126619048Y-54523810D01*
X126595238Y-54500000D01*
X126547619Y-54476190D01*
X126452381Y-54476190D01*
X126404762Y-54500000D01*
X126380953Y-54523810D01*
X126357143Y-54571429D01*
X126357143Y-54690476D01*
X126380953Y-54738095D01*
X126404762Y-54761905D01*
X126452381Y-54785714D01*
X126547619Y-54785714D01*
X126595238Y-54761905D01*
X126619048Y-54738095D01*
X126642857Y-54690476D01*
X125928572Y-57476190D02*
X125761905Y-57238095D01*
X125642858Y-57476190D02*
X125642858Y-56976190D01*
X125833334Y-56976190D01*
X125880953Y-57000000D01*
X125904762Y-57023810D01*
X125928572Y-57071429D01*
X125928572Y-57142857D01*
X125904762Y-57190476D01*
X125880953Y-57214286D01*
X125833334Y-57238095D01*
X125642858Y-57238095D01*
X126404762Y-57476190D02*
X126119048Y-57476190D01*
X126261905Y-57476190D02*
X126261905Y-56976190D01*
X126214286Y-57047619D01*
X126166667Y-57095238D01*
X126119048Y-57119048D01*
X126714286Y-56976190D02*
X126761905Y-56976190D01*
X126809524Y-57000000D01*
X126833333Y-57023810D01*
X126857143Y-57071429D01*
X126880952Y-57166667D01*
X126880952Y-57285714D01*
X126857143Y-57380952D01*
X126833333Y-57428571D01*
X126809524Y-57452381D01*
X126761905Y-57476190D01*
X126714286Y-57476190D01*
X126666667Y-57452381D01*
X126642857Y-57428571D01*
X126619048Y-57380952D01*
X126595238Y-57285714D01*
X126595238Y-57166667D01*
X126619048Y-57071429D01*
X126642857Y-57023810D01*
X126666667Y-57000000D01*
X126714286Y-56976190D01*
X113928572Y-68376190D02*
X113761905Y-68138095D01*
X113642858Y-68376190D02*
X113642858Y-67876190D01*
X113833334Y-67876190D01*
X113880953Y-67900000D01*
X113904762Y-67923810D01*
X113928572Y-67971429D01*
X113928572Y-68042857D01*
X113904762Y-68090476D01*
X113880953Y-68114286D01*
X113833334Y-68138095D01*
X113642858Y-68138095D01*
X114404762Y-68376190D02*
X114119048Y-68376190D01*
X114261905Y-68376190D02*
X114261905Y-67876190D01*
X114214286Y-67947619D01*
X114166667Y-67995238D01*
X114119048Y-68019048D01*
X114880952Y-68376190D02*
X114595238Y-68376190D01*
X114738095Y-68376190D02*
X114738095Y-67876190D01*
X114690476Y-67947619D01*
X114642857Y-67995238D01*
X114595238Y-68019048D01*
X154928572Y-39976190D02*
X154761905Y-39738095D01*
X154642858Y-39976190D02*
X154642858Y-39476190D01*
X154833334Y-39476190D01*
X154880953Y-39500000D01*
X154904762Y-39523810D01*
X154928572Y-39571429D01*
X154928572Y-39642857D01*
X154904762Y-39690476D01*
X154880953Y-39714286D01*
X154833334Y-39738095D01*
X154642858Y-39738095D01*
X155404762Y-39976190D02*
X155119048Y-39976190D01*
X155261905Y-39976190D02*
X155261905Y-39476190D01*
X155214286Y-39547619D01*
X155166667Y-39595238D01*
X155119048Y-39619048D01*
X155833333Y-39642857D02*
X155833333Y-39976190D01*
X155714286Y-39452381D02*
X155595238Y-39809524D01*
X155904762Y-39809524D01*
X152178572Y-39976190D02*
X152011905Y-39738095D01*
X151892858Y-39976190D02*
X151892858Y-39476190D01*
X152083334Y-39476190D01*
X152130953Y-39500000D01*
X152154762Y-39523810D01*
X152178572Y-39571429D01*
X152178572Y-39642857D01*
X152154762Y-39690476D01*
X152130953Y-39714286D01*
X152083334Y-39738095D01*
X151892858Y-39738095D01*
X152654762Y-39976190D02*
X152369048Y-39976190D01*
X152511905Y-39976190D02*
X152511905Y-39476190D01*
X152464286Y-39547619D01*
X152416667Y-39595238D01*
X152369048Y-39619048D01*
X153107143Y-39476190D02*
X152869048Y-39476190D01*
X152845238Y-39714286D01*
X152869048Y-39690476D01*
X152916667Y-39666667D01*
X153035714Y-39666667D01*
X153083333Y-39690476D01*
X153107143Y-39714286D01*
X153130952Y-39761905D01*
X153130952Y-39880952D01*
X153107143Y-39928571D01*
X153083333Y-39952381D01*
X153035714Y-39976190D01*
X152916667Y-39976190D01*
X152869048Y-39952381D01*
X152845238Y-39928571D01*
X110869048Y-81626190D02*
X110869048Y-82030952D01*
X110892857Y-82078571D01*
X110916667Y-82102381D01*
X110964286Y-82126190D01*
X111059524Y-82126190D01*
X111107143Y-82102381D01*
X111130952Y-82078571D01*
X111154762Y-82030952D01*
X111154762Y-81626190D01*
X111607143Y-81792857D02*
X111607143Y-82126190D01*
X111488096Y-81602381D02*
X111369048Y-81959524D01*
X111678572Y-81959524D01*
X126619048Y-81626190D02*
X126619048Y-82030952D01*
X126642857Y-82078571D01*
X126666667Y-82102381D01*
X126714286Y-82126190D01*
X126809524Y-82126190D01*
X126857143Y-82102381D01*
X126880952Y-82078571D01*
X126904762Y-82030952D01*
X126904762Y-81626190D01*
X127380953Y-81626190D02*
X127142858Y-81626190D01*
X127119048Y-81864286D01*
X127142858Y-81840476D01*
X127190477Y-81816667D01*
X127309524Y-81816667D01*
X127357143Y-81840476D01*
X127380953Y-81864286D01*
X127404762Y-81911905D01*
X127404762Y-82030952D01*
X127380953Y-82078571D01*
X127357143Y-82102381D01*
X127309524Y-82126190D01*
X127190477Y-82126190D01*
X127142858Y-82102381D01*
X127119048Y-82078571D01*
X142619048Y-81626190D02*
X142619048Y-82030952D01*
X142642857Y-82078571D01*
X142666667Y-82102381D01*
X142714286Y-82126190D01*
X142809524Y-82126190D01*
X142857143Y-82102381D01*
X142880952Y-82078571D01*
X142904762Y-82030952D01*
X142904762Y-81626190D01*
X143357143Y-81626190D02*
X143261905Y-81626190D01*
X143214286Y-81650000D01*
X143190477Y-81673810D01*
X143142858Y-81745238D01*
X143119048Y-81840476D01*
X143119048Y-82030952D01*
X143142858Y-82078571D01*
X143166667Y-82102381D01*
X143214286Y-82126190D01*
X143309524Y-82126190D01*
X143357143Y-82102381D01*
X143380953Y-82078571D01*
X143404762Y-82030952D01*
X143404762Y-81911905D01*
X143380953Y-81864286D01*
X143357143Y-81840476D01*
X143309524Y-81816667D01*
X143214286Y-81816667D01*
X143166667Y-81840476D01*
X143142858Y-81864286D01*
X143119048Y-81911905D01*
X158369048Y-81626190D02*
X158369048Y-82030952D01*
X158392857Y-82078571D01*
X158416667Y-82102381D01*
X158464286Y-82126190D01*
X158559524Y-82126190D01*
X158607143Y-82102381D01*
X158630952Y-82078571D01*
X158654762Y-82030952D01*
X158654762Y-81626190D01*
X158845239Y-81626190D02*
X159178572Y-81626190D01*
X158964286Y-82126190D01*
M02*
