G04 #@! TF.FileFunction,Copper,L2,Bot,Signal*
%FSLAX46Y46*%
G04 Gerber Fmt 4.6, Leading zero omitted, Abs format (unit mm)*
G04 Created by KiCad (PCBNEW 4.0.7-e2-6376~58~ubuntu16.04.1) date Wed Sep  5 16:40:10 2018*
%MOMM*%
%LPD*%
G01*
G04 APERTURE LIST*
%ADD10C,0.100000*%
%ADD11R,1.700000X1.700000*%
%ADD12O,1.700000X1.700000*%
%ADD13R,3.500000X1.600000*%
%ADD14R,1.600000X3.500000*%
%ADD15O,1.998980X1.998980*%
%ADD16R,1.998980X1.998980*%
%ADD17C,2.400000*%
%ADD18R,2.400000X2.400000*%
%ADD19R,2.000000X3.800000*%
%ADD20R,2.000000X1.500000*%
%ADD21R,3.800000X2.000000*%
%ADD22R,1.500000X2.000000*%
%ADD23C,0.520000*%
%ADD24C,0.508000*%
%ADD25C,0.300000*%
%ADD26C,0.175000*%
%ADD27C,0.254000*%
G04 APERTURE END LIST*
D10*
D11*
X134000000Y-44630000D03*
D12*
X134000000Y-47170000D03*
X134000000Y-49710000D03*
X134000000Y-52250000D03*
X134000000Y-54790000D03*
X134000000Y-57330000D03*
X134000000Y-59870000D03*
X134000000Y-62410000D03*
D13*
X111050000Y-64750000D03*
X116450000Y-64750000D03*
X111050000Y-49250000D03*
X116450000Y-49250000D03*
D14*
X115500000Y-81550000D03*
X115500000Y-86950000D03*
X131000000Y-81550000D03*
X131000000Y-86950000D03*
D15*
X106000000Y-44750000D03*
D16*
X106000000Y-42210000D03*
D17*
X107250000Y-74500000D03*
D18*
X107250000Y-71000000D03*
D15*
X157710000Y-31000000D03*
D16*
X165330000Y-31000000D03*
D15*
X162790000Y-31000000D03*
X160250000Y-31000000D03*
X155170000Y-31000000D03*
X152630000Y-31000000D03*
X106000000Y-51290000D03*
D16*
X106000000Y-48750000D03*
D15*
X106000000Y-58000000D03*
D16*
X106000000Y-55460000D03*
D11*
X121000000Y-31000000D03*
D12*
X121000000Y-33540000D03*
X121000000Y-36080000D03*
X121000000Y-38620000D03*
X121000000Y-41160000D03*
X121000000Y-43700000D03*
X121000000Y-46240000D03*
X121000000Y-48780000D03*
X121000000Y-51320000D03*
X121000000Y-53860000D03*
X121000000Y-56400000D03*
X121000000Y-58940000D03*
X121000000Y-61480000D03*
X121000000Y-64020000D03*
X121000000Y-66560000D03*
X121000000Y-69100000D03*
X121000000Y-71640000D03*
X121000000Y-74180000D03*
X121000000Y-76720000D03*
D15*
X108290000Y-91500000D03*
D16*
X105750000Y-91500000D03*
D15*
X116290000Y-91500000D03*
D16*
X113750000Y-91500000D03*
D15*
X124290000Y-91500000D03*
D16*
X121750000Y-91500000D03*
D15*
X132290000Y-91500000D03*
D16*
X129750000Y-91500000D03*
D15*
X140290000Y-91500000D03*
D16*
X137750000Y-91500000D03*
D15*
X148290000Y-91500000D03*
D16*
X145750000Y-91500000D03*
D15*
X156290000Y-91500000D03*
D16*
X153750000Y-91500000D03*
D15*
X164290000Y-91500000D03*
D16*
X161750000Y-91500000D03*
D11*
X146400000Y-31000000D03*
D12*
X146400000Y-33540000D03*
X146400000Y-36080000D03*
X146400000Y-38620000D03*
X146400000Y-41160000D03*
X146400000Y-43700000D03*
X146400000Y-46240000D03*
X146400000Y-48780000D03*
X146400000Y-51320000D03*
X146400000Y-53860000D03*
X146400000Y-56400000D03*
X146400000Y-58940000D03*
X146400000Y-61480000D03*
X146400000Y-64020000D03*
X146400000Y-66560000D03*
X146400000Y-69100000D03*
X146400000Y-71640000D03*
X146400000Y-74180000D03*
X146400000Y-76720000D03*
D19*
X110600000Y-57000000D03*
D20*
X116900000Y-57000000D03*
X116900000Y-59300000D03*
X116900000Y-54700000D03*
D21*
X123250000Y-80850000D03*
D22*
X123250000Y-87150000D03*
X120950000Y-87150000D03*
X125550000Y-87150000D03*
D23*
X152500000Y-40750000D03*
X117750000Y-47250000D03*
X165250000Y-87750000D03*
X118750000Y-86500000D03*
X135250000Y-86500000D03*
X151500000Y-86500000D03*
X136500000Y-85000000D03*
X152500000Y-85250000D03*
X166750000Y-88500000D03*
X121500000Y-84750000D03*
X125000000Y-57250000D03*
D24*
X139000000Y-81750000D03*
X139000000Y-83750000D03*
X135250000Y-83943590D03*
X133250000Y-78750000D03*
D25*
X150000000Y-42416675D02*
X156405411Y-42416675D01*
X118833325Y-42416675D02*
X150000000Y-42416675D01*
X150000000Y-42416675D02*
X150833325Y-42416675D01*
X150833325Y-42416675D02*
X152500000Y-40750000D01*
X111050000Y-49250000D02*
X112000000Y-49250000D01*
X112000000Y-49250000D02*
X118833325Y-42416675D01*
X156405411Y-42416675D02*
X165330000Y-33492086D01*
X165330000Y-33492086D02*
X165330000Y-31000000D01*
X111050000Y-49250000D02*
X111050000Y-39800000D01*
X111050000Y-39800000D02*
X119850000Y-31000000D01*
X119850000Y-31000000D02*
X121000000Y-31000000D01*
X111050000Y-49250000D02*
X108259684Y-46459684D01*
X108259684Y-46459684D02*
X108259684Y-43170194D01*
X108259684Y-43170194D02*
X107299490Y-42210000D01*
X107299490Y-42210000D02*
X106000000Y-42210000D01*
X111050000Y-49250000D02*
X108516917Y-51783083D01*
X108516917Y-51783083D02*
X108516917Y-55483083D01*
X108516917Y-55483083D02*
X106000000Y-58000000D01*
X111050000Y-49250000D02*
X108040000Y-49250000D01*
X108040000Y-49250000D02*
X106000000Y-51290000D01*
X116900000Y-57000000D02*
X115104258Y-57000000D01*
X115104258Y-57000000D02*
X111050000Y-52945742D01*
X111050000Y-52945742D02*
X111050000Y-50350000D01*
X111050000Y-50350000D02*
X111050000Y-49250000D01*
X115500000Y-81550000D02*
X116600000Y-81550000D01*
X116600000Y-81550000D02*
X120950000Y-85900000D01*
X120950000Y-85900000D02*
X120950000Y-87150000D01*
X111050000Y-64750000D02*
X111050000Y-63650000D01*
X111050000Y-63650000D02*
X115400000Y-59300000D01*
X115400000Y-59300000D02*
X115600000Y-59300000D01*
X115600000Y-59300000D02*
X116900000Y-59300000D01*
X107250000Y-74500000D02*
X114300000Y-81550000D01*
X114300000Y-81550000D02*
X115500000Y-81550000D01*
X107250000Y-74500000D02*
X111050000Y-70700000D01*
X111050000Y-70700000D02*
X111050000Y-64750000D01*
X124852401Y-89002401D02*
X135250000Y-89002401D01*
X135250000Y-89002401D02*
X151000000Y-89002401D01*
X136500000Y-87752401D02*
X135250000Y-89002401D01*
X136500000Y-85000000D02*
X136500000Y-87752401D01*
X151247599Y-89002401D02*
X152500000Y-87750000D01*
X152500000Y-87750000D02*
X152500000Y-85250000D01*
X151000000Y-89002401D02*
X166247599Y-89002401D01*
X151000000Y-89002401D02*
X151247599Y-89002401D01*
X123250000Y-87150000D02*
X123250000Y-87400000D01*
X123250000Y-87400000D02*
X124852401Y-89002401D01*
X166247599Y-89002401D02*
X166750000Y-88500000D01*
X121500000Y-84750000D02*
X123250000Y-86500000D01*
X123250000Y-86500000D02*
X123250000Y-87150000D01*
X123250000Y-87150000D02*
X123250000Y-85850000D01*
X123250000Y-85850000D02*
X127550000Y-81550000D01*
X127550000Y-81550000D02*
X129900000Y-81550000D01*
X129900000Y-81550000D02*
X131000000Y-81550000D01*
X131000000Y-81550000D02*
X131000000Y-80600000D01*
X131000000Y-80600000D02*
X125000000Y-74600000D01*
X125000000Y-74600000D02*
X125000000Y-57250000D01*
X131000000Y-81550000D02*
X131000000Y-65410000D01*
X131000000Y-65410000D02*
X134000000Y-62410000D01*
D26*
X134000000Y-44630000D02*
X135025000Y-44630000D01*
X147249999Y-55550001D02*
X146400000Y-56400000D01*
X135025000Y-44630000D02*
X137945596Y-47550596D01*
X148095920Y-54704080D02*
X147249999Y-55550001D01*
X137945596Y-47550596D02*
X147235186Y-47550596D01*
X147235186Y-47550596D02*
X148095920Y-48411330D01*
X148095920Y-48411330D02*
X148095920Y-54704080D01*
X134000000Y-49710000D02*
X145470000Y-49710000D01*
X145470000Y-49710000D02*
X146400000Y-48780000D01*
X134000000Y-52250000D02*
X145470000Y-52250000D01*
X145470000Y-52250000D02*
X146400000Y-51320000D01*
X139000000Y-83750000D02*
X139000000Y-81750000D01*
X135250000Y-83584380D02*
X135250000Y-83943590D01*
X135250000Y-80750000D02*
X135250000Y-83584380D01*
X133250000Y-78750000D02*
X135250000Y-80750000D01*
D27*
G36*
X114549179Y-57555079D02*
X114803852Y-57725245D01*
X115104258Y-57785000D01*
X115259146Y-57785000D01*
X115296838Y-57985317D01*
X115403759Y-58151477D01*
X115303569Y-58298110D01*
X115253757Y-58544090D01*
X115099593Y-58574755D01*
X114844921Y-58744921D01*
X110494921Y-63094921D01*
X110356181Y-63302560D01*
X109300000Y-63302560D01*
X109064683Y-63346838D01*
X108848559Y-63485910D01*
X108703569Y-63698110D01*
X108652560Y-63950000D01*
X108652560Y-65550000D01*
X108696838Y-65785317D01*
X108835910Y-66001441D01*
X109048110Y-66146431D01*
X109300000Y-66197440D01*
X110265000Y-66197440D01*
X110265000Y-70374843D01*
X109085000Y-71554843D01*
X109085000Y-71285750D01*
X108926250Y-71127000D01*
X107377000Y-71127000D01*
X107377000Y-71147000D01*
X107123000Y-71147000D01*
X107123000Y-71127000D01*
X105573750Y-71127000D01*
X105415000Y-71285750D01*
X105415000Y-72326309D01*
X105511673Y-72559698D01*
X105690301Y-72738327D01*
X105923690Y-72835000D01*
X106474395Y-72835000D01*
X106211914Y-72943455D01*
X105695270Y-73459199D01*
X105415319Y-74133395D01*
X105414682Y-74863403D01*
X105693455Y-75538086D01*
X106209199Y-76054730D01*
X106883395Y-76334681D01*
X107613403Y-76335318D01*
X107869389Y-76229547D01*
X113744921Y-82105079D01*
X113999594Y-82275245D01*
X114052560Y-82285781D01*
X114052560Y-83300000D01*
X114096838Y-83535317D01*
X114235910Y-83751441D01*
X114448110Y-83896431D01*
X114700000Y-83947440D01*
X116300000Y-83947440D01*
X116535317Y-83903162D01*
X116751441Y-83764090D01*
X116896431Y-83551890D01*
X116947440Y-83300000D01*
X116947440Y-83007598D01*
X119698709Y-85758867D01*
X119603569Y-85898110D01*
X119552560Y-86150000D01*
X119552560Y-88150000D01*
X119596838Y-88385317D01*
X119735910Y-88601441D01*
X119948110Y-88746431D01*
X120200000Y-88797440D01*
X121700000Y-88797440D01*
X121935317Y-88753162D01*
X122101477Y-88646241D01*
X122248110Y-88746431D01*
X122500000Y-88797440D01*
X123537282Y-88797440D01*
X124297322Y-89557480D01*
X124551994Y-89727646D01*
X124852401Y-89787401D01*
X166247599Y-89787401D01*
X166548006Y-89727646D01*
X166790000Y-89565951D01*
X166790000Y-93680073D01*
X166736044Y-93951325D01*
X166622002Y-94122002D01*
X166451325Y-94236044D01*
X166180073Y-94290000D01*
X165469290Y-94290000D01*
X165474794Y-94276745D01*
X165475206Y-93805323D01*
X165295180Y-93369628D01*
X164962125Y-93035991D01*
X164915189Y-93016502D01*
X164947514Y-93010072D01*
X165477781Y-92655759D01*
X165832094Y-92125492D01*
X165956512Y-91500000D01*
X165832094Y-90874508D01*
X165477781Y-90344241D01*
X164947514Y-89989928D01*
X164322022Y-89865510D01*
X164257978Y-89865510D01*
X163632486Y-89989928D01*
X163312923Y-90203453D01*
X163213580Y-90049069D01*
X163001380Y-89904079D01*
X162749490Y-89853070D01*
X160750510Y-89853070D01*
X160515193Y-89897348D01*
X160299069Y-90036420D01*
X160154079Y-90248620D01*
X160103070Y-90500510D01*
X160103070Y-92499490D01*
X160147348Y-92734807D01*
X160286420Y-92950931D01*
X160498620Y-93095921D01*
X160750510Y-93146930D01*
X160967322Y-93146930D01*
X160745991Y-93367875D01*
X160565206Y-93803255D01*
X160564794Y-94274677D01*
X160571125Y-94290000D01*
X157469290Y-94290000D01*
X157474794Y-94276745D01*
X157475206Y-93805323D01*
X157295180Y-93369628D01*
X156962125Y-93035991D01*
X156915189Y-93016502D01*
X156947514Y-93010072D01*
X157477781Y-92655759D01*
X157832094Y-92125492D01*
X157956512Y-91500000D01*
X157832094Y-90874508D01*
X157477781Y-90344241D01*
X156947514Y-89989928D01*
X156322022Y-89865510D01*
X156257978Y-89865510D01*
X155632486Y-89989928D01*
X155312923Y-90203453D01*
X155213580Y-90049069D01*
X155001380Y-89904079D01*
X154749490Y-89853070D01*
X152750510Y-89853070D01*
X152515193Y-89897348D01*
X152299069Y-90036420D01*
X152154079Y-90248620D01*
X152103070Y-90500510D01*
X152103070Y-92499490D01*
X152147348Y-92734807D01*
X152286420Y-92950931D01*
X152498620Y-93095921D01*
X152750510Y-93146930D01*
X152967322Y-93146930D01*
X152745991Y-93367875D01*
X152565206Y-93803255D01*
X152564794Y-94274677D01*
X152571125Y-94290000D01*
X149469290Y-94290000D01*
X149474794Y-94276745D01*
X149475206Y-93805323D01*
X149295180Y-93369628D01*
X148962125Y-93035991D01*
X148915189Y-93016502D01*
X148947514Y-93010072D01*
X149477781Y-92655759D01*
X149832094Y-92125492D01*
X149956512Y-91500000D01*
X149832094Y-90874508D01*
X149477781Y-90344241D01*
X148947514Y-89989928D01*
X148322022Y-89865510D01*
X148257978Y-89865510D01*
X147632486Y-89989928D01*
X147312923Y-90203453D01*
X147213580Y-90049069D01*
X147001380Y-89904079D01*
X146749490Y-89853070D01*
X144750510Y-89853070D01*
X144515193Y-89897348D01*
X144299069Y-90036420D01*
X144154079Y-90248620D01*
X144103070Y-90500510D01*
X144103070Y-92499490D01*
X144147348Y-92734807D01*
X144286420Y-92950931D01*
X144498620Y-93095921D01*
X144750510Y-93146930D01*
X144967322Y-93146930D01*
X144745991Y-93367875D01*
X144565206Y-93803255D01*
X144564794Y-94274677D01*
X144571125Y-94290000D01*
X141469290Y-94290000D01*
X141474794Y-94276745D01*
X141475206Y-93805323D01*
X141295180Y-93369628D01*
X140962125Y-93035991D01*
X140915189Y-93016502D01*
X140947514Y-93010072D01*
X141477781Y-92655759D01*
X141832094Y-92125492D01*
X141956512Y-91500000D01*
X141832094Y-90874508D01*
X141477781Y-90344241D01*
X140947514Y-89989928D01*
X140322022Y-89865510D01*
X140257978Y-89865510D01*
X139632486Y-89989928D01*
X139312923Y-90203453D01*
X139213580Y-90049069D01*
X139001380Y-89904079D01*
X138749490Y-89853070D01*
X136750510Y-89853070D01*
X136515193Y-89897348D01*
X136299069Y-90036420D01*
X136154079Y-90248620D01*
X136103070Y-90500510D01*
X136103070Y-92499490D01*
X136147348Y-92734807D01*
X136286420Y-92950931D01*
X136498620Y-93095921D01*
X136750510Y-93146930D01*
X136967322Y-93146930D01*
X136745991Y-93367875D01*
X136565206Y-93803255D01*
X136564794Y-94274677D01*
X136571125Y-94290000D01*
X133469290Y-94290000D01*
X133474794Y-94276745D01*
X133475206Y-93805323D01*
X133295180Y-93369628D01*
X132962125Y-93035991D01*
X132915189Y-93016502D01*
X132947514Y-93010072D01*
X133477781Y-92655759D01*
X133832094Y-92125492D01*
X133956512Y-91500000D01*
X133832094Y-90874508D01*
X133477781Y-90344241D01*
X132947514Y-89989928D01*
X132322022Y-89865510D01*
X132257978Y-89865510D01*
X131632486Y-89989928D01*
X131312923Y-90203453D01*
X131213580Y-90049069D01*
X131001380Y-89904079D01*
X130749490Y-89853070D01*
X128750510Y-89853070D01*
X128515193Y-89897348D01*
X128299069Y-90036420D01*
X128154079Y-90248620D01*
X128103070Y-90500510D01*
X128103070Y-92499490D01*
X128147348Y-92734807D01*
X128286420Y-92950931D01*
X128498620Y-93095921D01*
X128750510Y-93146930D01*
X128967322Y-93146930D01*
X128745991Y-93367875D01*
X128565206Y-93803255D01*
X128564794Y-94274677D01*
X128571125Y-94290000D01*
X125469290Y-94290000D01*
X125474794Y-94276745D01*
X125475206Y-93805323D01*
X125295180Y-93369628D01*
X124962125Y-93035991D01*
X124915189Y-93016502D01*
X124947514Y-93010072D01*
X125477781Y-92655759D01*
X125832094Y-92125492D01*
X125956512Y-91500000D01*
X125832094Y-90874508D01*
X125477781Y-90344241D01*
X124947514Y-89989928D01*
X124322022Y-89865510D01*
X124257978Y-89865510D01*
X123632486Y-89989928D01*
X123312923Y-90203453D01*
X123213580Y-90049069D01*
X123001380Y-89904079D01*
X122749490Y-89853070D01*
X120750510Y-89853070D01*
X120515193Y-89897348D01*
X120299069Y-90036420D01*
X120154079Y-90248620D01*
X120103070Y-90500510D01*
X120103070Y-92499490D01*
X120147348Y-92734807D01*
X120286420Y-92950931D01*
X120498620Y-93095921D01*
X120750510Y-93146930D01*
X120967322Y-93146930D01*
X120745991Y-93367875D01*
X120565206Y-93803255D01*
X120564794Y-94274677D01*
X120571125Y-94290000D01*
X117469290Y-94290000D01*
X117474794Y-94276745D01*
X117475206Y-93805323D01*
X117295180Y-93369628D01*
X116962125Y-93035991D01*
X116915189Y-93016502D01*
X116947514Y-93010072D01*
X117477781Y-92655759D01*
X117832094Y-92125492D01*
X117956512Y-91500000D01*
X117832094Y-90874508D01*
X117477781Y-90344241D01*
X116947514Y-89989928D01*
X116322022Y-89865510D01*
X116257978Y-89865510D01*
X115632486Y-89989928D01*
X115312923Y-90203453D01*
X115213580Y-90049069D01*
X115001380Y-89904079D01*
X114749490Y-89853070D01*
X112750510Y-89853070D01*
X112515193Y-89897348D01*
X112299069Y-90036420D01*
X112154079Y-90248620D01*
X112103070Y-90500510D01*
X112103070Y-92499490D01*
X112147348Y-92734807D01*
X112286420Y-92950931D01*
X112498620Y-93095921D01*
X112750510Y-93146930D01*
X112967322Y-93146930D01*
X112745991Y-93367875D01*
X112565206Y-93803255D01*
X112564794Y-94274677D01*
X112571125Y-94290000D01*
X109469290Y-94290000D01*
X109474794Y-94276745D01*
X109475206Y-93805323D01*
X109295180Y-93369628D01*
X108962125Y-93035991D01*
X108915189Y-93016502D01*
X108947514Y-93010072D01*
X109477781Y-92655759D01*
X109832094Y-92125492D01*
X109956512Y-91500000D01*
X109832094Y-90874508D01*
X109477781Y-90344241D01*
X108947514Y-89989928D01*
X108322022Y-89865510D01*
X108257978Y-89865510D01*
X107632486Y-89989928D01*
X107312923Y-90203453D01*
X107213580Y-90049069D01*
X107001380Y-89904079D01*
X106749490Y-89853070D01*
X104750510Y-89853070D01*
X104515193Y-89897348D01*
X104299069Y-90036420D01*
X104154079Y-90248620D01*
X104103070Y-90500510D01*
X104103070Y-92499490D01*
X104147348Y-92734807D01*
X104286420Y-92950931D01*
X104498620Y-93095921D01*
X104750510Y-93146930D01*
X104967322Y-93146930D01*
X104745991Y-93367875D01*
X104565206Y-93803255D01*
X104564794Y-94274677D01*
X104571125Y-94290000D01*
X103819927Y-94290000D01*
X103548675Y-94236044D01*
X103377998Y-94122002D01*
X103263956Y-93951325D01*
X103210000Y-93680073D01*
X103210000Y-87235750D01*
X114065000Y-87235750D01*
X114065000Y-88826309D01*
X114161673Y-89059698D01*
X114340301Y-89238327D01*
X114573690Y-89335000D01*
X115214250Y-89335000D01*
X115373000Y-89176250D01*
X115373000Y-87077000D01*
X115627000Y-87077000D01*
X115627000Y-89176250D01*
X115785750Y-89335000D01*
X116426310Y-89335000D01*
X116659699Y-89238327D01*
X116838327Y-89059698D01*
X116935000Y-88826309D01*
X116935000Y-87235750D01*
X116776250Y-87077000D01*
X115627000Y-87077000D01*
X115373000Y-87077000D01*
X114223750Y-87077000D01*
X114065000Y-87235750D01*
X103210000Y-87235750D01*
X103210000Y-85073691D01*
X114065000Y-85073691D01*
X114065000Y-86664250D01*
X114223750Y-86823000D01*
X115373000Y-86823000D01*
X115373000Y-84723750D01*
X115627000Y-84723750D01*
X115627000Y-86823000D01*
X116776250Y-86823000D01*
X116935000Y-86664250D01*
X116935000Y-85073691D01*
X116838327Y-84840302D01*
X116659699Y-84661673D01*
X116426310Y-84565000D01*
X115785750Y-84565000D01*
X115627000Y-84723750D01*
X115373000Y-84723750D01*
X115214250Y-84565000D01*
X114573690Y-84565000D01*
X114340301Y-84661673D01*
X114161673Y-84840302D01*
X114065000Y-85073691D01*
X103210000Y-85073691D01*
X103210000Y-69673691D01*
X105415000Y-69673691D01*
X105415000Y-70714250D01*
X105573750Y-70873000D01*
X107123000Y-70873000D01*
X107123000Y-69323750D01*
X107377000Y-69323750D01*
X107377000Y-70873000D01*
X108926250Y-70873000D01*
X109085000Y-70714250D01*
X109085000Y-69673691D01*
X108988327Y-69440302D01*
X108809699Y-69261673D01*
X108576310Y-69165000D01*
X107535750Y-69165000D01*
X107377000Y-69323750D01*
X107123000Y-69323750D01*
X106964250Y-69165000D01*
X105923690Y-69165000D01*
X105690301Y-69261673D01*
X105511673Y-69440302D01*
X105415000Y-69673691D01*
X103210000Y-69673691D01*
X103210000Y-59179290D01*
X103223255Y-59184794D01*
X103694677Y-59185206D01*
X104130372Y-59005180D01*
X104464009Y-58672125D01*
X104483498Y-58625189D01*
X104489928Y-58657514D01*
X104844241Y-59187781D01*
X105374508Y-59542094D01*
X106000000Y-59666512D01*
X106625492Y-59542094D01*
X107155759Y-59187781D01*
X107510072Y-58657514D01*
X107634490Y-58032022D01*
X107634490Y-57967978D01*
X107552811Y-57557347D01*
X108952560Y-56157598D01*
X108952560Y-58900000D01*
X108996838Y-59135317D01*
X109135910Y-59351441D01*
X109348110Y-59496431D01*
X109600000Y-59547440D01*
X111600000Y-59547440D01*
X111835317Y-59503162D01*
X112051441Y-59364090D01*
X112196431Y-59151890D01*
X112247440Y-58900000D01*
X112247440Y-55253340D01*
X114549179Y-57555079D01*
X114549179Y-57555079D01*
G37*
X114549179Y-57555079D02*
X114803852Y-57725245D01*
X115104258Y-57785000D01*
X115259146Y-57785000D01*
X115296838Y-57985317D01*
X115403759Y-58151477D01*
X115303569Y-58298110D01*
X115253757Y-58544090D01*
X115099593Y-58574755D01*
X114844921Y-58744921D01*
X110494921Y-63094921D01*
X110356181Y-63302560D01*
X109300000Y-63302560D01*
X109064683Y-63346838D01*
X108848559Y-63485910D01*
X108703569Y-63698110D01*
X108652560Y-63950000D01*
X108652560Y-65550000D01*
X108696838Y-65785317D01*
X108835910Y-66001441D01*
X109048110Y-66146431D01*
X109300000Y-66197440D01*
X110265000Y-66197440D01*
X110265000Y-70374843D01*
X109085000Y-71554843D01*
X109085000Y-71285750D01*
X108926250Y-71127000D01*
X107377000Y-71127000D01*
X107377000Y-71147000D01*
X107123000Y-71147000D01*
X107123000Y-71127000D01*
X105573750Y-71127000D01*
X105415000Y-71285750D01*
X105415000Y-72326309D01*
X105511673Y-72559698D01*
X105690301Y-72738327D01*
X105923690Y-72835000D01*
X106474395Y-72835000D01*
X106211914Y-72943455D01*
X105695270Y-73459199D01*
X105415319Y-74133395D01*
X105414682Y-74863403D01*
X105693455Y-75538086D01*
X106209199Y-76054730D01*
X106883395Y-76334681D01*
X107613403Y-76335318D01*
X107869389Y-76229547D01*
X113744921Y-82105079D01*
X113999594Y-82275245D01*
X114052560Y-82285781D01*
X114052560Y-83300000D01*
X114096838Y-83535317D01*
X114235910Y-83751441D01*
X114448110Y-83896431D01*
X114700000Y-83947440D01*
X116300000Y-83947440D01*
X116535317Y-83903162D01*
X116751441Y-83764090D01*
X116896431Y-83551890D01*
X116947440Y-83300000D01*
X116947440Y-83007598D01*
X119698709Y-85758867D01*
X119603569Y-85898110D01*
X119552560Y-86150000D01*
X119552560Y-88150000D01*
X119596838Y-88385317D01*
X119735910Y-88601441D01*
X119948110Y-88746431D01*
X120200000Y-88797440D01*
X121700000Y-88797440D01*
X121935317Y-88753162D01*
X122101477Y-88646241D01*
X122248110Y-88746431D01*
X122500000Y-88797440D01*
X123537282Y-88797440D01*
X124297322Y-89557480D01*
X124551994Y-89727646D01*
X124852401Y-89787401D01*
X166247599Y-89787401D01*
X166548006Y-89727646D01*
X166790000Y-89565951D01*
X166790000Y-93680073D01*
X166736044Y-93951325D01*
X166622002Y-94122002D01*
X166451325Y-94236044D01*
X166180073Y-94290000D01*
X165469290Y-94290000D01*
X165474794Y-94276745D01*
X165475206Y-93805323D01*
X165295180Y-93369628D01*
X164962125Y-93035991D01*
X164915189Y-93016502D01*
X164947514Y-93010072D01*
X165477781Y-92655759D01*
X165832094Y-92125492D01*
X165956512Y-91500000D01*
X165832094Y-90874508D01*
X165477781Y-90344241D01*
X164947514Y-89989928D01*
X164322022Y-89865510D01*
X164257978Y-89865510D01*
X163632486Y-89989928D01*
X163312923Y-90203453D01*
X163213580Y-90049069D01*
X163001380Y-89904079D01*
X162749490Y-89853070D01*
X160750510Y-89853070D01*
X160515193Y-89897348D01*
X160299069Y-90036420D01*
X160154079Y-90248620D01*
X160103070Y-90500510D01*
X160103070Y-92499490D01*
X160147348Y-92734807D01*
X160286420Y-92950931D01*
X160498620Y-93095921D01*
X160750510Y-93146930D01*
X160967322Y-93146930D01*
X160745991Y-93367875D01*
X160565206Y-93803255D01*
X160564794Y-94274677D01*
X160571125Y-94290000D01*
X157469290Y-94290000D01*
X157474794Y-94276745D01*
X157475206Y-93805323D01*
X157295180Y-93369628D01*
X156962125Y-93035991D01*
X156915189Y-93016502D01*
X156947514Y-93010072D01*
X157477781Y-92655759D01*
X157832094Y-92125492D01*
X157956512Y-91500000D01*
X157832094Y-90874508D01*
X157477781Y-90344241D01*
X156947514Y-89989928D01*
X156322022Y-89865510D01*
X156257978Y-89865510D01*
X155632486Y-89989928D01*
X155312923Y-90203453D01*
X155213580Y-90049069D01*
X155001380Y-89904079D01*
X154749490Y-89853070D01*
X152750510Y-89853070D01*
X152515193Y-89897348D01*
X152299069Y-90036420D01*
X152154079Y-90248620D01*
X152103070Y-90500510D01*
X152103070Y-92499490D01*
X152147348Y-92734807D01*
X152286420Y-92950931D01*
X152498620Y-93095921D01*
X152750510Y-93146930D01*
X152967322Y-93146930D01*
X152745991Y-93367875D01*
X152565206Y-93803255D01*
X152564794Y-94274677D01*
X152571125Y-94290000D01*
X149469290Y-94290000D01*
X149474794Y-94276745D01*
X149475206Y-93805323D01*
X149295180Y-93369628D01*
X148962125Y-93035991D01*
X148915189Y-93016502D01*
X148947514Y-93010072D01*
X149477781Y-92655759D01*
X149832094Y-92125492D01*
X149956512Y-91500000D01*
X149832094Y-90874508D01*
X149477781Y-90344241D01*
X148947514Y-89989928D01*
X148322022Y-89865510D01*
X148257978Y-89865510D01*
X147632486Y-89989928D01*
X147312923Y-90203453D01*
X147213580Y-90049069D01*
X147001380Y-89904079D01*
X146749490Y-89853070D01*
X144750510Y-89853070D01*
X144515193Y-89897348D01*
X144299069Y-90036420D01*
X144154079Y-90248620D01*
X144103070Y-90500510D01*
X144103070Y-92499490D01*
X144147348Y-92734807D01*
X144286420Y-92950931D01*
X144498620Y-93095921D01*
X144750510Y-93146930D01*
X144967322Y-93146930D01*
X144745991Y-93367875D01*
X144565206Y-93803255D01*
X144564794Y-94274677D01*
X144571125Y-94290000D01*
X141469290Y-94290000D01*
X141474794Y-94276745D01*
X141475206Y-93805323D01*
X141295180Y-93369628D01*
X140962125Y-93035991D01*
X140915189Y-93016502D01*
X140947514Y-93010072D01*
X141477781Y-92655759D01*
X141832094Y-92125492D01*
X141956512Y-91500000D01*
X141832094Y-90874508D01*
X141477781Y-90344241D01*
X140947514Y-89989928D01*
X140322022Y-89865510D01*
X140257978Y-89865510D01*
X139632486Y-89989928D01*
X139312923Y-90203453D01*
X139213580Y-90049069D01*
X139001380Y-89904079D01*
X138749490Y-89853070D01*
X136750510Y-89853070D01*
X136515193Y-89897348D01*
X136299069Y-90036420D01*
X136154079Y-90248620D01*
X136103070Y-90500510D01*
X136103070Y-92499490D01*
X136147348Y-92734807D01*
X136286420Y-92950931D01*
X136498620Y-93095921D01*
X136750510Y-93146930D01*
X136967322Y-93146930D01*
X136745991Y-93367875D01*
X136565206Y-93803255D01*
X136564794Y-94274677D01*
X136571125Y-94290000D01*
X133469290Y-94290000D01*
X133474794Y-94276745D01*
X133475206Y-93805323D01*
X133295180Y-93369628D01*
X132962125Y-93035991D01*
X132915189Y-93016502D01*
X132947514Y-93010072D01*
X133477781Y-92655759D01*
X133832094Y-92125492D01*
X133956512Y-91500000D01*
X133832094Y-90874508D01*
X133477781Y-90344241D01*
X132947514Y-89989928D01*
X132322022Y-89865510D01*
X132257978Y-89865510D01*
X131632486Y-89989928D01*
X131312923Y-90203453D01*
X131213580Y-90049069D01*
X131001380Y-89904079D01*
X130749490Y-89853070D01*
X128750510Y-89853070D01*
X128515193Y-89897348D01*
X128299069Y-90036420D01*
X128154079Y-90248620D01*
X128103070Y-90500510D01*
X128103070Y-92499490D01*
X128147348Y-92734807D01*
X128286420Y-92950931D01*
X128498620Y-93095921D01*
X128750510Y-93146930D01*
X128967322Y-93146930D01*
X128745991Y-93367875D01*
X128565206Y-93803255D01*
X128564794Y-94274677D01*
X128571125Y-94290000D01*
X125469290Y-94290000D01*
X125474794Y-94276745D01*
X125475206Y-93805323D01*
X125295180Y-93369628D01*
X124962125Y-93035991D01*
X124915189Y-93016502D01*
X124947514Y-93010072D01*
X125477781Y-92655759D01*
X125832094Y-92125492D01*
X125956512Y-91500000D01*
X125832094Y-90874508D01*
X125477781Y-90344241D01*
X124947514Y-89989928D01*
X124322022Y-89865510D01*
X124257978Y-89865510D01*
X123632486Y-89989928D01*
X123312923Y-90203453D01*
X123213580Y-90049069D01*
X123001380Y-89904079D01*
X122749490Y-89853070D01*
X120750510Y-89853070D01*
X120515193Y-89897348D01*
X120299069Y-90036420D01*
X120154079Y-90248620D01*
X120103070Y-90500510D01*
X120103070Y-92499490D01*
X120147348Y-92734807D01*
X120286420Y-92950931D01*
X120498620Y-93095921D01*
X120750510Y-93146930D01*
X120967322Y-93146930D01*
X120745991Y-93367875D01*
X120565206Y-93803255D01*
X120564794Y-94274677D01*
X120571125Y-94290000D01*
X117469290Y-94290000D01*
X117474794Y-94276745D01*
X117475206Y-93805323D01*
X117295180Y-93369628D01*
X116962125Y-93035991D01*
X116915189Y-93016502D01*
X116947514Y-93010072D01*
X117477781Y-92655759D01*
X117832094Y-92125492D01*
X117956512Y-91500000D01*
X117832094Y-90874508D01*
X117477781Y-90344241D01*
X116947514Y-89989928D01*
X116322022Y-89865510D01*
X116257978Y-89865510D01*
X115632486Y-89989928D01*
X115312923Y-90203453D01*
X115213580Y-90049069D01*
X115001380Y-89904079D01*
X114749490Y-89853070D01*
X112750510Y-89853070D01*
X112515193Y-89897348D01*
X112299069Y-90036420D01*
X112154079Y-90248620D01*
X112103070Y-90500510D01*
X112103070Y-92499490D01*
X112147348Y-92734807D01*
X112286420Y-92950931D01*
X112498620Y-93095921D01*
X112750510Y-93146930D01*
X112967322Y-93146930D01*
X112745991Y-93367875D01*
X112565206Y-93803255D01*
X112564794Y-94274677D01*
X112571125Y-94290000D01*
X109469290Y-94290000D01*
X109474794Y-94276745D01*
X109475206Y-93805323D01*
X109295180Y-93369628D01*
X108962125Y-93035991D01*
X108915189Y-93016502D01*
X108947514Y-93010072D01*
X109477781Y-92655759D01*
X109832094Y-92125492D01*
X109956512Y-91500000D01*
X109832094Y-90874508D01*
X109477781Y-90344241D01*
X108947514Y-89989928D01*
X108322022Y-89865510D01*
X108257978Y-89865510D01*
X107632486Y-89989928D01*
X107312923Y-90203453D01*
X107213580Y-90049069D01*
X107001380Y-89904079D01*
X106749490Y-89853070D01*
X104750510Y-89853070D01*
X104515193Y-89897348D01*
X104299069Y-90036420D01*
X104154079Y-90248620D01*
X104103070Y-90500510D01*
X104103070Y-92499490D01*
X104147348Y-92734807D01*
X104286420Y-92950931D01*
X104498620Y-93095921D01*
X104750510Y-93146930D01*
X104967322Y-93146930D01*
X104745991Y-93367875D01*
X104565206Y-93803255D01*
X104564794Y-94274677D01*
X104571125Y-94290000D01*
X103819927Y-94290000D01*
X103548675Y-94236044D01*
X103377998Y-94122002D01*
X103263956Y-93951325D01*
X103210000Y-93680073D01*
X103210000Y-87235750D01*
X114065000Y-87235750D01*
X114065000Y-88826309D01*
X114161673Y-89059698D01*
X114340301Y-89238327D01*
X114573690Y-89335000D01*
X115214250Y-89335000D01*
X115373000Y-89176250D01*
X115373000Y-87077000D01*
X115627000Y-87077000D01*
X115627000Y-89176250D01*
X115785750Y-89335000D01*
X116426310Y-89335000D01*
X116659699Y-89238327D01*
X116838327Y-89059698D01*
X116935000Y-88826309D01*
X116935000Y-87235750D01*
X116776250Y-87077000D01*
X115627000Y-87077000D01*
X115373000Y-87077000D01*
X114223750Y-87077000D01*
X114065000Y-87235750D01*
X103210000Y-87235750D01*
X103210000Y-85073691D01*
X114065000Y-85073691D01*
X114065000Y-86664250D01*
X114223750Y-86823000D01*
X115373000Y-86823000D01*
X115373000Y-84723750D01*
X115627000Y-84723750D01*
X115627000Y-86823000D01*
X116776250Y-86823000D01*
X116935000Y-86664250D01*
X116935000Y-85073691D01*
X116838327Y-84840302D01*
X116659699Y-84661673D01*
X116426310Y-84565000D01*
X115785750Y-84565000D01*
X115627000Y-84723750D01*
X115373000Y-84723750D01*
X115214250Y-84565000D01*
X114573690Y-84565000D01*
X114340301Y-84661673D01*
X114161673Y-84840302D01*
X114065000Y-85073691D01*
X103210000Y-85073691D01*
X103210000Y-69673691D01*
X105415000Y-69673691D01*
X105415000Y-70714250D01*
X105573750Y-70873000D01*
X107123000Y-70873000D01*
X107123000Y-69323750D01*
X107377000Y-69323750D01*
X107377000Y-70873000D01*
X108926250Y-70873000D01*
X109085000Y-70714250D01*
X109085000Y-69673691D01*
X108988327Y-69440302D01*
X108809699Y-69261673D01*
X108576310Y-69165000D01*
X107535750Y-69165000D01*
X107377000Y-69323750D01*
X107123000Y-69323750D01*
X106964250Y-69165000D01*
X105923690Y-69165000D01*
X105690301Y-69261673D01*
X105511673Y-69440302D01*
X105415000Y-69673691D01*
X103210000Y-69673691D01*
X103210000Y-59179290D01*
X103223255Y-59184794D01*
X103694677Y-59185206D01*
X104130372Y-59005180D01*
X104464009Y-58672125D01*
X104483498Y-58625189D01*
X104489928Y-58657514D01*
X104844241Y-59187781D01*
X105374508Y-59542094D01*
X106000000Y-59666512D01*
X106625492Y-59542094D01*
X107155759Y-59187781D01*
X107510072Y-58657514D01*
X107634490Y-58032022D01*
X107634490Y-57967978D01*
X107552811Y-57557347D01*
X108952560Y-56157598D01*
X108952560Y-58900000D01*
X108996838Y-59135317D01*
X109135910Y-59351441D01*
X109348110Y-59496431D01*
X109600000Y-59547440D01*
X111600000Y-59547440D01*
X111835317Y-59503162D01*
X112051441Y-59364090D01*
X112196431Y-59151890D01*
X112247440Y-58900000D01*
X112247440Y-55253340D01*
X114549179Y-57555079D01*
G36*
X166790000Y-87605035D02*
X166572755Y-87604845D01*
X166243686Y-87740814D01*
X165991698Y-87992361D01*
X165898254Y-88217401D01*
X153113663Y-88217401D01*
X153225245Y-88050406D01*
X153285000Y-87750000D01*
X153285000Y-85693343D01*
X153394844Y-85428808D01*
X153395155Y-85072755D01*
X153259186Y-84743686D01*
X153007639Y-84491698D01*
X152678808Y-84355156D01*
X152322755Y-84354845D01*
X151993686Y-84490814D01*
X151741698Y-84742361D01*
X151605156Y-85071192D01*
X151604845Y-85427245D01*
X151715000Y-85693840D01*
X151715000Y-87424843D01*
X150922441Y-88217401D01*
X137115268Y-88217401D01*
X137225245Y-88052808D01*
X137285000Y-87752401D01*
X137285000Y-85443343D01*
X137394844Y-85178808D01*
X137395155Y-84822755D01*
X137259186Y-84493686D01*
X137007639Y-84241698D01*
X136678808Y-84105156D01*
X136322755Y-84104845D01*
X136108954Y-84193186D01*
X136138846Y-84121199D01*
X136139154Y-83767533D01*
X136004097Y-83440670D01*
X135972500Y-83409018D01*
X135972500Y-81926057D01*
X138110846Y-81926057D01*
X138245903Y-82252920D01*
X138277500Y-82284572D01*
X138277500Y-83215100D01*
X138246782Y-83245764D01*
X138111154Y-83572391D01*
X138110846Y-83926057D01*
X138245903Y-84252920D01*
X138495764Y-84503218D01*
X138822391Y-84638846D01*
X139176057Y-84639154D01*
X139502920Y-84504097D01*
X139753218Y-84254236D01*
X139888846Y-83927609D01*
X139889154Y-83573943D01*
X139754097Y-83247080D01*
X139722500Y-83215428D01*
X139722500Y-82284900D01*
X139753218Y-82254236D01*
X139888846Y-81927609D01*
X139889154Y-81573943D01*
X139754097Y-81247080D01*
X139504236Y-80996782D01*
X139177609Y-80861154D01*
X138823943Y-80860846D01*
X138497080Y-80995903D01*
X138246782Y-81245764D01*
X138111154Y-81572391D01*
X138110846Y-81926057D01*
X135972500Y-81926057D01*
X135972500Y-80750000D01*
X135917503Y-80473511D01*
X135760885Y-80239115D01*
X134139116Y-78617346D01*
X134139154Y-78573943D01*
X134004097Y-78247080D01*
X133754236Y-77996782D01*
X133427609Y-77861154D01*
X133073943Y-77860846D01*
X132747080Y-77995903D01*
X132496782Y-78245764D01*
X132361154Y-78572391D01*
X132360846Y-78926057D01*
X132495903Y-79252920D01*
X132745764Y-79503218D01*
X133072391Y-79638846D01*
X133117115Y-79638885D01*
X134527500Y-81049270D01*
X134527500Y-83408690D01*
X134496782Y-83439354D01*
X134361154Y-83765981D01*
X134360846Y-84119647D01*
X134495903Y-84446510D01*
X134745764Y-84696808D01*
X135072391Y-84832436D01*
X135426057Y-84832744D01*
X135636458Y-84745808D01*
X135605156Y-84821192D01*
X135604845Y-85177245D01*
X135715000Y-85443840D01*
X135715000Y-87427243D01*
X134924842Y-88217401D01*
X132435000Y-88217401D01*
X132435000Y-87235750D01*
X132276250Y-87077000D01*
X131127000Y-87077000D01*
X131127000Y-87097000D01*
X130873000Y-87097000D01*
X130873000Y-87077000D01*
X129723750Y-87077000D01*
X129565000Y-87235750D01*
X129565000Y-88217401D01*
X126935000Y-88217401D01*
X126935000Y-87435750D01*
X126776250Y-87277000D01*
X125677000Y-87277000D01*
X125677000Y-87297000D01*
X125423000Y-87297000D01*
X125423000Y-87277000D01*
X125403000Y-87277000D01*
X125403000Y-87023000D01*
X125423000Y-87023000D01*
X125423000Y-85673750D01*
X125677000Y-85673750D01*
X125677000Y-87023000D01*
X126776250Y-87023000D01*
X126935000Y-86864250D01*
X126935000Y-86023691D01*
X126838327Y-85790302D01*
X126659699Y-85611673D01*
X126426310Y-85515000D01*
X125835750Y-85515000D01*
X125677000Y-85673750D01*
X125423000Y-85673750D01*
X125264250Y-85515000D01*
X124695158Y-85515000D01*
X125136467Y-85073691D01*
X129565000Y-85073691D01*
X129565000Y-86664250D01*
X129723750Y-86823000D01*
X130873000Y-86823000D01*
X130873000Y-84723750D01*
X131127000Y-84723750D01*
X131127000Y-86823000D01*
X132276250Y-86823000D01*
X132435000Y-86664250D01*
X132435000Y-85073691D01*
X132338327Y-84840302D01*
X132159699Y-84661673D01*
X131926310Y-84565000D01*
X131285750Y-84565000D01*
X131127000Y-84723750D01*
X130873000Y-84723750D01*
X130714250Y-84565000D01*
X130073690Y-84565000D01*
X129840301Y-84661673D01*
X129661673Y-84840302D01*
X129565000Y-85073691D01*
X125136467Y-85073691D01*
X127875158Y-82335000D01*
X129552560Y-82335000D01*
X129552560Y-83300000D01*
X129596838Y-83535317D01*
X129735910Y-83751441D01*
X129948110Y-83896431D01*
X130200000Y-83947440D01*
X131800000Y-83947440D01*
X132035317Y-83903162D01*
X132251441Y-83764090D01*
X132396431Y-83551890D01*
X132447440Y-83300000D01*
X132447440Y-79800000D01*
X132403162Y-79564683D01*
X132264090Y-79348559D01*
X132051890Y-79203569D01*
X131800000Y-79152560D01*
X131785000Y-79152560D01*
X131785000Y-65735158D01*
X133682521Y-63837637D01*
X133970907Y-63895000D01*
X134029093Y-63895000D01*
X134597378Y-63781961D01*
X135079147Y-63460054D01*
X135401054Y-62978285D01*
X135514093Y-62410000D01*
X135401054Y-61841715D01*
X135079147Y-61359946D01*
X134738447Y-61132298D01*
X134881358Y-61065183D01*
X135271645Y-60636924D01*
X135441476Y-60226890D01*
X135320155Y-59997000D01*
X134127000Y-59997000D01*
X134127000Y-60017000D01*
X133873000Y-60017000D01*
X133873000Y-59997000D01*
X132679845Y-59997000D01*
X132558524Y-60226890D01*
X132728355Y-60636924D01*
X133118642Y-61065183D01*
X133261553Y-61132298D01*
X132920853Y-61359946D01*
X132598946Y-61841715D01*
X132485907Y-62410000D01*
X132552924Y-62746918D01*
X130444921Y-64854921D01*
X130274755Y-65109593D01*
X130274755Y-65109594D01*
X130215000Y-65410000D01*
X130215000Y-78704842D01*
X125785000Y-74274842D01*
X125785000Y-57693343D01*
X125894844Y-57428808D01*
X125895155Y-57072755D01*
X125759186Y-56743686D01*
X125507639Y-56491698D01*
X125178808Y-56355156D01*
X124822755Y-56354845D01*
X124493686Y-56490814D01*
X124241698Y-56742361D01*
X124105156Y-57071192D01*
X124104845Y-57427245D01*
X124215000Y-57693840D01*
X124215000Y-74600000D01*
X124274755Y-74900407D01*
X124444921Y-75155079D01*
X129552560Y-80262718D01*
X129552560Y-80765000D01*
X127550000Y-80765000D01*
X127249593Y-80824755D01*
X126994921Y-80994921D01*
X122925000Y-85064842D01*
X122368568Y-84508410D01*
X122259186Y-84243686D01*
X122007639Y-83991698D01*
X121678808Y-83855156D01*
X121322755Y-83854845D01*
X120993686Y-83990814D01*
X120741698Y-84242361D01*
X120642182Y-84482024D01*
X117155079Y-80994921D01*
X116947440Y-80856181D01*
X116947440Y-79850000D01*
X120702560Y-79850000D01*
X120702560Y-81850000D01*
X120746838Y-82085317D01*
X120885910Y-82301441D01*
X121098110Y-82446431D01*
X121350000Y-82497440D01*
X125150000Y-82497440D01*
X125385317Y-82453162D01*
X125601441Y-82314090D01*
X125746431Y-82101890D01*
X125797440Y-81850000D01*
X125797440Y-79850000D01*
X125753162Y-79614683D01*
X125614090Y-79398559D01*
X125401890Y-79253569D01*
X125150000Y-79202560D01*
X121350000Y-79202560D01*
X121114683Y-79246838D01*
X120898559Y-79385910D01*
X120753569Y-79598110D01*
X120702560Y-79850000D01*
X116947440Y-79850000D01*
X116947440Y-79800000D01*
X116903162Y-79564683D01*
X116764090Y-79348559D01*
X116551890Y-79203569D01*
X116300000Y-79152560D01*
X114700000Y-79152560D01*
X114464683Y-79196838D01*
X114248559Y-79335910D01*
X114103569Y-79548110D01*
X114052560Y-79800000D01*
X114052560Y-80192402D01*
X108979666Y-75119508D01*
X109084681Y-74866605D01*
X109085318Y-74136597D01*
X108979547Y-73880611D01*
X111605076Y-71255081D01*
X111605079Y-71255079D01*
X111775245Y-71000406D01*
X111800588Y-70873000D01*
X111835001Y-70700000D01*
X111835000Y-70699995D01*
X111835000Y-66560000D01*
X119485907Y-66560000D01*
X119598946Y-67128285D01*
X119920853Y-67610054D01*
X120250026Y-67830000D01*
X119920853Y-68049946D01*
X119598946Y-68531715D01*
X119485907Y-69100000D01*
X119598946Y-69668285D01*
X119920853Y-70150054D01*
X120250026Y-70370000D01*
X119920853Y-70589946D01*
X119598946Y-71071715D01*
X119485907Y-71640000D01*
X119598946Y-72208285D01*
X119920853Y-72690054D01*
X120250026Y-72910000D01*
X119920853Y-73129946D01*
X119598946Y-73611715D01*
X119485907Y-74180000D01*
X119598946Y-74748285D01*
X119920853Y-75230054D01*
X120250026Y-75450000D01*
X119920853Y-75669946D01*
X119598946Y-76151715D01*
X119485907Y-76720000D01*
X119598946Y-77288285D01*
X119920853Y-77770054D01*
X120402622Y-78091961D01*
X120970907Y-78205000D01*
X121029093Y-78205000D01*
X121597378Y-78091961D01*
X122079147Y-77770054D01*
X122401054Y-77288285D01*
X122514093Y-76720000D01*
X122401054Y-76151715D01*
X122079147Y-75669946D01*
X121749974Y-75450000D01*
X122079147Y-75230054D01*
X122401054Y-74748285D01*
X122514093Y-74180000D01*
X122401054Y-73611715D01*
X122079147Y-73129946D01*
X121749974Y-72910000D01*
X122079147Y-72690054D01*
X122401054Y-72208285D01*
X122514093Y-71640000D01*
X122401054Y-71071715D01*
X122079147Y-70589946D01*
X121749974Y-70370000D01*
X122079147Y-70150054D01*
X122401054Y-69668285D01*
X122514093Y-69100000D01*
X122401054Y-68531715D01*
X122079147Y-68049946D01*
X121749974Y-67830000D01*
X122079147Y-67610054D01*
X122401054Y-67128285D01*
X122514093Y-66560000D01*
X122401054Y-65991715D01*
X122079147Y-65509946D01*
X121738447Y-65282298D01*
X121881358Y-65215183D01*
X122271645Y-64786924D01*
X122441476Y-64376890D01*
X122320155Y-64147000D01*
X121127000Y-64147000D01*
X121127000Y-64167000D01*
X120873000Y-64167000D01*
X120873000Y-64147000D01*
X119679845Y-64147000D01*
X119558524Y-64376890D01*
X119728355Y-64786924D01*
X120118642Y-65215183D01*
X120261553Y-65282298D01*
X119920853Y-65509946D01*
X119598946Y-65991715D01*
X119485907Y-66560000D01*
X111835000Y-66560000D01*
X111835000Y-66197440D01*
X112800000Y-66197440D01*
X113035317Y-66153162D01*
X113251441Y-66014090D01*
X113396431Y-65801890D01*
X113447440Y-65550000D01*
X113447440Y-65035750D01*
X114065000Y-65035750D01*
X114065000Y-65676310D01*
X114161673Y-65909699D01*
X114340302Y-66088327D01*
X114573691Y-66185000D01*
X116164250Y-66185000D01*
X116323000Y-66026250D01*
X116323000Y-64877000D01*
X116577000Y-64877000D01*
X116577000Y-66026250D01*
X116735750Y-66185000D01*
X118326309Y-66185000D01*
X118559698Y-66088327D01*
X118738327Y-65909699D01*
X118835000Y-65676310D01*
X118835000Y-65035750D01*
X118676250Y-64877000D01*
X116577000Y-64877000D01*
X116323000Y-64877000D01*
X114223750Y-64877000D01*
X114065000Y-65035750D01*
X113447440Y-65035750D01*
X113447440Y-63950000D01*
X113423674Y-63823690D01*
X114065000Y-63823690D01*
X114065000Y-64464250D01*
X114223750Y-64623000D01*
X116323000Y-64623000D01*
X116323000Y-63473750D01*
X116577000Y-63473750D01*
X116577000Y-64623000D01*
X118676250Y-64623000D01*
X118835000Y-64464250D01*
X118835000Y-63823690D01*
X118738327Y-63590301D01*
X118559698Y-63411673D01*
X118326309Y-63315000D01*
X116735750Y-63315000D01*
X116577000Y-63473750D01*
X116323000Y-63473750D01*
X116164250Y-63315000D01*
X114573691Y-63315000D01*
X114340302Y-63411673D01*
X114161673Y-63590301D01*
X114065000Y-63823690D01*
X113423674Y-63823690D01*
X113403162Y-63714683D01*
X113264090Y-63498559D01*
X113051890Y-63353569D01*
X112800000Y-63302560D01*
X112507598Y-63302560D01*
X115386109Y-60424049D01*
X115435910Y-60501441D01*
X115648110Y-60646431D01*
X115900000Y-60697440D01*
X117900000Y-60697440D01*
X118135317Y-60653162D01*
X118351441Y-60514090D01*
X118496431Y-60301890D01*
X118547440Y-60050000D01*
X118547440Y-58550000D01*
X118503162Y-58314683D01*
X118396241Y-58148523D01*
X118496431Y-58001890D01*
X118547440Y-57750000D01*
X118547440Y-56250000D01*
X118503162Y-56014683D01*
X118397518Y-55850508D01*
X118438327Y-55809699D01*
X118535000Y-55576310D01*
X118535000Y-54985750D01*
X118376250Y-54827000D01*
X117027000Y-54827000D01*
X117027000Y-54847000D01*
X116773000Y-54847000D01*
X116773000Y-54827000D01*
X115423750Y-54827000D01*
X115265000Y-54985750D01*
X115265000Y-55576310D01*
X115361673Y-55809699D01*
X115403634Y-55851660D01*
X115303569Y-55998110D01*
X115288237Y-56073821D01*
X113038106Y-53823690D01*
X115265000Y-53823690D01*
X115265000Y-54414250D01*
X115423750Y-54573000D01*
X116773000Y-54573000D01*
X116773000Y-53473750D01*
X117027000Y-53473750D01*
X117027000Y-54573000D01*
X118376250Y-54573000D01*
X118535000Y-54414250D01*
X118535000Y-53823690D01*
X118438327Y-53590301D01*
X118259698Y-53411673D01*
X118026309Y-53315000D01*
X117185750Y-53315000D01*
X117027000Y-53473750D01*
X116773000Y-53473750D01*
X116614250Y-53315000D01*
X115773691Y-53315000D01*
X115540302Y-53411673D01*
X115361673Y-53590301D01*
X115265000Y-53823690D01*
X113038106Y-53823690D01*
X111835000Y-52620584D01*
X111835000Y-50697440D01*
X112800000Y-50697440D01*
X113035317Y-50653162D01*
X113251441Y-50514090D01*
X113396431Y-50301890D01*
X113447440Y-50050000D01*
X113447440Y-49535750D01*
X114065000Y-49535750D01*
X114065000Y-50176310D01*
X114161673Y-50409699D01*
X114340302Y-50588327D01*
X114573691Y-50685000D01*
X116164250Y-50685000D01*
X116323000Y-50526250D01*
X116323000Y-49377000D01*
X116577000Y-49377000D01*
X116577000Y-50526250D01*
X116735750Y-50685000D01*
X118326309Y-50685000D01*
X118559698Y-50588327D01*
X118738327Y-50409699D01*
X118835000Y-50176310D01*
X118835000Y-49535750D01*
X118676250Y-49377000D01*
X116577000Y-49377000D01*
X116323000Y-49377000D01*
X114223750Y-49377000D01*
X114065000Y-49535750D01*
X113447440Y-49535750D01*
X113447440Y-48912718D01*
X114085175Y-48274983D01*
X114065000Y-48323690D01*
X114065000Y-48964250D01*
X114223750Y-49123000D01*
X116323000Y-49123000D01*
X116323000Y-47973750D01*
X116577000Y-47973750D01*
X116577000Y-49123000D01*
X118676250Y-49123000D01*
X118835000Y-48964250D01*
X118835000Y-48323690D01*
X118738327Y-48090301D01*
X118559698Y-47911673D01*
X118326309Y-47815000D01*
X116735750Y-47815000D01*
X116577000Y-47973750D01*
X116323000Y-47973750D01*
X116164250Y-47815000D01*
X114573691Y-47815000D01*
X114524982Y-47835176D01*
X119158483Y-43201675D01*
X119585030Y-43201675D01*
X119485907Y-43700000D01*
X119598946Y-44268285D01*
X119920853Y-44750054D01*
X120250026Y-44970000D01*
X119920853Y-45189946D01*
X119598946Y-45671715D01*
X119485907Y-46240000D01*
X119598946Y-46808285D01*
X119920853Y-47290054D01*
X120250026Y-47510000D01*
X119920853Y-47729946D01*
X119598946Y-48211715D01*
X119485907Y-48780000D01*
X119598946Y-49348285D01*
X119920853Y-49830054D01*
X120250026Y-50050000D01*
X119920853Y-50269946D01*
X119598946Y-50751715D01*
X119485907Y-51320000D01*
X119598946Y-51888285D01*
X119920853Y-52370054D01*
X120250026Y-52590000D01*
X119920853Y-52809946D01*
X119598946Y-53291715D01*
X119485907Y-53860000D01*
X119598946Y-54428285D01*
X119920853Y-54910054D01*
X120250026Y-55130000D01*
X119920853Y-55349946D01*
X119598946Y-55831715D01*
X119485907Y-56400000D01*
X119598946Y-56968285D01*
X119920853Y-57450054D01*
X120250026Y-57670000D01*
X119920853Y-57889946D01*
X119598946Y-58371715D01*
X119485907Y-58940000D01*
X119598946Y-59508285D01*
X119920853Y-59990054D01*
X120250026Y-60210000D01*
X119920853Y-60429946D01*
X119598946Y-60911715D01*
X119485907Y-61480000D01*
X119598946Y-62048285D01*
X119920853Y-62530054D01*
X120261553Y-62757702D01*
X120118642Y-62824817D01*
X119728355Y-63253076D01*
X119558524Y-63663110D01*
X119679845Y-63893000D01*
X120873000Y-63893000D01*
X120873000Y-63873000D01*
X121127000Y-63873000D01*
X121127000Y-63893000D01*
X122320155Y-63893000D01*
X122441476Y-63663110D01*
X122271645Y-63253076D01*
X121881358Y-62824817D01*
X121738447Y-62757702D01*
X122079147Y-62530054D01*
X122401054Y-62048285D01*
X122514093Y-61480000D01*
X122401054Y-60911715D01*
X122079147Y-60429946D01*
X121749974Y-60210000D01*
X122079147Y-59990054D01*
X122401054Y-59508285D01*
X122514093Y-58940000D01*
X122401054Y-58371715D01*
X122079147Y-57889946D01*
X121749974Y-57670000D01*
X122079147Y-57450054D01*
X122401054Y-56968285D01*
X122514093Y-56400000D01*
X122401054Y-55831715D01*
X122079147Y-55349946D01*
X121749974Y-55130000D01*
X122079147Y-54910054D01*
X122401054Y-54428285D01*
X122514093Y-53860000D01*
X122401054Y-53291715D01*
X122079147Y-52809946D01*
X121749974Y-52590000D01*
X122079147Y-52370054D01*
X122401054Y-51888285D01*
X122514093Y-51320000D01*
X122401054Y-50751715D01*
X122079147Y-50269946D01*
X121749974Y-50050000D01*
X122079147Y-49830054D01*
X122401054Y-49348285D01*
X122514093Y-48780000D01*
X122401054Y-48211715D01*
X122079147Y-47729946D01*
X121749974Y-47510000D01*
X122079147Y-47290054D01*
X122401054Y-46808285D01*
X122514093Y-46240000D01*
X122401054Y-45671715D01*
X122079147Y-45189946D01*
X121749974Y-44970000D01*
X122079147Y-44750054D01*
X122401054Y-44268285D01*
X122514093Y-43700000D01*
X122414970Y-43201675D01*
X132876085Y-43201675D01*
X132698559Y-43315910D01*
X132553569Y-43528110D01*
X132502560Y-43780000D01*
X132502560Y-45480000D01*
X132546838Y-45715317D01*
X132685910Y-45931441D01*
X132898110Y-46076431D01*
X132965541Y-46090086D01*
X132920853Y-46119946D01*
X132598946Y-46601715D01*
X132485907Y-47170000D01*
X132598946Y-47738285D01*
X132920853Y-48220054D01*
X133250026Y-48440000D01*
X132920853Y-48659946D01*
X132598946Y-49141715D01*
X132485907Y-49710000D01*
X132598946Y-50278285D01*
X132920853Y-50760054D01*
X133250026Y-50980000D01*
X132920853Y-51199946D01*
X132598946Y-51681715D01*
X132485907Y-52250000D01*
X132598946Y-52818285D01*
X132920853Y-53300054D01*
X133250026Y-53520000D01*
X132920853Y-53739946D01*
X132598946Y-54221715D01*
X132485907Y-54790000D01*
X132598946Y-55358285D01*
X132920853Y-55840054D01*
X133250026Y-56060000D01*
X132920853Y-56279946D01*
X132598946Y-56761715D01*
X132485907Y-57330000D01*
X132598946Y-57898285D01*
X132920853Y-58380054D01*
X133261553Y-58607702D01*
X133118642Y-58674817D01*
X132728355Y-59103076D01*
X132558524Y-59513110D01*
X132679845Y-59743000D01*
X133873000Y-59743000D01*
X133873000Y-59723000D01*
X134127000Y-59723000D01*
X134127000Y-59743000D01*
X135320155Y-59743000D01*
X135441476Y-59513110D01*
X135271645Y-59103076D01*
X134881358Y-58674817D01*
X134738447Y-58607702D01*
X135079147Y-58380054D01*
X135401054Y-57898285D01*
X135514093Y-57330000D01*
X135401054Y-56761715D01*
X135079147Y-56279946D01*
X134749974Y-56060000D01*
X135079147Y-55840054D01*
X135401054Y-55358285D01*
X135514093Y-54790000D01*
X135401054Y-54221715D01*
X135079147Y-53739946D01*
X134749974Y-53520000D01*
X135079147Y-53300054D01*
X135298011Y-52972500D01*
X145212238Y-52972500D01*
X144998946Y-53291715D01*
X144885907Y-53860000D01*
X144998946Y-54428285D01*
X145320853Y-54910054D01*
X145650026Y-55130000D01*
X145320853Y-55349946D01*
X144998946Y-55831715D01*
X144885907Y-56400000D01*
X144998946Y-56968285D01*
X145320853Y-57450054D01*
X145650026Y-57670000D01*
X145320853Y-57889946D01*
X144998946Y-58371715D01*
X144885907Y-58940000D01*
X144998946Y-59508285D01*
X145320853Y-59990054D01*
X145650026Y-60210000D01*
X145320853Y-60429946D01*
X144998946Y-60911715D01*
X144885907Y-61480000D01*
X144998946Y-62048285D01*
X145320853Y-62530054D01*
X145650026Y-62750000D01*
X145320853Y-62969946D01*
X144998946Y-63451715D01*
X144885907Y-64020000D01*
X144998946Y-64588285D01*
X145320853Y-65070054D01*
X145650026Y-65290000D01*
X145320853Y-65509946D01*
X144998946Y-65991715D01*
X144885907Y-66560000D01*
X144998946Y-67128285D01*
X145320853Y-67610054D01*
X145650026Y-67830000D01*
X145320853Y-68049946D01*
X144998946Y-68531715D01*
X144885907Y-69100000D01*
X144998946Y-69668285D01*
X145320853Y-70150054D01*
X145650026Y-70370000D01*
X145320853Y-70589946D01*
X144998946Y-71071715D01*
X144885907Y-71640000D01*
X144998946Y-72208285D01*
X145320853Y-72690054D01*
X145650026Y-72910000D01*
X145320853Y-73129946D01*
X144998946Y-73611715D01*
X144885907Y-74180000D01*
X144998946Y-74748285D01*
X145320853Y-75230054D01*
X145650026Y-75450000D01*
X145320853Y-75669946D01*
X144998946Y-76151715D01*
X144885907Y-76720000D01*
X144998946Y-77288285D01*
X145320853Y-77770054D01*
X145802622Y-78091961D01*
X146370907Y-78205000D01*
X146429093Y-78205000D01*
X146997378Y-78091961D01*
X147479147Y-77770054D01*
X147801054Y-77288285D01*
X147914093Y-76720000D01*
X147801054Y-76151715D01*
X147479147Y-75669946D01*
X147149974Y-75450000D01*
X147479147Y-75230054D01*
X147801054Y-74748285D01*
X147914093Y-74180000D01*
X147801054Y-73611715D01*
X147479147Y-73129946D01*
X147149974Y-72910000D01*
X147479147Y-72690054D01*
X147801054Y-72208285D01*
X147914093Y-71640000D01*
X147801054Y-71071715D01*
X147479147Y-70589946D01*
X147149974Y-70370000D01*
X147479147Y-70150054D01*
X147801054Y-69668285D01*
X147914093Y-69100000D01*
X147801054Y-68531715D01*
X147479147Y-68049946D01*
X147149974Y-67830000D01*
X147479147Y-67610054D01*
X147801054Y-67128285D01*
X147914093Y-66560000D01*
X147801054Y-65991715D01*
X147479147Y-65509946D01*
X147149974Y-65290000D01*
X147479147Y-65070054D01*
X147801054Y-64588285D01*
X147914093Y-64020000D01*
X147801054Y-63451715D01*
X147479147Y-62969946D01*
X147149974Y-62750000D01*
X147479147Y-62530054D01*
X147801054Y-62048285D01*
X147914093Y-61480000D01*
X147801054Y-60911715D01*
X147479147Y-60429946D01*
X147149974Y-60210000D01*
X147479147Y-59990054D01*
X147801054Y-59508285D01*
X147914093Y-58940000D01*
X147801054Y-58371715D01*
X147479147Y-57889946D01*
X147149974Y-57670000D01*
X147479147Y-57450054D01*
X147801054Y-56968285D01*
X147914093Y-56400000D01*
X147832411Y-55989359D01*
X148606805Y-55214965D01*
X148763423Y-54980569D01*
X148818421Y-54704080D01*
X148818420Y-54704075D01*
X148818420Y-48411335D01*
X148818421Y-48411330D01*
X148763423Y-48134842D01*
X148763423Y-48134841D01*
X148606805Y-47900445D01*
X148606802Y-47900443D01*
X147746071Y-47039711D01*
X147677141Y-46993654D01*
X147841476Y-46596890D01*
X147720155Y-46367000D01*
X146527000Y-46367000D01*
X146527000Y-46387000D01*
X146273000Y-46387000D01*
X146273000Y-46367000D01*
X145079845Y-46367000D01*
X144958524Y-46596890D01*
X145054287Y-46828096D01*
X138244865Y-46828096D01*
X135535885Y-44119115D01*
X135497440Y-44093427D01*
X135497440Y-43780000D01*
X135453162Y-43544683D01*
X135314090Y-43328559D01*
X135128389Y-43201675D01*
X144985030Y-43201675D01*
X144885907Y-43700000D01*
X144998946Y-44268285D01*
X145320853Y-44750054D01*
X145661553Y-44977702D01*
X145518642Y-45044817D01*
X145128355Y-45473076D01*
X144958524Y-45883110D01*
X145079845Y-46113000D01*
X146273000Y-46113000D01*
X146273000Y-46093000D01*
X146527000Y-46093000D01*
X146527000Y-46113000D01*
X147720155Y-46113000D01*
X147841476Y-45883110D01*
X147671645Y-45473076D01*
X147281358Y-45044817D01*
X147138447Y-44977702D01*
X147479147Y-44750054D01*
X147801054Y-44268285D01*
X147914093Y-43700000D01*
X147814970Y-43201675D01*
X156405411Y-43201675D01*
X156705818Y-43141920D01*
X156960490Y-42971754D01*
X165885079Y-34047165D01*
X166055245Y-33792492D01*
X166115000Y-33492086D01*
X166115000Y-32646930D01*
X166329490Y-32646930D01*
X166564807Y-32602652D01*
X166780931Y-32463580D01*
X166790000Y-32450307D01*
X166790000Y-87605035D01*
X166790000Y-87605035D01*
G37*
X166790000Y-87605035D02*
X166572755Y-87604845D01*
X166243686Y-87740814D01*
X165991698Y-87992361D01*
X165898254Y-88217401D01*
X153113663Y-88217401D01*
X153225245Y-88050406D01*
X153285000Y-87750000D01*
X153285000Y-85693343D01*
X153394844Y-85428808D01*
X153395155Y-85072755D01*
X153259186Y-84743686D01*
X153007639Y-84491698D01*
X152678808Y-84355156D01*
X152322755Y-84354845D01*
X151993686Y-84490814D01*
X151741698Y-84742361D01*
X151605156Y-85071192D01*
X151604845Y-85427245D01*
X151715000Y-85693840D01*
X151715000Y-87424843D01*
X150922441Y-88217401D01*
X137115268Y-88217401D01*
X137225245Y-88052808D01*
X137285000Y-87752401D01*
X137285000Y-85443343D01*
X137394844Y-85178808D01*
X137395155Y-84822755D01*
X137259186Y-84493686D01*
X137007639Y-84241698D01*
X136678808Y-84105156D01*
X136322755Y-84104845D01*
X136108954Y-84193186D01*
X136138846Y-84121199D01*
X136139154Y-83767533D01*
X136004097Y-83440670D01*
X135972500Y-83409018D01*
X135972500Y-81926057D01*
X138110846Y-81926057D01*
X138245903Y-82252920D01*
X138277500Y-82284572D01*
X138277500Y-83215100D01*
X138246782Y-83245764D01*
X138111154Y-83572391D01*
X138110846Y-83926057D01*
X138245903Y-84252920D01*
X138495764Y-84503218D01*
X138822391Y-84638846D01*
X139176057Y-84639154D01*
X139502920Y-84504097D01*
X139753218Y-84254236D01*
X139888846Y-83927609D01*
X139889154Y-83573943D01*
X139754097Y-83247080D01*
X139722500Y-83215428D01*
X139722500Y-82284900D01*
X139753218Y-82254236D01*
X139888846Y-81927609D01*
X139889154Y-81573943D01*
X139754097Y-81247080D01*
X139504236Y-80996782D01*
X139177609Y-80861154D01*
X138823943Y-80860846D01*
X138497080Y-80995903D01*
X138246782Y-81245764D01*
X138111154Y-81572391D01*
X138110846Y-81926057D01*
X135972500Y-81926057D01*
X135972500Y-80750000D01*
X135917503Y-80473511D01*
X135760885Y-80239115D01*
X134139116Y-78617346D01*
X134139154Y-78573943D01*
X134004097Y-78247080D01*
X133754236Y-77996782D01*
X133427609Y-77861154D01*
X133073943Y-77860846D01*
X132747080Y-77995903D01*
X132496782Y-78245764D01*
X132361154Y-78572391D01*
X132360846Y-78926057D01*
X132495903Y-79252920D01*
X132745764Y-79503218D01*
X133072391Y-79638846D01*
X133117115Y-79638885D01*
X134527500Y-81049270D01*
X134527500Y-83408690D01*
X134496782Y-83439354D01*
X134361154Y-83765981D01*
X134360846Y-84119647D01*
X134495903Y-84446510D01*
X134745764Y-84696808D01*
X135072391Y-84832436D01*
X135426057Y-84832744D01*
X135636458Y-84745808D01*
X135605156Y-84821192D01*
X135604845Y-85177245D01*
X135715000Y-85443840D01*
X135715000Y-87427243D01*
X134924842Y-88217401D01*
X132435000Y-88217401D01*
X132435000Y-87235750D01*
X132276250Y-87077000D01*
X131127000Y-87077000D01*
X131127000Y-87097000D01*
X130873000Y-87097000D01*
X130873000Y-87077000D01*
X129723750Y-87077000D01*
X129565000Y-87235750D01*
X129565000Y-88217401D01*
X126935000Y-88217401D01*
X126935000Y-87435750D01*
X126776250Y-87277000D01*
X125677000Y-87277000D01*
X125677000Y-87297000D01*
X125423000Y-87297000D01*
X125423000Y-87277000D01*
X125403000Y-87277000D01*
X125403000Y-87023000D01*
X125423000Y-87023000D01*
X125423000Y-85673750D01*
X125677000Y-85673750D01*
X125677000Y-87023000D01*
X126776250Y-87023000D01*
X126935000Y-86864250D01*
X126935000Y-86023691D01*
X126838327Y-85790302D01*
X126659699Y-85611673D01*
X126426310Y-85515000D01*
X125835750Y-85515000D01*
X125677000Y-85673750D01*
X125423000Y-85673750D01*
X125264250Y-85515000D01*
X124695158Y-85515000D01*
X125136467Y-85073691D01*
X129565000Y-85073691D01*
X129565000Y-86664250D01*
X129723750Y-86823000D01*
X130873000Y-86823000D01*
X130873000Y-84723750D01*
X131127000Y-84723750D01*
X131127000Y-86823000D01*
X132276250Y-86823000D01*
X132435000Y-86664250D01*
X132435000Y-85073691D01*
X132338327Y-84840302D01*
X132159699Y-84661673D01*
X131926310Y-84565000D01*
X131285750Y-84565000D01*
X131127000Y-84723750D01*
X130873000Y-84723750D01*
X130714250Y-84565000D01*
X130073690Y-84565000D01*
X129840301Y-84661673D01*
X129661673Y-84840302D01*
X129565000Y-85073691D01*
X125136467Y-85073691D01*
X127875158Y-82335000D01*
X129552560Y-82335000D01*
X129552560Y-83300000D01*
X129596838Y-83535317D01*
X129735910Y-83751441D01*
X129948110Y-83896431D01*
X130200000Y-83947440D01*
X131800000Y-83947440D01*
X132035317Y-83903162D01*
X132251441Y-83764090D01*
X132396431Y-83551890D01*
X132447440Y-83300000D01*
X132447440Y-79800000D01*
X132403162Y-79564683D01*
X132264090Y-79348559D01*
X132051890Y-79203569D01*
X131800000Y-79152560D01*
X131785000Y-79152560D01*
X131785000Y-65735158D01*
X133682521Y-63837637D01*
X133970907Y-63895000D01*
X134029093Y-63895000D01*
X134597378Y-63781961D01*
X135079147Y-63460054D01*
X135401054Y-62978285D01*
X135514093Y-62410000D01*
X135401054Y-61841715D01*
X135079147Y-61359946D01*
X134738447Y-61132298D01*
X134881358Y-61065183D01*
X135271645Y-60636924D01*
X135441476Y-60226890D01*
X135320155Y-59997000D01*
X134127000Y-59997000D01*
X134127000Y-60017000D01*
X133873000Y-60017000D01*
X133873000Y-59997000D01*
X132679845Y-59997000D01*
X132558524Y-60226890D01*
X132728355Y-60636924D01*
X133118642Y-61065183D01*
X133261553Y-61132298D01*
X132920853Y-61359946D01*
X132598946Y-61841715D01*
X132485907Y-62410000D01*
X132552924Y-62746918D01*
X130444921Y-64854921D01*
X130274755Y-65109593D01*
X130274755Y-65109594D01*
X130215000Y-65410000D01*
X130215000Y-78704842D01*
X125785000Y-74274842D01*
X125785000Y-57693343D01*
X125894844Y-57428808D01*
X125895155Y-57072755D01*
X125759186Y-56743686D01*
X125507639Y-56491698D01*
X125178808Y-56355156D01*
X124822755Y-56354845D01*
X124493686Y-56490814D01*
X124241698Y-56742361D01*
X124105156Y-57071192D01*
X124104845Y-57427245D01*
X124215000Y-57693840D01*
X124215000Y-74600000D01*
X124274755Y-74900407D01*
X124444921Y-75155079D01*
X129552560Y-80262718D01*
X129552560Y-80765000D01*
X127550000Y-80765000D01*
X127249593Y-80824755D01*
X126994921Y-80994921D01*
X122925000Y-85064842D01*
X122368568Y-84508410D01*
X122259186Y-84243686D01*
X122007639Y-83991698D01*
X121678808Y-83855156D01*
X121322755Y-83854845D01*
X120993686Y-83990814D01*
X120741698Y-84242361D01*
X120642182Y-84482024D01*
X117155079Y-80994921D01*
X116947440Y-80856181D01*
X116947440Y-79850000D01*
X120702560Y-79850000D01*
X120702560Y-81850000D01*
X120746838Y-82085317D01*
X120885910Y-82301441D01*
X121098110Y-82446431D01*
X121350000Y-82497440D01*
X125150000Y-82497440D01*
X125385317Y-82453162D01*
X125601441Y-82314090D01*
X125746431Y-82101890D01*
X125797440Y-81850000D01*
X125797440Y-79850000D01*
X125753162Y-79614683D01*
X125614090Y-79398559D01*
X125401890Y-79253569D01*
X125150000Y-79202560D01*
X121350000Y-79202560D01*
X121114683Y-79246838D01*
X120898559Y-79385910D01*
X120753569Y-79598110D01*
X120702560Y-79850000D01*
X116947440Y-79850000D01*
X116947440Y-79800000D01*
X116903162Y-79564683D01*
X116764090Y-79348559D01*
X116551890Y-79203569D01*
X116300000Y-79152560D01*
X114700000Y-79152560D01*
X114464683Y-79196838D01*
X114248559Y-79335910D01*
X114103569Y-79548110D01*
X114052560Y-79800000D01*
X114052560Y-80192402D01*
X108979666Y-75119508D01*
X109084681Y-74866605D01*
X109085318Y-74136597D01*
X108979547Y-73880611D01*
X111605076Y-71255081D01*
X111605079Y-71255079D01*
X111775245Y-71000406D01*
X111800588Y-70873000D01*
X111835001Y-70700000D01*
X111835000Y-70699995D01*
X111835000Y-66560000D01*
X119485907Y-66560000D01*
X119598946Y-67128285D01*
X119920853Y-67610054D01*
X120250026Y-67830000D01*
X119920853Y-68049946D01*
X119598946Y-68531715D01*
X119485907Y-69100000D01*
X119598946Y-69668285D01*
X119920853Y-70150054D01*
X120250026Y-70370000D01*
X119920853Y-70589946D01*
X119598946Y-71071715D01*
X119485907Y-71640000D01*
X119598946Y-72208285D01*
X119920853Y-72690054D01*
X120250026Y-72910000D01*
X119920853Y-73129946D01*
X119598946Y-73611715D01*
X119485907Y-74180000D01*
X119598946Y-74748285D01*
X119920853Y-75230054D01*
X120250026Y-75450000D01*
X119920853Y-75669946D01*
X119598946Y-76151715D01*
X119485907Y-76720000D01*
X119598946Y-77288285D01*
X119920853Y-77770054D01*
X120402622Y-78091961D01*
X120970907Y-78205000D01*
X121029093Y-78205000D01*
X121597378Y-78091961D01*
X122079147Y-77770054D01*
X122401054Y-77288285D01*
X122514093Y-76720000D01*
X122401054Y-76151715D01*
X122079147Y-75669946D01*
X121749974Y-75450000D01*
X122079147Y-75230054D01*
X122401054Y-74748285D01*
X122514093Y-74180000D01*
X122401054Y-73611715D01*
X122079147Y-73129946D01*
X121749974Y-72910000D01*
X122079147Y-72690054D01*
X122401054Y-72208285D01*
X122514093Y-71640000D01*
X122401054Y-71071715D01*
X122079147Y-70589946D01*
X121749974Y-70370000D01*
X122079147Y-70150054D01*
X122401054Y-69668285D01*
X122514093Y-69100000D01*
X122401054Y-68531715D01*
X122079147Y-68049946D01*
X121749974Y-67830000D01*
X122079147Y-67610054D01*
X122401054Y-67128285D01*
X122514093Y-66560000D01*
X122401054Y-65991715D01*
X122079147Y-65509946D01*
X121738447Y-65282298D01*
X121881358Y-65215183D01*
X122271645Y-64786924D01*
X122441476Y-64376890D01*
X122320155Y-64147000D01*
X121127000Y-64147000D01*
X121127000Y-64167000D01*
X120873000Y-64167000D01*
X120873000Y-64147000D01*
X119679845Y-64147000D01*
X119558524Y-64376890D01*
X119728355Y-64786924D01*
X120118642Y-65215183D01*
X120261553Y-65282298D01*
X119920853Y-65509946D01*
X119598946Y-65991715D01*
X119485907Y-66560000D01*
X111835000Y-66560000D01*
X111835000Y-66197440D01*
X112800000Y-66197440D01*
X113035317Y-66153162D01*
X113251441Y-66014090D01*
X113396431Y-65801890D01*
X113447440Y-65550000D01*
X113447440Y-65035750D01*
X114065000Y-65035750D01*
X114065000Y-65676310D01*
X114161673Y-65909699D01*
X114340302Y-66088327D01*
X114573691Y-66185000D01*
X116164250Y-66185000D01*
X116323000Y-66026250D01*
X116323000Y-64877000D01*
X116577000Y-64877000D01*
X116577000Y-66026250D01*
X116735750Y-66185000D01*
X118326309Y-66185000D01*
X118559698Y-66088327D01*
X118738327Y-65909699D01*
X118835000Y-65676310D01*
X118835000Y-65035750D01*
X118676250Y-64877000D01*
X116577000Y-64877000D01*
X116323000Y-64877000D01*
X114223750Y-64877000D01*
X114065000Y-65035750D01*
X113447440Y-65035750D01*
X113447440Y-63950000D01*
X113423674Y-63823690D01*
X114065000Y-63823690D01*
X114065000Y-64464250D01*
X114223750Y-64623000D01*
X116323000Y-64623000D01*
X116323000Y-63473750D01*
X116577000Y-63473750D01*
X116577000Y-64623000D01*
X118676250Y-64623000D01*
X118835000Y-64464250D01*
X118835000Y-63823690D01*
X118738327Y-63590301D01*
X118559698Y-63411673D01*
X118326309Y-63315000D01*
X116735750Y-63315000D01*
X116577000Y-63473750D01*
X116323000Y-63473750D01*
X116164250Y-63315000D01*
X114573691Y-63315000D01*
X114340302Y-63411673D01*
X114161673Y-63590301D01*
X114065000Y-63823690D01*
X113423674Y-63823690D01*
X113403162Y-63714683D01*
X113264090Y-63498559D01*
X113051890Y-63353569D01*
X112800000Y-63302560D01*
X112507598Y-63302560D01*
X115386109Y-60424049D01*
X115435910Y-60501441D01*
X115648110Y-60646431D01*
X115900000Y-60697440D01*
X117900000Y-60697440D01*
X118135317Y-60653162D01*
X118351441Y-60514090D01*
X118496431Y-60301890D01*
X118547440Y-60050000D01*
X118547440Y-58550000D01*
X118503162Y-58314683D01*
X118396241Y-58148523D01*
X118496431Y-58001890D01*
X118547440Y-57750000D01*
X118547440Y-56250000D01*
X118503162Y-56014683D01*
X118397518Y-55850508D01*
X118438327Y-55809699D01*
X118535000Y-55576310D01*
X118535000Y-54985750D01*
X118376250Y-54827000D01*
X117027000Y-54827000D01*
X117027000Y-54847000D01*
X116773000Y-54847000D01*
X116773000Y-54827000D01*
X115423750Y-54827000D01*
X115265000Y-54985750D01*
X115265000Y-55576310D01*
X115361673Y-55809699D01*
X115403634Y-55851660D01*
X115303569Y-55998110D01*
X115288237Y-56073821D01*
X113038106Y-53823690D01*
X115265000Y-53823690D01*
X115265000Y-54414250D01*
X115423750Y-54573000D01*
X116773000Y-54573000D01*
X116773000Y-53473750D01*
X117027000Y-53473750D01*
X117027000Y-54573000D01*
X118376250Y-54573000D01*
X118535000Y-54414250D01*
X118535000Y-53823690D01*
X118438327Y-53590301D01*
X118259698Y-53411673D01*
X118026309Y-53315000D01*
X117185750Y-53315000D01*
X117027000Y-53473750D01*
X116773000Y-53473750D01*
X116614250Y-53315000D01*
X115773691Y-53315000D01*
X115540302Y-53411673D01*
X115361673Y-53590301D01*
X115265000Y-53823690D01*
X113038106Y-53823690D01*
X111835000Y-52620584D01*
X111835000Y-50697440D01*
X112800000Y-50697440D01*
X113035317Y-50653162D01*
X113251441Y-50514090D01*
X113396431Y-50301890D01*
X113447440Y-50050000D01*
X113447440Y-49535750D01*
X114065000Y-49535750D01*
X114065000Y-50176310D01*
X114161673Y-50409699D01*
X114340302Y-50588327D01*
X114573691Y-50685000D01*
X116164250Y-50685000D01*
X116323000Y-50526250D01*
X116323000Y-49377000D01*
X116577000Y-49377000D01*
X116577000Y-50526250D01*
X116735750Y-50685000D01*
X118326309Y-50685000D01*
X118559698Y-50588327D01*
X118738327Y-50409699D01*
X118835000Y-50176310D01*
X118835000Y-49535750D01*
X118676250Y-49377000D01*
X116577000Y-49377000D01*
X116323000Y-49377000D01*
X114223750Y-49377000D01*
X114065000Y-49535750D01*
X113447440Y-49535750D01*
X113447440Y-48912718D01*
X114085175Y-48274983D01*
X114065000Y-48323690D01*
X114065000Y-48964250D01*
X114223750Y-49123000D01*
X116323000Y-49123000D01*
X116323000Y-47973750D01*
X116577000Y-47973750D01*
X116577000Y-49123000D01*
X118676250Y-49123000D01*
X118835000Y-48964250D01*
X118835000Y-48323690D01*
X118738327Y-48090301D01*
X118559698Y-47911673D01*
X118326309Y-47815000D01*
X116735750Y-47815000D01*
X116577000Y-47973750D01*
X116323000Y-47973750D01*
X116164250Y-47815000D01*
X114573691Y-47815000D01*
X114524982Y-47835176D01*
X119158483Y-43201675D01*
X119585030Y-43201675D01*
X119485907Y-43700000D01*
X119598946Y-44268285D01*
X119920853Y-44750054D01*
X120250026Y-44970000D01*
X119920853Y-45189946D01*
X119598946Y-45671715D01*
X119485907Y-46240000D01*
X119598946Y-46808285D01*
X119920853Y-47290054D01*
X120250026Y-47510000D01*
X119920853Y-47729946D01*
X119598946Y-48211715D01*
X119485907Y-48780000D01*
X119598946Y-49348285D01*
X119920853Y-49830054D01*
X120250026Y-50050000D01*
X119920853Y-50269946D01*
X119598946Y-50751715D01*
X119485907Y-51320000D01*
X119598946Y-51888285D01*
X119920853Y-52370054D01*
X120250026Y-52590000D01*
X119920853Y-52809946D01*
X119598946Y-53291715D01*
X119485907Y-53860000D01*
X119598946Y-54428285D01*
X119920853Y-54910054D01*
X120250026Y-55130000D01*
X119920853Y-55349946D01*
X119598946Y-55831715D01*
X119485907Y-56400000D01*
X119598946Y-56968285D01*
X119920853Y-57450054D01*
X120250026Y-57670000D01*
X119920853Y-57889946D01*
X119598946Y-58371715D01*
X119485907Y-58940000D01*
X119598946Y-59508285D01*
X119920853Y-59990054D01*
X120250026Y-60210000D01*
X119920853Y-60429946D01*
X119598946Y-60911715D01*
X119485907Y-61480000D01*
X119598946Y-62048285D01*
X119920853Y-62530054D01*
X120261553Y-62757702D01*
X120118642Y-62824817D01*
X119728355Y-63253076D01*
X119558524Y-63663110D01*
X119679845Y-63893000D01*
X120873000Y-63893000D01*
X120873000Y-63873000D01*
X121127000Y-63873000D01*
X121127000Y-63893000D01*
X122320155Y-63893000D01*
X122441476Y-63663110D01*
X122271645Y-63253076D01*
X121881358Y-62824817D01*
X121738447Y-62757702D01*
X122079147Y-62530054D01*
X122401054Y-62048285D01*
X122514093Y-61480000D01*
X122401054Y-60911715D01*
X122079147Y-60429946D01*
X121749974Y-60210000D01*
X122079147Y-59990054D01*
X122401054Y-59508285D01*
X122514093Y-58940000D01*
X122401054Y-58371715D01*
X122079147Y-57889946D01*
X121749974Y-57670000D01*
X122079147Y-57450054D01*
X122401054Y-56968285D01*
X122514093Y-56400000D01*
X122401054Y-55831715D01*
X122079147Y-55349946D01*
X121749974Y-55130000D01*
X122079147Y-54910054D01*
X122401054Y-54428285D01*
X122514093Y-53860000D01*
X122401054Y-53291715D01*
X122079147Y-52809946D01*
X121749974Y-52590000D01*
X122079147Y-52370054D01*
X122401054Y-51888285D01*
X122514093Y-51320000D01*
X122401054Y-50751715D01*
X122079147Y-50269946D01*
X121749974Y-50050000D01*
X122079147Y-49830054D01*
X122401054Y-49348285D01*
X122514093Y-48780000D01*
X122401054Y-48211715D01*
X122079147Y-47729946D01*
X121749974Y-47510000D01*
X122079147Y-47290054D01*
X122401054Y-46808285D01*
X122514093Y-46240000D01*
X122401054Y-45671715D01*
X122079147Y-45189946D01*
X121749974Y-44970000D01*
X122079147Y-44750054D01*
X122401054Y-44268285D01*
X122514093Y-43700000D01*
X122414970Y-43201675D01*
X132876085Y-43201675D01*
X132698559Y-43315910D01*
X132553569Y-43528110D01*
X132502560Y-43780000D01*
X132502560Y-45480000D01*
X132546838Y-45715317D01*
X132685910Y-45931441D01*
X132898110Y-46076431D01*
X132965541Y-46090086D01*
X132920853Y-46119946D01*
X132598946Y-46601715D01*
X132485907Y-47170000D01*
X132598946Y-47738285D01*
X132920853Y-48220054D01*
X133250026Y-48440000D01*
X132920853Y-48659946D01*
X132598946Y-49141715D01*
X132485907Y-49710000D01*
X132598946Y-50278285D01*
X132920853Y-50760054D01*
X133250026Y-50980000D01*
X132920853Y-51199946D01*
X132598946Y-51681715D01*
X132485907Y-52250000D01*
X132598946Y-52818285D01*
X132920853Y-53300054D01*
X133250026Y-53520000D01*
X132920853Y-53739946D01*
X132598946Y-54221715D01*
X132485907Y-54790000D01*
X132598946Y-55358285D01*
X132920853Y-55840054D01*
X133250026Y-56060000D01*
X132920853Y-56279946D01*
X132598946Y-56761715D01*
X132485907Y-57330000D01*
X132598946Y-57898285D01*
X132920853Y-58380054D01*
X133261553Y-58607702D01*
X133118642Y-58674817D01*
X132728355Y-59103076D01*
X132558524Y-59513110D01*
X132679845Y-59743000D01*
X133873000Y-59743000D01*
X133873000Y-59723000D01*
X134127000Y-59723000D01*
X134127000Y-59743000D01*
X135320155Y-59743000D01*
X135441476Y-59513110D01*
X135271645Y-59103076D01*
X134881358Y-58674817D01*
X134738447Y-58607702D01*
X135079147Y-58380054D01*
X135401054Y-57898285D01*
X135514093Y-57330000D01*
X135401054Y-56761715D01*
X135079147Y-56279946D01*
X134749974Y-56060000D01*
X135079147Y-55840054D01*
X135401054Y-55358285D01*
X135514093Y-54790000D01*
X135401054Y-54221715D01*
X135079147Y-53739946D01*
X134749974Y-53520000D01*
X135079147Y-53300054D01*
X135298011Y-52972500D01*
X145212238Y-52972500D01*
X144998946Y-53291715D01*
X144885907Y-53860000D01*
X144998946Y-54428285D01*
X145320853Y-54910054D01*
X145650026Y-55130000D01*
X145320853Y-55349946D01*
X144998946Y-55831715D01*
X144885907Y-56400000D01*
X144998946Y-56968285D01*
X145320853Y-57450054D01*
X145650026Y-57670000D01*
X145320853Y-57889946D01*
X144998946Y-58371715D01*
X144885907Y-58940000D01*
X144998946Y-59508285D01*
X145320853Y-59990054D01*
X145650026Y-60210000D01*
X145320853Y-60429946D01*
X144998946Y-60911715D01*
X144885907Y-61480000D01*
X144998946Y-62048285D01*
X145320853Y-62530054D01*
X145650026Y-62750000D01*
X145320853Y-62969946D01*
X144998946Y-63451715D01*
X144885907Y-64020000D01*
X144998946Y-64588285D01*
X145320853Y-65070054D01*
X145650026Y-65290000D01*
X145320853Y-65509946D01*
X144998946Y-65991715D01*
X144885907Y-66560000D01*
X144998946Y-67128285D01*
X145320853Y-67610054D01*
X145650026Y-67830000D01*
X145320853Y-68049946D01*
X144998946Y-68531715D01*
X144885907Y-69100000D01*
X144998946Y-69668285D01*
X145320853Y-70150054D01*
X145650026Y-70370000D01*
X145320853Y-70589946D01*
X144998946Y-71071715D01*
X144885907Y-71640000D01*
X144998946Y-72208285D01*
X145320853Y-72690054D01*
X145650026Y-72910000D01*
X145320853Y-73129946D01*
X144998946Y-73611715D01*
X144885907Y-74180000D01*
X144998946Y-74748285D01*
X145320853Y-75230054D01*
X145650026Y-75450000D01*
X145320853Y-75669946D01*
X144998946Y-76151715D01*
X144885907Y-76720000D01*
X144998946Y-77288285D01*
X145320853Y-77770054D01*
X145802622Y-78091961D01*
X146370907Y-78205000D01*
X146429093Y-78205000D01*
X146997378Y-78091961D01*
X147479147Y-77770054D01*
X147801054Y-77288285D01*
X147914093Y-76720000D01*
X147801054Y-76151715D01*
X147479147Y-75669946D01*
X147149974Y-75450000D01*
X147479147Y-75230054D01*
X147801054Y-74748285D01*
X147914093Y-74180000D01*
X147801054Y-73611715D01*
X147479147Y-73129946D01*
X147149974Y-72910000D01*
X147479147Y-72690054D01*
X147801054Y-72208285D01*
X147914093Y-71640000D01*
X147801054Y-71071715D01*
X147479147Y-70589946D01*
X147149974Y-70370000D01*
X147479147Y-70150054D01*
X147801054Y-69668285D01*
X147914093Y-69100000D01*
X147801054Y-68531715D01*
X147479147Y-68049946D01*
X147149974Y-67830000D01*
X147479147Y-67610054D01*
X147801054Y-67128285D01*
X147914093Y-66560000D01*
X147801054Y-65991715D01*
X147479147Y-65509946D01*
X147149974Y-65290000D01*
X147479147Y-65070054D01*
X147801054Y-64588285D01*
X147914093Y-64020000D01*
X147801054Y-63451715D01*
X147479147Y-62969946D01*
X147149974Y-62750000D01*
X147479147Y-62530054D01*
X147801054Y-62048285D01*
X147914093Y-61480000D01*
X147801054Y-60911715D01*
X147479147Y-60429946D01*
X147149974Y-60210000D01*
X147479147Y-59990054D01*
X147801054Y-59508285D01*
X147914093Y-58940000D01*
X147801054Y-58371715D01*
X147479147Y-57889946D01*
X147149974Y-57670000D01*
X147479147Y-57450054D01*
X147801054Y-56968285D01*
X147914093Y-56400000D01*
X147832411Y-55989359D01*
X148606805Y-55214965D01*
X148763423Y-54980569D01*
X148818421Y-54704080D01*
X148818420Y-54704075D01*
X148818420Y-48411335D01*
X148818421Y-48411330D01*
X148763423Y-48134842D01*
X148763423Y-48134841D01*
X148606805Y-47900445D01*
X148606802Y-47900443D01*
X147746071Y-47039711D01*
X147677141Y-46993654D01*
X147841476Y-46596890D01*
X147720155Y-46367000D01*
X146527000Y-46367000D01*
X146527000Y-46387000D01*
X146273000Y-46387000D01*
X146273000Y-46367000D01*
X145079845Y-46367000D01*
X144958524Y-46596890D01*
X145054287Y-46828096D01*
X138244865Y-46828096D01*
X135535885Y-44119115D01*
X135497440Y-44093427D01*
X135497440Y-43780000D01*
X135453162Y-43544683D01*
X135314090Y-43328559D01*
X135128389Y-43201675D01*
X144985030Y-43201675D01*
X144885907Y-43700000D01*
X144998946Y-44268285D01*
X145320853Y-44750054D01*
X145661553Y-44977702D01*
X145518642Y-45044817D01*
X145128355Y-45473076D01*
X144958524Y-45883110D01*
X145079845Y-46113000D01*
X146273000Y-46113000D01*
X146273000Y-46093000D01*
X146527000Y-46093000D01*
X146527000Y-46113000D01*
X147720155Y-46113000D01*
X147841476Y-45883110D01*
X147671645Y-45473076D01*
X147281358Y-45044817D01*
X147138447Y-44977702D01*
X147479147Y-44750054D01*
X147801054Y-44268285D01*
X147914093Y-43700000D01*
X147814970Y-43201675D01*
X156405411Y-43201675D01*
X156705818Y-43141920D01*
X156960490Y-42971754D01*
X165885079Y-34047165D01*
X166055245Y-33792492D01*
X166115000Y-33492086D01*
X166115000Y-32646930D01*
X166329490Y-32646930D01*
X166564807Y-32602652D01*
X166780931Y-32463580D01*
X166790000Y-32450307D01*
X166790000Y-87605035D01*
G36*
X166451325Y-28263956D02*
X166622002Y-28377998D01*
X166736044Y-28548675D01*
X166790000Y-28819927D01*
X166790000Y-29546623D01*
X166581380Y-29404079D01*
X166329490Y-29353070D01*
X164330510Y-29353070D01*
X164095193Y-29397348D01*
X163879069Y-29536420D01*
X163768906Y-29697649D01*
X163749726Y-29676932D01*
X163170355Y-29410373D01*
X162917000Y-29529193D01*
X162917000Y-30873000D01*
X162937000Y-30873000D01*
X162937000Y-31127000D01*
X162917000Y-31127000D01*
X162917000Y-32470807D01*
X163170355Y-32589627D01*
X163749726Y-32323068D01*
X163770030Y-32301137D01*
X163866420Y-32450931D01*
X164078620Y-32595921D01*
X164330510Y-32646930D01*
X164545000Y-32646930D01*
X164545000Y-33166928D01*
X156080253Y-41631675D01*
X152728483Y-41631675D01*
X152741590Y-41618568D01*
X153006314Y-41509186D01*
X153258302Y-41257639D01*
X153394844Y-40928808D01*
X153395155Y-40572755D01*
X153259186Y-40243686D01*
X153007639Y-39991698D01*
X152678808Y-39855156D01*
X152322755Y-39854845D01*
X151993686Y-39990814D01*
X151741698Y-40242361D01*
X151631078Y-40508764D01*
X150508167Y-41631675D01*
X147820271Y-41631675D01*
X147914093Y-41160000D01*
X147801054Y-40591715D01*
X147479147Y-40109946D01*
X147149974Y-39890000D01*
X147479147Y-39670054D01*
X147801054Y-39188285D01*
X147914093Y-38620000D01*
X147801054Y-38051715D01*
X147479147Y-37569946D01*
X147149974Y-37350000D01*
X147479147Y-37130054D01*
X147801054Y-36648285D01*
X147914093Y-36080000D01*
X147801054Y-35511715D01*
X147479147Y-35029946D01*
X147149974Y-34810000D01*
X147479147Y-34590054D01*
X147801054Y-34108285D01*
X147914093Y-33540000D01*
X147801054Y-32971715D01*
X147479147Y-32489946D01*
X147435223Y-32460597D01*
X147609698Y-32388327D01*
X147788327Y-32209699D01*
X147885000Y-31976310D01*
X147885000Y-31285750D01*
X147726250Y-31127000D01*
X146527000Y-31127000D01*
X146527000Y-31147000D01*
X146273000Y-31147000D01*
X146273000Y-31127000D01*
X145073750Y-31127000D01*
X144915000Y-31285750D01*
X144915000Y-31976310D01*
X145011673Y-32209699D01*
X145190302Y-32388327D01*
X145364777Y-32460597D01*
X145320853Y-32489946D01*
X144998946Y-32971715D01*
X144885907Y-33540000D01*
X144998946Y-34108285D01*
X145320853Y-34590054D01*
X145650026Y-34810000D01*
X145320853Y-35029946D01*
X144998946Y-35511715D01*
X144885907Y-36080000D01*
X144998946Y-36648285D01*
X145320853Y-37130054D01*
X145650026Y-37350000D01*
X145320853Y-37569946D01*
X144998946Y-38051715D01*
X144885907Y-38620000D01*
X144998946Y-39188285D01*
X145320853Y-39670054D01*
X145650026Y-39890000D01*
X145320853Y-40109946D01*
X144998946Y-40591715D01*
X144885907Y-41160000D01*
X144979729Y-41631675D01*
X122420271Y-41631675D01*
X122514093Y-41160000D01*
X122401054Y-40591715D01*
X122079147Y-40109946D01*
X121749974Y-39890000D01*
X122079147Y-39670054D01*
X122401054Y-39188285D01*
X122514093Y-38620000D01*
X122401054Y-38051715D01*
X122079147Y-37569946D01*
X121749974Y-37350000D01*
X122079147Y-37130054D01*
X122401054Y-36648285D01*
X122514093Y-36080000D01*
X122401054Y-35511715D01*
X122079147Y-35029946D01*
X121749974Y-34810000D01*
X122079147Y-34590054D01*
X122401054Y-34108285D01*
X122514093Y-33540000D01*
X122401054Y-32971715D01*
X122079147Y-32489946D01*
X122037548Y-32462150D01*
X122085317Y-32453162D01*
X122301441Y-32314090D01*
X122446431Y-32101890D01*
X122497440Y-31850000D01*
X122497440Y-31000000D01*
X150963488Y-31000000D01*
X151087906Y-31625492D01*
X151442219Y-32155759D01*
X151972486Y-32510072D01*
X152597978Y-32634490D01*
X152662022Y-32634490D01*
X153287514Y-32510072D01*
X153817781Y-32155759D01*
X153900000Y-32032710D01*
X153982219Y-32155759D01*
X154512486Y-32510072D01*
X155137978Y-32634490D01*
X155202022Y-32634490D01*
X155827514Y-32510072D01*
X156357781Y-32155759D01*
X156440000Y-32032710D01*
X156522219Y-32155759D01*
X157052486Y-32510072D01*
X157677978Y-32634490D01*
X157742022Y-32634490D01*
X158367514Y-32510072D01*
X158897781Y-32155759D01*
X158980000Y-32032710D01*
X159062219Y-32155759D01*
X159592486Y-32510072D01*
X160217978Y-32634490D01*
X160282022Y-32634490D01*
X160907514Y-32510072D01*
X161437781Y-32155759D01*
X161537379Y-32006700D01*
X161830274Y-32323068D01*
X162409645Y-32589627D01*
X162663000Y-32470807D01*
X162663000Y-31127000D01*
X162643000Y-31127000D01*
X162643000Y-30873000D01*
X162663000Y-30873000D01*
X162663000Y-29529193D01*
X162409645Y-29410373D01*
X161830274Y-29676932D01*
X161537379Y-29993300D01*
X161437781Y-29844241D01*
X160907514Y-29489928D01*
X160282022Y-29365510D01*
X160217978Y-29365510D01*
X159592486Y-29489928D01*
X159062219Y-29844241D01*
X158980000Y-29967290D01*
X158897781Y-29844241D01*
X158367514Y-29489928D01*
X157742022Y-29365510D01*
X157677978Y-29365510D01*
X157052486Y-29489928D01*
X156522219Y-29844241D01*
X156440000Y-29967290D01*
X156357781Y-29844241D01*
X155827514Y-29489928D01*
X155202022Y-29365510D01*
X155137978Y-29365510D01*
X154512486Y-29489928D01*
X153982219Y-29844241D01*
X153900000Y-29967290D01*
X153817781Y-29844241D01*
X153287514Y-29489928D01*
X152662022Y-29365510D01*
X152597978Y-29365510D01*
X151972486Y-29489928D01*
X151442219Y-29844241D01*
X151087906Y-30374508D01*
X150963488Y-31000000D01*
X122497440Y-31000000D01*
X122497440Y-30150000D01*
X122473674Y-30023690D01*
X144915000Y-30023690D01*
X144915000Y-30714250D01*
X145073750Y-30873000D01*
X146273000Y-30873000D01*
X146273000Y-29673750D01*
X146527000Y-29673750D01*
X146527000Y-30873000D01*
X147726250Y-30873000D01*
X147885000Y-30714250D01*
X147885000Y-30023690D01*
X147788327Y-29790301D01*
X147609698Y-29611673D01*
X147376309Y-29515000D01*
X146685750Y-29515000D01*
X146527000Y-29673750D01*
X146273000Y-29673750D01*
X146114250Y-29515000D01*
X145423691Y-29515000D01*
X145190302Y-29611673D01*
X145011673Y-29790301D01*
X144915000Y-30023690D01*
X122473674Y-30023690D01*
X122453162Y-29914683D01*
X122314090Y-29698559D01*
X122101890Y-29553569D01*
X121850000Y-29502560D01*
X120150000Y-29502560D01*
X119914683Y-29546838D01*
X119698559Y-29685910D01*
X119553569Y-29898110D01*
X119502560Y-30150000D01*
X119502560Y-30306181D01*
X119294921Y-30444921D01*
X110494921Y-39244921D01*
X110324755Y-39499593D01*
X110324755Y-39499594D01*
X110265000Y-39800000D01*
X110265000Y-47354842D01*
X109044684Y-46134526D01*
X109044684Y-43170194D01*
X109027437Y-43083488D01*
X108984929Y-42869787D01*
X108814763Y-42615115D01*
X107854569Y-41654921D01*
X107646930Y-41516181D01*
X107646930Y-41210510D01*
X107602652Y-40975193D01*
X107463580Y-40759069D01*
X107251380Y-40614079D01*
X106999490Y-40563070D01*
X105000510Y-40563070D01*
X104765193Y-40607348D01*
X104549069Y-40746420D01*
X104404079Y-40958620D01*
X104353070Y-41210510D01*
X104353070Y-41427322D01*
X104132125Y-41205991D01*
X103696745Y-41025206D01*
X103225323Y-41024794D01*
X103210000Y-41031125D01*
X103210000Y-28819927D01*
X103263956Y-28548675D01*
X103377998Y-28377998D01*
X103548675Y-28263956D01*
X103819927Y-28210000D01*
X166180073Y-28210000D01*
X166451325Y-28263956D01*
X166451325Y-28263956D01*
G37*
X166451325Y-28263956D02*
X166622002Y-28377998D01*
X166736044Y-28548675D01*
X166790000Y-28819927D01*
X166790000Y-29546623D01*
X166581380Y-29404079D01*
X166329490Y-29353070D01*
X164330510Y-29353070D01*
X164095193Y-29397348D01*
X163879069Y-29536420D01*
X163768906Y-29697649D01*
X163749726Y-29676932D01*
X163170355Y-29410373D01*
X162917000Y-29529193D01*
X162917000Y-30873000D01*
X162937000Y-30873000D01*
X162937000Y-31127000D01*
X162917000Y-31127000D01*
X162917000Y-32470807D01*
X163170355Y-32589627D01*
X163749726Y-32323068D01*
X163770030Y-32301137D01*
X163866420Y-32450931D01*
X164078620Y-32595921D01*
X164330510Y-32646930D01*
X164545000Y-32646930D01*
X164545000Y-33166928D01*
X156080253Y-41631675D01*
X152728483Y-41631675D01*
X152741590Y-41618568D01*
X153006314Y-41509186D01*
X153258302Y-41257639D01*
X153394844Y-40928808D01*
X153395155Y-40572755D01*
X153259186Y-40243686D01*
X153007639Y-39991698D01*
X152678808Y-39855156D01*
X152322755Y-39854845D01*
X151993686Y-39990814D01*
X151741698Y-40242361D01*
X151631078Y-40508764D01*
X150508167Y-41631675D01*
X147820271Y-41631675D01*
X147914093Y-41160000D01*
X147801054Y-40591715D01*
X147479147Y-40109946D01*
X147149974Y-39890000D01*
X147479147Y-39670054D01*
X147801054Y-39188285D01*
X147914093Y-38620000D01*
X147801054Y-38051715D01*
X147479147Y-37569946D01*
X147149974Y-37350000D01*
X147479147Y-37130054D01*
X147801054Y-36648285D01*
X147914093Y-36080000D01*
X147801054Y-35511715D01*
X147479147Y-35029946D01*
X147149974Y-34810000D01*
X147479147Y-34590054D01*
X147801054Y-34108285D01*
X147914093Y-33540000D01*
X147801054Y-32971715D01*
X147479147Y-32489946D01*
X147435223Y-32460597D01*
X147609698Y-32388327D01*
X147788327Y-32209699D01*
X147885000Y-31976310D01*
X147885000Y-31285750D01*
X147726250Y-31127000D01*
X146527000Y-31127000D01*
X146527000Y-31147000D01*
X146273000Y-31147000D01*
X146273000Y-31127000D01*
X145073750Y-31127000D01*
X144915000Y-31285750D01*
X144915000Y-31976310D01*
X145011673Y-32209699D01*
X145190302Y-32388327D01*
X145364777Y-32460597D01*
X145320853Y-32489946D01*
X144998946Y-32971715D01*
X144885907Y-33540000D01*
X144998946Y-34108285D01*
X145320853Y-34590054D01*
X145650026Y-34810000D01*
X145320853Y-35029946D01*
X144998946Y-35511715D01*
X144885907Y-36080000D01*
X144998946Y-36648285D01*
X145320853Y-37130054D01*
X145650026Y-37350000D01*
X145320853Y-37569946D01*
X144998946Y-38051715D01*
X144885907Y-38620000D01*
X144998946Y-39188285D01*
X145320853Y-39670054D01*
X145650026Y-39890000D01*
X145320853Y-40109946D01*
X144998946Y-40591715D01*
X144885907Y-41160000D01*
X144979729Y-41631675D01*
X122420271Y-41631675D01*
X122514093Y-41160000D01*
X122401054Y-40591715D01*
X122079147Y-40109946D01*
X121749974Y-39890000D01*
X122079147Y-39670054D01*
X122401054Y-39188285D01*
X122514093Y-38620000D01*
X122401054Y-38051715D01*
X122079147Y-37569946D01*
X121749974Y-37350000D01*
X122079147Y-37130054D01*
X122401054Y-36648285D01*
X122514093Y-36080000D01*
X122401054Y-35511715D01*
X122079147Y-35029946D01*
X121749974Y-34810000D01*
X122079147Y-34590054D01*
X122401054Y-34108285D01*
X122514093Y-33540000D01*
X122401054Y-32971715D01*
X122079147Y-32489946D01*
X122037548Y-32462150D01*
X122085317Y-32453162D01*
X122301441Y-32314090D01*
X122446431Y-32101890D01*
X122497440Y-31850000D01*
X122497440Y-31000000D01*
X150963488Y-31000000D01*
X151087906Y-31625492D01*
X151442219Y-32155759D01*
X151972486Y-32510072D01*
X152597978Y-32634490D01*
X152662022Y-32634490D01*
X153287514Y-32510072D01*
X153817781Y-32155759D01*
X153900000Y-32032710D01*
X153982219Y-32155759D01*
X154512486Y-32510072D01*
X155137978Y-32634490D01*
X155202022Y-32634490D01*
X155827514Y-32510072D01*
X156357781Y-32155759D01*
X156440000Y-32032710D01*
X156522219Y-32155759D01*
X157052486Y-32510072D01*
X157677978Y-32634490D01*
X157742022Y-32634490D01*
X158367514Y-32510072D01*
X158897781Y-32155759D01*
X158980000Y-32032710D01*
X159062219Y-32155759D01*
X159592486Y-32510072D01*
X160217978Y-32634490D01*
X160282022Y-32634490D01*
X160907514Y-32510072D01*
X161437781Y-32155759D01*
X161537379Y-32006700D01*
X161830274Y-32323068D01*
X162409645Y-32589627D01*
X162663000Y-32470807D01*
X162663000Y-31127000D01*
X162643000Y-31127000D01*
X162643000Y-30873000D01*
X162663000Y-30873000D01*
X162663000Y-29529193D01*
X162409645Y-29410373D01*
X161830274Y-29676932D01*
X161537379Y-29993300D01*
X161437781Y-29844241D01*
X160907514Y-29489928D01*
X160282022Y-29365510D01*
X160217978Y-29365510D01*
X159592486Y-29489928D01*
X159062219Y-29844241D01*
X158980000Y-29967290D01*
X158897781Y-29844241D01*
X158367514Y-29489928D01*
X157742022Y-29365510D01*
X157677978Y-29365510D01*
X157052486Y-29489928D01*
X156522219Y-29844241D01*
X156440000Y-29967290D01*
X156357781Y-29844241D01*
X155827514Y-29489928D01*
X155202022Y-29365510D01*
X155137978Y-29365510D01*
X154512486Y-29489928D01*
X153982219Y-29844241D01*
X153900000Y-29967290D01*
X153817781Y-29844241D01*
X153287514Y-29489928D01*
X152662022Y-29365510D01*
X152597978Y-29365510D01*
X151972486Y-29489928D01*
X151442219Y-29844241D01*
X151087906Y-30374508D01*
X150963488Y-31000000D01*
X122497440Y-31000000D01*
X122497440Y-30150000D01*
X122473674Y-30023690D01*
X144915000Y-30023690D01*
X144915000Y-30714250D01*
X145073750Y-30873000D01*
X146273000Y-30873000D01*
X146273000Y-29673750D01*
X146527000Y-29673750D01*
X146527000Y-30873000D01*
X147726250Y-30873000D01*
X147885000Y-30714250D01*
X147885000Y-30023690D01*
X147788327Y-29790301D01*
X147609698Y-29611673D01*
X147376309Y-29515000D01*
X146685750Y-29515000D01*
X146527000Y-29673750D01*
X146273000Y-29673750D01*
X146114250Y-29515000D01*
X145423691Y-29515000D01*
X145190302Y-29611673D01*
X145011673Y-29790301D01*
X144915000Y-30023690D01*
X122473674Y-30023690D01*
X122453162Y-29914683D01*
X122314090Y-29698559D01*
X122101890Y-29553569D01*
X121850000Y-29502560D01*
X120150000Y-29502560D01*
X119914683Y-29546838D01*
X119698559Y-29685910D01*
X119553569Y-29898110D01*
X119502560Y-30150000D01*
X119502560Y-30306181D01*
X119294921Y-30444921D01*
X110494921Y-39244921D01*
X110324755Y-39499593D01*
X110324755Y-39499594D01*
X110265000Y-39800000D01*
X110265000Y-47354842D01*
X109044684Y-46134526D01*
X109044684Y-43170194D01*
X109027437Y-43083488D01*
X108984929Y-42869787D01*
X108814763Y-42615115D01*
X107854569Y-41654921D01*
X107646930Y-41516181D01*
X107646930Y-41210510D01*
X107602652Y-40975193D01*
X107463580Y-40759069D01*
X107251380Y-40614079D01*
X106999490Y-40563070D01*
X105000510Y-40563070D01*
X104765193Y-40607348D01*
X104549069Y-40746420D01*
X104404079Y-40958620D01*
X104353070Y-41210510D01*
X104353070Y-41427322D01*
X104132125Y-41205991D01*
X103696745Y-41025206D01*
X103225323Y-41024794D01*
X103210000Y-41031125D01*
X103210000Y-28819927D01*
X103263956Y-28548675D01*
X103377998Y-28377998D01*
X103548675Y-28263956D01*
X103819927Y-28210000D01*
X166180073Y-28210000D01*
X166451325Y-28263956D01*
M02*
