M48
;DRILL file {KiCad 4.0.7-e2-6376~58~ubuntu16.04.1} date Wed Sep  5 16:42:31 2018
;FORMAT={-:-/ absolute / inch / decimal}
FMAT,2
INCH,TZ
T1C0.013
T2C0.013
T3C0.039
T4C0.043
T5C0.047
%
G90
G05
M72
T1
X5.2461Y-3.1004
X5.3248Y-3.3049
X5.4724Y-3.2185
X5.4724Y-3.2972
T2
X4.6358Y-1.8602
X4.6752Y-3.4055
X4.7835Y-3.3366
X4.9213Y-2.2539
X5.3248Y-3.4055
X5.374Y-3.3465
X5.9646Y-3.4055
X6.0039Y-1.6043
X6.0039Y-3.3563
X6.5059Y-3.4547
X6.565Y-3.4843
T3
X4.7638Y-1.2205
X4.7638Y-1.3205
X4.7638Y-1.4205
X4.7638Y-1.5205
X4.7638Y-1.6205
X4.7638Y-1.7205
X4.7638Y-1.8205
X4.7638Y-1.9205
X4.7638Y-2.0205
X4.7638Y-2.1205
X4.7638Y-2.2205
X4.7638Y-2.3205
X4.7638Y-2.4205
X4.7638Y-2.5205
X4.7638Y-2.6205
X4.7638Y-2.7205
X4.7638Y-2.8205
X4.7638Y-2.9205
X4.7638Y-3.0205
X5.2756Y-1.7571
X5.2756Y-1.8571
X5.2756Y-1.9571
X5.2756Y-2.0571
X5.2756Y-2.1571
X5.2756Y-2.2571
X5.2756Y-2.3571
X5.2756Y-2.4571
X5.7638Y-1.2205
X5.7638Y-1.3205
X5.7638Y-1.4205
X5.7638Y-1.5205
X5.7638Y-1.6205
X5.7638Y-1.7205
X5.7638Y-1.8205
X5.7638Y-1.9205
X5.7638Y-2.0205
X5.7638Y-2.1205
X5.7638Y-2.2205
X5.7638Y-2.3205
X5.7638Y-2.4205
X5.7638Y-2.5205
X5.7638Y-2.6205
X5.7638Y-2.7205
X5.7638Y-2.8205
X5.7638Y-2.9205
X5.7638Y-3.0205
T4
X4.1634Y-3.6024
X4.1732Y-1.6618
X4.1732Y-1.7618
X4.1732Y-1.9193
X4.1732Y-2.0193
X4.1732Y-2.1835
X4.1732Y-2.2835
X4.2634Y-3.6024
X4.4783Y-3.6024
X4.5783Y-3.6024
X4.7933Y-3.6024
X4.8933Y-3.6024
X5.1083Y-3.6024
X5.2083Y-3.6024
X5.4232Y-3.6024
X5.5232Y-3.6024
X5.7382Y-3.6024
X5.8382Y-3.6024
X6.0091Y-1.2205
X6.0531Y-3.6024
X6.1091Y-1.2205
X6.1531Y-3.6024
X6.2091Y-1.2205
X6.3091Y-1.2205
X6.3681Y-3.6024
X6.4091Y-1.2205
X6.4681Y-3.6024
X6.5091Y-1.2205
T5
X4.2224Y-2.7953
X4.2224Y-2.9331
T0
M30
