G04 #@! TF.FileFunction,Soldermask,Bot*
%FSLAX46Y46*%
G04 Gerber Fmt 4.6, Leading zero omitted, Abs format (unit mm)*
G04 Created by KiCad (PCBNEW 4.0.7-e2-6376~58~ubuntu16.04.1) date Wed Sep  5 16:40:10 2018*
%MOMM*%
%LPD*%
G01*
G04 APERTURE LIST*
%ADD10C,0.100000*%
%ADD11R,2.100000X2.100000*%
%ADD12O,2.100000X2.100000*%
%ADD13R,3.900000X2.000000*%
%ADD14R,2.000000X3.900000*%
%ADD15O,2.398980X2.398980*%
%ADD16R,2.398980X2.398980*%
%ADD17C,1.500000*%
%ADD18C,2.800000*%
%ADD19R,2.800000X2.800000*%
%ADD20R,2.400000X4.200000*%
%ADD21R,2.400000X1.900000*%
%ADD22R,4.200000X2.400000*%
%ADD23R,1.900000X2.400000*%
G04 APERTURE END LIST*
D10*
D11*
X134000000Y-44630000D03*
D12*
X134000000Y-47170000D03*
X134000000Y-49710000D03*
X134000000Y-52250000D03*
X134000000Y-54790000D03*
X134000000Y-57330000D03*
X134000000Y-59870000D03*
X134000000Y-62410000D03*
D13*
X111050000Y-64750000D03*
X116450000Y-64750000D03*
X111050000Y-49250000D03*
X116450000Y-49250000D03*
D14*
X115500000Y-81550000D03*
X115500000Y-86950000D03*
X131000000Y-81550000D03*
X131000000Y-86950000D03*
D15*
X106000000Y-44750000D03*
D16*
X106000000Y-42210000D03*
D17*
X103460000Y-42210000D03*
X103460000Y-44750000D03*
D18*
X107250000Y-74500000D03*
D19*
X107250000Y-71000000D03*
D15*
X157710000Y-31000000D03*
D16*
X165330000Y-31000000D03*
D15*
X162790000Y-31000000D03*
X160250000Y-31000000D03*
X155170000Y-31000000D03*
X152630000Y-31000000D03*
X106000000Y-51290000D03*
D16*
X106000000Y-48750000D03*
D17*
X103460000Y-48750000D03*
X103460000Y-51290000D03*
D15*
X106000000Y-58000000D03*
D16*
X106000000Y-55460000D03*
D17*
X103460000Y-55460000D03*
X103460000Y-58000000D03*
D11*
X121000000Y-31000000D03*
D12*
X121000000Y-33540000D03*
X121000000Y-36080000D03*
X121000000Y-38620000D03*
X121000000Y-41160000D03*
X121000000Y-43700000D03*
X121000000Y-46240000D03*
X121000000Y-48780000D03*
X121000000Y-51320000D03*
X121000000Y-53860000D03*
X121000000Y-56400000D03*
X121000000Y-58940000D03*
X121000000Y-61480000D03*
X121000000Y-64020000D03*
X121000000Y-66560000D03*
X121000000Y-69100000D03*
X121000000Y-71640000D03*
X121000000Y-74180000D03*
X121000000Y-76720000D03*
D15*
X108290000Y-91500000D03*
D16*
X105750000Y-91500000D03*
D17*
X105750000Y-94040000D03*
X108290000Y-94040000D03*
D15*
X116290000Y-91500000D03*
D16*
X113750000Y-91500000D03*
D17*
X113750000Y-94040000D03*
X116290000Y-94040000D03*
D15*
X124290000Y-91500000D03*
D16*
X121750000Y-91500000D03*
D17*
X121750000Y-94040000D03*
X124290000Y-94040000D03*
D15*
X132290000Y-91500000D03*
D16*
X129750000Y-91500000D03*
D17*
X129750000Y-94040000D03*
X132290000Y-94040000D03*
D15*
X140290000Y-91500000D03*
D16*
X137750000Y-91500000D03*
D17*
X137750000Y-94040000D03*
X140290000Y-94040000D03*
D15*
X148290000Y-91500000D03*
D16*
X145750000Y-91500000D03*
D17*
X145750000Y-94040000D03*
X148290000Y-94040000D03*
D15*
X156290000Y-91500000D03*
D16*
X153750000Y-91500000D03*
D17*
X153750000Y-94040000D03*
X156290000Y-94040000D03*
D15*
X164290000Y-91500000D03*
D16*
X161750000Y-91500000D03*
D17*
X161750000Y-94040000D03*
X164290000Y-94040000D03*
D11*
X146400000Y-31000000D03*
D12*
X146400000Y-33540000D03*
X146400000Y-36080000D03*
X146400000Y-38620000D03*
X146400000Y-41160000D03*
X146400000Y-43700000D03*
X146400000Y-46240000D03*
X146400000Y-48780000D03*
X146400000Y-51320000D03*
X146400000Y-53860000D03*
X146400000Y-56400000D03*
X146400000Y-58940000D03*
X146400000Y-61480000D03*
X146400000Y-64020000D03*
X146400000Y-66560000D03*
X146400000Y-69100000D03*
X146400000Y-71640000D03*
X146400000Y-74180000D03*
X146400000Y-76720000D03*
D20*
X110600000Y-57000000D03*
D21*
X116900000Y-57000000D03*
X116900000Y-59300000D03*
X116900000Y-54700000D03*
D22*
X123250000Y-80850000D03*
D23*
X123250000Y-87150000D03*
X120950000Y-87150000D03*
X125550000Y-87150000D03*
M02*
