G04 #@! TF.FileFunction,Copper,L1,Top,Signal*
%FSLAX46Y46*%
G04 Gerber Fmt 4.6, Leading zero omitted, Abs format (unit mm)*
G04 Created by KiCad (PCBNEW 4.0.7-e2-6376~58~ubuntu16.04.1) date Wed Sep  5 16:40:10 2018*
%MOMM*%
%LPD*%
G01*
G04 APERTURE LIST*
%ADD10C,0.100000*%
%ADD11R,1.700000X1.700000*%
%ADD12O,1.700000X1.700000*%
%ADD13R,1.250000X1.000000*%
%ADD14R,1.200000X1.200000*%
%ADD15O,1.998980X1.998980*%
%ADD16R,1.998980X1.998980*%
%ADD17C,2.400000*%
%ADD18R,2.400000X2.400000*%
%ADD19R,0.700000X1.300000*%
%ADD20R,1.300000X0.700000*%
%ADD21R,1.400000X0.300000*%
%ADD22C,0.520000*%
%ADD23C,0.508000*%
%ADD24C,0.300000*%
%ADD25C,0.175000*%
%ADD26C,0.254000*%
G04 APERTURE END LIST*
D10*
D11*
X134000000Y-44630000D03*
D12*
X134000000Y-47170000D03*
X134000000Y-49710000D03*
X134000000Y-52250000D03*
X134000000Y-54790000D03*
X134000000Y-57330000D03*
X134000000Y-59870000D03*
X134000000Y-62410000D03*
D13*
X117250000Y-84500000D03*
X117250000Y-86500000D03*
X133250000Y-84500000D03*
X133250000Y-86500000D03*
X149250000Y-84500000D03*
X149250000Y-86500000D03*
X165250000Y-84500000D03*
X165250000Y-86500000D03*
D14*
X108600000Y-66500000D03*
X106400000Y-66500000D03*
D15*
X106000000Y-44750000D03*
D16*
X106000000Y-42210000D03*
D17*
X107250000Y-74500000D03*
D18*
X107250000Y-71000000D03*
D15*
X157710000Y-31000000D03*
D16*
X165330000Y-31000000D03*
D15*
X162790000Y-31000000D03*
X160250000Y-31000000D03*
X155170000Y-31000000D03*
X152630000Y-31000000D03*
X106000000Y-51290000D03*
D16*
X106000000Y-48750000D03*
D15*
X106000000Y-58000000D03*
D16*
X106000000Y-55460000D03*
D11*
X121000000Y-31000000D03*
D12*
X121000000Y-33540000D03*
X121000000Y-36080000D03*
X121000000Y-38620000D03*
X121000000Y-41160000D03*
X121000000Y-43700000D03*
X121000000Y-46240000D03*
X121000000Y-48780000D03*
X121000000Y-51320000D03*
X121000000Y-53860000D03*
X121000000Y-56400000D03*
X121000000Y-58940000D03*
X121000000Y-61480000D03*
X121000000Y-64020000D03*
X121000000Y-66560000D03*
X121000000Y-69100000D03*
X121000000Y-71640000D03*
X121000000Y-74180000D03*
X121000000Y-76720000D03*
D15*
X108290000Y-91500000D03*
D16*
X105750000Y-91500000D03*
D15*
X116290000Y-91500000D03*
D16*
X113750000Y-91500000D03*
D15*
X124290000Y-91500000D03*
D16*
X121750000Y-91500000D03*
D15*
X132290000Y-91500000D03*
D16*
X129750000Y-91500000D03*
D15*
X140290000Y-91500000D03*
D16*
X137750000Y-91500000D03*
D15*
X148290000Y-91500000D03*
D16*
X145750000Y-91500000D03*
D15*
X156290000Y-91500000D03*
D16*
X153750000Y-91500000D03*
D15*
X164290000Y-91500000D03*
D16*
X161750000Y-91500000D03*
D11*
X146400000Y-31000000D03*
D12*
X146400000Y-33540000D03*
X146400000Y-36080000D03*
X146400000Y-38620000D03*
X146400000Y-41160000D03*
X146400000Y-43700000D03*
X146400000Y-46240000D03*
X146400000Y-48780000D03*
X146400000Y-51320000D03*
X146400000Y-53860000D03*
X146400000Y-56400000D03*
X146400000Y-58940000D03*
X146400000Y-61480000D03*
X146400000Y-64020000D03*
X146400000Y-66560000D03*
X146400000Y-69100000D03*
X146400000Y-71640000D03*
X146400000Y-74180000D03*
X146400000Y-76720000D03*
D19*
X113300000Y-44750000D03*
X115200000Y-44750000D03*
X115200000Y-48750000D03*
X113300000Y-48750000D03*
X113300000Y-55500000D03*
X115200000Y-55500000D03*
X127800000Y-54750000D03*
X129700000Y-54750000D03*
X127800000Y-57250000D03*
X129700000Y-57250000D03*
X115200000Y-66500000D03*
X113300000Y-66500000D03*
D20*
X155250000Y-36550000D03*
X155250000Y-38450000D03*
X152500000Y-36550000D03*
X152500000Y-38450000D03*
D21*
X109050000Y-83500000D03*
X109050000Y-84000000D03*
X109050000Y-84500000D03*
X109050000Y-85000000D03*
X109050000Y-85500000D03*
X113450000Y-85500000D03*
X113450000Y-85000000D03*
X113450000Y-84500000D03*
X113450000Y-84000000D03*
X113450000Y-83500000D03*
X124800000Y-83500000D03*
X124800000Y-84000000D03*
X124800000Y-84500000D03*
X124800000Y-85000000D03*
X124800000Y-85500000D03*
X129200000Y-85500000D03*
X129200000Y-85000000D03*
X129200000Y-84500000D03*
X129200000Y-84000000D03*
X129200000Y-83500000D03*
X140800000Y-83500000D03*
X140800000Y-84000000D03*
X140800000Y-84500000D03*
X140800000Y-85000000D03*
X140800000Y-85500000D03*
X145200000Y-85500000D03*
X145200000Y-85000000D03*
X145200000Y-84500000D03*
X145200000Y-84000000D03*
X145200000Y-83500000D03*
X156550000Y-83500000D03*
X156550000Y-84000000D03*
X156550000Y-84500000D03*
X156550000Y-85000000D03*
X156550000Y-85500000D03*
X160950000Y-85500000D03*
X160950000Y-85000000D03*
X160950000Y-84500000D03*
X160950000Y-84000000D03*
X160950000Y-83500000D03*
D22*
X152500000Y-40750000D03*
X117750000Y-47250000D03*
X165250000Y-87750000D03*
X118750000Y-86500000D03*
X135250000Y-86500000D03*
X151500000Y-86500000D03*
X136500000Y-85000000D03*
X152500000Y-85250000D03*
X166750000Y-88500000D03*
X121500000Y-84750000D03*
X125000000Y-57250000D03*
D23*
X139000000Y-81750000D03*
X139000000Y-83750000D03*
X135250000Y-83943590D03*
X133250000Y-78750000D03*
D24*
X152500000Y-40750000D02*
X152500000Y-38450000D01*
X152500000Y-38450000D02*
X155250000Y-38450000D01*
X115850000Y-48750000D02*
X116250000Y-48750000D01*
X116250000Y-48750000D02*
X117750000Y-47250000D01*
X115200000Y-48750000D02*
X115850000Y-48750000D01*
X165250000Y-86500000D02*
X165250000Y-87750000D01*
X117250000Y-86500000D02*
X118750000Y-86500000D01*
X133250000Y-86500000D02*
X135250000Y-86500000D01*
X149250000Y-86500000D02*
X151500000Y-86500000D01*
X156550000Y-84500000D02*
X154000000Y-84500000D01*
X140800000Y-84500000D02*
X138250000Y-84500000D01*
X124800000Y-84500000D02*
X122750000Y-84500000D01*
X109050000Y-84500000D02*
X107250000Y-84500000D01*
X109050000Y-84500000D02*
X110750000Y-84500000D01*
X109050000Y-83500000D02*
X107250000Y-83500000D01*
X109050000Y-83500000D02*
X110500000Y-83500000D01*
D25*
X113300000Y-48750000D02*
X113300000Y-49050000D01*
X113300000Y-49050000D02*
X114296023Y-50046023D01*
X114296023Y-50046023D02*
X119733977Y-50046023D01*
X119733977Y-50046023D02*
X120150001Y-49629999D01*
X120150001Y-49629999D02*
X121000000Y-48780000D01*
X106000000Y-48750000D02*
X113300000Y-48750000D01*
X113300000Y-55500000D02*
X113300000Y-53831714D01*
X113300000Y-53831714D02*
X115811714Y-51320000D01*
X115811714Y-51320000D02*
X119797919Y-51320000D01*
X119797919Y-51320000D02*
X121000000Y-51320000D01*
X106000000Y-55460000D02*
X113260000Y-55460000D01*
X113260000Y-55460000D02*
X113300000Y-55500000D01*
X108600000Y-66500000D02*
X113300000Y-66500000D01*
X155250000Y-36550000D02*
X155250000Y-31080000D01*
X155250000Y-31080000D02*
X155170000Y-31000000D01*
X152500000Y-36550000D02*
X152500000Y-31130000D01*
X152500000Y-31130000D02*
X152630000Y-31000000D01*
D24*
X133250000Y-84500000D02*
X136000000Y-84500000D01*
X136000000Y-84500000D02*
X136500000Y-85000000D01*
X149250000Y-84500000D02*
X151750000Y-84500000D01*
X151750000Y-84500000D02*
X152500000Y-85250000D01*
X145200000Y-84500000D02*
X149250000Y-84500000D01*
X165250000Y-84500000D02*
X160950000Y-84500000D01*
X166750000Y-88500000D02*
X166750000Y-85107188D01*
X166750000Y-85107188D02*
X166142812Y-84500000D01*
X166142812Y-84500000D02*
X165250000Y-84500000D01*
X124800000Y-83500000D02*
X126357167Y-83500000D01*
X126357167Y-83500000D02*
X127357167Y-84500000D01*
X127357167Y-84500000D02*
X128200000Y-84500000D01*
X128200000Y-84500000D02*
X129200000Y-84500000D01*
X117250000Y-84500000D02*
X121250000Y-84500000D01*
X121250000Y-84500000D02*
X121500000Y-84750000D01*
X129200000Y-84500000D02*
X133250000Y-84500000D01*
X113450000Y-84500000D02*
X117250000Y-84500000D01*
X127800000Y-54750000D02*
X127800000Y-57250000D01*
X125000000Y-57250000D02*
X127800000Y-57250000D01*
D25*
X113300000Y-44750000D02*
X113300000Y-45050000D01*
X113300000Y-45050000D02*
X114490000Y-46240000D01*
X114490000Y-46240000D02*
X119797919Y-46240000D01*
X119797919Y-46240000D02*
X121000000Y-46240000D01*
X106000000Y-44750000D02*
X113300000Y-44750000D01*
X134000000Y-47170000D02*
X136087336Y-45082664D01*
X136087336Y-45082664D02*
X136087336Y-43852664D01*
X136087336Y-43852664D02*
X145550001Y-34389999D01*
X145550001Y-34389999D02*
X146400000Y-33540000D01*
X129700000Y-54750000D02*
X129700000Y-55050000D01*
X129700000Y-55050000D02*
X128740431Y-56009569D01*
X128740431Y-56009569D02*
X128740431Y-81388608D01*
X128740431Y-81388608D02*
X130000000Y-82648177D01*
X115542630Y-82648177D02*
X130000000Y-82648177D01*
X130000000Y-82648177D02*
X132250000Y-82648177D01*
X132250000Y-82648177D02*
X137250000Y-82648177D01*
X137250000Y-82648177D02*
X148500000Y-82648177D01*
X138640790Y-81750000D02*
X137742613Y-82648177D01*
X139000000Y-81750000D02*
X138640790Y-81750000D01*
X137742613Y-82648177D02*
X137250000Y-82648177D01*
X140800000Y-83500000D02*
X139250000Y-83500000D01*
X139250000Y-83500000D02*
X139000000Y-83750000D01*
X148500000Y-82648177D02*
X158586649Y-82648177D01*
X158586649Y-82648177D02*
X159438472Y-83500000D01*
X159438472Y-83500000D02*
X160950000Y-83500000D01*
X145200000Y-83500000D02*
X146435844Y-83500000D01*
X146435844Y-83500000D02*
X147287667Y-82648177D01*
X147287667Y-82648177D02*
X148500000Y-82648177D01*
X129200000Y-83500000D02*
X130595153Y-83500000D01*
X130595153Y-83500000D02*
X131446976Y-82648177D01*
X131446976Y-82648177D02*
X132250000Y-82648177D01*
X113450000Y-83500000D02*
X114690807Y-83500000D01*
X114690807Y-83500000D02*
X115542630Y-82648177D01*
X134000000Y-54790000D02*
X129740000Y-54790000D01*
X129740000Y-54790000D02*
X129700000Y-54750000D01*
X134000000Y-54790000D02*
X137901602Y-50888398D01*
X137901602Y-50888398D02*
X137901602Y-44578398D01*
X137901602Y-44578398D02*
X145550001Y-36929999D01*
X145550001Y-36929999D02*
X146400000Y-36080000D01*
X160250000Y-31000000D02*
X158762480Y-29512480D01*
X158762480Y-29512480D02*
X151891261Y-29512480D01*
X151891261Y-29512480D02*
X150951429Y-30452312D01*
X150951429Y-30452312D02*
X150951429Y-31528571D01*
X150951429Y-31528571D02*
X146400000Y-36080000D01*
X135503999Y-83689591D02*
X135250000Y-83943590D01*
X136162955Y-83030635D02*
X135503999Y-83689591D01*
X138000000Y-83030635D02*
X136162955Y-83030635D01*
X131772995Y-83030635D02*
X138000000Y-83030635D01*
X138000000Y-83030635D02*
X143159393Y-83030635D01*
X129700000Y-57250000D02*
X129700000Y-75200000D01*
X129700000Y-75200000D02*
X133250000Y-78750000D01*
X129200000Y-84000000D02*
X130803630Y-84000000D01*
X130803630Y-84000000D02*
X131772995Y-83030635D01*
X143159393Y-83030635D02*
X144128758Y-84000000D01*
X144128758Y-84000000D02*
X145200000Y-84000000D01*
X145200000Y-84000000D02*
X146612549Y-84000000D01*
X146612549Y-84000000D02*
X147112549Y-83500000D01*
X147112549Y-83500000D02*
X155675000Y-83500000D01*
X155675000Y-83500000D02*
X156550000Y-83500000D01*
X158750000Y-83500000D02*
X159250000Y-84000000D01*
X159250000Y-84000000D02*
X160950000Y-84000000D01*
X156550000Y-83500000D02*
X158750000Y-83500000D01*
X113450000Y-84000000D02*
X116193178Y-84000000D01*
X116193178Y-84000000D02*
X117083079Y-83110099D01*
X117083079Y-83110099D02*
X127435099Y-83110099D01*
X127435099Y-83110099D02*
X128325000Y-84000000D01*
X128325000Y-84000000D02*
X129200000Y-84000000D01*
X134000000Y-57330000D02*
X129780000Y-57330000D01*
X129780000Y-57330000D02*
X129700000Y-57250000D01*
X134000000Y-57330000D02*
X139649968Y-51680032D01*
X139649968Y-51680032D02*
X139649968Y-50450032D01*
X139649968Y-50450032D02*
X145550001Y-44549999D01*
X145550001Y-44549999D02*
X146400000Y-43700000D01*
X157710000Y-31000000D02*
X157710000Y-38097461D01*
X157710000Y-38097461D02*
X152107461Y-43700000D01*
X152107461Y-43700000D02*
X147602081Y-43700000D01*
X147602081Y-43700000D02*
X146400000Y-43700000D01*
X109050000Y-85500000D02*
X109050000Y-90740000D01*
X109050000Y-90740000D02*
X108290000Y-91500000D01*
X109050000Y-85000000D02*
X108175000Y-85000000D01*
X108175000Y-85000000D02*
X105750000Y-87425000D01*
X105750000Y-87425000D02*
X105750000Y-90325510D01*
X105750000Y-90325510D02*
X105750000Y-91500000D01*
X113450000Y-85000000D02*
X114325000Y-85000000D01*
X114325000Y-85000000D02*
X116290000Y-86965000D01*
X116290000Y-86965000D02*
X116290000Y-90086508D01*
X116290000Y-90086508D02*
X116290000Y-91500000D01*
X113450000Y-85500000D02*
X113450000Y-91200000D01*
X113450000Y-91200000D02*
X113750000Y-91500000D01*
X124800000Y-85500000D02*
X124800000Y-90990000D01*
X124800000Y-90990000D02*
X124290000Y-91500000D01*
X124800000Y-85000000D02*
X123925000Y-85000000D01*
X123925000Y-85000000D02*
X121750000Y-87175000D01*
X121750000Y-87175000D02*
X121750000Y-90325510D01*
X121750000Y-90325510D02*
X121750000Y-91500000D01*
X129200000Y-85000000D02*
X130075000Y-85000000D01*
X132290000Y-90086508D02*
X132290000Y-91500000D01*
X130075000Y-85000000D02*
X132290000Y-87215000D01*
X132290000Y-87215000D02*
X132290000Y-90086508D01*
X129200000Y-85500000D02*
X129200000Y-90950000D01*
X129200000Y-90950000D02*
X129750000Y-91500000D01*
X140800000Y-85500000D02*
X140800000Y-90990000D01*
X140800000Y-90990000D02*
X140290000Y-91500000D01*
X140800000Y-85000000D02*
X139925000Y-85000000D01*
X137750000Y-87175000D02*
X137750000Y-90325510D01*
X139925000Y-85000000D02*
X137750000Y-87175000D01*
X137750000Y-90325510D02*
X137750000Y-91500000D01*
X145200000Y-85000000D02*
X146075000Y-85000000D01*
X146075000Y-85000000D02*
X148290000Y-87215000D01*
X148290000Y-87215000D02*
X148290000Y-90086508D01*
X148290000Y-90086508D02*
X148290000Y-91500000D01*
X145200000Y-85500000D02*
X145200000Y-90950000D01*
X145200000Y-90950000D02*
X145750000Y-91500000D01*
X156550000Y-85500000D02*
X156550000Y-91240000D01*
X156550000Y-91240000D02*
X156290000Y-91500000D01*
X156550000Y-85000000D02*
X155675000Y-85000000D01*
X155675000Y-85000000D02*
X153750000Y-86925000D01*
X153750000Y-86925000D02*
X153750000Y-90325510D01*
X153750000Y-90325510D02*
X153750000Y-91500000D01*
X160950000Y-85000000D02*
X161825000Y-85000000D01*
X161825000Y-85000000D02*
X164290000Y-87465000D01*
X164290000Y-87465000D02*
X164290000Y-90086508D01*
X164290000Y-90086508D02*
X164290000Y-91500000D01*
X160950000Y-85500000D02*
X160950000Y-90700000D01*
X160950000Y-90700000D02*
X161750000Y-91500000D01*
X115200000Y-66500000D02*
X120940000Y-66500000D01*
X120940000Y-66500000D02*
X121000000Y-66560000D01*
D26*
G36*
X138110846Y-83926057D02*
X138245903Y-84252920D01*
X138495764Y-84503218D01*
X138822391Y-84638846D01*
X139176057Y-84639154D01*
X139326055Y-84577176D01*
X137239115Y-86664115D01*
X137082497Y-86898511D01*
X137027500Y-87175000D01*
X137027500Y-89853070D01*
X136750510Y-89853070D01*
X136515193Y-89897348D01*
X136299069Y-90036420D01*
X136154079Y-90248620D01*
X136103070Y-90500510D01*
X136103070Y-92499490D01*
X136147348Y-92734807D01*
X136286420Y-92950931D01*
X136498620Y-93095921D01*
X136750510Y-93146930D01*
X136967322Y-93146930D01*
X136745991Y-93367875D01*
X136565206Y-93803255D01*
X136564794Y-94274677D01*
X136571125Y-94290000D01*
X133469290Y-94290000D01*
X133474794Y-94276745D01*
X133475206Y-93805323D01*
X133295180Y-93369628D01*
X132962125Y-93035991D01*
X132915189Y-93016502D01*
X132947514Y-93010072D01*
X133477781Y-92655759D01*
X133832094Y-92125492D01*
X133956512Y-91500000D01*
X133832094Y-90874508D01*
X133477781Y-90344241D01*
X133012500Y-90033350D01*
X133012500Y-87586750D01*
X133123000Y-87476250D01*
X133123000Y-86627000D01*
X133377000Y-86627000D01*
X133377000Y-87476250D01*
X133535750Y-87635000D01*
X134001310Y-87635000D01*
X134234699Y-87538327D01*
X134413327Y-87359698D01*
X134510000Y-87126309D01*
X134510000Y-86785750D01*
X134351250Y-86627000D01*
X133377000Y-86627000D01*
X133123000Y-86627000D01*
X133103000Y-86627000D01*
X133103000Y-86373000D01*
X133123000Y-86373000D01*
X133123000Y-86353000D01*
X133377000Y-86353000D01*
X133377000Y-86373000D01*
X134351250Y-86373000D01*
X134510000Y-86214250D01*
X134510000Y-85873691D01*
X134413327Y-85640302D01*
X134272090Y-85499064D01*
X134326441Y-85464090D01*
X134448808Y-85285000D01*
X135649369Y-85285000D01*
X135740814Y-85506314D01*
X135992361Y-85758302D01*
X136321192Y-85894844D01*
X136677245Y-85895155D01*
X137006314Y-85759186D01*
X137258302Y-85507639D01*
X137394844Y-85178808D01*
X137395155Y-84822755D01*
X137259186Y-84493686D01*
X137007639Y-84241698D01*
X136741236Y-84131078D01*
X136555079Y-83944921D01*
X136384449Y-83830910D01*
X136462224Y-83753135D01*
X138110997Y-83753135D01*
X138110846Y-83926057D01*
X138110846Y-83926057D01*
G37*
X138110846Y-83926057D02*
X138245903Y-84252920D01*
X138495764Y-84503218D01*
X138822391Y-84638846D01*
X139176057Y-84639154D01*
X139326055Y-84577176D01*
X137239115Y-86664115D01*
X137082497Y-86898511D01*
X137027500Y-87175000D01*
X137027500Y-89853070D01*
X136750510Y-89853070D01*
X136515193Y-89897348D01*
X136299069Y-90036420D01*
X136154079Y-90248620D01*
X136103070Y-90500510D01*
X136103070Y-92499490D01*
X136147348Y-92734807D01*
X136286420Y-92950931D01*
X136498620Y-93095921D01*
X136750510Y-93146930D01*
X136967322Y-93146930D01*
X136745991Y-93367875D01*
X136565206Y-93803255D01*
X136564794Y-94274677D01*
X136571125Y-94290000D01*
X133469290Y-94290000D01*
X133474794Y-94276745D01*
X133475206Y-93805323D01*
X133295180Y-93369628D01*
X132962125Y-93035991D01*
X132915189Y-93016502D01*
X132947514Y-93010072D01*
X133477781Y-92655759D01*
X133832094Y-92125492D01*
X133956512Y-91500000D01*
X133832094Y-90874508D01*
X133477781Y-90344241D01*
X133012500Y-90033350D01*
X133012500Y-87586750D01*
X133123000Y-87476250D01*
X133123000Y-86627000D01*
X133377000Y-86627000D01*
X133377000Y-87476250D01*
X133535750Y-87635000D01*
X134001310Y-87635000D01*
X134234699Y-87538327D01*
X134413327Y-87359698D01*
X134510000Y-87126309D01*
X134510000Y-86785750D01*
X134351250Y-86627000D01*
X133377000Y-86627000D01*
X133123000Y-86627000D01*
X133103000Y-86627000D01*
X133103000Y-86373000D01*
X133123000Y-86373000D01*
X133123000Y-86353000D01*
X133377000Y-86353000D01*
X133377000Y-86373000D01*
X134351250Y-86373000D01*
X134510000Y-86214250D01*
X134510000Y-85873691D01*
X134413327Y-85640302D01*
X134272090Y-85499064D01*
X134326441Y-85464090D01*
X134448808Y-85285000D01*
X135649369Y-85285000D01*
X135740814Y-85506314D01*
X135992361Y-85758302D01*
X136321192Y-85894844D01*
X136677245Y-85895155D01*
X137006314Y-85759186D01*
X137258302Y-85507639D01*
X137394844Y-85178808D01*
X137395155Y-84822755D01*
X137259186Y-84493686D01*
X137007639Y-84241698D01*
X136741236Y-84131078D01*
X136555079Y-83944921D01*
X136384449Y-83830910D01*
X136462224Y-83753135D01*
X138110997Y-83753135D01*
X138110846Y-83926057D01*
G36*
X155215000Y-84223690D02*
X155215000Y-84266250D01*
X155226621Y-84277871D01*
X155244520Y-84372998D01*
X155215000Y-84372998D01*
X155215000Y-84455115D01*
X155164115Y-84489115D01*
X153239115Y-86414115D01*
X153082497Y-86648511D01*
X153027500Y-86925000D01*
X153027500Y-89853070D01*
X152750510Y-89853070D01*
X152515193Y-89897348D01*
X152299069Y-90036420D01*
X152154079Y-90248620D01*
X152103070Y-90500510D01*
X152103070Y-92499490D01*
X152147348Y-92734807D01*
X152286420Y-92950931D01*
X152498620Y-93095921D01*
X152750510Y-93146930D01*
X152967322Y-93146930D01*
X152745991Y-93367875D01*
X152565206Y-93803255D01*
X152564794Y-94274677D01*
X152571125Y-94290000D01*
X149469290Y-94290000D01*
X149474794Y-94276745D01*
X149475206Y-93805323D01*
X149295180Y-93369628D01*
X148962125Y-93035991D01*
X148915189Y-93016502D01*
X148947514Y-93010072D01*
X149477781Y-92655759D01*
X149832094Y-92125492D01*
X149956512Y-91500000D01*
X149832094Y-90874508D01*
X149477781Y-90344241D01*
X149012500Y-90033350D01*
X149012500Y-87586750D01*
X149123000Y-87476250D01*
X149123000Y-86627000D01*
X149377000Y-86627000D01*
X149377000Y-87476250D01*
X149535750Y-87635000D01*
X150001310Y-87635000D01*
X150234699Y-87538327D01*
X150413327Y-87359698D01*
X150510000Y-87126309D01*
X150510000Y-86785750D01*
X150351250Y-86627000D01*
X149377000Y-86627000D01*
X149123000Y-86627000D01*
X149103000Y-86627000D01*
X149103000Y-86373000D01*
X149123000Y-86373000D01*
X149123000Y-86353000D01*
X149377000Y-86353000D01*
X149377000Y-86373000D01*
X150351250Y-86373000D01*
X150510000Y-86214250D01*
X150510000Y-85873691D01*
X150413327Y-85640302D01*
X150272090Y-85499064D01*
X150326441Y-85464090D01*
X150448808Y-85285000D01*
X151424842Y-85285000D01*
X151631432Y-85491590D01*
X151740814Y-85756314D01*
X151992361Y-86008302D01*
X152321192Y-86144844D01*
X152677245Y-86145155D01*
X153006314Y-86009186D01*
X153258302Y-85757639D01*
X153394844Y-85428808D01*
X153395155Y-85072755D01*
X153259186Y-84743686D01*
X153007639Y-84491698D01*
X152741236Y-84381078D01*
X152582658Y-84222500D01*
X155215493Y-84222500D01*
X155215000Y-84223690D01*
X155215000Y-84223690D01*
G37*
X155215000Y-84223690D02*
X155215000Y-84266250D01*
X155226621Y-84277871D01*
X155244520Y-84372998D01*
X155215000Y-84372998D01*
X155215000Y-84455115D01*
X155164115Y-84489115D01*
X153239115Y-86414115D01*
X153082497Y-86648511D01*
X153027500Y-86925000D01*
X153027500Y-89853070D01*
X152750510Y-89853070D01*
X152515193Y-89897348D01*
X152299069Y-90036420D01*
X152154079Y-90248620D01*
X152103070Y-90500510D01*
X152103070Y-92499490D01*
X152147348Y-92734807D01*
X152286420Y-92950931D01*
X152498620Y-93095921D01*
X152750510Y-93146930D01*
X152967322Y-93146930D01*
X152745991Y-93367875D01*
X152565206Y-93803255D01*
X152564794Y-94274677D01*
X152571125Y-94290000D01*
X149469290Y-94290000D01*
X149474794Y-94276745D01*
X149475206Y-93805323D01*
X149295180Y-93369628D01*
X148962125Y-93035991D01*
X148915189Y-93016502D01*
X148947514Y-93010072D01*
X149477781Y-92655759D01*
X149832094Y-92125492D01*
X149956512Y-91500000D01*
X149832094Y-90874508D01*
X149477781Y-90344241D01*
X149012500Y-90033350D01*
X149012500Y-87586750D01*
X149123000Y-87476250D01*
X149123000Y-86627000D01*
X149377000Y-86627000D01*
X149377000Y-87476250D01*
X149535750Y-87635000D01*
X150001310Y-87635000D01*
X150234699Y-87538327D01*
X150413327Y-87359698D01*
X150510000Y-87126309D01*
X150510000Y-86785750D01*
X150351250Y-86627000D01*
X149377000Y-86627000D01*
X149123000Y-86627000D01*
X149103000Y-86627000D01*
X149103000Y-86373000D01*
X149123000Y-86373000D01*
X149123000Y-86353000D01*
X149377000Y-86353000D01*
X149377000Y-86373000D01*
X150351250Y-86373000D01*
X150510000Y-86214250D01*
X150510000Y-85873691D01*
X150413327Y-85640302D01*
X150272090Y-85499064D01*
X150326441Y-85464090D01*
X150448808Y-85285000D01*
X151424842Y-85285000D01*
X151631432Y-85491590D01*
X151740814Y-85756314D01*
X151992361Y-86008302D01*
X152321192Y-86144844D01*
X152677245Y-86145155D01*
X153006314Y-86009186D01*
X153258302Y-85757639D01*
X153394844Y-85428808D01*
X153395155Y-85072755D01*
X153259186Y-84743686D01*
X153007639Y-84491698D01*
X152741236Y-84381078D01*
X152582658Y-84222500D01*
X155215493Y-84222500D01*
X155215000Y-84223690D01*
G36*
X166451325Y-28263956D02*
X166622002Y-28377998D01*
X166736044Y-28548675D01*
X166790000Y-28819927D01*
X166790000Y-29546623D01*
X166581380Y-29404079D01*
X166329490Y-29353070D01*
X164330510Y-29353070D01*
X164095193Y-29397348D01*
X163879069Y-29536420D01*
X163768906Y-29697649D01*
X163749726Y-29676932D01*
X163170355Y-29410373D01*
X162917000Y-29529193D01*
X162917000Y-30873000D01*
X162937000Y-30873000D01*
X162937000Y-31127000D01*
X162917000Y-31127000D01*
X162917000Y-32470807D01*
X163170355Y-32589627D01*
X163749726Y-32323068D01*
X163770030Y-32301137D01*
X163866420Y-32450931D01*
X164078620Y-32595921D01*
X164330510Y-32646930D01*
X166329490Y-32646930D01*
X166564807Y-32602652D01*
X166780931Y-32463580D01*
X166790000Y-32450307D01*
X166790000Y-84037030D01*
X166697891Y-83944921D01*
X166485355Y-83802909D01*
X166478162Y-83764683D01*
X166339090Y-83548559D01*
X166126890Y-83403569D01*
X165875000Y-83352560D01*
X164625000Y-83352560D01*
X164389683Y-83396838D01*
X164173559Y-83535910D01*
X164051192Y-83715000D01*
X162284277Y-83715000D01*
X162297440Y-83650000D01*
X162297440Y-83350000D01*
X162253162Y-83114683D01*
X162114090Y-82898559D01*
X161901890Y-82753569D01*
X161650000Y-82702560D01*
X160250000Y-82702560D01*
X160014683Y-82746838D01*
X159967033Y-82777500D01*
X159737741Y-82777500D01*
X159097534Y-82137292D01*
X158863138Y-81980674D01*
X158586649Y-81925677D01*
X147287672Y-81925677D01*
X147287667Y-81925676D01*
X147287662Y-81925677D01*
X139888848Y-81925677D01*
X139889154Y-81573943D01*
X139754097Y-81247080D01*
X139504236Y-80996782D01*
X139177609Y-80861154D01*
X138823943Y-80860846D01*
X138497080Y-80995903D01*
X138421790Y-81071062D01*
X138364301Y-81082497D01*
X138129905Y-81239115D01*
X137443343Y-81925677D01*
X131446981Y-81925677D01*
X131446976Y-81925676D01*
X131446971Y-81925677D01*
X130299269Y-81925677D01*
X129462931Y-81089338D01*
X129462931Y-75984701D01*
X132360884Y-78882654D01*
X132360846Y-78926057D01*
X132495903Y-79252920D01*
X132745764Y-79503218D01*
X133072391Y-79638846D01*
X133426057Y-79639154D01*
X133752920Y-79504097D01*
X134003218Y-79254236D01*
X134138846Y-78927609D01*
X134139154Y-78573943D01*
X134004097Y-78247080D01*
X133754236Y-77996782D01*
X133427609Y-77861154D01*
X133382885Y-77861115D01*
X130422500Y-74900730D01*
X130422500Y-62410000D01*
X132485907Y-62410000D01*
X132598946Y-62978285D01*
X132920853Y-63460054D01*
X133402622Y-63781961D01*
X133970907Y-63895000D01*
X134029093Y-63895000D01*
X134597378Y-63781961D01*
X135079147Y-63460054D01*
X135401054Y-62978285D01*
X135514093Y-62410000D01*
X135401054Y-61841715D01*
X135079147Y-61359946D01*
X134738447Y-61132298D01*
X134881358Y-61065183D01*
X135271645Y-60636924D01*
X135441476Y-60226890D01*
X135320155Y-59997000D01*
X134127000Y-59997000D01*
X134127000Y-60017000D01*
X133873000Y-60017000D01*
X133873000Y-59997000D01*
X132679845Y-59997000D01*
X132558524Y-60226890D01*
X132728355Y-60636924D01*
X133118642Y-61065183D01*
X133261553Y-61132298D01*
X132920853Y-61359946D01*
X132598946Y-61841715D01*
X132485907Y-62410000D01*
X130422500Y-62410000D01*
X130422500Y-58414887D01*
X130501441Y-58364090D01*
X130646431Y-58151890D01*
X130666558Y-58052500D01*
X132701989Y-58052500D01*
X132920853Y-58380054D01*
X133261553Y-58607702D01*
X133118642Y-58674817D01*
X132728355Y-59103076D01*
X132558524Y-59513110D01*
X132679845Y-59743000D01*
X133873000Y-59743000D01*
X133873000Y-59723000D01*
X134127000Y-59723000D01*
X134127000Y-59743000D01*
X135320155Y-59743000D01*
X135441476Y-59513110D01*
X135271645Y-59103076D01*
X134881358Y-58674817D01*
X134738447Y-58607702D01*
X135079147Y-58380054D01*
X135401054Y-57898285D01*
X135514093Y-57330000D01*
X135432411Y-56919359D01*
X140160850Y-52190919D01*
X140160853Y-52190917D01*
X140317471Y-51956521D01*
X140372468Y-51680032D01*
X140372468Y-50749302D01*
X142341769Y-48780000D01*
X144885907Y-48780000D01*
X144998946Y-49348285D01*
X145320853Y-49830054D01*
X145650026Y-50050000D01*
X145320853Y-50269946D01*
X144998946Y-50751715D01*
X144885907Y-51320000D01*
X144998946Y-51888285D01*
X145320853Y-52370054D01*
X145650026Y-52590000D01*
X145320853Y-52809946D01*
X144998946Y-53291715D01*
X144885907Y-53860000D01*
X144998946Y-54428285D01*
X145320853Y-54910054D01*
X145650026Y-55130000D01*
X145320853Y-55349946D01*
X144998946Y-55831715D01*
X144885907Y-56400000D01*
X144998946Y-56968285D01*
X145320853Y-57450054D01*
X145650026Y-57670000D01*
X145320853Y-57889946D01*
X144998946Y-58371715D01*
X144885907Y-58940000D01*
X144998946Y-59508285D01*
X145320853Y-59990054D01*
X145650026Y-60210000D01*
X145320853Y-60429946D01*
X144998946Y-60911715D01*
X144885907Y-61480000D01*
X144998946Y-62048285D01*
X145320853Y-62530054D01*
X145650026Y-62750000D01*
X145320853Y-62969946D01*
X144998946Y-63451715D01*
X144885907Y-64020000D01*
X144998946Y-64588285D01*
X145320853Y-65070054D01*
X145650026Y-65290000D01*
X145320853Y-65509946D01*
X144998946Y-65991715D01*
X144885907Y-66560000D01*
X144998946Y-67128285D01*
X145320853Y-67610054D01*
X145650026Y-67830000D01*
X145320853Y-68049946D01*
X144998946Y-68531715D01*
X144885907Y-69100000D01*
X144998946Y-69668285D01*
X145320853Y-70150054D01*
X145650026Y-70370000D01*
X145320853Y-70589946D01*
X144998946Y-71071715D01*
X144885907Y-71640000D01*
X144998946Y-72208285D01*
X145320853Y-72690054D01*
X145650026Y-72910000D01*
X145320853Y-73129946D01*
X144998946Y-73611715D01*
X144885907Y-74180000D01*
X144998946Y-74748285D01*
X145320853Y-75230054D01*
X145650026Y-75450000D01*
X145320853Y-75669946D01*
X144998946Y-76151715D01*
X144885907Y-76720000D01*
X144998946Y-77288285D01*
X145320853Y-77770054D01*
X145802622Y-78091961D01*
X146370907Y-78205000D01*
X146429093Y-78205000D01*
X146997378Y-78091961D01*
X147479147Y-77770054D01*
X147801054Y-77288285D01*
X147914093Y-76720000D01*
X147801054Y-76151715D01*
X147479147Y-75669946D01*
X147149974Y-75450000D01*
X147479147Y-75230054D01*
X147801054Y-74748285D01*
X147914093Y-74180000D01*
X147801054Y-73611715D01*
X147479147Y-73129946D01*
X147149974Y-72910000D01*
X147479147Y-72690054D01*
X147801054Y-72208285D01*
X147914093Y-71640000D01*
X147801054Y-71071715D01*
X147479147Y-70589946D01*
X147149974Y-70370000D01*
X147479147Y-70150054D01*
X147801054Y-69668285D01*
X147914093Y-69100000D01*
X147801054Y-68531715D01*
X147479147Y-68049946D01*
X147149974Y-67830000D01*
X147479147Y-67610054D01*
X147801054Y-67128285D01*
X147914093Y-66560000D01*
X147801054Y-65991715D01*
X147479147Y-65509946D01*
X147149974Y-65290000D01*
X147479147Y-65070054D01*
X147801054Y-64588285D01*
X147914093Y-64020000D01*
X147801054Y-63451715D01*
X147479147Y-62969946D01*
X147149974Y-62750000D01*
X147479147Y-62530054D01*
X147801054Y-62048285D01*
X147914093Y-61480000D01*
X147801054Y-60911715D01*
X147479147Y-60429946D01*
X147149974Y-60210000D01*
X147479147Y-59990054D01*
X147801054Y-59508285D01*
X147914093Y-58940000D01*
X147801054Y-58371715D01*
X147479147Y-57889946D01*
X147149974Y-57670000D01*
X147479147Y-57450054D01*
X147801054Y-56968285D01*
X147914093Y-56400000D01*
X147801054Y-55831715D01*
X147479147Y-55349946D01*
X147149974Y-55130000D01*
X147479147Y-54910054D01*
X147801054Y-54428285D01*
X147914093Y-53860000D01*
X147801054Y-53291715D01*
X147479147Y-52809946D01*
X147149974Y-52590000D01*
X147479147Y-52370054D01*
X147801054Y-51888285D01*
X147914093Y-51320000D01*
X147801054Y-50751715D01*
X147479147Y-50269946D01*
X147149974Y-50050000D01*
X147479147Y-49830054D01*
X147801054Y-49348285D01*
X147914093Y-48780000D01*
X147801054Y-48211715D01*
X147479147Y-47729946D01*
X147138447Y-47502298D01*
X147281358Y-47435183D01*
X147671645Y-47006924D01*
X147841476Y-46596890D01*
X147720155Y-46367000D01*
X146527000Y-46367000D01*
X146527000Y-46387000D01*
X146273000Y-46387000D01*
X146273000Y-46367000D01*
X145079845Y-46367000D01*
X144958524Y-46596890D01*
X145128355Y-47006924D01*
X145518642Y-47435183D01*
X145661553Y-47502298D01*
X145320853Y-47729946D01*
X144998946Y-48211715D01*
X144885907Y-48780000D01*
X142341769Y-48780000D01*
X145055293Y-46066476D01*
X145079845Y-46113000D01*
X146273000Y-46113000D01*
X146273000Y-46093000D01*
X146527000Y-46093000D01*
X146527000Y-46113000D01*
X147720155Y-46113000D01*
X147841476Y-45883110D01*
X147671645Y-45473076D01*
X147281358Y-45044817D01*
X147138447Y-44977702D01*
X147479147Y-44750054D01*
X147698011Y-44422500D01*
X152107461Y-44422500D01*
X152383950Y-44367503D01*
X152618346Y-44210885D01*
X158220882Y-38608348D01*
X158220885Y-38608346D01*
X158377503Y-38373950D01*
X158386628Y-38328077D01*
X158432501Y-38097461D01*
X158432500Y-38097456D01*
X158432500Y-32466650D01*
X158897781Y-32155759D01*
X158980000Y-32032710D01*
X159062219Y-32155759D01*
X159592486Y-32510072D01*
X160217978Y-32634490D01*
X160282022Y-32634490D01*
X160907514Y-32510072D01*
X161437781Y-32155759D01*
X161537379Y-32006700D01*
X161830274Y-32323068D01*
X162409645Y-32589627D01*
X162663000Y-32470807D01*
X162663000Y-31127000D01*
X162643000Y-31127000D01*
X162643000Y-30873000D01*
X162663000Y-30873000D01*
X162663000Y-29529193D01*
X162409645Y-29410373D01*
X161830274Y-29676932D01*
X161537379Y-29993300D01*
X161437781Y-29844241D01*
X160907514Y-29489928D01*
X160282022Y-29365510D01*
X160217978Y-29365510D01*
X159733624Y-29461854D01*
X159273365Y-29001595D01*
X159038969Y-28844977D01*
X158762480Y-28789980D01*
X151891261Y-28789980D01*
X151614772Y-28844977D01*
X151380376Y-29001595D01*
X150440544Y-29941427D01*
X150283926Y-30175823D01*
X150228929Y-30452312D01*
X150228929Y-31229302D01*
X147913066Y-33545165D01*
X147914093Y-33540000D01*
X147801054Y-32971715D01*
X147479147Y-32489946D01*
X147435223Y-32460597D01*
X147609698Y-32388327D01*
X147788327Y-32209699D01*
X147885000Y-31976310D01*
X147885000Y-31285750D01*
X147726250Y-31127000D01*
X146527000Y-31127000D01*
X146527000Y-31147000D01*
X146273000Y-31147000D01*
X146273000Y-31127000D01*
X145073750Y-31127000D01*
X144915000Y-31285750D01*
X144915000Y-31976310D01*
X145011673Y-32209699D01*
X145190302Y-32388327D01*
X145364777Y-32460597D01*
X145320853Y-32489946D01*
X144998946Y-32971715D01*
X144885907Y-33540000D01*
X144967589Y-33950641D01*
X135576451Y-43341779D01*
X135447134Y-43535316D01*
X135314090Y-43328559D01*
X135101890Y-43183569D01*
X134850000Y-43132560D01*
X133150000Y-43132560D01*
X132914683Y-43176838D01*
X132698559Y-43315910D01*
X132553569Y-43528110D01*
X132502560Y-43780000D01*
X132502560Y-45480000D01*
X132546838Y-45715317D01*
X132685910Y-45931441D01*
X132898110Y-46076431D01*
X132965541Y-46090086D01*
X132920853Y-46119946D01*
X132598946Y-46601715D01*
X132485907Y-47170000D01*
X132598946Y-47738285D01*
X132920853Y-48220054D01*
X133250026Y-48440000D01*
X132920853Y-48659946D01*
X132598946Y-49141715D01*
X132485907Y-49710000D01*
X132598946Y-50278285D01*
X132920853Y-50760054D01*
X133250026Y-50980000D01*
X132920853Y-51199946D01*
X132598946Y-51681715D01*
X132485907Y-52250000D01*
X132598946Y-52818285D01*
X132920853Y-53300054D01*
X133250026Y-53520000D01*
X132920853Y-53739946D01*
X132701989Y-54067500D01*
X130691325Y-54067500D01*
X130653162Y-53864683D01*
X130514090Y-53648559D01*
X130301890Y-53503569D01*
X130050000Y-53452560D01*
X129350000Y-53452560D01*
X129114683Y-53496838D01*
X128898559Y-53635910D01*
X128753569Y-53848110D01*
X128750919Y-53861197D01*
X128614090Y-53648559D01*
X128401890Y-53503569D01*
X128150000Y-53452560D01*
X127450000Y-53452560D01*
X127214683Y-53496838D01*
X126998559Y-53635910D01*
X126853569Y-53848110D01*
X126802560Y-54100000D01*
X126802560Y-55400000D01*
X126846838Y-55635317D01*
X126985910Y-55851441D01*
X127015000Y-55871317D01*
X127015000Y-56125331D01*
X126998559Y-56135910D01*
X126853569Y-56348110D01*
X126829898Y-56465000D01*
X125443343Y-56465000D01*
X125178808Y-56355156D01*
X124822755Y-56354845D01*
X124493686Y-56490814D01*
X124241698Y-56742361D01*
X124105156Y-57071192D01*
X124104845Y-57427245D01*
X124240814Y-57756314D01*
X124492361Y-58008302D01*
X124821192Y-58144844D01*
X125177245Y-58145155D01*
X125443840Y-58035000D01*
X126827962Y-58035000D01*
X126846838Y-58135317D01*
X126985910Y-58351441D01*
X127198110Y-58496431D01*
X127450000Y-58547440D01*
X128017931Y-58547440D01*
X128017931Y-81388608D01*
X128072928Y-81665097D01*
X128229546Y-81899493D01*
X128255730Y-81925677D01*
X115542635Y-81925677D01*
X115542630Y-81925676D01*
X115312014Y-81971549D01*
X115266141Y-81980674D01*
X115031745Y-82137292D01*
X115031743Y-82137295D01*
X114409957Y-82759081D01*
X114401890Y-82753569D01*
X114150000Y-82702560D01*
X112750000Y-82702560D01*
X112514683Y-82746838D01*
X112298559Y-82885910D01*
X112153569Y-83098110D01*
X112102560Y-83350000D01*
X112102560Y-83650000D01*
X112122067Y-83753671D01*
X112102560Y-83850000D01*
X112102560Y-84150000D01*
X112122067Y-84253671D01*
X112102560Y-84350000D01*
X112102560Y-84650000D01*
X112122067Y-84753671D01*
X112102560Y-84850000D01*
X112102560Y-85150000D01*
X112122067Y-85253671D01*
X112102560Y-85350000D01*
X112102560Y-85650000D01*
X112146838Y-85885317D01*
X112285910Y-86101441D01*
X112498110Y-86246431D01*
X112727500Y-86292884D01*
X112727500Y-89857400D01*
X112515193Y-89897348D01*
X112299069Y-90036420D01*
X112154079Y-90248620D01*
X112103070Y-90500510D01*
X112103070Y-92499490D01*
X112147348Y-92734807D01*
X112286420Y-92950931D01*
X112498620Y-93095921D01*
X112750510Y-93146930D01*
X112967322Y-93146930D01*
X112745991Y-93367875D01*
X112565206Y-93803255D01*
X112564794Y-94274677D01*
X112571125Y-94290000D01*
X109469290Y-94290000D01*
X109474794Y-94276745D01*
X109475206Y-93805323D01*
X109295180Y-93369628D01*
X108962125Y-93035991D01*
X108915189Y-93016502D01*
X108947514Y-93010072D01*
X109477781Y-92655759D01*
X109832094Y-92125492D01*
X109956512Y-91500000D01*
X109832094Y-90874508D01*
X109765553Y-90774923D01*
X109772500Y-90740000D01*
X109772500Y-86293206D01*
X109985317Y-86253162D01*
X110201441Y-86114090D01*
X110346431Y-85901890D01*
X110397440Y-85650000D01*
X110397440Y-85350000D01*
X110377933Y-85246329D01*
X110397440Y-85150000D01*
X110397440Y-84850000D01*
X110384020Y-84778677D01*
X110385000Y-84776310D01*
X110385000Y-84733750D01*
X110373379Y-84722129D01*
X110353162Y-84614683D01*
X110279380Y-84500022D01*
X110346431Y-84401890D01*
X110371080Y-84280170D01*
X110385000Y-84266250D01*
X110385000Y-84223690D01*
X110383333Y-84219665D01*
X110397440Y-84150000D01*
X110397440Y-83850000D01*
X110384020Y-83778677D01*
X110385000Y-83776310D01*
X110385000Y-83733750D01*
X110373379Y-83722129D01*
X110353162Y-83614683D01*
X110229204Y-83422046D01*
X110385000Y-83266250D01*
X110385000Y-83223690D01*
X110288327Y-82990301D01*
X110109698Y-82811673D01*
X109876309Y-82715000D01*
X109335750Y-82715000D01*
X109177000Y-82873750D01*
X109177000Y-83202560D01*
X108923000Y-83202560D01*
X108923000Y-82873750D01*
X108764250Y-82715000D01*
X108223691Y-82715000D01*
X107990302Y-82811673D01*
X107811673Y-82990301D01*
X107715000Y-83223690D01*
X107715000Y-83266250D01*
X107872621Y-83423871D01*
X107753569Y-83598110D01*
X107728920Y-83719830D01*
X107715000Y-83733750D01*
X107715000Y-83776310D01*
X107716667Y-83780335D01*
X107702560Y-83850000D01*
X107702560Y-84150000D01*
X107715980Y-84221323D01*
X107715000Y-84223690D01*
X107715000Y-84266250D01*
X107726621Y-84277871D01*
X107744520Y-84372998D01*
X107715000Y-84372998D01*
X107715000Y-84455115D01*
X107664115Y-84489115D01*
X105239115Y-86914115D01*
X105082497Y-87148511D01*
X105027500Y-87425000D01*
X105027500Y-89853070D01*
X104750510Y-89853070D01*
X104515193Y-89897348D01*
X104299069Y-90036420D01*
X104154079Y-90248620D01*
X104103070Y-90500510D01*
X104103070Y-92499490D01*
X104147348Y-92734807D01*
X104286420Y-92950931D01*
X104498620Y-93095921D01*
X104750510Y-93146930D01*
X104967322Y-93146930D01*
X104745991Y-93367875D01*
X104565206Y-93803255D01*
X104564794Y-94274677D01*
X104571125Y-94290000D01*
X103819927Y-94290000D01*
X103548675Y-94236044D01*
X103377998Y-94122002D01*
X103263956Y-93951325D01*
X103210000Y-93680073D01*
X103210000Y-74863403D01*
X105414682Y-74863403D01*
X105693455Y-75538086D01*
X106209199Y-76054730D01*
X106883395Y-76334681D01*
X107613403Y-76335318D01*
X108288086Y-76056545D01*
X108804730Y-75540801D01*
X109084681Y-74866605D01*
X109085318Y-74136597D01*
X108806545Y-73461914D01*
X108290801Y-72945270D01*
X108025242Y-72835000D01*
X108576310Y-72835000D01*
X108809699Y-72738327D01*
X108988327Y-72559698D01*
X109085000Y-72326309D01*
X109085000Y-71285750D01*
X108926250Y-71127000D01*
X107377000Y-71127000D01*
X107377000Y-71147000D01*
X107123000Y-71147000D01*
X107123000Y-71127000D01*
X105573750Y-71127000D01*
X105415000Y-71285750D01*
X105415000Y-72326309D01*
X105511673Y-72559698D01*
X105690301Y-72738327D01*
X105923690Y-72835000D01*
X106474395Y-72835000D01*
X106211914Y-72943455D01*
X105695270Y-73459199D01*
X105415319Y-74133395D01*
X105414682Y-74863403D01*
X103210000Y-74863403D01*
X103210000Y-69673691D01*
X105415000Y-69673691D01*
X105415000Y-70714250D01*
X105573750Y-70873000D01*
X107123000Y-70873000D01*
X107123000Y-69323750D01*
X107377000Y-69323750D01*
X107377000Y-70873000D01*
X108926250Y-70873000D01*
X109085000Y-70714250D01*
X109085000Y-69673691D01*
X108988327Y-69440302D01*
X108809699Y-69261673D01*
X108576310Y-69165000D01*
X107535750Y-69165000D01*
X107377000Y-69323750D01*
X107123000Y-69323750D01*
X106964250Y-69165000D01*
X105923690Y-69165000D01*
X105690301Y-69261673D01*
X105511673Y-69440302D01*
X105415000Y-69673691D01*
X103210000Y-69673691D01*
X103210000Y-66785750D01*
X105165000Y-66785750D01*
X105165000Y-67226310D01*
X105261673Y-67459699D01*
X105440302Y-67638327D01*
X105673691Y-67735000D01*
X106114250Y-67735000D01*
X106273000Y-67576250D01*
X106273000Y-66627000D01*
X105323750Y-66627000D01*
X105165000Y-66785750D01*
X103210000Y-66785750D01*
X103210000Y-65773690D01*
X105165000Y-65773690D01*
X105165000Y-66214250D01*
X105323750Y-66373000D01*
X106273000Y-66373000D01*
X106273000Y-65423750D01*
X106527000Y-65423750D01*
X106527000Y-66373000D01*
X106547000Y-66373000D01*
X106547000Y-66627000D01*
X106527000Y-66627000D01*
X106527000Y-67576250D01*
X106685750Y-67735000D01*
X107126309Y-67735000D01*
X107359698Y-67638327D01*
X107500936Y-67497090D01*
X107535910Y-67551441D01*
X107748110Y-67696431D01*
X108000000Y-67747440D01*
X109200000Y-67747440D01*
X109435317Y-67703162D01*
X109651441Y-67564090D01*
X109796431Y-67351890D01*
X109822633Y-67222500D01*
X112316202Y-67222500D01*
X112346838Y-67385317D01*
X112485910Y-67601441D01*
X112698110Y-67746431D01*
X112950000Y-67797440D01*
X113650000Y-67797440D01*
X113885317Y-67753162D01*
X114101441Y-67614090D01*
X114246431Y-67401890D01*
X114249081Y-67388803D01*
X114385910Y-67601441D01*
X114598110Y-67746431D01*
X114850000Y-67797440D01*
X115550000Y-67797440D01*
X115785317Y-67753162D01*
X116001441Y-67614090D01*
X116146431Y-67401890D01*
X116182758Y-67222500D01*
X119661898Y-67222500D01*
X119920853Y-67610054D01*
X120250026Y-67830000D01*
X119920853Y-68049946D01*
X119598946Y-68531715D01*
X119485907Y-69100000D01*
X119598946Y-69668285D01*
X119920853Y-70150054D01*
X120250026Y-70370000D01*
X119920853Y-70589946D01*
X119598946Y-71071715D01*
X119485907Y-71640000D01*
X119598946Y-72208285D01*
X119920853Y-72690054D01*
X120250026Y-72910000D01*
X119920853Y-73129946D01*
X119598946Y-73611715D01*
X119485907Y-74180000D01*
X119598946Y-74748285D01*
X119920853Y-75230054D01*
X120250026Y-75450000D01*
X119920853Y-75669946D01*
X119598946Y-76151715D01*
X119485907Y-76720000D01*
X119598946Y-77288285D01*
X119920853Y-77770054D01*
X120402622Y-78091961D01*
X120970907Y-78205000D01*
X121029093Y-78205000D01*
X121597378Y-78091961D01*
X122079147Y-77770054D01*
X122401054Y-77288285D01*
X122514093Y-76720000D01*
X122401054Y-76151715D01*
X122079147Y-75669946D01*
X121749974Y-75450000D01*
X122079147Y-75230054D01*
X122401054Y-74748285D01*
X122514093Y-74180000D01*
X122401054Y-73611715D01*
X122079147Y-73129946D01*
X121749974Y-72910000D01*
X122079147Y-72690054D01*
X122401054Y-72208285D01*
X122514093Y-71640000D01*
X122401054Y-71071715D01*
X122079147Y-70589946D01*
X121749974Y-70370000D01*
X122079147Y-70150054D01*
X122401054Y-69668285D01*
X122514093Y-69100000D01*
X122401054Y-68531715D01*
X122079147Y-68049946D01*
X121749974Y-67830000D01*
X122079147Y-67610054D01*
X122401054Y-67128285D01*
X122514093Y-66560000D01*
X122401054Y-65991715D01*
X122079147Y-65509946D01*
X121738447Y-65282298D01*
X121881358Y-65215183D01*
X122271645Y-64786924D01*
X122441476Y-64376890D01*
X122320155Y-64147000D01*
X121127000Y-64147000D01*
X121127000Y-64167000D01*
X120873000Y-64167000D01*
X120873000Y-64147000D01*
X119679845Y-64147000D01*
X119558524Y-64376890D01*
X119728355Y-64786924D01*
X120118642Y-65215183D01*
X120261553Y-65282298D01*
X119920853Y-65509946D01*
X119742080Y-65777500D01*
X116183798Y-65777500D01*
X116153162Y-65614683D01*
X116014090Y-65398559D01*
X115801890Y-65253569D01*
X115550000Y-65202560D01*
X114850000Y-65202560D01*
X114614683Y-65246838D01*
X114398559Y-65385910D01*
X114253569Y-65598110D01*
X114250919Y-65611197D01*
X114114090Y-65398559D01*
X113901890Y-65253569D01*
X113650000Y-65202560D01*
X112950000Y-65202560D01*
X112714683Y-65246838D01*
X112498559Y-65385910D01*
X112353569Y-65598110D01*
X112317242Y-65777500D01*
X109824390Y-65777500D01*
X109803162Y-65664683D01*
X109664090Y-65448559D01*
X109451890Y-65303569D01*
X109200000Y-65252560D01*
X108000000Y-65252560D01*
X107764683Y-65296838D01*
X107548559Y-65435910D01*
X107502031Y-65504006D01*
X107359698Y-65361673D01*
X107126309Y-65265000D01*
X106685750Y-65265000D01*
X106527000Y-65423750D01*
X106273000Y-65423750D01*
X106114250Y-65265000D01*
X105673691Y-65265000D01*
X105440302Y-65361673D01*
X105261673Y-65540301D01*
X105165000Y-65773690D01*
X103210000Y-65773690D01*
X103210000Y-59179290D01*
X103223255Y-59184794D01*
X103694677Y-59185206D01*
X104130372Y-59005180D01*
X104464009Y-58672125D01*
X104483498Y-58625189D01*
X104489928Y-58657514D01*
X104844241Y-59187781D01*
X105374508Y-59542094D01*
X106000000Y-59666512D01*
X106625492Y-59542094D01*
X107155759Y-59187781D01*
X107510072Y-58657514D01*
X107634490Y-58032022D01*
X107634490Y-57967978D01*
X107510072Y-57342486D01*
X107296547Y-57022923D01*
X107450931Y-56923580D01*
X107595921Y-56711380D01*
X107646930Y-56459490D01*
X107646930Y-56182500D01*
X112308675Y-56182500D01*
X112346838Y-56385317D01*
X112485910Y-56601441D01*
X112698110Y-56746431D01*
X112950000Y-56797440D01*
X113650000Y-56797440D01*
X113885317Y-56753162D01*
X114101441Y-56614090D01*
X114246431Y-56401890D01*
X114253191Y-56368510D01*
X114311673Y-56509699D01*
X114490302Y-56688327D01*
X114723691Y-56785000D01*
X114914250Y-56785000D01*
X115073000Y-56626250D01*
X115073000Y-55627000D01*
X115327000Y-55627000D01*
X115327000Y-56626250D01*
X115485750Y-56785000D01*
X115676309Y-56785000D01*
X115909698Y-56688327D01*
X116088327Y-56509699D01*
X116185000Y-56276310D01*
X116185000Y-55785750D01*
X116026250Y-55627000D01*
X115327000Y-55627000D01*
X115073000Y-55627000D01*
X115053000Y-55627000D01*
X115053000Y-55373000D01*
X115073000Y-55373000D01*
X115073000Y-54373750D01*
X115327000Y-54373750D01*
X115327000Y-55373000D01*
X116026250Y-55373000D01*
X116185000Y-55214250D01*
X116185000Y-54723690D01*
X116088327Y-54490301D01*
X115909698Y-54311673D01*
X115676309Y-54215000D01*
X115485750Y-54215000D01*
X115327000Y-54373750D01*
X115073000Y-54373750D01*
X114914250Y-54215000D01*
X114723691Y-54215000D01*
X114490302Y-54311673D01*
X114311673Y-54490301D01*
X114255346Y-54626287D01*
X114253162Y-54614683D01*
X114114090Y-54398559D01*
X114022500Y-54335978D01*
X114022500Y-54130984D01*
X116110984Y-52042500D01*
X119701989Y-52042500D01*
X119920853Y-52370054D01*
X120250026Y-52590000D01*
X119920853Y-52809946D01*
X119598946Y-53291715D01*
X119485907Y-53860000D01*
X119598946Y-54428285D01*
X119920853Y-54910054D01*
X120250026Y-55130000D01*
X119920853Y-55349946D01*
X119598946Y-55831715D01*
X119485907Y-56400000D01*
X119598946Y-56968285D01*
X119920853Y-57450054D01*
X120250026Y-57670000D01*
X119920853Y-57889946D01*
X119598946Y-58371715D01*
X119485907Y-58940000D01*
X119598946Y-59508285D01*
X119920853Y-59990054D01*
X120250026Y-60210000D01*
X119920853Y-60429946D01*
X119598946Y-60911715D01*
X119485907Y-61480000D01*
X119598946Y-62048285D01*
X119920853Y-62530054D01*
X120261553Y-62757702D01*
X120118642Y-62824817D01*
X119728355Y-63253076D01*
X119558524Y-63663110D01*
X119679845Y-63893000D01*
X120873000Y-63893000D01*
X120873000Y-63873000D01*
X121127000Y-63873000D01*
X121127000Y-63893000D01*
X122320155Y-63893000D01*
X122441476Y-63663110D01*
X122271645Y-63253076D01*
X121881358Y-62824817D01*
X121738447Y-62757702D01*
X122079147Y-62530054D01*
X122401054Y-62048285D01*
X122514093Y-61480000D01*
X122401054Y-60911715D01*
X122079147Y-60429946D01*
X121749974Y-60210000D01*
X122079147Y-59990054D01*
X122401054Y-59508285D01*
X122514093Y-58940000D01*
X122401054Y-58371715D01*
X122079147Y-57889946D01*
X121749974Y-57670000D01*
X122079147Y-57450054D01*
X122401054Y-56968285D01*
X122514093Y-56400000D01*
X122401054Y-55831715D01*
X122079147Y-55349946D01*
X121749974Y-55130000D01*
X122079147Y-54910054D01*
X122401054Y-54428285D01*
X122514093Y-53860000D01*
X122401054Y-53291715D01*
X122079147Y-52809946D01*
X121749974Y-52590000D01*
X122079147Y-52370054D01*
X122401054Y-51888285D01*
X122514093Y-51320000D01*
X122401054Y-50751715D01*
X122079147Y-50269946D01*
X121749974Y-50050000D01*
X122079147Y-49830054D01*
X122401054Y-49348285D01*
X122514093Y-48780000D01*
X122401054Y-48211715D01*
X122079147Y-47729946D01*
X121749974Y-47510000D01*
X122079147Y-47290054D01*
X122401054Y-46808285D01*
X122514093Y-46240000D01*
X122401054Y-45671715D01*
X122079147Y-45189946D01*
X121749974Y-44970000D01*
X122079147Y-44750054D01*
X122401054Y-44268285D01*
X122514093Y-43700000D01*
X122401054Y-43131715D01*
X122079147Y-42649946D01*
X121749974Y-42430000D01*
X122079147Y-42210054D01*
X122401054Y-41728285D01*
X122514093Y-41160000D01*
X122401054Y-40591715D01*
X122079147Y-40109946D01*
X121749974Y-39890000D01*
X122079147Y-39670054D01*
X122401054Y-39188285D01*
X122514093Y-38620000D01*
X122401054Y-38051715D01*
X122079147Y-37569946D01*
X121749974Y-37350000D01*
X122079147Y-37130054D01*
X122401054Y-36648285D01*
X122514093Y-36080000D01*
X122401054Y-35511715D01*
X122079147Y-35029946D01*
X121749974Y-34810000D01*
X122079147Y-34590054D01*
X122401054Y-34108285D01*
X122514093Y-33540000D01*
X122401054Y-32971715D01*
X122079147Y-32489946D01*
X122037548Y-32462150D01*
X122085317Y-32453162D01*
X122301441Y-32314090D01*
X122446431Y-32101890D01*
X122497440Y-31850000D01*
X122497440Y-30150000D01*
X122473674Y-30023690D01*
X144915000Y-30023690D01*
X144915000Y-30714250D01*
X145073750Y-30873000D01*
X146273000Y-30873000D01*
X146273000Y-29673750D01*
X146527000Y-29673750D01*
X146527000Y-30873000D01*
X147726250Y-30873000D01*
X147885000Y-30714250D01*
X147885000Y-30023690D01*
X147788327Y-29790301D01*
X147609698Y-29611673D01*
X147376309Y-29515000D01*
X146685750Y-29515000D01*
X146527000Y-29673750D01*
X146273000Y-29673750D01*
X146114250Y-29515000D01*
X145423691Y-29515000D01*
X145190302Y-29611673D01*
X145011673Y-29790301D01*
X144915000Y-30023690D01*
X122473674Y-30023690D01*
X122453162Y-29914683D01*
X122314090Y-29698559D01*
X122101890Y-29553569D01*
X121850000Y-29502560D01*
X120150000Y-29502560D01*
X119914683Y-29546838D01*
X119698559Y-29685910D01*
X119553569Y-29898110D01*
X119502560Y-30150000D01*
X119502560Y-31850000D01*
X119546838Y-32085317D01*
X119685910Y-32301441D01*
X119898110Y-32446431D01*
X119965541Y-32460086D01*
X119920853Y-32489946D01*
X119598946Y-32971715D01*
X119485907Y-33540000D01*
X119598946Y-34108285D01*
X119920853Y-34590054D01*
X120250026Y-34810000D01*
X119920853Y-35029946D01*
X119598946Y-35511715D01*
X119485907Y-36080000D01*
X119598946Y-36648285D01*
X119920853Y-37130054D01*
X120250026Y-37350000D01*
X119920853Y-37569946D01*
X119598946Y-38051715D01*
X119485907Y-38620000D01*
X119598946Y-39188285D01*
X119920853Y-39670054D01*
X120250026Y-39890000D01*
X119920853Y-40109946D01*
X119598946Y-40591715D01*
X119485907Y-41160000D01*
X119598946Y-41728285D01*
X119920853Y-42210054D01*
X120250026Y-42430000D01*
X119920853Y-42649946D01*
X119598946Y-43131715D01*
X119485907Y-43700000D01*
X119598946Y-44268285D01*
X119920853Y-44750054D01*
X120250026Y-44970000D01*
X119920853Y-45189946D01*
X119701989Y-45517500D01*
X116185000Y-45517500D01*
X116185000Y-45035750D01*
X116026250Y-44877000D01*
X115327000Y-44877000D01*
X115327000Y-44897000D01*
X115073000Y-44897000D01*
X115073000Y-44877000D01*
X115053000Y-44877000D01*
X115053000Y-44623000D01*
X115073000Y-44623000D01*
X115073000Y-43623750D01*
X115327000Y-43623750D01*
X115327000Y-44623000D01*
X116026250Y-44623000D01*
X116185000Y-44464250D01*
X116185000Y-43973690D01*
X116088327Y-43740301D01*
X115909698Y-43561673D01*
X115676309Y-43465000D01*
X115485750Y-43465000D01*
X115327000Y-43623750D01*
X115073000Y-43623750D01*
X114914250Y-43465000D01*
X114723691Y-43465000D01*
X114490302Y-43561673D01*
X114311673Y-43740301D01*
X114255346Y-43876287D01*
X114253162Y-43864683D01*
X114114090Y-43648559D01*
X113901890Y-43503569D01*
X113650000Y-43452560D01*
X112950000Y-43452560D01*
X112714683Y-43496838D01*
X112498559Y-43635910D01*
X112353569Y-43848110D01*
X112317242Y-44027500D01*
X107466650Y-44027500D01*
X107296547Y-43772923D01*
X107450931Y-43673580D01*
X107595921Y-43461380D01*
X107646930Y-43209490D01*
X107646930Y-41210510D01*
X107602652Y-40975193D01*
X107463580Y-40759069D01*
X107251380Y-40614079D01*
X106999490Y-40563070D01*
X105000510Y-40563070D01*
X104765193Y-40607348D01*
X104549069Y-40746420D01*
X104404079Y-40958620D01*
X104353070Y-41210510D01*
X104353070Y-41427322D01*
X104132125Y-41205991D01*
X103696745Y-41025206D01*
X103225323Y-41024794D01*
X103210000Y-41031125D01*
X103210000Y-28819927D01*
X103263956Y-28548675D01*
X103377998Y-28377998D01*
X103548675Y-28263956D01*
X103819927Y-28210000D01*
X166180073Y-28210000D01*
X166451325Y-28263956D01*
X166451325Y-28263956D01*
G37*
X166451325Y-28263956D02*
X166622002Y-28377998D01*
X166736044Y-28548675D01*
X166790000Y-28819927D01*
X166790000Y-29546623D01*
X166581380Y-29404079D01*
X166329490Y-29353070D01*
X164330510Y-29353070D01*
X164095193Y-29397348D01*
X163879069Y-29536420D01*
X163768906Y-29697649D01*
X163749726Y-29676932D01*
X163170355Y-29410373D01*
X162917000Y-29529193D01*
X162917000Y-30873000D01*
X162937000Y-30873000D01*
X162937000Y-31127000D01*
X162917000Y-31127000D01*
X162917000Y-32470807D01*
X163170355Y-32589627D01*
X163749726Y-32323068D01*
X163770030Y-32301137D01*
X163866420Y-32450931D01*
X164078620Y-32595921D01*
X164330510Y-32646930D01*
X166329490Y-32646930D01*
X166564807Y-32602652D01*
X166780931Y-32463580D01*
X166790000Y-32450307D01*
X166790000Y-84037030D01*
X166697891Y-83944921D01*
X166485355Y-83802909D01*
X166478162Y-83764683D01*
X166339090Y-83548559D01*
X166126890Y-83403569D01*
X165875000Y-83352560D01*
X164625000Y-83352560D01*
X164389683Y-83396838D01*
X164173559Y-83535910D01*
X164051192Y-83715000D01*
X162284277Y-83715000D01*
X162297440Y-83650000D01*
X162297440Y-83350000D01*
X162253162Y-83114683D01*
X162114090Y-82898559D01*
X161901890Y-82753569D01*
X161650000Y-82702560D01*
X160250000Y-82702560D01*
X160014683Y-82746838D01*
X159967033Y-82777500D01*
X159737741Y-82777500D01*
X159097534Y-82137292D01*
X158863138Y-81980674D01*
X158586649Y-81925677D01*
X147287672Y-81925677D01*
X147287667Y-81925676D01*
X147287662Y-81925677D01*
X139888848Y-81925677D01*
X139889154Y-81573943D01*
X139754097Y-81247080D01*
X139504236Y-80996782D01*
X139177609Y-80861154D01*
X138823943Y-80860846D01*
X138497080Y-80995903D01*
X138421790Y-81071062D01*
X138364301Y-81082497D01*
X138129905Y-81239115D01*
X137443343Y-81925677D01*
X131446981Y-81925677D01*
X131446976Y-81925676D01*
X131446971Y-81925677D01*
X130299269Y-81925677D01*
X129462931Y-81089338D01*
X129462931Y-75984701D01*
X132360884Y-78882654D01*
X132360846Y-78926057D01*
X132495903Y-79252920D01*
X132745764Y-79503218D01*
X133072391Y-79638846D01*
X133426057Y-79639154D01*
X133752920Y-79504097D01*
X134003218Y-79254236D01*
X134138846Y-78927609D01*
X134139154Y-78573943D01*
X134004097Y-78247080D01*
X133754236Y-77996782D01*
X133427609Y-77861154D01*
X133382885Y-77861115D01*
X130422500Y-74900730D01*
X130422500Y-62410000D01*
X132485907Y-62410000D01*
X132598946Y-62978285D01*
X132920853Y-63460054D01*
X133402622Y-63781961D01*
X133970907Y-63895000D01*
X134029093Y-63895000D01*
X134597378Y-63781961D01*
X135079147Y-63460054D01*
X135401054Y-62978285D01*
X135514093Y-62410000D01*
X135401054Y-61841715D01*
X135079147Y-61359946D01*
X134738447Y-61132298D01*
X134881358Y-61065183D01*
X135271645Y-60636924D01*
X135441476Y-60226890D01*
X135320155Y-59997000D01*
X134127000Y-59997000D01*
X134127000Y-60017000D01*
X133873000Y-60017000D01*
X133873000Y-59997000D01*
X132679845Y-59997000D01*
X132558524Y-60226890D01*
X132728355Y-60636924D01*
X133118642Y-61065183D01*
X133261553Y-61132298D01*
X132920853Y-61359946D01*
X132598946Y-61841715D01*
X132485907Y-62410000D01*
X130422500Y-62410000D01*
X130422500Y-58414887D01*
X130501441Y-58364090D01*
X130646431Y-58151890D01*
X130666558Y-58052500D01*
X132701989Y-58052500D01*
X132920853Y-58380054D01*
X133261553Y-58607702D01*
X133118642Y-58674817D01*
X132728355Y-59103076D01*
X132558524Y-59513110D01*
X132679845Y-59743000D01*
X133873000Y-59743000D01*
X133873000Y-59723000D01*
X134127000Y-59723000D01*
X134127000Y-59743000D01*
X135320155Y-59743000D01*
X135441476Y-59513110D01*
X135271645Y-59103076D01*
X134881358Y-58674817D01*
X134738447Y-58607702D01*
X135079147Y-58380054D01*
X135401054Y-57898285D01*
X135514093Y-57330000D01*
X135432411Y-56919359D01*
X140160850Y-52190919D01*
X140160853Y-52190917D01*
X140317471Y-51956521D01*
X140372468Y-51680032D01*
X140372468Y-50749302D01*
X142341769Y-48780000D01*
X144885907Y-48780000D01*
X144998946Y-49348285D01*
X145320853Y-49830054D01*
X145650026Y-50050000D01*
X145320853Y-50269946D01*
X144998946Y-50751715D01*
X144885907Y-51320000D01*
X144998946Y-51888285D01*
X145320853Y-52370054D01*
X145650026Y-52590000D01*
X145320853Y-52809946D01*
X144998946Y-53291715D01*
X144885907Y-53860000D01*
X144998946Y-54428285D01*
X145320853Y-54910054D01*
X145650026Y-55130000D01*
X145320853Y-55349946D01*
X144998946Y-55831715D01*
X144885907Y-56400000D01*
X144998946Y-56968285D01*
X145320853Y-57450054D01*
X145650026Y-57670000D01*
X145320853Y-57889946D01*
X144998946Y-58371715D01*
X144885907Y-58940000D01*
X144998946Y-59508285D01*
X145320853Y-59990054D01*
X145650026Y-60210000D01*
X145320853Y-60429946D01*
X144998946Y-60911715D01*
X144885907Y-61480000D01*
X144998946Y-62048285D01*
X145320853Y-62530054D01*
X145650026Y-62750000D01*
X145320853Y-62969946D01*
X144998946Y-63451715D01*
X144885907Y-64020000D01*
X144998946Y-64588285D01*
X145320853Y-65070054D01*
X145650026Y-65290000D01*
X145320853Y-65509946D01*
X144998946Y-65991715D01*
X144885907Y-66560000D01*
X144998946Y-67128285D01*
X145320853Y-67610054D01*
X145650026Y-67830000D01*
X145320853Y-68049946D01*
X144998946Y-68531715D01*
X144885907Y-69100000D01*
X144998946Y-69668285D01*
X145320853Y-70150054D01*
X145650026Y-70370000D01*
X145320853Y-70589946D01*
X144998946Y-71071715D01*
X144885907Y-71640000D01*
X144998946Y-72208285D01*
X145320853Y-72690054D01*
X145650026Y-72910000D01*
X145320853Y-73129946D01*
X144998946Y-73611715D01*
X144885907Y-74180000D01*
X144998946Y-74748285D01*
X145320853Y-75230054D01*
X145650026Y-75450000D01*
X145320853Y-75669946D01*
X144998946Y-76151715D01*
X144885907Y-76720000D01*
X144998946Y-77288285D01*
X145320853Y-77770054D01*
X145802622Y-78091961D01*
X146370907Y-78205000D01*
X146429093Y-78205000D01*
X146997378Y-78091961D01*
X147479147Y-77770054D01*
X147801054Y-77288285D01*
X147914093Y-76720000D01*
X147801054Y-76151715D01*
X147479147Y-75669946D01*
X147149974Y-75450000D01*
X147479147Y-75230054D01*
X147801054Y-74748285D01*
X147914093Y-74180000D01*
X147801054Y-73611715D01*
X147479147Y-73129946D01*
X147149974Y-72910000D01*
X147479147Y-72690054D01*
X147801054Y-72208285D01*
X147914093Y-71640000D01*
X147801054Y-71071715D01*
X147479147Y-70589946D01*
X147149974Y-70370000D01*
X147479147Y-70150054D01*
X147801054Y-69668285D01*
X147914093Y-69100000D01*
X147801054Y-68531715D01*
X147479147Y-68049946D01*
X147149974Y-67830000D01*
X147479147Y-67610054D01*
X147801054Y-67128285D01*
X147914093Y-66560000D01*
X147801054Y-65991715D01*
X147479147Y-65509946D01*
X147149974Y-65290000D01*
X147479147Y-65070054D01*
X147801054Y-64588285D01*
X147914093Y-64020000D01*
X147801054Y-63451715D01*
X147479147Y-62969946D01*
X147149974Y-62750000D01*
X147479147Y-62530054D01*
X147801054Y-62048285D01*
X147914093Y-61480000D01*
X147801054Y-60911715D01*
X147479147Y-60429946D01*
X147149974Y-60210000D01*
X147479147Y-59990054D01*
X147801054Y-59508285D01*
X147914093Y-58940000D01*
X147801054Y-58371715D01*
X147479147Y-57889946D01*
X147149974Y-57670000D01*
X147479147Y-57450054D01*
X147801054Y-56968285D01*
X147914093Y-56400000D01*
X147801054Y-55831715D01*
X147479147Y-55349946D01*
X147149974Y-55130000D01*
X147479147Y-54910054D01*
X147801054Y-54428285D01*
X147914093Y-53860000D01*
X147801054Y-53291715D01*
X147479147Y-52809946D01*
X147149974Y-52590000D01*
X147479147Y-52370054D01*
X147801054Y-51888285D01*
X147914093Y-51320000D01*
X147801054Y-50751715D01*
X147479147Y-50269946D01*
X147149974Y-50050000D01*
X147479147Y-49830054D01*
X147801054Y-49348285D01*
X147914093Y-48780000D01*
X147801054Y-48211715D01*
X147479147Y-47729946D01*
X147138447Y-47502298D01*
X147281358Y-47435183D01*
X147671645Y-47006924D01*
X147841476Y-46596890D01*
X147720155Y-46367000D01*
X146527000Y-46367000D01*
X146527000Y-46387000D01*
X146273000Y-46387000D01*
X146273000Y-46367000D01*
X145079845Y-46367000D01*
X144958524Y-46596890D01*
X145128355Y-47006924D01*
X145518642Y-47435183D01*
X145661553Y-47502298D01*
X145320853Y-47729946D01*
X144998946Y-48211715D01*
X144885907Y-48780000D01*
X142341769Y-48780000D01*
X145055293Y-46066476D01*
X145079845Y-46113000D01*
X146273000Y-46113000D01*
X146273000Y-46093000D01*
X146527000Y-46093000D01*
X146527000Y-46113000D01*
X147720155Y-46113000D01*
X147841476Y-45883110D01*
X147671645Y-45473076D01*
X147281358Y-45044817D01*
X147138447Y-44977702D01*
X147479147Y-44750054D01*
X147698011Y-44422500D01*
X152107461Y-44422500D01*
X152383950Y-44367503D01*
X152618346Y-44210885D01*
X158220882Y-38608348D01*
X158220885Y-38608346D01*
X158377503Y-38373950D01*
X158386628Y-38328077D01*
X158432501Y-38097461D01*
X158432500Y-38097456D01*
X158432500Y-32466650D01*
X158897781Y-32155759D01*
X158980000Y-32032710D01*
X159062219Y-32155759D01*
X159592486Y-32510072D01*
X160217978Y-32634490D01*
X160282022Y-32634490D01*
X160907514Y-32510072D01*
X161437781Y-32155759D01*
X161537379Y-32006700D01*
X161830274Y-32323068D01*
X162409645Y-32589627D01*
X162663000Y-32470807D01*
X162663000Y-31127000D01*
X162643000Y-31127000D01*
X162643000Y-30873000D01*
X162663000Y-30873000D01*
X162663000Y-29529193D01*
X162409645Y-29410373D01*
X161830274Y-29676932D01*
X161537379Y-29993300D01*
X161437781Y-29844241D01*
X160907514Y-29489928D01*
X160282022Y-29365510D01*
X160217978Y-29365510D01*
X159733624Y-29461854D01*
X159273365Y-29001595D01*
X159038969Y-28844977D01*
X158762480Y-28789980D01*
X151891261Y-28789980D01*
X151614772Y-28844977D01*
X151380376Y-29001595D01*
X150440544Y-29941427D01*
X150283926Y-30175823D01*
X150228929Y-30452312D01*
X150228929Y-31229302D01*
X147913066Y-33545165D01*
X147914093Y-33540000D01*
X147801054Y-32971715D01*
X147479147Y-32489946D01*
X147435223Y-32460597D01*
X147609698Y-32388327D01*
X147788327Y-32209699D01*
X147885000Y-31976310D01*
X147885000Y-31285750D01*
X147726250Y-31127000D01*
X146527000Y-31127000D01*
X146527000Y-31147000D01*
X146273000Y-31147000D01*
X146273000Y-31127000D01*
X145073750Y-31127000D01*
X144915000Y-31285750D01*
X144915000Y-31976310D01*
X145011673Y-32209699D01*
X145190302Y-32388327D01*
X145364777Y-32460597D01*
X145320853Y-32489946D01*
X144998946Y-32971715D01*
X144885907Y-33540000D01*
X144967589Y-33950641D01*
X135576451Y-43341779D01*
X135447134Y-43535316D01*
X135314090Y-43328559D01*
X135101890Y-43183569D01*
X134850000Y-43132560D01*
X133150000Y-43132560D01*
X132914683Y-43176838D01*
X132698559Y-43315910D01*
X132553569Y-43528110D01*
X132502560Y-43780000D01*
X132502560Y-45480000D01*
X132546838Y-45715317D01*
X132685910Y-45931441D01*
X132898110Y-46076431D01*
X132965541Y-46090086D01*
X132920853Y-46119946D01*
X132598946Y-46601715D01*
X132485907Y-47170000D01*
X132598946Y-47738285D01*
X132920853Y-48220054D01*
X133250026Y-48440000D01*
X132920853Y-48659946D01*
X132598946Y-49141715D01*
X132485907Y-49710000D01*
X132598946Y-50278285D01*
X132920853Y-50760054D01*
X133250026Y-50980000D01*
X132920853Y-51199946D01*
X132598946Y-51681715D01*
X132485907Y-52250000D01*
X132598946Y-52818285D01*
X132920853Y-53300054D01*
X133250026Y-53520000D01*
X132920853Y-53739946D01*
X132701989Y-54067500D01*
X130691325Y-54067500D01*
X130653162Y-53864683D01*
X130514090Y-53648559D01*
X130301890Y-53503569D01*
X130050000Y-53452560D01*
X129350000Y-53452560D01*
X129114683Y-53496838D01*
X128898559Y-53635910D01*
X128753569Y-53848110D01*
X128750919Y-53861197D01*
X128614090Y-53648559D01*
X128401890Y-53503569D01*
X128150000Y-53452560D01*
X127450000Y-53452560D01*
X127214683Y-53496838D01*
X126998559Y-53635910D01*
X126853569Y-53848110D01*
X126802560Y-54100000D01*
X126802560Y-55400000D01*
X126846838Y-55635317D01*
X126985910Y-55851441D01*
X127015000Y-55871317D01*
X127015000Y-56125331D01*
X126998559Y-56135910D01*
X126853569Y-56348110D01*
X126829898Y-56465000D01*
X125443343Y-56465000D01*
X125178808Y-56355156D01*
X124822755Y-56354845D01*
X124493686Y-56490814D01*
X124241698Y-56742361D01*
X124105156Y-57071192D01*
X124104845Y-57427245D01*
X124240814Y-57756314D01*
X124492361Y-58008302D01*
X124821192Y-58144844D01*
X125177245Y-58145155D01*
X125443840Y-58035000D01*
X126827962Y-58035000D01*
X126846838Y-58135317D01*
X126985910Y-58351441D01*
X127198110Y-58496431D01*
X127450000Y-58547440D01*
X128017931Y-58547440D01*
X128017931Y-81388608D01*
X128072928Y-81665097D01*
X128229546Y-81899493D01*
X128255730Y-81925677D01*
X115542635Y-81925677D01*
X115542630Y-81925676D01*
X115312014Y-81971549D01*
X115266141Y-81980674D01*
X115031745Y-82137292D01*
X115031743Y-82137295D01*
X114409957Y-82759081D01*
X114401890Y-82753569D01*
X114150000Y-82702560D01*
X112750000Y-82702560D01*
X112514683Y-82746838D01*
X112298559Y-82885910D01*
X112153569Y-83098110D01*
X112102560Y-83350000D01*
X112102560Y-83650000D01*
X112122067Y-83753671D01*
X112102560Y-83850000D01*
X112102560Y-84150000D01*
X112122067Y-84253671D01*
X112102560Y-84350000D01*
X112102560Y-84650000D01*
X112122067Y-84753671D01*
X112102560Y-84850000D01*
X112102560Y-85150000D01*
X112122067Y-85253671D01*
X112102560Y-85350000D01*
X112102560Y-85650000D01*
X112146838Y-85885317D01*
X112285910Y-86101441D01*
X112498110Y-86246431D01*
X112727500Y-86292884D01*
X112727500Y-89857400D01*
X112515193Y-89897348D01*
X112299069Y-90036420D01*
X112154079Y-90248620D01*
X112103070Y-90500510D01*
X112103070Y-92499490D01*
X112147348Y-92734807D01*
X112286420Y-92950931D01*
X112498620Y-93095921D01*
X112750510Y-93146930D01*
X112967322Y-93146930D01*
X112745991Y-93367875D01*
X112565206Y-93803255D01*
X112564794Y-94274677D01*
X112571125Y-94290000D01*
X109469290Y-94290000D01*
X109474794Y-94276745D01*
X109475206Y-93805323D01*
X109295180Y-93369628D01*
X108962125Y-93035991D01*
X108915189Y-93016502D01*
X108947514Y-93010072D01*
X109477781Y-92655759D01*
X109832094Y-92125492D01*
X109956512Y-91500000D01*
X109832094Y-90874508D01*
X109765553Y-90774923D01*
X109772500Y-90740000D01*
X109772500Y-86293206D01*
X109985317Y-86253162D01*
X110201441Y-86114090D01*
X110346431Y-85901890D01*
X110397440Y-85650000D01*
X110397440Y-85350000D01*
X110377933Y-85246329D01*
X110397440Y-85150000D01*
X110397440Y-84850000D01*
X110384020Y-84778677D01*
X110385000Y-84776310D01*
X110385000Y-84733750D01*
X110373379Y-84722129D01*
X110353162Y-84614683D01*
X110279380Y-84500022D01*
X110346431Y-84401890D01*
X110371080Y-84280170D01*
X110385000Y-84266250D01*
X110385000Y-84223690D01*
X110383333Y-84219665D01*
X110397440Y-84150000D01*
X110397440Y-83850000D01*
X110384020Y-83778677D01*
X110385000Y-83776310D01*
X110385000Y-83733750D01*
X110373379Y-83722129D01*
X110353162Y-83614683D01*
X110229204Y-83422046D01*
X110385000Y-83266250D01*
X110385000Y-83223690D01*
X110288327Y-82990301D01*
X110109698Y-82811673D01*
X109876309Y-82715000D01*
X109335750Y-82715000D01*
X109177000Y-82873750D01*
X109177000Y-83202560D01*
X108923000Y-83202560D01*
X108923000Y-82873750D01*
X108764250Y-82715000D01*
X108223691Y-82715000D01*
X107990302Y-82811673D01*
X107811673Y-82990301D01*
X107715000Y-83223690D01*
X107715000Y-83266250D01*
X107872621Y-83423871D01*
X107753569Y-83598110D01*
X107728920Y-83719830D01*
X107715000Y-83733750D01*
X107715000Y-83776310D01*
X107716667Y-83780335D01*
X107702560Y-83850000D01*
X107702560Y-84150000D01*
X107715980Y-84221323D01*
X107715000Y-84223690D01*
X107715000Y-84266250D01*
X107726621Y-84277871D01*
X107744520Y-84372998D01*
X107715000Y-84372998D01*
X107715000Y-84455115D01*
X107664115Y-84489115D01*
X105239115Y-86914115D01*
X105082497Y-87148511D01*
X105027500Y-87425000D01*
X105027500Y-89853070D01*
X104750510Y-89853070D01*
X104515193Y-89897348D01*
X104299069Y-90036420D01*
X104154079Y-90248620D01*
X104103070Y-90500510D01*
X104103070Y-92499490D01*
X104147348Y-92734807D01*
X104286420Y-92950931D01*
X104498620Y-93095921D01*
X104750510Y-93146930D01*
X104967322Y-93146930D01*
X104745991Y-93367875D01*
X104565206Y-93803255D01*
X104564794Y-94274677D01*
X104571125Y-94290000D01*
X103819927Y-94290000D01*
X103548675Y-94236044D01*
X103377998Y-94122002D01*
X103263956Y-93951325D01*
X103210000Y-93680073D01*
X103210000Y-74863403D01*
X105414682Y-74863403D01*
X105693455Y-75538086D01*
X106209199Y-76054730D01*
X106883395Y-76334681D01*
X107613403Y-76335318D01*
X108288086Y-76056545D01*
X108804730Y-75540801D01*
X109084681Y-74866605D01*
X109085318Y-74136597D01*
X108806545Y-73461914D01*
X108290801Y-72945270D01*
X108025242Y-72835000D01*
X108576310Y-72835000D01*
X108809699Y-72738327D01*
X108988327Y-72559698D01*
X109085000Y-72326309D01*
X109085000Y-71285750D01*
X108926250Y-71127000D01*
X107377000Y-71127000D01*
X107377000Y-71147000D01*
X107123000Y-71147000D01*
X107123000Y-71127000D01*
X105573750Y-71127000D01*
X105415000Y-71285750D01*
X105415000Y-72326309D01*
X105511673Y-72559698D01*
X105690301Y-72738327D01*
X105923690Y-72835000D01*
X106474395Y-72835000D01*
X106211914Y-72943455D01*
X105695270Y-73459199D01*
X105415319Y-74133395D01*
X105414682Y-74863403D01*
X103210000Y-74863403D01*
X103210000Y-69673691D01*
X105415000Y-69673691D01*
X105415000Y-70714250D01*
X105573750Y-70873000D01*
X107123000Y-70873000D01*
X107123000Y-69323750D01*
X107377000Y-69323750D01*
X107377000Y-70873000D01*
X108926250Y-70873000D01*
X109085000Y-70714250D01*
X109085000Y-69673691D01*
X108988327Y-69440302D01*
X108809699Y-69261673D01*
X108576310Y-69165000D01*
X107535750Y-69165000D01*
X107377000Y-69323750D01*
X107123000Y-69323750D01*
X106964250Y-69165000D01*
X105923690Y-69165000D01*
X105690301Y-69261673D01*
X105511673Y-69440302D01*
X105415000Y-69673691D01*
X103210000Y-69673691D01*
X103210000Y-66785750D01*
X105165000Y-66785750D01*
X105165000Y-67226310D01*
X105261673Y-67459699D01*
X105440302Y-67638327D01*
X105673691Y-67735000D01*
X106114250Y-67735000D01*
X106273000Y-67576250D01*
X106273000Y-66627000D01*
X105323750Y-66627000D01*
X105165000Y-66785750D01*
X103210000Y-66785750D01*
X103210000Y-65773690D01*
X105165000Y-65773690D01*
X105165000Y-66214250D01*
X105323750Y-66373000D01*
X106273000Y-66373000D01*
X106273000Y-65423750D01*
X106527000Y-65423750D01*
X106527000Y-66373000D01*
X106547000Y-66373000D01*
X106547000Y-66627000D01*
X106527000Y-66627000D01*
X106527000Y-67576250D01*
X106685750Y-67735000D01*
X107126309Y-67735000D01*
X107359698Y-67638327D01*
X107500936Y-67497090D01*
X107535910Y-67551441D01*
X107748110Y-67696431D01*
X108000000Y-67747440D01*
X109200000Y-67747440D01*
X109435317Y-67703162D01*
X109651441Y-67564090D01*
X109796431Y-67351890D01*
X109822633Y-67222500D01*
X112316202Y-67222500D01*
X112346838Y-67385317D01*
X112485910Y-67601441D01*
X112698110Y-67746431D01*
X112950000Y-67797440D01*
X113650000Y-67797440D01*
X113885317Y-67753162D01*
X114101441Y-67614090D01*
X114246431Y-67401890D01*
X114249081Y-67388803D01*
X114385910Y-67601441D01*
X114598110Y-67746431D01*
X114850000Y-67797440D01*
X115550000Y-67797440D01*
X115785317Y-67753162D01*
X116001441Y-67614090D01*
X116146431Y-67401890D01*
X116182758Y-67222500D01*
X119661898Y-67222500D01*
X119920853Y-67610054D01*
X120250026Y-67830000D01*
X119920853Y-68049946D01*
X119598946Y-68531715D01*
X119485907Y-69100000D01*
X119598946Y-69668285D01*
X119920853Y-70150054D01*
X120250026Y-70370000D01*
X119920853Y-70589946D01*
X119598946Y-71071715D01*
X119485907Y-71640000D01*
X119598946Y-72208285D01*
X119920853Y-72690054D01*
X120250026Y-72910000D01*
X119920853Y-73129946D01*
X119598946Y-73611715D01*
X119485907Y-74180000D01*
X119598946Y-74748285D01*
X119920853Y-75230054D01*
X120250026Y-75450000D01*
X119920853Y-75669946D01*
X119598946Y-76151715D01*
X119485907Y-76720000D01*
X119598946Y-77288285D01*
X119920853Y-77770054D01*
X120402622Y-78091961D01*
X120970907Y-78205000D01*
X121029093Y-78205000D01*
X121597378Y-78091961D01*
X122079147Y-77770054D01*
X122401054Y-77288285D01*
X122514093Y-76720000D01*
X122401054Y-76151715D01*
X122079147Y-75669946D01*
X121749974Y-75450000D01*
X122079147Y-75230054D01*
X122401054Y-74748285D01*
X122514093Y-74180000D01*
X122401054Y-73611715D01*
X122079147Y-73129946D01*
X121749974Y-72910000D01*
X122079147Y-72690054D01*
X122401054Y-72208285D01*
X122514093Y-71640000D01*
X122401054Y-71071715D01*
X122079147Y-70589946D01*
X121749974Y-70370000D01*
X122079147Y-70150054D01*
X122401054Y-69668285D01*
X122514093Y-69100000D01*
X122401054Y-68531715D01*
X122079147Y-68049946D01*
X121749974Y-67830000D01*
X122079147Y-67610054D01*
X122401054Y-67128285D01*
X122514093Y-66560000D01*
X122401054Y-65991715D01*
X122079147Y-65509946D01*
X121738447Y-65282298D01*
X121881358Y-65215183D01*
X122271645Y-64786924D01*
X122441476Y-64376890D01*
X122320155Y-64147000D01*
X121127000Y-64147000D01*
X121127000Y-64167000D01*
X120873000Y-64167000D01*
X120873000Y-64147000D01*
X119679845Y-64147000D01*
X119558524Y-64376890D01*
X119728355Y-64786924D01*
X120118642Y-65215183D01*
X120261553Y-65282298D01*
X119920853Y-65509946D01*
X119742080Y-65777500D01*
X116183798Y-65777500D01*
X116153162Y-65614683D01*
X116014090Y-65398559D01*
X115801890Y-65253569D01*
X115550000Y-65202560D01*
X114850000Y-65202560D01*
X114614683Y-65246838D01*
X114398559Y-65385910D01*
X114253569Y-65598110D01*
X114250919Y-65611197D01*
X114114090Y-65398559D01*
X113901890Y-65253569D01*
X113650000Y-65202560D01*
X112950000Y-65202560D01*
X112714683Y-65246838D01*
X112498559Y-65385910D01*
X112353569Y-65598110D01*
X112317242Y-65777500D01*
X109824390Y-65777500D01*
X109803162Y-65664683D01*
X109664090Y-65448559D01*
X109451890Y-65303569D01*
X109200000Y-65252560D01*
X108000000Y-65252560D01*
X107764683Y-65296838D01*
X107548559Y-65435910D01*
X107502031Y-65504006D01*
X107359698Y-65361673D01*
X107126309Y-65265000D01*
X106685750Y-65265000D01*
X106527000Y-65423750D01*
X106273000Y-65423750D01*
X106114250Y-65265000D01*
X105673691Y-65265000D01*
X105440302Y-65361673D01*
X105261673Y-65540301D01*
X105165000Y-65773690D01*
X103210000Y-65773690D01*
X103210000Y-59179290D01*
X103223255Y-59184794D01*
X103694677Y-59185206D01*
X104130372Y-59005180D01*
X104464009Y-58672125D01*
X104483498Y-58625189D01*
X104489928Y-58657514D01*
X104844241Y-59187781D01*
X105374508Y-59542094D01*
X106000000Y-59666512D01*
X106625492Y-59542094D01*
X107155759Y-59187781D01*
X107510072Y-58657514D01*
X107634490Y-58032022D01*
X107634490Y-57967978D01*
X107510072Y-57342486D01*
X107296547Y-57022923D01*
X107450931Y-56923580D01*
X107595921Y-56711380D01*
X107646930Y-56459490D01*
X107646930Y-56182500D01*
X112308675Y-56182500D01*
X112346838Y-56385317D01*
X112485910Y-56601441D01*
X112698110Y-56746431D01*
X112950000Y-56797440D01*
X113650000Y-56797440D01*
X113885317Y-56753162D01*
X114101441Y-56614090D01*
X114246431Y-56401890D01*
X114253191Y-56368510D01*
X114311673Y-56509699D01*
X114490302Y-56688327D01*
X114723691Y-56785000D01*
X114914250Y-56785000D01*
X115073000Y-56626250D01*
X115073000Y-55627000D01*
X115327000Y-55627000D01*
X115327000Y-56626250D01*
X115485750Y-56785000D01*
X115676309Y-56785000D01*
X115909698Y-56688327D01*
X116088327Y-56509699D01*
X116185000Y-56276310D01*
X116185000Y-55785750D01*
X116026250Y-55627000D01*
X115327000Y-55627000D01*
X115073000Y-55627000D01*
X115053000Y-55627000D01*
X115053000Y-55373000D01*
X115073000Y-55373000D01*
X115073000Y-54373750D01*
X115327000Y-54373750D01*
X115327000Y-55373000D01*
X116026250Y-55373000D01*
X116185000Y-55214250D01*
X116185000Y-54723690D01*
X116088327Y-54490301D01*
X115909698Y-54311673D01*
X115676309Y-54215000D01*
X115485750Y-54215000D01*
X115327000Y-54373750D01*
X115073000Y-54373750D01*
X114914250Y-54215000D01*
X114723691Y-54215000D01*
X114490302Y-54311673D01*
X114311673Y-54490301D01*
X114255346Y-54626287D01*
X114253162Y-54614683D01*
X114114090Y-54398559D01*
X114022500Y-54335978D01*
X114022500Y-54130984D01*
X116110984Y-52042500D01*
X119701989Y-52042500D01*
X119920853Y-52370054D01*
X120250026Y-52590000D01*
X119920853Y-52809946D01*
X119598946Y-53291715D01*
X119485907Y-53860000D01*
X119598946Y-54428285D01*
X119920853Y-54910054D01*
X120250026Y-55130000D01*
X119920853Y-55349946D01*
X119598946Y-55831715D01*
X119485907Y-56400000D01*
X119598946Y-56968285D01*
X119920853Y-57450054D01*
X120250026Y-57670000D01*
X119920853Y-57889946D01*
X119598946Y-58371715D01*
X119485907Y-58940000D01*
X119598946Y-59508285D01*
X119920853Y-59990054D01*
X120250026Y-60210000D01*
X119920853Y-60429946D01*
X119598946Y-60911715D01*
X119485907Y-61480000D01*
X119598946Y-62048285D01*
X119920853Y-62530054D01*
X120261553Y-62757702D01*
X120118642Y-62824817D01*
X119728355Y-63253076D01*
X119558524Y-63663110D01*
X119679845Y-63893000D01*
X120873000Y-63893000D01*
X120873000Y-63873000D01*
X121127000Y-63873000D01*
X121127000Y-63893000D01*
X122320155Y-63893000D01*
X122441476Y-63663110D01*
X122271645Y-63253076D01*
X121881358Y-62824817D01*
X121738447Y-62757702D01*
X122079147Y-62530054D01*
X122401054Y-62048285D01*
X122514093Y-61480000D01*
X122401054Y-60911715D01*
X122079147Y-60429946D01*
X121749974Y-60210000D01*
X122079147Y-59990054D01*
X122401054Y-59508285D01*
X122514093Y-58940000D01*
X122401054Y-58371715D01*
X122079147Y-57889946D01*
X121749974Y-57670000D01*
X122079147Y-57450054D01*
X122401054Y-56968285D01*
X122514093Y-56400000D01*
X122401054Y-55831715D01*
X122079147Y-55349946D01*
X121749974Y-55130000D01*
X122079147Y-54910054D01*
X122401054Y-54428285D01*
X122514093Y-53860000D01*
X122401054Y-53291715D01*
X122079147Y-52809946D01*
X121749974Y-52590000D01*
X122079147Y-52370054D01*
X122401054Y-51888285D01*
X122514093Y-51320000D01*
X122401054Y-50751715D01*
X122079147Y-50269946D01*
X121749974Y-50050000D01*
X122079147Y-49830054D01*
X122401054Y-49348285D01*
X122514093Y-48780000D01*
X122401054Y-48211715D01*
X122079147Y-47729946D01*
X121749974Y-47510000D01*
X122079147Y-47290054D01*
X122401054Y-46808285D01*
X122514093Y-46240000D01*
X122401054Y-45671715D01*
X122079147Y-45189946D01*
X121749974Y-44970000D01*
X122079147Y-44750054D01*
X122401054Y-44268285D01*
X122514093Y-43700000D01*
X122401054Y-43131715D01*
X122079147Y-42649946D01*
X121749974Y-42430000D01*
X122079147Y-42210054D01*
X122401054Y-41728285D01*
X122514093Y-41160000D01*
X122401054Y-40591715D01*
X122079147Y-40109946D01*
X121749974Y-39890000D01*
X122079147Y-39670054D01*
X122401054Y-39188285D01*
X122514093Y-38620000D01*
X122401054Y-38051715D01*
X122079147Y-37569946D01*
X121749974Y-37350000D01*
X122079147Y-37130054D01*
X122401054Y-36648285D01*
X122514093Y-36080000D01*
X122401054Y-35511715D01*
X122079147Y-35029946D01*
X121749974Y-34810000D01*
X122079147Y-34590054D01*
X122401054Y-34108285D01*
X122514093Y-33540000D01*
X122401054Y-32971715D01*
X122079147Y-32489946D01*
X122037548Y-32462150D01*
X122085317Y-32453162D01*
X122301441Y-32314090D01*
X122446431Y-32101890D01*
X122497440Y-31850000D01*
X122497440Y-30150000D01*
X122473674Y-30023690D01*
X144915000Y-30023690D01*
X144915000Y-30714250D01*
X145073750Y-30873000D01*
X146273000Y-30873000D01*
X146273000Y-29673750D01*
X146527000Y-29673750D01*
X146527000Y-30873000D01*
X147726250Y-30873000D01*
X147885000Y-30714250D01*
X147885000Y-30023690D01*
X147788327Y-29790301D01*
X147609698Y-29611673D01*
X147376309Y-29515000D01*
X146685750Y-29515000D01*
X146527000Y-29673750D01*
X146273000Y-29673750D01*
X146114250Y-29515000D01*
X145423691Y-29515000D01*
X145190302Y-29611673D01*
X145011673Y-29790301D01*
X144915000Y-30023690D01*
X122473674Y-30023690D01*
X122453162Y-29914683D01*
X122314090Y-29698559D01*
X122101890Y-29553569D01*
X121850000Y-29502560D01*
X120150000Y-29502560D01*
X119914683Y-29546838D01*
X119698559Y-29685910D01*
X119553569Y-29898110D01*
X119502560Y-30150000D01*
X119502560Y-31850000D01*
X119546838Y-32085317D01*
X119685910Y-32301441D01*
X119898110Y-32446431D01*
X119965541Y-32460086D01*
X119920853Y-32489946D01*
X119598946Y-32971715D01*
X119485907Y-33540000D01*
X119598946Y-34108285D01*
X119920853Y-34590054D01*
X120250026Y-34810000D01*
X119920853Y-35029946D01*
X119598946Y-35511715D01*
X119485907Y-36080000D01*
X119598946Y-36648285D01*
X119920853Y-37130054D01*
X120250026Y-37350000D01*
X119920853Y-37569946D01*
X119598946Y-38051715D01*
X119485907Y-38620000D01*
X119598946Y-39188285D01*
X119920853Y-39670054D01*
X120250026Y-39890000D01*
X119920853Y-40109946D01*
X119598946Y-40591715D01*
X119485907Y-41160000D01*
X119598946Y-41728285D01*
X119920853Y-42210054D01*
X120250026Y-42430000D01*
X119920853Y-42649946D01*
X119598946Y-43131715D01*
X119485907Y-43700000D01*
X119598946Y-44268285D01*
X119920853Y-44750054D01*
X120250026Y-44970000D01*
X119920853Y-45189946D01*
X119701989Y-45517500D01*
X116185000Y-45517500D01*
X116185000Y-45035750D01*
X116026250Y-44877000D01*
X115327000Y-44877000D01*
X115327000Y-44897000D01*
X115073000Y-44897000D01*
X115073000Y-44877000D01*
X115053000Y-44877000D01*
X115053000Y-44623000D01*
X115073000Y-44623000D01*
X115073000Y-43623750D01*
X115327000Y-43623750D01*
X115327000Y-44623000D01*
X116026250Y-44623000D01*
X116185000Y-44464250D01*
X116185000Y-43973690D01*
X116088327Y-43740301D01*
X115909698Y-43561673D01*
X115676309Y-43465000D01*
X115485750Y-43465000D01*
X115327000Y-43623750D01*
X115073000Y-43623750D01*
X114914250Y-43465000D01*
X114723691Y-43465000D01*
X114490302Y-43561673D01*
X114311673Y-43740301D01*
X114255346Y-43876287D01*
X114253162Y-43864683D01*
X114114090Y-43648559D01*
X113901890Y-43503569D01*
X113650000Y-43452560D01*
X112950000Y-43452560D01*
X112714683Y-43496838D01*
X112498559Y-43635910D01*
X112353569Y-43848110D01*
X112317242Y-44027500D01*
X107466650Y-44027500D01*
X107296547Y-43772923D01*
X107450931Y-43673580D01*
X107595921Y-43461380D01*
X107646930Y-43209490D01*
X107646930Y-41210510D01*
X107602652Y-40975193D01*
X107463580Y-40759069D01*
X107251380Y-40614079D01*
X106999490Y-40563070D01*
X105000510Y-40563070D01*
X104765193Y-40607348D01*
X104549069Y-40746420D01*
X104404079Y-40958620D01*
X104353070Y-41210510D01*
X104353070Y-41427322D01*
X104132125Y-41205991D01*
X103696745Y-41025206D01*
X103225323Y-41024794D01*
X103210000Y-41031125D01*
X103210000Y-28819927D01*
X103263956Y-28548675D01*
X103377998Y-28377998D01*
X103548675Y-28263956D01*
X103819927Y-28210000D01*
X166180073Y-28210000D01*
X166451325Y-28263956D01*
G36*
X123452560Y-83850000D02*
X123452560Y-84150000D01*
X123465980Y-84221323D01*
X123465000Y-84223690D01*
X123465000Y-84266250D01*
X123476621Y-84277871D01*
X123494520Y-84372998D01*
X123465000Y-84372998D01*
X123465000Y-84455115D01*
X123414115Y-84489115D01*
X123414113Y-84489118D01*
X121239115Y-86664115D01*
X121082497Y-86898511D01*
X121027500Y-87175000D01*
X121027500Y-89853070D01*
X120750510Y-89853070D01*
X120515193Y-89897348D01*
X120299069Y-90036420D01*
X120154079Y-90248620D01*
X120103070Y-90500510D01*
X120103070Y-92499490D01*
X120147348Y-92734807D01*
X120286420Y-92950931D01*
X120498620Y-93095921D01*
X120750510Y-93146930D01*
X120967322Y-93146930D01*
X120745991Y-93367875D01*
X120565206Y-93803255D01*
X120564794Y-94274677D01*
X120571125Y-94290000D01*
X117469290Y-94290000D01*
X117474794Y-94276745D01*
X117475206Y-93805323D01*
X117295180Y-93369628D01*
X116962125Y-93035991D01*
X116915189Y-93016502D01*
X116947514Y-93010072D01*
X117477781Y-92655759D01*
X117832094Y-92125492D01*
X117956512Y-91500000D01*
X117832094Y-90874508D01*
X117477781Y-90344241D01*
X117012500Y-90033350D01*
X117012500Y-87586750D01*
X117123000Y-87476250D01*
X117123000Y-86627000D01*
X117377000Y-86627000D01*
X117377000Y-87476250D01*
X117535750Y-87635000D01*
X118001310Y-87635000D01*
X118234699Y-87538327D01*
X118413327Y-87359698D01*
X118510000Y-87126309D01*
X118510000Y-86785750D01*
X118351250Y-86627000D01*
X117377000Y-86627000D01*
X117123000Y-86627000D01*
X117103000Y-86627000D01*
X117103000Y-86373000D01*
X117123000Y-86373000D01*
X117123000Y-86353000D01*
X117377000Y-86353000D01*
X117377000Y-86373000D01*
X118351250Y-86373000D01*
X118510000Y-86214250D01*
X118510000Y-85873691D01*
X118413327Y-85640302D01*
X118272090Y-85499064D01*
X118326441Y-85464090D01*
X118448808Y-85285000D01*
X120769450Y-85285000D01*
X120992361Y-85508302D01*
X121321192Y-85644844D01*
X121677245Y-85645155D01*
X122006314Y-85509186D01*
X122258302Y-85257639D01*
X122394844Y-84928808D01*
X122395155Y-84572755D01*
X122259186Y-84243686D01*
X122007639Y-83991698D01*
X121678808Y-83855156D01*
X121670725Y-83855149D01*
X121636977Y-83832599D01*
X123456084Y-83832599D01*
X123452560Y-83850000D01*
X123452560Y-83850000D01*
G37*
X123452560Y-83850000D02*
X123452560Y-84150000D01*
X123465980Y-84221323D01*
X123465000Y-84223690D01*
X123465000Y-84266250D01*
X123476621Y-84277871D01*
X123494520Y-84372998D01*
X123465000Y-84372998D01*
X123465000Y-84455115D01*
X123414115Y-84489115D01*
X123414113Y-84489118D01*
X121239115Y-86664115D01*
X121082497Y-86898511D01*
X121027500Y-87175000D01*
X121027500Y-89853070D01*
X120750510Y-89853070D01*
X120515193Y-89897348D01*
X120299069Y-90036420D01*
X120154079Y-90248620D01*
X120103070Y-90500510D01*
X120103070Y-92499490D01*
X120147348Y-92734807D01*
X120286420Y-92950931D01*
X120498620Y-93095921D01*
X120750510Y-93146930D01*
X120967322Y-93146930D01*
X120745991Y-93367875D01*
X120565206Y-93803255D01*
X120564794Y-94274677D01*
X120571125Y-94290000D01*
X117469290Y-94290000D01*
X117474794Y-94276745D01*
X117475206Y-93805323D01*
X117295180Y-93369628D01*
X116962125Y-93035991D01*
X116915189Y-93016502D01*
X116947514Y-93010072D01*
X117477781Y-92655759D01*
X117832094Y-92125492D01*
X117956512Y-91500000D01*
X117832094Y-90874508D01*
X117477781Y-90344241D01*
X117012500Y-90033350D01*
X117012500Y-87586750D01*
X117123000Y-87476250D01*
X117123000Y-86627000D01*
X117377000Y-86627000D01*
X117377000Y-87476250D01*
X117535750Y-87635000D01*
X118001310Y-87635000D01*
X118234699Y-87538327D01*
X118413327Y-87359698D01*
X118510000Y-87126309D01*
X118510000Y-86785750D01*
X118351250Y-86627000D01*
X117377000Y-86627000D01*
X117123000Y-86627000D01*
X117103000Y-86627000D01*
X117103000Y-86373000D01*
X117123000Y-86373000D01*
X117123000Y-86353000D01*
X117377000Y-86353000D01*
X117377000Y-86373000D01*
X118351250Y-86373000D01*
X118510000Y-86214250D01*
X118510000Y-85873691D01*
X118413327Y-85640302D01*
X118272090Y-85499064D01*
X118326441Y-85464090D01*
X118448808Y-85285000D01*
X120769450Y-85285000D01*
X120992361Y-85508302D01*
X121321192Y-85644844D01*
X121677245Y-85645155D01*
X122006314Y-85509186D01*
X122258302Y-85257639D01*
X122394844Y-84928808D01*
X122395155Y-84572755D01*
X122259186Y-84243686D01*
X122007639Y-83991698D01*
X121678808Y-83855156D01*
X121670725Y-83855149D01*
X121636977Y-83832599D01*
X123456084Y-83832599D01*
X123452560Y-83850000D01*
G36*
X165377000Y-86373000D02*
X165397000Y-86373000D01*
X165397000Y-86627000D01*
X165377000Y-86627000D01*
X165377000Y-87476250D01*
X165535750Y-87635000D01*
X165965000Y-87635000D01*
X165965000Y-88056657D01*
X165855156Y-88321192D01*
X165854845Y-88677245D01*
X165990814Y-89006314D01*
X166242361Y-89258302D01*
X166571192Y-89394844D01*
X166790000Y-89395035D01*
X166790000Y-93680073D01*
X166736044Y-93951325D01*
X166622002Y-94122002D01*
X166451325Y-94236044D01*
X166180073Y-94290000D01*
X165469290Y-94290000D01*
X165474794Y-94276745D01*
X165475206Y-93805323D01*
X165295180Y-93369628D01*
X164962125Y-93035991D01*
X164915189Y-93016502D01*
X164947514Y-93010072D01*
X165477781Y-92655759D01*
X165832094Y-92125492D01*
X165956512Y-91500000D01*
X165832094Y-90874508D01*
X165477781Y-90344241D01*
X165012500Y-90033350D01*
X165012500Y-87586750D01*
X165123000Y-87476250D01*
X165123000Y-86627000D01*
X165103000Y-86627000D01*
X165103000Y-86373000D01*
X165123000Y-86373000D01*
X165123000Y-86353000D01*
X165377000Y-86353000D01*
X165377000Y-86373000D01*
X165377000Y-86373000D01*
G37*
X165377000Y-86373000D02*
X165397000Y-86373000D01*
X165397000Y-86627000D01*
X165377000Y-86627000D01*
X165377000Y-87476250D01*
X165535750Y-87635000D01*
X165965000Y-87635000D01*
X165965000Y-88056657D01*
X165855156Y-88321192D01*
X165854845Y-88677245D01*
X165990814Y-89006314D01*
X166242361Y-89258302D01*
X166571192Y-89394844D01*
X166790000Y-89395035D01*
X166790000Y-93680073D01*
X166736044Y-93951325D01*
X166622002Y-94122002D01*
X166451325Y-94236044D01*
X166180073Y-94290000D01*
X165469290Y-94290000D01*
X165474794Y-94276745D01*
X165475206Y-93805323D01*
X165295180Y-93369628D01*
X164962125Y-93035991D01*
X164915189Y-93016502D01*
X164947514Y-93010072D01*
X165477781Y-92655759D01*
X165832094Y-92125492D01*
X165956512Y-91500000D01*
X165832094Y-90874508D01*
X165477781Y-90344241D01*
X165012500Y-90033350D01*
X165012500Y-87586750D01*
X165123000Y-87476250D01*
X165123000Y-86627000D01*
X165103000Y-86627000D01*
X165103000Y-86373000D01*
X165123000Y-86373000D01*
X165123000Y-86353000D01*
X165377000Y-86353000D01*
X165377000Y-86373000D01*
G36*
X104489928Y-45407514D02*
X104844241Y-45937781D01*
X105374508Y-46292094D01*
X106000000Y-46416512D01*
X106625492Y-46292094D01*
X107155759Y-45937781D01*
X107466650Y-45472500D01*
X112316202Y-45472500D01*
X112346838Y-45635317D01*
X112485910Y-45851441D01*
X112698110Y-45996431D01*
X112950000Y-46047440D01*
X113275670Y-46047440D01*
X113979115Y-46750885D01*
X114213511Y-46907503D01*
X114490000Y-46962500D01*
X119701989Y-46962500D01*
X119920853Y-47290054D01*
X120250026Y-47510000D01*
X119920853Y-47729946D01*
X119598946Y-48211715D01*
X119485907Y-48780000D01*
X119567589Y-49190642D01*
X119434708Y-49323523D01*
X116185000Y-49323523D01*
X116185000Y-49035750D01*
X116026250Y-48877000D01*
X115327000Y-48877000D01*
X115327000Y-48897000D01*
X115073000Y-48897000D01*
X115073000Y-48877000D01*
X115053000Y-48877000D01*
X115053000Y-48623000D01*
X115073000Y-48623000D01*
X115073000Y-47623750D01*
X115327000Y-47623750D01*
X115327000Y-48623000D01*
X116026250Y-48623000D01*
X116185000Y-48464250D01*
X116185000Y-47973690D01*
X116088327Y-47740301D01*
X115909698Y-47561673D01*
X115676309Y-47465000D01*
X115485750Y-47465000D01*
X115327000Y-47623750D01*
X115073000Y-47623750D01*
X114914250Y-47465000D01*
X114723691Y-47465000D01*
X114490302Y-47561673D01*
X114311673Y-47740301D01*
X114255346Y-47876287D01*
X114253162Y-47864683D01*
X114114090Y-47648559D01*
X113901890Y-47503569D01*
X113650000Y-47452560D01*
X112950000Y-47452560D01*
X112714683Y-47496838D01*
X112498559Y-47635910D01*
X112353569Y-47848110D01*
X112317242Y-48027500D01*
X107646930Y-48027500D01*
X107646930Y-47750510D01*
X107602652Y-47515193D01*
X107463580Y-47299069D01*
X107251380Y-47154079D01*
X106999490Y-47103070D01*
X105000510Y-47103070D01*
X104765193Y-47147348D01*
X104549069Y-47286420D01*
X104404079Y-47498620D01*
X104353070Y-47750510D01*
X104353070Y-47967322D01*
X104132125Y-47745991D01*
X103696745Y-47565206D01*
X103225323Y-47564794D01*
X103210000Y-47571125D01*
X103210000Y-45929290D01*
X103223255Y-45934794D01*
X103694677Y-45935206D01*
X104130372Y-45755180D01*
X104464009Y-45422125D01*
X104483498Y-45375189D01*
X104489928Y-45407514D01*
X104489928Y-45407514D01*
G37*
X104489928Y-45407514D02*
X104844241Y-45937781D01*
X105374508Y-46292094D01*
X106000000Y-46416512D01*
X106625492Y-46292094D01*
X107155759Y-45937781D01*
X107466650Y-45472500D01*
X112316202Y-45472500D01*
X112346838Y-45635317D01*
X112485910Y-45851441D01*
X112698110Y-45996431D01*
X112950000Y-46047440D01*
X113275670Y-46047440D01*
X113979115Y-46750885D01*
X114213511Y-46907503D01*
X114490000Y-46962500D01*
X119701989Y-46962500D01*
X119920853Y-47290054D01*
X120250026Y-47510000D01*
X119920853Y-47729946D01*
X119598946Y-48211715D01*
X119485907Y-48780000D01*
X119567589Y-49190642D01*
X119434708Y-49323523D01*
X116185000Y-49323523D01*
X116185000Y-49035750D01*
X116026250Y-48877000D01*
X115327000Y-48877000D01*
X115327000Y-48897000D01*
X115073000Y-48897000D01*
X115073000Y-48877000D01*
X115053000Y-48877000D01*
X115053000Y-48623000D01*
X115073000Y-48623000D01*
X115073000Y-47623750D01*
X115327000Y-47623750D01*
X115327000Y-48623000D01*
X116026250Y-48623000D01*
X116185000Y-48464250D01*
X116185000Y-47973690D01*
X116088327Y-47740301D01*
X115909698Y-47561673D01*
X115676309Y-47465000D01*
X115485750Y-47465000D01*
X115327000Y-47623750D01*
X115073000Y-47623750D01*
X114914250Y-47465000D01*
X114723691Y-47465000D01*
X114490302Y-47561673D01*
X114311673Y-47740301D01*
X114255346Y-47876287D01*
X114253162Y-47864683D01*
X114114090Y-47648559D01*
X113901890Y-47503569D01*
X113650000Y-47452560D01*
X112950000Y-47452560D01*
X112714683Y-47496838D01*
X112498559Y-47635910D01*
X112353569Y-47848110D01*
X112317242Y-48027500D01*
X107646930Y-48027500D01*
X107646930Y-47750510D01*
X107602652Y-47515193D01*
X107463580Y-47299069D01*
X107251380Y-47154079D01*
X106999490Y-47103070D01*
X105000510Y-47103070D01*
X104765193Y-47147348D01*
X104549069Y-47286420D01*
X104404079Y-47498620D01*
X104353070Y-47750510D01*
X104353070Y-47967322D01*
X104132125Y-47745991D01*
X103696745Y-47565206D01*
X103225323Y-47564794D01*
X103210000Y-47571125D01*
X103210000Y-45929290D01*
X103223255Y-45934794D01*
X103694677Y-45935206D01*
X104130372Y-45755180D01*
X104464009Y-45422125D01*
X104483498Y-45375189D01*
X104489928Y-45407514D01*
M02*
