G04 #@! TF.FileFunction,Legend,Bot*
%FSLAX46Y46*%
G04 Gerber Fmt 4.6, Leading zero omitted, Abs format (unit mm)*
G04 Created by KiCad (PCBNEW 4.0.7-e2-6376~58~ubuntu16.04.1) date Wed Sep  5 16:40:10 2018*
%MOMM*%
%LPD*%
G01*
G04 APERTURE LIST*
%ADD10C,0.100000*%
%ADD11C,0.120000*%
%ADD12C,0.075000*%
G04 APERTURE END LIST*
D10*
D11*
X135330000Y-63740000D02*
X132670000Y-63740000D01*
X135330000Y-45900000D02*
X135330000Y-63740000D01*
X132670000Y-45900000D02*
X132670000Y-63740000D01*
X135330000Y-45900000D02*
X132670000Y-45900000D01*
X135330000Y-44630000D02*
X135330000Y-43300000D01*
X135330000Y-43300000D02*
X134000000Y-43300000D01*
X110450000Y-62210000D02*
X110450000Y-63630000D01*
X117050000Y-61450000D02*
X117050000Y-63630000D01*
X117050000Y-68050000D02*
X117050000Y-65870000D01*
X110450000Y-67290000D02*
X110450000Y-65870000D01*
X117050000Y-61450000D02*
X111210000Y-61450000D01*
X111210000Y-61450000D02*
X110450000Y-62210000D01*
X110450000Y-67290000D02*
X111210000Y-68050000D01*
X111210000Y-68050000D02*
X117050000Y-68050000D01*
X110450000Y-46710000D02*
X110450000Y-48130000D01*
X117050000Y-45950000D02*
X117050000Y-48130000D01*
X117050000Y-52550000D02*
X117050000Y-50370000D01*
X110450000Y-51790000D02*
X110450000Y-50370000D01*
X117050000Y-45950000D02*
X111210000Y-45950000D01*
X111210000Y-45950000D02*
X110450000Y-46710000D01*
X110450000Y-51790000D02*
X111210000Y-52550000D01*
X111210000Y-52550000D02*
X117050000Y-52550000D01*
X118040000Y-80950000D02*
X116620000Y-80950000D01*
X118800000Y-87550000D02*
X116620000Y-87550000D01*
X112200000Y-87550000D02*
X114380000Y-87550000D01*
X112960000Y-80950000D02*
X114380000Y-80950000D01*
X118800000Y-87550000D02*
X118800000Y-81710000D01*
X118800000Y-81710000D02*
X118040000Y-80950000D01*
X112960000Y-80950000D02*
X112200000Y-81710000D01*
X112200000Y-81710000D02*
X112200000Y-87550000D01*
X133540000Y-80950000D02*
X132120000Y-80950000D01*
X134300000Y-87550000D02*
X132120000Y-87550000D01*
X127700000Y-87550000D02*
X129880000Y-87550000D01*
X128460000Y-80950000D02*
X129880000Y-80950000D01*
X134300000Y-87550000D02*
X134300000Y-81710000D01*
X134300000Y-81710000D02*
X133540000Y-80950000D01*
X128460000Y-80950000D02*
X127700000Y-81710000D01*
X127700000Y-81710000D02*
X127700000Y-87550000D01*
X111840000Y-60410000D02*
X111840000Y-59150000D01*
X111840000Y-53590000D02*
X111840000Y-54850000D01*
X115600000Y-60410000D02*
X111840000Y-60410000D01*
X117850000Y-53590000D02*
X111840000Y-53590000D01*
X119840000Y-82090000D02*
X121100000Y-82090000D01*
X126660000Y-82090000D02*
X125400000Y-82090000D01*
X119840000Y-85850000D02*
X119840000Y-82090000D01*
X126660000Y-88100000D02*
X126660000Y-82090000D01*
D12*
X134166666Y-42026190D02*
X134166666Y-42383333D01*
X134190476Y-42454762D01*
X134238095Y-42502381D01*
X134309523Y-42526190D01*
X134357142Y-42526190D01*
X133976190Y-42026190D02*
X133666667Y-42026190D01*
X133833333Y-42216667D01*
X133761905Y-42216667D01*
X133714286Y-42240476D01*
X133690476Y-42264286D01*
X133666667Y-42311905D01*
X133666667Y-42430952D01*
X133690476Y-42478571D01*
X133714286Y-42502381D01*
X133761905Y-42526190D01*
X133904762Y-42526190D01*
X133952381Y-42502381D01*
X133976190Y-42478571D01*
X108333333Y-64928571D02*
X108357143Y-64952381D01*
X108428571Y-64976190D01*
X108476190Y-64976190D01*
X108547619Y-64952381D01*
X108595238Y-64904762D01*
X108619047Y-64857143D01*
X108642857Y-64761905D01*
X108642857Y-64690476D01*
X108619047Y-64595238D01*
X108595238Y-64547619D01*
X108547619Y-64500000D01*
X108476190Y-64476190D01*
X108428571Y-64476190D01*
X108357143Y-64500000D01*
X108333333Y-64523810D01*
X108142857Y-64523810D02*
X108119047Y-64500000D01*
X108071428Y-64476190D01*
X107952381Y-64476190D01*
X107904762Y-64500000D01*
X107880952Y-64523810D01*
X107857143Y-64571429D01*
X107857143Y-64619048D01*
X107880952Y-64690476D01*
X108166666Y-64976190D01*
X107857143Y-64976190D01*
X109660476Y-61875714D02*
X109279524Y-61875714D01*
X109470000Y-62066190D02*
X109470000Y-61685238D01*
X108583333Y-49428571D02*
X108607143Y-49452381D01*
X108678571Y-49476190D01*
X108726190Y-49476190D01*
X108797619Y-49452381D01*
X108845238Y-49404762D01*
X108869047Y-49357143D01*
X108892857Y-49261905D01*
X108892857Y-49190476D01*
X108869047Y-49095238D01*
X108845238Y-49047619D01*
X108797619Y-49000000D01*
X108726190Y-48976190D01*
X108678571Y-48976190D01*
X108607143Y-49000000D01*
X108583333Y-49023810D01*
X108416666Y-48976190D02*
X108107143Y-48976190D01*
X108273809Y-49166667D01*
X108202381Y-49166667D01*
X108154762Y-49190476D01*
X108130952Y-49214286D01*
X108107143Y-49261905D01*
X108107143Y-49380952D01*
X108130952Y-49428571D01*
X108154762Y-49452381D01*
X108202381Y-49476190D01*
X108345238Y-49476190D01*
X108392857Y-49452381D01*
X108416666Y-49428571D01*
X109660476Y-46375714D02*
X109279524Y-46375714D01*
X109470000Y-46566190D02*
X109470000Y-46185238D01*
X115583333Y-78678571D02*
X115607143Y-78702381D01*
X115678571Y-78726190D01*
X115726190Y-78726190D01*
X115797619Y-78702381D01*
X115845238Y-78654762D01*
X115869047Y-78607143D01*
X115892857Y-78511905D01*
X115892857Y-78440476D01*
X115869047Y-78345238D01*
X115845238Y-78297619D01*
X115797619Y-78250000D01*
X115726190Y-78226190D01*
X115678571Y-78226190D01*
X115607143Y-78250000D01*
X115583333Y-78273810D01*
X115154762Y-78392857D02*
X115154762Y-78726190D01*
X115273809Y-78202381D02*
X115392857Y-78559524D01*
X115083333Y-78559524D01*
X118445714Y-79779524D02*
X118445714Y-80160476D01*
X118636190Y-79970000D02*
X118255238Y-79970000D01*
X131083333Y-79178571D02*
X131107143Y-79202381D01*
X131178571Y-79226190D01*
X131226190Y-79226190D01*
X131297619Y-79202381D01*
X131345238Y-79154762D01*
X131369047Y-79107143D01*
X131392857Y-79011905D01*
X131392857Y-78940476D01*
X131369047Y-78845238D01*
X131345238Y-78797619D01*
X131297619Y-78750000D01*
X131226190Y-78726190D01*
X131178571Y-78726190D01*
X131107143Y-78750000D01*
X131083333Y-78773810D01*
X130630952Y-78726190D02*
X130869047Y-78726190D01*
X130892857Y-78964286D01*
X130869047Y-78940476D01*
X130821428Y-78916667D01*
X130702381Y-78916667D01*
X130654762Y-78940476D01*
X130630952Y-78964286D01*
X130607143Y-79011905D01*
X130607143Y-79130952D01*
X130630952Y-79178571D01*
X130654762Y-79202381D01*
X130702381Y-79226190D01*
X130821428Y-79226190D01*
X130869047Y-79202381D01*
X130892857Y-79178571D01*
X133945714Y-79779524D02*
X133945714Y-80160476D01*
X134136190Y-79970000D02*
X133755238Y-79970000D01*
X108880952Y-56726190D02*
X108880952Y-57130952D01*
X108857143Y-57178571D01*
X108833333Y-57202381D01*
X108785714Y-57226190D01*
X108690476Y-57226190D01*
X108642857Y-57202381D01*
X108619048Y-57178571D01*
X108595238Y-57130952D01*
X108595238Y-56726190D01*
X108095238Y-57226190D02*
X108380952Y-57226190D01*
X108238095Y-57226190D02*
X108238095Y-56726190D01*
X108285714Y-56797619D01*
X108333333Y-56845238D01*
X108380952Y-56869048D01*
X123630952Y-78726190D02*
X123630952Y-79130952D01*
X123607143Y-79178571D01*
X123583333Y-79202381D01*
X123535714Y-79226190D01*
X123440476Y-79226190D01*
X123392857Y-79202381D01*
X123369048Y-79178571D01*
X123345238Y-79130952D01*
X123345238Y-78726190D01*
X123154761Y-78726190D02*
X122845238Y-78726190D01*
X123011904Y-78916667D01*
X122940476Y-78916667D01*
X122892857Y-78940476D01*
X122869047Y-78964286D01*
X122845238Y-79011905D01*
X122845238Y-79130952D01*
X122869047Y-79178571D01*
X122892857Y-79202381D01*
X122940476Y-79226190D01*
X123083333Y-79226190D01*
X123130952Y-79202381D01*
X123154761Y-79178571D01*
M02*
