G04 #@! TF.FileFunction,Legend,Top*
%FSLAX46Y46*%
G04 Gerber Fmt 4.6, Leading zero omitted, Abs format (unit mm)*
G04 Created by KiCad (PCBNEW 4.0.7-e2-6376~58~ubuntu16.04.1) date Wed Sep  5 16:34:56 2018*
%MOMM*%
%LPD*%
G01*
G04 APERTURE LIST*
%ADD10C,0.100000*%
%ADD11C,0.075000*%
%ADD12C,0.120000*%
%ADD13C,0.150000*%
%ADD14C,0.500000*%
G04 APERTURE END LIST*
D10*
D11*
X127059524Y-91535714D02*
X127440476Y-91535714D01*
X127250000Y-91726190D02*
X127250000Y-91345238D01*
D12*
X135600000Y-54300000D02*
X135600000Y-53300000D01*
X133900000Y-53300000D02*
X133900000Y-54300000D01*
X137600000Y-97250000D02*
X137600000Y-96250000D01*
X135900000Y-96250000D02*
X135900000Y-97250000D01*
X153600000Y-97500000D02*
X153600000Y-96500000D01*
X151900000Y-96500000D02*
X151900000Y-97500000D01*
X170350000Y-97250000D02*
X170350000Y-96250000D01*
X168650000Y-96250000D02*
X168650000Y-97250000D01*
X185850000Y-97250000D02*
X185850000Y-96250000D01*
X184150000Y-96250000D02*
X184150000Y-97250000D01*
X141300000Y-74050000D02*
X141300000Y-75450000D01*
X141300000Y-75450000D02*
X144100000Y-75450000D01*
X141300000Y-74050000D02*
X144100000Y-74050000D01*
D13*
X123649040Y-65529080D02*
X123649040Y-59930920D01*
X123151200Y-60129040D02*
X123649040Y-60129040D01*
X123649040Y-65330960D02*
X123151200Y-65330960D01*
X123151200Y-62730000D02*
X123649040Y-62730000D01*
X128950020Y-59930920D02*
X128950020Y-65529080D01*
X123151200Y-59930920D02*
X123151200Y-65529080D01*
X123151200Y-65529080D02*
X129348800Y-65529080D01*
X129348800Y-65529080D02*
X129348800Y-59930920D01*
X129348800Y-59930920D02*
X123151200Y-59930920D01*
X123150000Y-87550000D02*
X122750000Y-87550000D01*
X124250000Y-84050000D02*
X124250000Y-91050000D01*
X123150000Y-84050000D02*
X123150000Y-91050000D01*
X130350000Y-84050000D02*
X122750000Y-84050000D01*
X122750000Y-91050000D02*
X130350000Y-91050000D01*
X130350000Y-91050000D02*
X130350000Y-84050000D01*
X180901200Y-50410600D02*
X180901200Y-66209400D01*
X181299980Y-50410600D02*
X181299980Y-66209400D01*
X187098800Y-66209400D02*
X187098800Y-50410600D01*
X186600960Y-50410600D02*
X186600960Y-66209400D01*
X186600960Y-53209680D02*
X187098800Y-53209680D01*
X186600960Y-55810640D02*
X187098800Y-55810640D01*
X186600960Y-58312540D02*
X187098800Y-58312540D01*
X186600960Y-60809360D02*
X187098800Y-60809360D01*
X187098800Y-66006200D02*
X186600960Y-66006200D01*
X186600960Y-50613800D02*
X187098800Y-50613800D01*
X187098800Y-63407780D02*
X186600960Y-63407780D01*
X187098800Y-50415680D02*
X180901200Y-50415680D01*
X180901200Y-66204320D02*
X187098800Y-66204320D01*
X123649040Y-73779080D02*
X123649040Y-68180920D01*
X123151200Y-68379040D02*
X123649040Y-68379040D01*
X123649040Y-73580960D02*
X123151200Y-73580960D01*
X123151200Y-70980000D02*
X123649040Y-70980000D01*
X128950020Y-68180920D02*
X128950020Y-73779080D01*
X123151200Y-68180920D02*
X123151200Y-73779080D01*
X123151200Y-73779080D02*
X129348800Y-73779080D01*
X129348800Y-73779080D02*
X129348800Y-68180920D01*
X129348800Y-68180920D02*
X123151200Y-68180920D01*
X123649040Y-81729080D02*
X123649040Y-76130920D01*
X123151200Y-76329040D02*
X123649040Y-76329040D01*
X123649040Y-81530960D02*
X123151200Y-81530960D01*
X123151200Y-78930000D02*
X123649040Y-78930000D01*
X128950020Y-76130920D02*
X128950020Y-81729080D01*
X123151200Y-76130920D02*
X123151200Y-81729080D01*
X123151200Y-81729080D02*
X129348800Y-81729080D01*
X129348800Y-81729080D02*
X129348800Y-76130920D01*
X129348800Y-76130920D02*
X123151200Y-76130920D01*
D12*
X165090000Y-51170000D02*
X165090000Y-53830000D01*
X172770000Y-51170000D02*
X165090000Y-51170000D01*
X172770000Y-53830000D02*
X165090000Y-53830000D01*
X172770000Y-51170000D02*
X172770000Y-53830000D01*
X174040000Y-51170000D02*
X175370000Y-51170000D01*
X175370000Y-51170000D02*
X175370000Y-52500000D01*
D13*
X130169080Y-108950960D02*
X124570920Y-108950960D01*
X124769040Y-109448800D02*
X124769040Y-108950960D01*
X129970960Y-108950960D02*
X129970960Y-109448800D01*
X127370000Y-109448800D02*
X127370000Y-108950960D01*
X124570920Y-103649980D02*
X130169080Y-103649980D01*
X124570920Y-109448800D02*
X130169080Y-109448800D01*
X130169080Y-109448800D02*
X130169080Y-103251200D01*
X130169080Y-103251200D02*
X124570920Y-103251200D01*
X124570920Y-103251200D02*
X124570920Y-109448800D01*
X138229080Y-108950960D02*
X132630920Y-108950960D01*
X132829040Y-109448800D02*
X132829040Y-108950960D01*
X138030960Y-108950960D02*
X138030960Y-109448800D01*
X135430000Y-109448800D02*
X135430000Y-108950960D01*
X132630920Y-103649980D02*
X138229080Y-103649980D01*
X132630920Y-109448800D02*
X138229080Y-109448800D01*
X138229080Y-109448800D02*
X138229080Y-103251200D01*
X138229080Y-103251200D02*
X132630920Y-103251200D01*
X132630920Y-103251200D02*
X132630920Y-109448800D01*
X146369080Y-108950960D02*
X140770920Y-108950960D01*
X140969040Y-109448800D02*
X140969040Y-108950960D01*
X146170960Y-108950960D02*
X146170960Y-109448800D01*
X143570000Y-109448800D02*
X143570000Y-108950960D01*
X140770920Y-103649980D02*
X146369080Y-103649980D01*
X140770920Y-109448800D02*
X146369080Y-109448800D01*
X146369080Y-109448800D02*
X146369080Y-103251200D01*
X146369080Y-103251200D02*
X140770920Y-103251200D01*
X140770920Y-103251200D02*
X140770920Y-109448800D01*
X154369080Y-108950960D02*
X148770920Y-108950960D01*
X148969040Y-109448800D02*
X148969040Y-108950960D01*
X154170960Y-108950960D02*
X154170960Y-109448800D01*
X151570000Y-109448800D02*
X151570000Y-108950960D01*
X148770920Y-103649980D02*
X154369080Y-103649980D01*
X148770920Y-109448800D02*
X154369080Y-109448800D01*
X154369080Y-109448800D02*
X154369080Y-103251200D01*
X154369080Y-103251200D02*
X148770920Y-103251200D01*
X148770920Y-103251200D02*
X148770920Y-109448800D01*
X162369080Y-108950960D02*
X156770920Y-108950960D01*
X156969040Y-109448800D02*
X156969040Y-108950960D01*
X162170960Y-108950960D02*
X162170960Y-109448800D01*
X159570000Y-109448800D02*
X159570000Y-108950960D01*
X156770920Y-103649980D02*
X162369080Y-103649980D01*
X156770920Y-109448800D02*
X162369080Y-109448800D01*
X162369080Y-109448800D02*
X162369080Y-103251200D01*
X162369080Y-103251200D02*
X156770920Y-103251200D01*
X156770920Y-103251200D02*
X156770920Y-109448800D01*
X170369080Y-108950960D02*
X164770920Y-108950960D01*
X164969040Y-109448800D02*
X164969040Y-108950960D01*
X170170960Y-108950960D02*
X170170960Y-109448800D01*
X167570000Y-109448800D02*
X167570000Y-108950960D01*
X164770920Y-103649980D02*
X170369080Y-103649980D01*
X164770920Y-109448800D02*
X170369080Y-109448800D01*
X170369080Y-109448800D02*
X170369080Y-103251200D01*
X170369080Y-103251200D02*
X164770920Y-103251200D01*
X164770920Y-103251200D02*
X164770920Y-109448800D01*
X178229080Y-108950960D02*
X172630920Y-108950960D01*
X172829040Y-109448800D02*
X172829040Y-108950960D01*
X178030960Y-108950960D02*
X178030960Y-109448800D01*
X175430000Y-109448800D02*
X175430000Y-108950960D01*
X172630920Y-103649980D02*
X178229080Y-103649980D01*
X172630920Y-109448800D02*
X178229080Y-109448800D01*
X178229080Y-109448800D02*
X178229080Y-103251200D01*
X178229080Y-103251200D02*
X172630920Y-103251200D01*
X172630920Y-103251200D02*
X172630920Y-109448800D01*
X186369080Y-108950960D02*
X180770920Y-108950960D01*
X180969040Y-109448800D02*
X180969040Y-108950960D01*
X186170960Y-108950960D02*
X186170960Y-109448800D01*
X183570000Y-109448800D02*
X183570000Y-108950960D01*
X180770920Y-103649980D02*
X186369080Y-103649980D01*
X180770920Y-109448800D02*
X186369080Y-109448800D01*
X186369080Y-109448800D02*
X186369080Y-103251200D01*
X186369080Y-103251200D02*
X180770920Y-103251200D01*
X180770920Y-103251200D02*
X180770920Y-109448800D01*
D12*
X137350000Y-58370000D02*
X138550000Y-58370000D01*
X138550000Y-60130000D02*
X137350000Y-60130000D01*
X138600000Y-62630000D02*
X137400000Y-62630000D01*
X137400000Y-60870000D02*
X138600000Y-60870000D01*
X137400000Y-63370000D02*
X138600000Y-63370000D01*
X138600000Y-65130000D02*
X137400000Y-65130000D01*
X154320000Y-74200000D02*
X154320000Y-73000000D01*
X156080000Y-73000000D02*
X156080000Y-74200000D01*
X139130000Y-53200000D02*
X139130000Y-54400000D01*
X137370000Y-54400000D02*
X137370000Y-53200000D01*
X156720000Y-74200000D02*
X156720000Y-73000000D01*
X158480000Y-73000000D02*
X158480000Y-74200000D01*
X164900000Y-62120000D02*
X166100000Y-62120000D01*
X166100000Y-63880000D02*
X164900000Y-63880000D01*
X166100000Y-68880000D02*
X164900000Y-68880000D01*
X164900000Y-67120000D02*
X166100000Y-67120000D01*
X146520000Y-74350000D02*
X146520000Y-73150000D01*
X148280000Y-73150000D02*
X148280000Y-74350000D01*
X177870000Y-56100000D02*
X177870000Y-54900000D01*
X179630000Y-54900000D02*
X179630000Y-56100000D01*
X177870000Y-52600000D02*
X177870000Y-51400000D01*
X179630000Y-51400000D02*
X179630000Y-52600000D01*
X137350000Y-67120000D02*
X138550000Y-67120000D01*
X138550000Y-68880000D02*
X137350000Y-68880000D01*
D13*
X174470000Y-63550000D02*
X171930000Y-63550000D01*
X171930000Y-63550000D02*
X171930000Y-55930000D01*
X171930000Y-55930000D02*
X174470000Y-55930000D01*
X174470000Y-55930000D02*
X174470000Y-63550000D01*
X171930000Y-61010000D02*
X174470000Y-61010000D01*
D12*
X130750000Y-51000000D02*
X126250000Y-51000000D01*
X132000000Y-55000000D02*
X132000000Y-53500000D01*
X126250000Y-57500000D02*
X130750000Y-57500000D01*
X125000000Y-53500000D02*
X125000000Y-55000000D01*
D13*
X174470000Y-72750000D02*
X171930000Y-72750000D01*
X171930000Y-72750000D02*
X171930000Y-65130000D01*
X171930000Y-65130000D02*
X174470000Y-65130000D01*
X174470000Y-65130000D02*
X174470000Y-72750000D01*
X171930000Y-70210000D02*
X174470000Y-70210000D01*
D14*
X142177981Y-50146000D02*
G75*
G03X142177981Y-50146000I-283981J0D01*
G01*
D13*
X160800000Y-50000000D02*
X142800000Y-50000000D01*
X142800000Y-44000000D02*
X142800000Y-69500000D01*
X160800000Y-44000000D02*
X160800000Y-69500000D01*
X160800000Y-69500000D02*
X142800000Y-69500000D01*
X160800000Y-44000000D02*
X142800000Y-44000000D01*
X129825000Y-94075000D02*
X129825000Y-94300000D01*
X133175000Y-94075000D02*
X133175000Y-94375000D01*
X133175000Y-97425000D02*
X133175000Y-97125000D01*
X129825000Y-97425000D02*
X129825000Y-97125000D01*
X129825000Y-94075000D02*
X133175000Y-94075000D01*
X129825000Y-97425000D02*
X133175000Y-97425000D01*
X129825000Y-94300000D02*
X128600000Y-94300000D01*
X145825000Y-94325000D02*
X145825000Y-94550000D01*
X149175000Y-94325000D02*
X149175000Y-94625000D01*
X149175000Y-97675000D02*
X149175000Y-97375000D01*
X145825000Y-97675000D02*
X145825000Y-97375000D01*
X145825000Y-94325000D02*
X149175000Y-94325000D01*
X145825000Y-97675000D02*
X149175000Y-97675000D01*
X145825000Y-94550000D02*
X144600000Y-94550000D01*
X161825000Y-94075000D02*
X161825000Y-94300000D01*
X165175000Y-94075000D02*
X165175000Y-94375000D01*
X165175000Y-97425000D02*
X165175000Y-97125000D01*
X161825000Y-97425000D02*
X161825000Y-97125000D01*
X161825000Y-94075000D02*
X165175000Y-94075000D01*
X161825000Y-97425000D02*
X165175000Y-97425000D01*
X161825000Y-94300000D02*
X160600000Y-94300000D01*
X178025000Y-94075000D02*
X178025000Y-94300000D01*
X181375000Y-94075000D02*
X181375000Y-94375000D01*
X181375000Y-97425000D02*
X181375000Y-97125000D01*
X178025000Y-97425000D02*
X178025000Y-97125000D01*
X178025000Y-94075000D02*
X181375000Y-94075000D01*
X178025000Y-97425000D02*
X181375000Y-97425000D01*
X178025000Y-94300000D02*
X176800000Y-94300000D01*
D12*
X163600000Y-85480000D02*
X162400000Y-85480000D01*
X162400000Y-83720000D02*
X163600000Y-83720000D01*
X163600000Y-82480000D02*
X162400000Y-82480000D01*
X162400000Y-80720000D02*
X163600000Y-80720000D01*
D11*
X134666667Y-56428571D02*
X134642857Y-56452381D01*
X134571429Y-56476190D01*
X134523810Y-56476190D01*
X134452381Y-56452381D01*
X134404762Y-56404762D01*
X134380953Y-56357143D01*
X134357143Y-56261905D01*
X134357143Y-56190476D01*
X134380953Y-56095238D01*
X134404762Y-56047619D01*
X134452381Y-56000000D01*
X134523810Y-55976190D01*
X134571429Y-55976190D01*
X134642857Y-56000000D01*
X134666667Y-56023810D01*
X135142857Y-56476190D02*
X134857143Y-56476190D01*
X135000000Y-56476190D02*
X135000000Y-55976190D01*
X134952381Y-56047619D01*
X134904762Y-56095238D01*
X134857143Y-56119048D01*
X136666667Y-99428571D02*
X136642857Y-99452381D01*
X136571429Y-99476190D01*
X136523810Y-99476190D01*
X136452381Y-99452381D01*
X136404762Y-99404762D01*
X136380953Y-99357143D01*
X136357143Y-99261905D01*
X136357143Y-99190476D01*
X136380953Y-99095238D01*
X136404762Y-99047619D01*
X136452381Y-99000000D01*
X136523810Y-98976190D01*
X136571429Y-98976190D01*
X136642857Y-99000000D01*
X136666667Y-99023810D01*
X137095238Y-98976190D02*
X137000000Y-98976190D01*
X136952381Y-99000000D01*
X136928572Y-99023810D01*
X136880953Y-99095238D01*
X136857143Y-99190476D01*
X136857143Y-99380952D01*
X136880953Y-99428571D01*
X136904762Y-99452381D01*
X136952381Y-99476190D01*
X137047619Y-99476190D01*
X137095238Y-99452381D01*
X137119048Y-99428571D01*
X137142857Y-99380952D01*
X137142857Y-99261905D01*
X137119048Y-99214286D01*
X137095238Y-99190476D01*
X137047619Y-99166667D01*
X136952381Y-99166667D01*
X136904762Y-99190476D01*
X136880953Y-99214286D01*
X136857143Y-99261905D01*
X152666667Y-99678571D02*
X152642857Y-99702381D01*
X152571429Y-99726190D01*
X152523810Y-99726190D01*
X152452381Y-99702381D01*
X152404762Y-99654762D01*
X152380953Y-99607143D01*
X152357143Y-99511905D01*
X152357143Y-99440476D01*
X152380953Y-99345238D01*
X152404762Y-99297619D01*
X152452381Y-99250000D01*
X152523810Y-99226190D01*
X152571429Y-99226190D01*
X152642857Y-99250000D01*
X152666667Y-99273810D01*
X152833334Y-99226190D02*
X153166667Y-99226190D01*
X152952381Y-99726190D01*
X169416667Y-99428571D02*
X169392857Y-99452381D01*
X169321429Y-99476190D01*
X169273810Y-99476190D01*
X169202381Y-99452381D01*
X169154762Y-99404762D01*
X169130953Y-99357143D01*
X169107143Y-99261905D01*
X169107143Y-99190476D01*
X169130953Y-99095238D01*
X169154762Y-99047619D01*
X169202381Y-99000000D01*
X169273810Y-98976190D01*
X169321429Y-98976190D01*
X169392857Y-99000000D01*
X169416667Y-99023810D01*
X169702381Y-99190476D02*
X169654762Y-99166667D01*
X169630953Y-99142857D01*
X169607143Y-99095238D01*
X169607143Y-99071429D01*
X169630953Y-99023810D01*
X169654762Y-99000000D01*
X169702381Y-98976190D01*
X169797619Y-98976190D01*
X169845238Y-99000000D01*
X169869048Y-99023810D01*
X169892857Y-99071429D01*
X169892857Y-99095238D01*
X169869048Y-99142857D01*
X169845238Y-99166667D01*
X169797619Y-99190476D01*
X169702381Y-99190476D01*
X169654762Y-99214286D01*
X169630953Y-99238095D01*
X169607143Y-99285714D01*
X169607143Y-99380952D01*
X169630953Y-99428571D01*
X169654762Y-99452381D01*
X169702381Y-99476190D01*
X169797619Y-99476190D01*
X169845238Y-99452381D01*
X169869048Y-99428571D01*
X169892857Y-99380952D01*
X169892857Y-99285714D01*
X169869048Y-99238095D01*
X169845238Y-99214286D01*
X169797619Y-99190476D01*
X184916667Y-99428571D02*
X184892857Y-99452381D01*
X184821429Y-99476190D01*
X184773810Y-99476190D01*
X184702381Y-99452381D01*
X184654762Y-99404762D01*
X184630953Y-99357143D01*
X184607143Y-99261905D01*
X184607143Y-99190476D01*
X184630953Y-99095238D01*
X184654762Y-99047619D01*
X184702381Y-99000000D01*
X184773810Y-98976190D01*
X184821429Y-98976190D01*
X184892857Y-99000000D01*
X184916667Y-99023810D01*
X185154762Y-99476190D02*
X185250000Y-99476190D01*
X185297619Y-99452381D01*
X185321429Y-99428571D01*
X185369048Y-99357143D01*
X185392857Y-99261905D01*
X185392857Y-99071429D01*
X185369048Y-99023810D01*
X185345238Y-99000000D01*
X185297619Y-98976190D01*
X185202381Y-98976190D01*
X185154762Y-99000000D01*
X185130953Y-99023810D01*
X185107143Y-99071429D01*
X185107143Y-99190476D01*
X185130953Y-99238095D01*
X185154762Y-99261905D01*
X185202381Y-99285714D01*
X185297619Y-99285714D01*
X185345238Y-99261905D01*
X185369048Y-99238095D01*
X185392857Y-99190476D01*
X142730953Y-76476190D02*
X142730953Y-75976190D01*
X142850000Y-75976190D01*
X142921429Y-76000000D01*
X142969048Y-76047619D01*
X142992857Y-76095238D01*
X143016667Y-76190476D01*
X143016667Y-76261905D01*
X142992857Y-76357143D01*
X142969048Y-76404762D01*
X142921429Y-76452381D01*
X142850000Y-76476190D01*
X142730953Y-76476190D01*
X143183334Y-75976190D02*
X143492857Y-75976190D01*
X143326191Y-76166667D01*
X143397619Y-76166667D01*
X143445238Y-76190476D01*
X143469048Y-76214286D01*
X143492857Y-76261905D01*
X143492857Y-76380952D01*
X143469048Y-76428571D01*
X143445238Y-76452381D01*
X143397619Y-76476190D01*
X143254762Y-76476190D01*
X143207143Y-76452381D01*
X143183334Y-76428571D01*
X130166667Y-62694286D02*
X130238096Y-62718095D01*
X130261905Y-62741905D01*
X130285715Y-62789524D01*
X130285715Y-62860952D01*
X130261905Y-62908571D01*
X130238096Y-62932381D01*
X130190477Y-62956190D01*
X130000001Y-62956190D01*
X130000001Y-62456190D01*
X130166667Y-62456190D01*
X130214286Y-62480000D01*
X130238096Y-62503810D01*
X130261905Y-62551429D01*
X130261905Y-62599048D01*
X130238096Y-62646667D01*
X130214286Y-62670476D01*
X130166667Y-62694286D01*
X130000001Y-62694286D01*
X130500001Y-62956190D02*
X130500001Y-62622857D01*
X130500001Y-62456190D02*
X130476191Y-62480000D01*
X130500001Y-62503810D01*
X130523810Y-62480000D01*
X130500001Y-62456190D01*
X130500001Y-62503810D01*
X130738096Y-62956190D02*
X130738096Y-62622857D01*
X130738096Y-62718095D02*
X130761905Y-62670476D01*
X130785715Y-62646667D01*
X130833334Y-62622857D01*
X130880953Y-62622857D01*
X131261905Y-62622857D02*
X131261905Y-62956190D01*
X131047620Y-62622857D02*
X131047620Y-62884762D01*
X131071429Y-62932381D01*
X131119048Y-62956190D01*
X131190477Y-62956190D01*
X131238096Y-62932381D01*
X131261905Y-62908571D01*
X131428572Y-62622857D02*
X131619048Y-62622857D01*
X131500001Y-62456190D02*
X131500001Y-62884762D01*
X131523810Y-62932381D01*
X131571429Y-62956190D01*
X131619048Y-62956190D01*
X132000000Y-62956190D02*
X132000000Y-62694286D01*
X131976191Y-62646667D01*
X131928572Y-62622857D01*
X131833334Y-62622857D01*
X131785715Y-62646667D01*
X132000000Y-62932381D02*
X131952381Y-62956190D01*
X131833334Y-62956190D01*
X131785715Y-62932381D01*
X131761905Y-62884762D01*
X131761905Y-62837143D01*
X131785715Y-62789524D01*
X131833334Y-62765714D01*
X131952381Y-62765714D01*
X132000000Y-62741905D01*
X131011905Y-87726190D02*
X131011905Y-87226190D01*
X131202381Y-87226190D01*
X131250000Y-87250000D01*
X131273809Y-87273810D01*
X131297619Y-87321429D01*
X131297619Y-87392857D01*
X131273809Y-87440476D01*
X131250000Y-87464286D01*
X131202381Y-87488095D01*
X131011905Y-87488095D01*
X131583333Y-87726190D02*
X131535714Y-87702381D01*
X131511905Y-87678571D01*
X131488095Y-87630952D01*
X131488095Y-87488095D01*
X131511905Y-87440476D01*
X131535714Y-87416667D01*
X131583333Y-87392857D01*
X131654762Y-87392857D01*
X131702381Y-87416667D01*
X131726190Y-87440476D01*
X131750000Y-87488095D01*
X131750000Y-87630952D01*
X131726190Y-87678571D01*
X131702381Y-87702381D01*
X131654762Y-87726190D01*
X131583333Y-87726190D01*
X131916667Y-87392857D02*
X132011905Y-87726190D01*
X132107143Y-87488095D01*
X132202381Y-87726190D01*
X132297619Y-87392857D01*
X132678572Y-87702381D02*
X132630953Y-87726190D01*
X132535715Y-87726190D01*
X132488096Y-87702381D01*
X132464286Y-87654762D01*
X132464286Y-87464286D01*
X132488096Y-87416667D01*
X132535715Y-87392857D01*
X132630953Y-87392857D01*
X132678572Y-87416667D01*
X132702381Y-87464286D01*
X132702381Y-87511905D01*
X132464286Y-87559524D01*
X132916667Y-87726190D02*
X132916667Y-87392857D01*
X132916667Y-87488095D02*
X132940476Y-87440476D01*
X132964286Y-87416667D01*
X133011905Y-87392857D01*
X133059524Y-87392857D01*
X183833334Y-66726190D02*
X183833334Y-67083333D01*
X183809524Y-67154762D01*
X183761905Y-67202381D01*
X183690477Y-67226190D01*
X183642858Y-67226190D01*
X184285714Y-66892857D02*
X184285714Y-67226190D01*
X184166667Y-66702381D02*
X184047619Y-67059524D01*
X184357143Y-67059524D01*
X129904763Y-71206190D02*
X129904763Y-70706190D01*
X130095239Y-70706190D01*
X130142858Y-70730000D01*
X130166667Y-70753810D01*
X130190477Y-70801429D01*
X130190477Y-70872857D01*
X130166667Y-70920476D01*
X130142858Y-70944286D01*
X130095239Y-70968095D01*
X129904763Y-70968095D01*
X130476191Y-71206190D02*
X130428572Y-71182381D01*
X130404763Y-71134762D01*
X130404763Y-70706190D01*
X130880953Y-70872857D02*
X130880953Y-71206190D01*
X130666668Y-70872857D02*
X130666668Y-71134762D01*
X130690477Y-71182381D01*
X130738096Y-71206190D01*
X130809525Y-71206190D01*
X130857144Y-71182381D01*
X130880953Y-71158571D01*
X131071430Y-70872857D02*
X131190477Y-71206190D01*
X131309525Y-70872857D01*
X131500001Y-71206190D02*
X131500001Y-70872857D01*
X131500001Y-70706190D02*
X131476191Y-70730000D01*
X131500001Y-70753810D01*
X131523810Y-70730000D01*
X131500001Y-70706190D01*
X131500001Y-70753810D01*
X131809524Y-71206190D02*
X131761905Y-71182381D01*
X131738096Y-71158571D01*
X131714286Y-71110952D01*
X131714286Y-70968095D01*
X131738096Y-70920476D01*
X131761905Y-70896667D01*
X131809524Y-70872857D01*
X131880953Y-70872857D01*
X131928572Y-70896667D01*
X131952381Y-70920476D01*
X131976191Y-70968095D01*
X131976191Y-71110952D01*
X131952381Y-71158571D01*
X131928572Y-71182381D01*
X131880953Y-71206190D01*
X131809524Y-71206190D01*
X132190477Y-71206190D02*
X132190477Y-70872857D01*
X132190477Y-70920476D02*
X132214286Y-70896667D01*
X132261905Y-70872857D01*
X132333334Y-70872857D01*
X132380953Y-70896667D01*
X132404762Y-70944286D01*
X132404762Y-71206190D01*
X132404762Y-70944286D02*
X132428572Y-70896667D01*
X132476191Y-70872857D01*
X132547619Y-70872857D01*
X132595239Y-70896667D01*
X132619048Y-70944286D01*
X132619048Y-71206190D01*
X133047620Y-71182381D02*
X133000001Y-71206190D01*
X132904763Y-71206190D01*
X132857144Y-71182381D01*
X132833334Y-71134762D01*
X132833334Y-70944286D01*
X132857144Y-70896667D01*
X132904763Y-70872857D01*
X133000001Y-70872857D01*
X133047620Y-70896667D01*
X133071429Y-70944286D01*
X133071429Y-70991905D01*
X132833334Y-71039524D01*
X133214286Y-70872857D02*
X133404762Y-70872857D01*
X133285715Y-70706190D02*
X133285715Y-71134762D01*
X133309524Y-71182381D01*
X133357143Y-71206190D01*
X133404762Y-71206190D01*
X133571429Y-71206190D02*
X133571429Y-70872857D01*
X133571429Y-70968095D02*
X133595238Y-70920476D01*
X133619048Y-70896667D01*
X133666667Y-70872857D01*
X133714286Y-70872857D01*
X133952381Y-71206190D02*
X133904762Y-71182381D01*
X133880953Y-71158571D01*
X133857143Y-71110952D01*
X133857143Y-70968095D01*
X133880953Y-70920476D01*
X133904762Y-70896667D01*
X133952381Y-70872857D01*
X134023810Y-70872857D01*
X134071429Y-70896667D01*
X134095238Y-70920476D01*
X134119048Y-70968095D01*
X134119048Y-71110952D01*
X134095238Y-71158571D01*
X134071429Y-71182381D01*
X134023810Y-71206190D01*
X133952381Y-71206190D01*
X130059524Y-79013333D02*
X130297619Y-79013333D01*
X130011905Y-79156190D02*
X130178572Y-78656190D01*
X130345238Y-79156190D01*
X130511905Y-78822857D02*
X130511905Y-79156190D01*
X130511905Y-78870476D02*
X130535714Y-78846667D01*
X130583333Y-78822857D01*
X130654762Y-78822857D01*
X130702381Y-78846667D01*
X130726190Y-78894286D01*
X130726190Y-79156190D01*
X131154762Y-79132381D02*
X131107143Y-79156190D01*
X131011905Y-79156190D01*
X130964286Y-79132381D01*
X130940476Y-79084762D01*
X130940476Y-78894286D01*
X130964286Y-78846667D01*
X131011905Y-78822857D01*
X131107143Y-78822857D01*
X131154762Y-78846667D01*
X131178571Y-78894286D01*
X131178571Y-78941905D01*
X130940476Y-78989524D01*
X131392857Y-79156190D02*
X131392857Y-78822857D01*
X131392857Y-78870476D02*
X131416666Y-78846667D01*
X131464285Y-78822857D01*
X131535714Y-78822857D01*
X131583333Y-78846667D01*
X131607142Y-78894286D01*
X131607142Y-79156190D01*
X131607142Y-78894286D02*
X131630952Y-78846667D01*
X131678571Y-78822857D01*
X131749999Y-78822857D01*
X131797619Y-78846667D01*
X131821428Y-78894286D01*
X131821428Y-79156190D01*
X132130952Y-79156190D02*
X132083333Y-79132381D01*
X132059524Y-79108571D01*
X132035714Y-79060952D01*
X132035714Y-78918095D01*
X132059524Y-78870476D01*
X132083333Y-78846667D01*
X132130952Y-78822857D01*
X132202381Y-78822857D01*
X132250000Y-78846667D01*
X132273809Y-78870476D01*
X132297619Y-78918095D01*
X132297619Y-79060952D01*
X132273809Y-79108571D01*
X132250000Y-79132381D01*
X132202381Y-79156190D01*
X132130952Y-79156190D01*
X132511905Y-79156190D02*
X132511905Y-78822857D01*
X132511905Y-78870476D02*
X132535714Y-78846667D01*
X132583333Y-78822857D01*
X132654762Y-78822857D01*
X132702381Y-78846667D01*
X132726190Y-78894286D01*
X132726190Y-79156190D01*
X132726190Y-78894286D02*
X132750000Y-78846667D01*
X132797619Y-78822857D01*
X132869047Y-78822857D01*
X132916667Y-78846667D01*
X132940476Y-78894286D01*
X132940476Y-79156190D01*
X133369048Y-79132381D02*
X133321429Y-79156190D01*
X133226191Y-79156190D01*
X133178572Y-79132381D01*
X133154762Y-79084762D01*
X133154762Y-78894286D01*
X133178572Y-78846667D01*
X133226191Y-78822857D01*
X133321429Y-78822857D01*
X133369048Y-78846667D01*
X133392857Y-78894286D01*
X133392857Y-78941905D01*
X133154762Y-78989524D01*
X133535714Y-78822857D02*
X133726190Y-78822857D01*
X133607143Y-78656190D02*
X133607143Y-79084762D01*
X133630952Y-79132381D01*
X133678571Y-79156190D01*
X133726190Y-79156190D01*
X133892857Y-79156190D02*
X133892857Y-78822857D01*
X133892857Y-78918095D02*
X133916666Y-78870476D01*
X133940476Y-78846667D01*
X133988095Y-78822857D01*
X134035714Y-78822857D01*
X134273809Y-79156190D02*
X134226190Y-79132381D01*
X134202381Y-79108571D01*
X134178571Y-79060952D01*
X134178571Y-78918095D01*
X134202381Y-78870476D01*
X134226190Y-78846667D01*
X134273809Y-78822857D01*
X134345238Y-78822857D01*
X134392857Y-78846667D01*
X134416666Y-78870476D01*
X134440476Y-78918095D01*
X134440476Y-79060952D01*
X134416666Y-79108571D01*
X134392857Y-79132381D01*
X134345238Y-79156190D01*
X134273809Y-79156190D01*
X173833334Y-54476190D02*
X173833334Y-54833333D01*
X173809524Y-54904762D01*
X173761905Y-54952381D01*
X173690477Y-54976190D01*
X173642858Y-54976190D01*
X174023810Y-54476190D02*
X174357143Y-54476190D01*
X174142857Y-54976190D01*
X127203334Y-101575310D02*
X127203334Y-101932453D01*
X127179524Y-102003882D01*
X127131905Y-102051501D01*
X127060477Y-102075310D01*
X127012858Y-102075310D01*
X127512857Y-101789596D02*
X127465238Y-101765787D01*
X127441429Y-101741977D01*
X127417619Y-101694358D01*
X127417619Y-101670549D01*
X127441429Y-101622930D01*
X127465238Y-101599120D01*
X127512857Y-101575310D01*
X127608095Y-101575310D01*
X127655714Y-101599120D01*
X127679524Y-101622930D01*
X127703333Y-101670549D01*
X127703333Y-101694358D01*
X127679524Y-101741977D01*
X127655714Y-101765787D01*
X127608095Y-101789596D01*
X127512857Y-101789596D01*
X127465238Y-101813406D01*
X127441429Y-101837215D01*
X127417619Y-101884834D01*
X127417619Y-101980072D01*
X127441429Y-102027691D01*
X127465238Y-102051501D01*
X127512857Y-102075310D01*
X127608095Y-102075310D01*
X127655714Y-102051501D01*
X127679524Y-102027691D01*
X127703333Y-101980072D01*
X127703333Y-101884834D01*
X127679524Y-101837215D01*
X127655714Y-101813406D01*
X127608095Y-101789596D01*
X135263334Y-101575310D02*
X135263334Y-101932453D01*
X135239524Y-102003882D01*
X135191905Y-102051501D01*
X135120477Y-102075310D01*
X135072858Y-102075310D01*
X135525238Y-102075310D02*
X135620476Y-102075310D01*
X135668095Y-102051501D01*
X135691905Y-102027691D01*
X135739524Y-101956263D01*
X135763333Y-101861025D01*
X135763333Y-101670549D01*
X135739524Y-101622930D01*
X135715714Y-101599120D01*
X135668095Y-101575310D01*
X135572857Y-101575310D01*
X135525238Y-101599120D01*
X135501429Y-101622930D01*
X135477619Y-101670549D01*
X135477619Y-101789596D01*
X135501429Y-101837215D01*
X135525238Y-101861025D01*
X135572857Y-101884834D01*
X135668095Y-101884834D01*
X135715714Y-101861025D01*
X135739524Y-101837215D01*
X135763333Y-101789596D01*
X143165239Y-101575310D02*
X143165239Y-101932453D01*
X143141429Y-102003882D01*
X143093810Y-102051501D01*
X143022382Y-102075310D01*
X142974763Y-102075310D01*
X143665238Y-102075310D02*
X143379524Y-102075310D01*
X143522381Y-102075310D02*
X143522381Y-101575310D01*
X143474762Y-101646739D01*
X143427143Y-101694358D01*
X143379524Y-101718168D01*
X143974762Y-101575310D02*
X144022381Y-101575310D01*
X144070000Y-101599120D01*
X144093809Y-101622930D01*
X144117619Y-101670549D01*
X144141428Y-101765787D01*
X144141428Y-101884834D01*
X144117619Y-101980072D01*
X144093809Y-102027691D01*
X144070000Y-102051501D01*
X144022381Y-102075310D01*
X143974762Y-102075310D01*
X143927143Y-102051501D01*
X143903333Y-102027691D01*
X143879524Y-101980072D01*
X143855714Y-101884834D01*
X143855714Y-101765787D01*
X143879524Y-101670549D01*
X143903333Y-101622930D01*
X143927143Y-101599120D01*
X143974762Y-101575310D01*
X151165239Y-101575310D02*
X151165239Y-101932453D01*
X151141429Y-102003882D01*
X151093810Y-102051501D01*
X151022382Y-102075310D01*
X150974763Y-102075310D01*
X151665238Y-102075310D02*
X151379524Y-102075310D01*
X151522381Y-102075310D02*
X151522381Y-101575310D01*
X151474762Y-101646739D01*
X151427143Y-101694358D01*
X151379524Y-101718168D01*
X152141428Y-102075310D02*
X151855714Y-102075310D01*
X151998571Y-102075310D02*
X151998571Y-101575310D01*
X151950952Y-101646739D01*
X151903333Y-101694358D01*
X151855714Y-101718168D01*
X159165239Y-101575310D02*
X159165239Y-101932453D01*
X159141429Y-102003882D01*
X159093810Y-102051501D01*
X159022382Y-102075310D01*
X158974763Y-102075310D01*
X159665238Y-102075310D02*
X159379524Y-102075310D01*
X159522381Y-102075310D02*
X159522381Y-101575310D01*
X159474762Y-101646739D01*
X159427143Y-101694358D01*
X159379524Y-101718168D01*
X159855714Y-101622930D02*
X159879524Y-101599120D01*
X159927143Y-101575310D01*
X160046190Y-101575310D01*
X160093809Y-101599120D01*
X160117619Y-101622930D01*
X160141428Y-101670549D01*
X160141428Y-101718168D01*
X160117619Y-101789596D01*
X159831905Y-102075310D01*
X160141428Y-102075310D01*
X167165239Y-101575310D02*
X167165239Y-101932453D01*
X167141429Y-102003882D01*
X167093810Y-102051501D01*
X167022382Y-102075310D01*
X166974763Y-102075310D01*
X167665238Y-102075310D02*
X167379524Y-102075310D01*
X167522381Y-102075310D02*
X167522381Y-101575310D01*
X167474762Y-101646739D01*
X167427143Y-101694358D01*
X167379524Y-101718168D01*
X167831905Y-101575310D02*
X168141428Y-101575310D01*
X167974762Y-101765787D01*
X168046190Y-101765787D01*
X168093809Y-101789596D01*
X168117619Y-101813406D01*
X168141428Y-101861025D01*
X168141428Y-101980072D01*
X168117619Y-102027691D01*
X168093809Y-102051501D01*
X168046190Y-102075310D01*
X167903333Y-102075310D01*
X167855714Y-102051501D01*
X167831905Y-102027691D01*
X175025239Y-101575310D02*
X175025239Y-101932453D01*
X175001429Y-102003882D01*
X174953810Y-102051501D01*
X174882382Y-102075310D01*
X174834763Y-102075310D01*
X175525238Y-102075310D02*
X175239524Y-102075310D01*
X175382381Y-102075310D02*
X175382381Y-101575310D01*
X175334762Y-101646739D01*
X175287143Y-101694358D01*
X175239524Y-101718168D01*
X175953809Y-101741977D02*
X175953809Y-102075310D01*
X175834762Y-101551501D02*
X175715714Y-101908644D01*
X176025238Y-101908644D01*
X183165239Y-101575310D02*
X183165239Y-101932453D01*
X183141429Y-102003882D01*
X183093810Y-102051501D01*
X183022382Y-102075310D01*
X182974763Y-102075310D01*
X183665238Y-102075310D02*
X183379524Y-102075310D01*
X183522381Y-102075310D02*
X183522381Y-101575310D01*
X183474762Y-101646739D01*
X183427143Y-101694358D01*
X183379524Y-101718168D01*
X184117619Y-101575310D02*
X183879524Y-101575310D01*
X183855714Y-101813406D01*
X183879524Y-101789596D01*
X183927143Y-101765787D01*
X184046190Y-101765787D01*
X184093809Y-101789596D01*
X184117619Y-101813406D01*
X184141428Y-101861025D01*
X184141428Y-101980072D01*
X184117619Y-102027691D01*
X184093809Y-102051501D01*
X184046190Y-102075310D01*
X183927143Y-102075310D01*
X183879524Y-102051501D01*
X183855714Y-102027691D01*
X135416667Y-59476190D02*
X135250000Y-59238095D01*
X135130953Y-59476190D02*
X135130953Y-58976190D01*
X135321429Y-58976190D01*
X135369048Y-59000000D01*
X135392857Y-59023810D01*
X135416667Y-59071429D01*
X135416667Y-59142857D01*
X135392857Y-59190476D01*
X135369048Y-59214286D01*
X135321429Y-59238095D01*
X135130953Y-59238095D01*
X135892857Y-59476190D02*
X135607143Y-59476190D01*
X135750000Y-59476190D02*
X135750000Y-58976190D01*
X135702381Y-59047619D01*
X135654762Y-59095238D01*
X135607143Y-59119048D01*
X135416667Y-62726190D02*
X135250000Y-62488095D01*
X135130953Y-62726190D02*
X135130953Y-62226190D01*
X135321429Y-62226190D01*
X135369048Y-62250000D01*
X135392857Y-62273810D01*
X135416667Y-62321429D01*
X135416667Y-62392857D01*
X135392857Y-62440476D01*
X135369048Y-62464286D01*
X135321429Y-62488095D01*
X135130953Y-62488095D01*
X135607143Y-62273810D02*
X135630953Y-62250000D01*
X135678572Y-62226190D01*
X135797619Y-62226190D01*
X135845238Y-62250000D01*
X135869048Y-62273810D01*
X135892857Y-62321429D01*
X135892857Y-62369048D01*
X135869048Y-62440476D01*
X135583334Y-62726190D01*
X135892857Y-62726190D01*
X137916667Y-66126190D02*
X137750000Y-65888095D01*
X137630953Y-66126190D02*
X137630953Y-65626190D01*
X137821429Y-65626190D01*
X137869048Y-65650000D01*
X137892857Y-65673810D01*
X137916667Y-65721429D01*
X137916667Y-65792857D01*
X137892857Y-65840476D01*
X137869048Y-65864286D01*
X137821429Y-65888095D01*
X137630953Y-65888095D01*
X138083334Y-65626190D02*
X138392857Y-65626190D01*
X138226191Y-65816667D01*
X138297619Y-65816667D01*
X138345238Y-65840476D01*
X138369048Y-65864286D01*
X138392857Y-65911905D01*
X138392857Y-66030952D01*
X138369048Y-66078571D01*
X138345238Y-66102381D01*
X138297619Y-66126190D01*
X138154762Y-66126190D01*
X138107143Y-66102381D01*
X138083334Y-66078571D01*
X155166667Y-75976190D02*
X155000000Y-75738095D01*
X154880953Y-75976190D02*
X154880953Y-75476190D01*
X155071429Y-75476190D01*
X155119048Y-75500000D01*
X155142857Y-75523810D01*
X155166667Y-75571429D01*
X155166667Y-75642857D01*
X155142857Y-75690476D01*
X155119048Y-75714286D01*
X155071429Y-75738095D01*
X154880953Y-75738095D01*
X155595238Y-75642857D02*
X155595238Y-75976190D01*
X155476191Y-75452381D02*
X155357143Y-75809524D01*
X155666667Y-75809524D01*
X138166667Y-56476190D02*
X138000000Y-56238095D01*
X137880953Y-56476190D02*
X137880953Y-55976190D01*
X138071429Y-55976190D01*
X138119048Y-56000000D01*
X138142857Y-56023810D01*
X138166667Y-56071429D01*
X138166667Y-56142857D01*
X138142857Y-56190476D01*
X138119048Y-56214286D01*
X138071429Y-56238095D01*
X137880953Y-56238095D01*
X138619048Y-55976190D02*
X138380953Y-55976190D01*
X138357143Y-56214286D01*
X138380953Y-56190476D01*
X138428572Y-56166667D01*
X138547619Y-56166667D01*
X138595238Y-56190476D01*
X138619048Y-56214286D01*
X138642857Y-56261905D01*
X138642857Y-56380952D01*
X138619048Y-56428571D01*
X138595238Y-56452381D01*
X138547619Y-56476190D01*
X138428572Y-56476190D01*
X138380953Y-56452381D01*
X138357143Y-56428571D01*
X157416667Y-75976190D02*
X157250000Y-75738095D01*
X157130953Y-75976190D02*
X157130953Y-75476190D01*
X157321429Y-75476190D01*
X157369048Y-75500000D01*
X157392857Y-75523810D01*
X157416667Y-75571429D01*
X157416667Y-75642857D01*
X157392857Y-75690476D01*
X157369048Y-75714286D01*
X157321429Y-75738095D01*
X157130953Y-75738095D01*
X157845238Y-75476190D02*
X157750000Y-75476190D01*
X157702381Y-75500000D01*
X157678572Y-75523810D01*
X157630953Y-75595238D01*
X157607143Y-75690476D01*
X157607143Y-75880952D01*
X157630953Y-75928571D01*
X157654762Y-75952381D01*
X157702381Y-75976190D01*
X157797619Y-75976190D01*
X157845238Y-75952381D01*
X157869048Y-75928571D01*
X157892857Y-75880952D01*
X157892857Y-75761905D01*
X157869048Y-75714286D01*
X157845238Y-75690476D01*
X157797619Y-75666667D01*
X157702381Y-75666667D01*
X157654762Y-75690476D01*
X157630953Y-75714286D01*
X157607143Y-75761905D01*
X165416667Y-64876190D02*
X165250000Y-64638095D01*
X165130953Y-64876190D02*
X165130953Y-64376190D01*
X165321429Y-64376190D01*
X165369048Y-64400000D01*
X165392857Y-64423810D01*
X165416667Y-64471429D01*
X165416667Y-64542857D01*
X165392857Y-64590476D01*
X165369048Y-64614286D01*
X165321429Y-64638095D01*
X165130953Y-64638095D01*
X165583334Y-64376190D02*
X165916667Y-64376190D01*
X165702381Y-64876190D01*
X165416667Y-69976190D02*
X165250000Y-69738095D01*
X165130953Y-69976190D02*
X165130953Y-69476190D01*
X165321429Y-69476190D01*
X165369048Y-69500000D01*
X165392857Y-69523810D01*
X165416667Y-69571429D01*
X165416667Y-69642857D01*
X165392857Y-69690476D01*
X165369048Y-69714286D01*
X165321429Y-69738095D01*
X165130953Y-69738095D01*
X165702381Y-69690476D02*
X165654762Y-69666667D01*
X165630953Y-69642857D01*
X165607143Y-69595238D01*
X165607143Y-69571429D01*
X165630953Y-69523810D01*
X165654762Y-69500000D01*
X165702381Y-69476190D01*
X165797619Y-69476190D01*
X165845238Y-69500000D01*
X165869048Y-69523810D01*
X165892857Y-69571429D01*
X165892857Y-69595238D01*
X165869048Y-69642857D01*
X165845238Y-69666667D01*
X165797619Y-69690476D01*
X165702381Y-69690476D01*
X165654762Y-69714286D01*
X165630953Y-69738095D01*
X165607143Y-69785714D01*
X165607143Y-69880952D01*
X165630953Y-69928571D01*
X165654762Y-69952381D01*
X165702381Y-69976190D01*
X165797619Y-69976190D01*
X165845238Y-69952381D01*
X165869048Y-69928571D01*
X165892857Y-69880952D01*
X165892857Y-69785714D01*
X165869048Y-69738095D01*
X165845238Y-69714286D01*
X165797619Y-69690476D01*
X147178572Y-76226190D02*
X147011905Y-75988095D01*
X146892858Y-76226190D02*
X146892858Y-75726190D01*
X147083334Y-75726190D01*
X147130953Y-75750000D01*
X147154762Y-75773810D01*
X147178572Y-75821429D01*
X147178572Y-75892857D01*
X147154762Y-75940476D01*
X147130953Y-75964286D01*
X147083334Y-75988095D01*
X146892858Y-75988095D01*
X147654762Y-76226190D02*
X147369048Y-76226190D01*
X147511905Y-76226190D02*
X147511905Y-75726190D01*
X147464286Y-75797619D01*
X147416667Y-75845238D01*
X147369048Y-75869048D01*
X148130952Y-76226190D02*
X147845238Y-76226190D01*
X147988095Y-76226190D02*
X147988095Y-75726190D01*
X147940476Y-75797619D01*
X147892857Y-75845238D01*
X147845238Y-75869048D01*
X176678572Y-55976190D02*
X176511905Y-55738095D01*
X176392858Y-55976190D02*
X176392858Y-55476190D01*
X176583334Y-55476190D01*
X176630953Y-55500000D01*
X176654762Y-55523810D01*
X176678572Y-55571429D01*
X176678572Y-55642857D01*
X176654762Y-55690476D01*
X176630953Y-55714286D01*
X176583334Y-55738095D01*
X176392858Y-55738095D01*
X177154762Y-55976190D02*
X176869048Y-55976190D01*
X177011905Y-55976190D02*
X177011905Y-55476190D01*
X176964286Y-55547619D01*
X176916667Y-55595238D01*
X176869048Y-55619048D01*
X177583333Y-55642857D02*
X177583333Y-55976190D01*
X177464286Y-55452381D02*
X177345238Y-55809524D01*
X177654762Y-55809524D01*
X176678572Y-52476190D02*
X176511905Y-52238095D01*
X176392858Y-52476190D02*
X176392858Y-51976190D01*
X176583334Y-51976190D01*
X176630953Y-52000000D01*
X176654762Y-52023810D01*
X176678572Y-52071429D01*
X176678572Y-52142857D01*
X176654762Y-52190476D01*
X176630953Y-52214286D01*
X176583334Y-52238095D01*
X176392858Y-52238095D01*
X177154762Y-52476190D02*
X176869048Y-52476190D01*
X177011905Y-52476190D02*
X177011905Y-51976190D01*
X176964286Y-52047619D01*
X176916667Y-52095238D01*
X176869048Y-52119048D01*
X177607143Y-51976190D02*
X177369048Y-51976190D01*
X177345238Y-52214286D01*
X177369048Y-52190476D01*
X177416667Y-52166667D01*
X177535714Y-52166667D01*
X177583333Y-52190476D01*
X177607143Y-52214286D01*
X177630952Y-52261905D01*
X177630952Y-52380952D01*
X177607143Y-52428571D01*
X177583333Y-52452381D01*
X177535714Y-52476190D01*
X177416667Y-52476190D01*
X177369048Y-52452381D01*
X177345238Y-52428571D01*
X137628572Y-69876190D02*
X137461905Y-69638095D01*
X137342858Y-69876190D02*
X137342858Y-69376190D01*
X137533334Y-69376190D01*
X137580953Y-69400000D01*
X137604762Y-69423810D01*
X137628572Y-69471429D01*
X137628572Y-69542857D01*
X137604762Y-69590476D01*
X137580953Y-69614286D01*
X137533334Y-69638095D01*
X137342858Y-69638095D01*
X138104762Y-69876190D02*
X137819048Y-69876190D01*
X137961905Y-69876190D02*
X137961905Y-69376190D01*
X137914286Y-69447619D01*
X137866667Y-69495238D01*
X137819048Y-69519048D01*
X138533333Y-69376190D02*
X138438095Y-69376190D01*
X138390476Y-69400000D01*
X138366667Y-69423810D01*
X138319048Y-69495238D01*
X138295238Y-69590476D01*
X138295238Y-69780952D01*
X138319048Y-69828571D01*
X138342857Y-69852381D01*
X138390476Y-69876190D01*
X138485714Y-69876190D01*
X138533333Y-69852381D01*
X138557143Y-69828571D01*
X138580952Y-69780952D01*
X138580952Y-69661905D01*
X138557143Y-69614286D01*
X138533333Y-69590476D01*
X138485714Y-69566667D01*
X138390476Y-69566667D01*
X138342857Y-69590476D01*
X138319048Y-69614286D01*
X138295238Y-69661905D01*
X169993334Y-59942381D02*
X170064763Y-59966190D01*
X170183810Y-59966190D01*
X170231429Y-59942381D01*
X170255239Y-59918571D01*
X170279048Y-59870952D01*
X170279048Y-59823333D01*
X170255239Y-59775714D01*
X170231429Y-59751905D01*
X170183810Y-59728095D01*
X170088572Y-59704286D01*
X170040953Y-59680476D01*
X170017144Y-59656667D01*
X169993334Y-59609048D01*
X169993334Y-59561429D01*
X170017144Y-59513810D01*
X170040953Y-59490000D01*
X170088572Y-59466190D01*
X170207620Y-59466190D01*
X170279048Y-59490000D01*
X170445715Y-59466190D02*
X170564762Y-59966190D01*
X170660000Y-59609048D01*
X170755238Y-59966190D01*
X170874286Y-59466190D01*
X171326667Y-59966190D02*
X171040953Y-59966190D01*
X171183810Y-59966190D02*
X171183810Y-59466190D01*
X171136191Y-59537619D01*
X171088572Y-59585238D01*
X171040953Y-59609048D01*
X127833334Y-58702381D02*
X127904763Y-58726190D01*
X128023810Y-58726190D01*
X128071429Y-58702381D01*
X128095239Y-58678571D01*
X128119048Y-58630952D01*
X128119048Y-58583333D01*
X128095239Y-58535714D01*
X128071429Y-58511905D01*
X128023810Y-58488095D01*
X127928572Y-58464286D01*
X127880953Y-58440476D01*
X127857144Y-58416667D01*
X127833334Y-58369048D01*
X127833334Y-58321429D01*
X127857144Y-58273810D01*
X127880953Y-58250000D01*
X127928572Y-58226190D01*
X128047620Y-58226190D01*
X128119048Y-58250000D01*
X128285715Y-58226190D02*
X128404762Y-58726190D01*
X128500000Y-58369048D01*
X128595238Y-58726190D01*
X128714286Y-58226190D01*
X128880953Y-58273810D02*
X128904763Y-58250000D01*
X128952382Y-58226190D01*
X129071429Y-58226190D01*
X129119048Y-58250000D01*
X129142858Y-58273810D01*
X129166667Y-58321429D01*
X129166667Y-58369048D01*
X129142858Y-58440476D01*
X128857144Y-58726190D01*
X129166667Y-58726190D01*
X169993334Y-69142381D02*
X170064763Y-69166190D01*
X170183810Y-69166190D01*
X170231429Y-69142381D01*
X170255239Y-69118571D01*
X170279048Y-69070952D01*
X170279048Y-69023333D01*
X170255239Y-68975714D01*
X170231429Y-68951905D01*
X170183810Y-68928095D01*
X170088572Y-68904286D01*
X170040953Y-68880476D01*
X170017144Y-68856667D01*
X169993334Y-68809048D01*
X169993334Y-68761429D01*
X170017144Y-68713810D01*
X170040953Y-68690000D01*
X170088572Y-68666190D01*
X170207620Y-68666190D01*
X170279048Y-68690000D01*
X170445715Y-68666190D02*
X170564762Y-69166190D01*
X170660000Y-68809048D01*
X170755238Y-69166190D01*
X170874286Y-68666190D01*
X171017144Y-68666190D02*
X171326667Y-68666190D01*
X171160001Y-68856667D01*
X171231429Y-68856667D01*
X171279048Y-68880476D01*
X171302858Y-68904286D01*
X171326667Y-68951905D01*
X171326667Y-69070952D01*
X171302858Y-69118571D01*
X171279048Y-69142381D01*
X171231429Y-69166190D01*
X171088572Y-69166190D01*
X171040953Y-69142381D01*
X171017144Y-69118571D01*
X143869048Y-69976190D02*
X143869048Y-70380952D01*
X143892857Y-70428571D01*
X143916667Y-70452381D01*
X143964286Y-70476190D01*
X144059524Y-70476190D01*
X144107143Y-70452381D01*
X144130952Y-70428571D01*
X144154762Y-70380952D01*
X144154762Y-69976190D01*
X144369048Y-70023810D02*
X144392858Y-70000000D01*
X144440477Y-69976190D01*
X144559524Y-69976190D01*
X144607143Y-70000000D01*
X144630953Y-70023810D01*
X144654762Y-70071429D01*
X144654762Y-70119048D01*
X144630953Y-70190476D01*
X144345239Y-70476190D01*
X144654762Y-70476190D01*
X156971286Y-59222190D02*
X156971286Y-59055524D01*
X157233190Y-58984095D02*
X157233190Y-59222190D01*
X156733190Y-59222190D01*
X156733190Y-58984095D01*
X157209381Y-58793619D02*
X157233190Y-58722190D01*
X157233190Y-58603143D01*
X157209381Y-58555524D01*
X157185571Y-58531714D01*
X157137952Y-58507905D01*
X157090333Y-58507905D01*
X157042714Y-58531714D01*
X157018905Y-58555524D01*
X156995095Y-58603143D01*
X156971286Y-58698381D01*
X156947476Y-58746000D01*
X156923667Y-58769809D01*
X156876048Y-58793619D01*
X156828429Y-58793619D01*
X156780810Y-58769809D01*
X156757000Y-58746000D01*
X156733190Y-58698381D01*
X156733190Y-58579333D01*
X156757000Y-58507905D01*
X157233190Y-58293619D02*
X156733190Y-58293619D01*
X156733190Y-58103143D01*
X156757000Y-58055524D01*
X156780810Y-58031715D01*
X156828429Y-58007905D01*
X156899857Y-58007905D01*
X156947476Y-58031715D01*
X156971286Y-58055524D01*
X156995095Y-58103143D01*
X156995095Y-58293619D01*
X156733190Y-57841238D02*
X156733190Y-57531715D01*
X156923667Y-57698381D01*
X156923667Y-57626953D01*
X156947476Y-57579334D01*
X156971286Y-57555524D01*
X157018905Y-57531715D01*
X157137952Y-57531715D01*
X157185571Y-57555524D01*
X157209381Y-57579334D01*
X157233190Y-57626953D01*
X157233190Y-57769810D01*
X157209381Y-57817429D01*
X157185571Y-57841238D01*
X156780810Y-57341239D02*
X156757000Y-57317429D01*
X156733190Y-57269810D01*
X156733190Y-57150763D01*
X156757000Y-57103144D01*
X156780810Y-57079334D01*
X156828429Y-57055525D01*
X156876048Y-57055525D01*
X156947476Y-57079334D01*
X157233190Y-57365048D01*
X157233190Y-57055525D01*
X157042714Y-56841239D02*
X157042714Y-56460287D01*
X156733190Y-56269810D02*
X157233190Y-56150763D01*
X156876048Y-56055525D01*
X157233190Y-55960287D01*
X156733190Y-55841239D01*
X157233190Y-55365048D02*
X156995095Y-55531715D01*
X157233190Y-55650762D02*
X156733190Y-55650762D01*
X156733190Y-55460286D01*
X156757000Y-55412667D01*
X156780810Y-55388858D01*
X156828429Y-55365048D01*
X156899857Y-55365048D01*
X156947476Y-55388858D01*
X156971286Y-55412667D01*
X156995095Y-55460286D01*
X156995095Y-55650762D01*
X156733190Y-55055524D02*
X156733190Y-54960286D01*
X156757000Y-54912667D01*
X156804619Y-54865048D01*
X156899857Y-54841239D01*
X157066524Y-54841239D01*
X157161762Y-54865048D01*
X157209381Y-54912667D01*
X157233190Y-54960286D01*
X157233190Y-55055524D01*
X157209381Y-55103143D01*
X157161762Y-55150762D01*
X157066524Y-55174572D01*
X156899857Y-55174572D01*
X156804619Y-55150762D01*
X156757000Y-55103143D01*
X156733190Y-55055524D01*
X156733190Y-54531714D02*
X156733190Y-54436476D01*
X156757000Y-54388857D01*
X156804619Y-54341238D01*
X156899857Y-54317429D01*
X157066524Y-54317429D01*
X157161762Y-54341238D01*
X157209381Y-54388857D01*
X157233190Y-54436476D01*
X157233190Y-54531714D01*
X157209381Y-54579333D01*
X157161762Y-54626952D01*
X157066524Y-54650762D01*
X156899857Y-54650762D01*
X156804619Y-54626952D01*
X156757000Y-54579333D01*
X156733190Y-54531714D01*
X157233190Y-54103142D02*
X156733190Y-54103142D01*
X157090333Y-53936476D01*
X156733190Y-53769809D01*
X157233190Y-53769809D01*
X131119048Y-92876190D02*
X131119048Y-93280952D01*
X131142857Y-93328571D01*
X131166667Y-93352381D01*
X131214286Y-93376190D01*
X131309524Y-93376190D01*
X131357143Y-93352381D01*
X131380952Y-93328571D01*
X131404762Y-93280952D01*
X131404762Y-92876190D01*
X131857143Y-93042857D02*
X131857143Y-93376190D01*
X131738096Y-92852381D02*
X131619048Y-93209524D01*
X131928572Y-93209524D01*
X147119048Y-93126190D02*
X147119048Y-93530952D01*
X147142857Y-93578571D01*
X147166667Y-93602381D01*
X147214286Y-93626190D01*
X147309524Y-93626190D01*
X147357143Y-93602381D01*
X147380952Y-93578571D01*
X147404762Y-93530952D01*
X147404762Y-93126190D01*
X147880953Y-93126190D02*
X147642858Y-93126190D01*
X147619048Y-93364286D01*
X147642858Y-93340476D01*
X147690477Y-93316667D01*
X147809524Y-93316667D01*
X147857143Y-93340476D01*
X147880953Y-93364286D01*
X147904762Y-93411905D01*
X147904762Y-93530952D01*
X147880953Y-93578571D01*
X147857143Y-93602381D01*
X147809524Y-93626190D01*
X147690477Y-93626190D01*
X147642858Y-93602381D01*
X147619048Y-93578571D01*
X163119048Y-92876190D02*
X163119048Y-93280952D01*
X163142857Y-93328571D01*
X163166667Y-93352381D01*
X163214286Y-93376190D01*
X163309524Y-93376190D01*
X163357143Y-93352381D01*
X163380952Y-93328571D01*
X163404762Y-93280952D01*
X163404762Y-92876190D01*
X163857143Y-92876190D02*
X163761905Y-92876190D01*
X163714286Y-92900000D01*
X163690477Y-92923810D01*
X163642858Y-92995238D01*
X163619048Y-93090476D01*
X163619048Y-93280952D01*
X163642858Y-93328571D01*
X163666667Y-93352381D01*
X163714286Y-93376190D01*
X163809524Y-93376190D01*
X163857143Y-93352381D01*
X163880953Y-93328571D01*
X163904762Y-93280952D01*
X163904762Y-93161905D01*
X163880953Y-93114286D01*
X163857143Y-93090476D01*
X163809524Y-93066667D01*
X163714286Y-93066667D01*
X163666667Y-93090476D01*
X163642858Y-93114286D01*
X163619048Y-93161905D01*
X179319048Y-92876190D02*
X179319048Y-93280952D01*
X179342857Y-93328571D01*
X179366667Y-93352381D01*
X179414286Y-93376190D01*
X179509524Y-93376190D01*
X179557143Y-93352381D01*
X179580952Y-93328571D01*
X179604762Y-93280952D01*
X179604762Y-92876190D01*
X179795239Y-92876190D02*
X180128572Y-92876190D01*
X179914286Y-93376190D01*
X160416667Y-84726190D02*
X160250000Y-84488095D01*
X160130953Y-84726190D02*
X160130953Y-84226190D01*
X160321429Y-84226190D01*
X160369048Y-84250000D01*
X160392857Y-84273810D01*
X160416667Y-84321429D01*
X160416667Y-84392857D01*
X160392857Y-84440476D01*
X160369048Y-84464286D01*
X160321429Y-84488095D01*
X160130953Y-84488095D01*
X160654762Y-84726190D02*
X160750000Y-84726190D01*
X160797619Y-84702381D01*
X160821429Y-84678571D01*
X160869048Y-84607143D01*
X160892857Y-84511905D01*
X160892857Y-84321429D01*
X160869048Y-84273810D01*
X160845238Y-84250000D01*
X160797619Y-84226190D01*
X160702381Y-84226190D01*
X160654762Y-84250000D01*
X160630953Y-84273810D01*
X160607143Y-84321429D01*
X160607143Y-84440476D01*
X160630953Y-84488095D01*
X160654762Y-84511905D01*
X160702381Y-84535714D01*
X160797619Y-84535714D01*
X160845238Y-84511905D01*
X160869048Y-84488095D01*
X160892857Y-84440476D01*
X160178572Y-81726190D02*
X160011905Y-81488095D01*
X159892858Y-81726190D02*
X159892858Y-81226190D01*
X160083334Y-81226190D01*
X160130953Y-81250000D01*
X160154762Y-81273810D01*
X160178572Y-81321429D01*
X160178572Y-81392857D01*
X160154762Y-81440476D01*
X160130953Y-81464286D01*
X160083334Y-81488095D01*
X159892858Y-81488095D01*
X160654762Y-81726190D02*
X160369048Y-81726190D01*
X160511905Y-81726190D02*
X160511905Y-81226190D01*
X160464286Y-81297619D01*
X160416667Y-81345238D01*
X160369048Y-81369048D01*
X160964286Y-81226190D02*
X161011905Y-81226190D01*
X161059524Y-81250000D01*
X161083333Y-81273810D01*
X161107143Y-81321429D01*
X161130952Y-81416667D01*
X161130952Y-81535714D01*
X161107143Y-81630952D01*
X161083333Y-81678571D01*
X161059524Y-81702381D01*
X161011905Y-81726190D01*
X160964286Y-81726190D01*
X160916667Y-81702381D01*
X160892857Y-81678571D01*
X160869048Y-81630952D01*
X160845238Y-81535714D01*
X160845238Y-81416667D01*
X160869048Y-81321429D01*
X160892857Y-81273810D01*
X160916667Y-81250000D01*
X160964286Y-81226190D01*
M02*
