M48
;DRILL file {KiCad 4.0.7-e2-6376~58~ubuntu16.04.1} date Wed Sep  5 16:34:47 2018
;FORMAT={-:-/ absolute / inch / decimal}
FMAT,2
INCH,TZ
T1C0.043
%
G90
G05
M72
T1
X4.8705Y-2.4197
X4.8705Y-2.5197
X4.8705Y-2.7445
X4.8705Y-2.8445
X4.8705Y-3.0575
X4.8705Y-3.1575
X4.9646Y-4.287
X5.0646Y-4.287
X5.2819Y-4.287
X5.3819Y-4.287
X5.6024Y-4.287
X5.7024Y-4.287
X5.9173Y-4.287
X6.0173Y-4.287
X6.2323Y-4.287
X6.3323Y-4.287
X6.5472Y-4.287
X6.6472Y-4.287
X6.8567Y-4.287
X6.9567Y-4.287
X7.1772Y-4.287
X7.2772Y-4.287
T0
M30
