M48
;DRILL file {KiCad 4.0.7-e2-6376~58~ubuntu16.04.1} date Wed Sep  5 16:34:47 2018
;FORMAT={-:-/ absolute / inch / decimal}
FMAT,2
INCH,TZ
T1C0.013
T2C0.013
T3C0.032
T4C0.039
T5C0.043
T6C0.043
T7C0.047
%
G90
G05
M72
T1
X6.2677Y-3.6378
X6.2677Y-3.7323
X6.4173Y-2.0787
X6.4252Y-2.5276
X6.4488Y-2.1275
X6.4755Y-2.2783
X6.4766Y-2.179
X6.4772Y-2.2286
X6.4786Y-2.741
X6.4803Y-3.2756
X6.5039Y-2.5827
X6.5262Y-2.5578
X6.9078Y-2.5802
X7.2283Y-3.7402
T2
X5.1673Y-3.0217
X5.3346Y-2.4311
X5.3445Y-2.5492
X5.3937Y-3.9567
X5.4488Y-3.7717
X5.502Y-2.9429
X5.6594Y-3.7795
X5.7944Y-3.834
X5.9646Y-2.126
X6.063Y-3.9862
X6.126Y-3.874
X6.1516Y-2.3327
X6.2795Y-2.9331
X6.4814Y-2.9287
X6.4814Y-3.0997
X6.6929Y-3.9764
X6.7717Y-3.8661
X7.3228Y-3.0118
X7.3228Y-3.9862
X7.3543Y-3.8976
T3
X6.8189Y-2.252
X6.8189Y-2.352
X6.8189Y-2.452
X6.8189Y-2.6142
X6.8189Y-2.7142
X6.8189Y-2.8142
T4
X6.3815Y-3.0118
X6.4815Y-3.0118
X6.552Y-2.0669
X6.5815Y-3.0118
X6.652Y-2.0669
X6.6815Y-3.0118
X6.752Y-2.0669
X6.7815Y-3.0118
X6.852Y-2.0669
X6.8815Y-3.0118
X6.9815Y-3.0118
X7.0815Y-3.0118
T5
X4.9646Y-4.187
X4.9705Y-2.4197
X4.9705Y-2.5197
X4.9705Y-2.7445
X4.9705Y-2.8445
X4.9705Y-3.0575
X4.9705Y-3.1575
X5.0646Y-4.187
X5.2819Y-4.187
X5.3819Y-4.187
X5.6024Y-4.187
X5.7024Y-4.187
X5.9173Y-4.187
X6.0173Y-4.187
X6.2323Y-4.187
X6.3323Y-4.187
X6.5472Y-4.187
X6.6472Y-4.187
X6.8567Y-4.187
X6.9567Y-4.187
X7.1772Y-4.187
X7.2441Y-2.0457
X7.2441Y-2.1457
X7.2441Y-2.2457
X7.2441Y-2.3457
X7.2441Y-2.4457
X7.2441Y-2.5457
X7.2772Y-4.187
T6
X4.9311Y-2.0472
X4.9311Y-2.2244
X5.187Y-2.0472
X5.187Y-2.2244
T7
X5.0098Y-3.378
X5.0098Y-3.5157
T0
M30
