G04 #@! TF.FileFunction,Legend,Bot*
%FSLAX46Y46*%
G04 Gerber Fmt 4.6, Leading zero omitted, Abs format (unit mm)*
G04 Created by KiCad (PCBNEW 4.0.7-e2-6376~58~ubuntu16.04.1) date Wed Sep  5 16:34:56 2018*
%MOMM*%
%LPD*%
G01*
G04 APERTURE LIST*
%ADD10C,0.100000*%
%ADD11C,0.120000*%
%ADD12C,0.075000*%
G04 APERTURE END LIST*
D10*
D11*
X140450000Y-92710000D02*
X140450000Y-94130000D01*
X147050000Y-91950000D02*
X147050000Y-94130000D01*
X147050000Y-98550000D02*
X147050000Y-96370000D01*
X140450000Y-97790000D02*
X140450000Y-96370000D01*
X147050000Y-91950000D02*
X141210000Y-91950000D01*
X141210000Y-91950000D02*
X140450000Y-92710000D01*
X140450000Y-97790000D02*
X141210000Y-98550000D01*
X141210000Y-98550000D02*
X147050000Y-98550000D01*
X140450000Y-51960000D02*
X140450000Y-53380000D01*
X147050000Y-51200000D02*
X147050000Y-53380000D01*
X147050000Y-57800000D02*
X147050000Y-55620000D01*
X140450000Y-57040000D02*
X140450000Y-55620000D01*
X147050000Y-51200000D02*
X141210000Y-51200000D01*
X141210000Y-51200000D02*
X140450000Y-51960000D01*
X140450000Y-57040000D02*
X141210000Y-57800000D01*
X141210000Y-57800000D02*
X147050000Y-57800000D01*
X140450000Y-68210000D02*
X140450000Y-69630000D01*
X147050000Y-67450000D02*
X147050000Y-69630000D01*
X147050000Y-74050000D02*
X147050000Y-71870000D01*
X140450000Y-73290000D02*
X140450000Y-71870000D01*
X147050000Y-67450000D02*
X141210000Y-67450000D01*
X141210000Y-67450000D02*
X140450000Y-68210000D01*
X140450000Y-73290000D02*
X141210000Y-74050000D01*
X141210000Y-74050000D02*
X147050000Y-74050000D01*
X140450000Y-76460000D02*
X140450000Y-77880000D01*
X147050000Y-75700000D02*
X147050000Y-77880000D01*
X147050000Y-82300000D02*
X147050000Y-80120000D01*
X140450000Y-81540000D02*
X140450000Y-80120000D01*
X147050000Y-75700000D02*
X141210000Y-75700000D01*
X141210000Y-75700000D02*
X140450000Y-76460000D01*
X140450000Y-81540000D02*
X141210000Y-82300000D01*
X141210000Y-82300000D02*
X147050000Y-82300000D01*
X160760000Y-77830000D02*
X160760000Y-75170000D01*
X178600000Y-77830000D02*
X160760000Y-77830000D01*
X178600000Y-75170000D02*
X160760000Y-75170000D01*
X178600000Y-77830000D02*
X178600000Y-75170000D01*
X179870000Y-77830000D02*
X181200000Y-77830000D01*
X181200000Y-77830000D02*
X181200000Y-76500000D01*
X145660000Y-59090000D02*
X145660000Y-60350000D01*
X145660000Y-65910000D02*
X145660000Y-64650000D01*
X141900000Y-59090000D02*
X145660000Y-59090000D01*
X139650000Y-65910000D02*
X145660000Y-65910000D01*
X145660000Y-83840000D02*
X145660000Y-85100000D01*
X145660000Y-90660000D02*
X145660000Y-89400000D01*
X141900000Y-83840000D02*
X145660000Y-83840000D01*
X139650000Y-90660000D02*
X145660000Y-90660000D01*
D12*
X149583333Y-95428571D02*
X149607143Y-95452381D01*
X149678571Y-95476190D01*
X149726190Y-95476190D01*
X149797619Y-95452381D01*
X149845238Y-95404762D01*
X149869047Y-95357143D01*
X149892857Y-95261905D01*
X149892857Y-95190476D01*
X149869047Y-95095238D01*
X149845238Y-95047619D01*
X149797619Y-95000000D01*
X149726190Y-94976190D01*
X149678571Y-94976190D01*
X149607143Y-95000000D01*
X149583333Y-95023810D01*
X149130952Y-94976190D02*
X149369047Y-94976190D01*
X149392857Y-95214286D01*
X149369047Y-95190476D01*
X149321428Y-95166667D01*
X149202381Y-95166667D01*
X149154762Y-95190476D01*
X149130952Y-95214286D01*
X149107143Y-95261905D01*
X149107143Y-95380952D01*
X149130952Y-95428571D01*
X149154762Y-95452381D01*
X149202381Y-95476190D01*
X149321428Y-95476190D01*
X149369047Y-95452381D01*
X149392857Y-95428571D01*
X139660476Y-92375714D02*
X139279524Y-92375714D01*
X139470000Y-92566190D02*
X139470000Y-92185238D01*
X149583333Y-54678571D02*
X149607143Y-54702381D01*
X149678571Y-54726190D01*
X149726190Y-54726190D01*
X149797619Y-54702381D01*
X149845238Y-54654762D01*
X149869047Y-54607143D01*
X149892857Y-54511905D01*
X149892857Y-54440476D01*
X149869047Y-54345238D01*
X149845238Y-54297619D01*
X149797619Y-54250000D01*
X149726190Y-54226190D01*
X149678571Y-54226190D01*
X149607143Y-54250000D01*
X149583333Y-54273810D01*
X149392857Y-54273810D02*
X149369047Y-54250000D01*
X149321428Y-54226190D01*
X149202381Y-54226190D01*
X149154762Y-54250000D01*
X149130952Y-54273810D01*
X149107143Y-54321429D01*
X149107143Y-54369048D01*
X149130952Y-54440476D01*
X149416666Y-54726190D01*
X149107143Y-54726190D01*
X148940476Y-73035714D02*
X148559524Y-73035714D01*
X148750000Y-73226190D02*
X148750000Y-72845238D01*
X149833333Y-70928571D02*
X149857143Y-70952381D01*
X149928571Y-70976190D01*
X149976190Y-70976190D01*
X150047619Y-70952381D01*
X150095238Y-70904762D01*
X150119047Y-70857143D01*
X150142857Y-70761905D01*
X150142857Y-70690476D01*
X150119047Y-70595238D01*
X150095238Y-70547619D01*
X150047619Y-70500000D01*
X149976190Y-70476190D01*
X149928571Y-70476190D01*
X149857143Y-70500000D01*
X149833333Y-70523810D01*
X149666666Y-70476190D02*
X149357143Y-70476190D01*
X149523809Y-70666667D01*
X149452381Y-70666667D01*
X149404762Y-70690476D01*
X149380952Y-70714286D01*
X149357143Y-70761905D01*
X149357143Y-70880952D01*
X149380952Y-70928571D01*
X149404762Y-70952381D01*
X149452381Y-70976190D01*
X149595238Y-70976190D01*
X149642857Y-70952381D01*
X149666666Y-70928571D01*
X139660476Y-67875714D02*
X139279524Y-67875714D01*
X139470000Y-68066190D02*
X139470000Y-67685238D01*
X149583333Y-79178571D02*
X149607143Y-79202381D01*
X149678571Y-79226190D01*
X149726190Y-79226190D01*
X149797619Y-79202381D01*
X149845238Y-79154762D01*
X149869047Y-79107143D01*
X149892857Y-79011905D01*
X149892857Y-78940476D01*
X149869047Y-78845238D01*
X149845238Y-78797619D01*
X149797619Y-78750000D01*
X149726190Y-78726190D01*
X149678571Y-78726190D01*
X149607143Y-78750000D01*
X149583333Y-78773810D01*
X149154762Y-78892857D02*
X149154762Y-79226190D01*
X149273809Y-78702381D02*
X149392857Y-79059524D01*
X149083333Y-79059524D01*
X139660476Y-76125714D02*
X139279524Y-76125714D01*
X139470000Y-76316190D02*
X139470000Y-75935238D01*
X182366666Y-76226190D02*
X182366666Y-76583333D01*
X182390476Y-76654762D01*
X182438095Y-76702381D01*
X182509523Y-76726190D01*
X182557142Y-76726190D01*
X182176190Y-76226190D02*
X181866667Y-76226190D01*
X182033333Y-76416667D01*
X181961905Y-76416667D01*
X181914286Y-76440476D01*
X181890476Y-76464286D01*
X181866667Y-76511905D01*
X181866667Y-76630952D01*
X181890476Y-76678571D01*
X181914286Y-76702381D01*
X181961905Y-76726190D01*
X182104762Y-76726190D01*
X182152381Y-76702381D01*
X182176190Y-76678571D01*
X149630952Y-62226190D02*
X149630952Y-62630952D01*
X149607143Y-62678571D01*
X149583333Y-62702381D01*
X149535714Y-62726190D01*
X149440476Y-62726190D01*
X149392857Y-62702381D01*
X149369048Y-62678571D01*
X149345238Y-62630952D01*
X149345238Y-62226190D01*
X148845238Y-62726190D02*
X149130952Y-62726190D01*
X148988095Y-62726190D02*
X148988095Y-62226190D01*
X149035714Y-62297619D01*
X149083333Y-62345238D01*
X149130952Y-62369048D01*
X149880952Y-86976190D02*
X149880952Y-87380952D01*
X149857143Y-87428571D01*
X149833333Y-87452381D01*
X149785714Y-87476190D01*
X149690476Y-87476190D01*
X149642857Y-87452381D01*
X149619048Y-87428571D01*
X149595238Y-87380952D01*
X149595238Y-86976190D01*
X149404761Y-86976190D02*
X149095238Y-86976190D01*
X149261904Y-87166667D01*
X149190476Y-87166667D01*
X149142857Y-87190476D01*
X149119047Y-87214286D01*
X149095238Y-87261905D01*
X149095238Y-87380952D01*
X149119047Y-87428571D01*
X149142857Y-87452381D01*
X149190476Y-87476190D01*
X149333333Y-87476190D01*
X149380952Y-87452381D01*
X149404761Y-87428571D01*
M02*
