G04 #@! TF.FileFunction,Copper,L1,Top,Signal*
%FSLAX46Y46*%
G04 Gerber Fmt 4.6, Leading zero omitted, Abs format (unit mm)*
G04 Created by KiCad (PCBNEW 4.0.7-e2-6376~58~ubuntu16.04.1) date Wed Sep  5 16:34:56 2018*
%MOMM*%
%LPD*%
G01*
G04 APERTURE LIST*
%ADD10C,0.100000*%
%ADD11R,1.250000X1.000000*%
%ADD12R,1.200000X1.200000*%
%ADD13O,1.998980X1.998980*%
%ADD14R,1.998980X1.998980*%
%ADD15C,2.400000*%
%ADD16R,2.400000X2.400000*%
%ADD17R,1.700000X1.700000*%
%ADD18O,1.700000X1.700000*%
%ADD19R,0.700000X1.300000*%
%ADD20R,1.300000X0.700000*%
%ADD21R,1.397000X1.397000*%
%ADD22C,1.397000*%
%ADD23C,2.000000*%
%ADD24O,2.500000X0.900000*%
%ADD25O,0.900000X2.500000*%
%ADD26R,6.000000X6.000000*%
%ADD27R,1.400000X0.300000*%
%ADD28C,0.520000*%
%ADD29C,0.508000*%
%ADD30C,0.300000*%
%ADD31C,0.175000*%
%ADD32C,0.254000*%
G04 APERTURE END LIST*
D10*
D11*
X134750000Y-52800000D03*
X134750000Y-54800000D03*
X136750000Y-95750000D03*
X136750000Y-97750000D03*
X152750000Y-96000000D03*
X152750000Y-98000000D03*
X169500000Y-95750000D03*
X169500000Y-97750000D03*
X185000000Y-95750000D03*
X185000000Y-97750000D03*
D12*
X144200000Y-74750000D03*
X142000000Y-74750000D03*
D13*
X126250000Y-64000000D03*
D14*
X126250000Y-61460000D03*
D15*
X127250000Y-89300000D03*
D16*
X127250000Y-85800000D03*
D17*
X179870000Y-76500000D03*
D18*
X177330000Y-76500000D03*
X174790000Y-76500000D03*
X172250000Y-76500000D03*
X169710000Y-76500000D03*
X167170000Y-76500000D03*
X164630000Y-76500000D03*
X162090000Y-76500000D03*
D13*
X184000000Y-57040000D03*
D14*
X184000000Y-64660000D03*
D13*
X184000000Y-62120000D03*
X184000000Y-59580000D03*
X184000000Y-54500000D03*
X184000000Y-51960000D03*
X126250000Y-72250000D03*
D14*
X126250000Y-69710000D03*
D13*
X126250000Y-80200000D03*
D14*
X126250000Y-77660000D03*
D17*
X174040000Y-52500000D03*
D18*
X171500000Y-52500000D03*
X168960000Y-52500000D03*
X166420000Y-52500000D03*
D13*
X128640000Y-106350000D03*
D14*
X126100000Y-106350000D03*
D13*
X136700000Y-106350000D03*
D14*
X134160000Y-106350000D03*
D13*
X144840000Y-106350000D03*
D14*
X142300000Y-106350000D03*
D13*
X152840000Y-106350000D03*
D14*
X150300000Y-106350000D03*
D13*
X160840000Y-106350000D03*
D14*
X158300000Y-106350000D03*
D13*
X168840000Y-106350000D03*
D14*
X166300000Y-106350000D03*
D13*
X176700000Y-106350000D03*
D14*
X174160000Y-106350000D03*
D13*
X184840000Y-106350000D03*
D14*
X182300000Y-106350000D03*
D19*
X138900000Y-59250000D03*
X137000000Y-59250000D03*
X137050000Y-61750000D03*
X138950000Y-61750000D03*
X138950000Y-64250000D03*
X137050000Y-64250000D03*
D20*
X155200000Y-72650000D03*
X155200000Y-74550000D03*
X138250000Y-54750000D03*
X138250000Y-52850000D03*
X157600000Y-72650000D03*
X157600000Y-74550000D03*
D19*
X166450000Y-63000000D03*
X164550000Y-63000000D03*
X164550000Y-68000000D03*
X166450000Y-68000000D03*
D20*
X147400000Y-72800000D03*
X147400000Y-74700000D03*
X178750000Y-54550000D03*
X178750000Y-56450000D03*
X178750000Y-51050000D03*
X178750000Y-52950000D03*
D19*
X138900000Y-68000000D03*
X137000000Y-68000000D03*
D21*
X173200000Y-62280000D03*
D22*
X173200000Y-59740000D03*
X173200000Y-57200000D03*
D23*
X131750000Y-52000000D03*
X131750000Y-56500000D03*
X125250000Y-52000000D03*
X125250000Y-56500000D03*
D21*
X173200000Y-71480000D03*
D22*
X173200000Y-68940000D03*
X173200000Y-66400000D03*
D24*
X160800000Y-51500000D03*
X160800000Y-52770000D03*
X160800000Y-54040000D03*
X160800000Y-55310000D03*
X160800000Y-56580000D03*
X160800000Y-57850000D03*
X160800000Y-59120000D03*
X160800000Y-60390000D03*
X160800000Y-61660000D03*
X160800000Y-62930000D03*
X160800000Y-64200000D03*
X160800000Y-65470000D03*
X160800000Y-66740000D03*
X160800000Y-68010000D03*
D25*
X157515000Y-69500000D03*
X156245000Y-69500000D03*
X154975000Y-69500000D03*
X153705000Y-69500000D03*
X152435000Y-69500000D03*
X151165000Y-69500000D03*
X149895000Y-69500000D03*
X148625000Y-69500000D03*
X147355000Y-69500000D03*
X146085000Y-69500000D03*
D24*
X142800000Y-68010000D03*
X142800000Y-66740000D03*
X142800000Y-65470000D03*
X142800000Y-64200000D03*
X142800000Y-62930000D03*
X142800000Y-61660000D03*
X142800000Y-60390000D03*
X142800000Y-59120000D03*
X142800000Y-57850000D03*
X142800000Y-56580000D03*
X142800000Y-55310000D03*
X142800000Y-54040000D03*
X142800000Y-52770000D03*
X142800000Y-51500000D03*
D26*
X151500000Y-59200000D03*
D27*
X129300000Y-94750000D03*
X129300000Y-95250000D03*
X129300000Y-95750000D03*
X129300000Y-96250000D03*
X129300000Y-96750000D03*
X133700000Y-96750000D03*
X133700000Y-96250000D03*
X133700000Y-95750000D03*
X133700000Y-95250000D03*
X133700000Y-94750000D03*
X145300000Y-95000000D03*
X145300000Y-95500000D03*
X145300000Y-96000000D03*
X145300000Y-96500000D03*
X145300000Y-97000000D03*
X149700000Y-97000000D03*
X149700000Y-96500000D03*
X149700000Y-96000000D03*
X149700000Y-95500000D03*
X149700000Y-95000000D03*
X161300000Y-94750000D03*
X161300000Y-95250000D03*
X161300000Y-95750000D03*
X161300000Y-96250000D03*
X161300000Y-96750000D03*
X165700000Y-96750000D03*
X165700000Y-96250000D03*
X165700000Y-95750000D03*
X165700000Y-95250000D03*
X165700000Y-94750000D03*
X177500000Y-94750000D03*
X177500000Y-95250000D03*
X177500000Y-95750000D03*
X177500000Y-96250000D03*
X177500000Y-96750000D03*
X181900000Y-96750000D03*
X181900000Y-96250000D03*
X181900000Y-95750000D03*
X181900000Y-95250000D03*
X181900000Y-94750000D03*
D19*
X162050000Y-84600000D03*
X163950000Y-84600000D03*
X162050000Y-81600000D03*
X163950000Y-81600000D03*
D28*
X164628356Y-78732374D03*
X164628356Y-74387783D03*
X147178959Y-97383601D03*
X186000000Y-76500000D03*
X159500000Y-74500000D03*
X156250000Y-59250000D03*
X151500000Y-54000000D03*
X131250000Y-76750000D03*
X139750000Y-74750000D03*
X135500000Y-61750000D03*
X135750000Y-64750000D03*
X186000000Y-101250000D03*
X170000000Y-101000000D03*
X137000000Y-100500000D03*
X154000000Y-101250000D03*
D29*
X164521785Y-56607188D03*
X164506761Y-55345411D03*
X164557025Y-69620963D03*
D28*
X143750000Y-96000000D03*
X186800000Y-99000000D03*
X155600000Y-98400000D03*
X172000000Y-98200000D03*
X138400000Y-95800000D03*
D29*
X175458146Y-65538086D03*
X163200000Y-64200000D03*
X163000000Y-52800000D03*
X165764652Y-64969287D03*
X165200000Y-65600000D03*
X163800769Y-54038570D03*
X159200000Y-92400000D03*
X159200000Y-94800000D03*
X164476721Y-57868965D03*
X183600000Y-95000000D03*
X164600000Y-83200000D03*
D30*
X166450000Y-63000000D02*
X166450000Y-68000000D01*
X167684446Y-65255554D02*
X168200000Y-64740000D01*
X167684446Y-68712802D02*
X167684446Y-65255554D01*
X158997248Y-77400000D02*
X167684446Y-68712802D01*
X173200000Y-59740000D02*
X168200000Y-64740000D01*
X155200000Y-74550000D02*
X155200000Y-75430058D01*
X155200000Y-75430058D02*
X157169942Y-77400000D01*
X157169942Y-77400000D02*
X158997248Y-77400000D01*
X156197248Y-80200000D02*
X158997248Y-77400000D01*
X126250000Y-80200000D02*
X156197248Y-80200000D01*
X168200000Y-64740000D02*
X167800000Y-65140000D01*
X173200000Y-59740000D02*
X169410000Y-59740000D01*
X166450000Y-62700000D02*
X166450000Y-63000000D01*
X169410000Y-59740000D02*
X166450000Y-62700000D01*
X184000000Y-64660000D02*
X178120000Y-64660000D01*
X178120000Y-64660000D02*
X173200000Y-59740000D01*
X142800000Y-52770000D02*
X138330000Y-52770000D01*
X138330000Y-52770000D02*
X138250000Y-52850000D01*
X173200000Y-59740000D02*
X170232286Y-56772286D01*
X170232286Y-56772286D02*
X170232286Y-51820631D01*
X168962055Y-50550400D02*
X147021708Y-50550400D01*
X170232286Y-51820631D02*
X168962055Y-50550400D01*
X147021708Y-50550400D02*
X144802108Y-52770000D01*
X144802108Y-52770000D02*
X142800000Y-52770000D01*
X178750000Y-56450000D02*
X178450000Y-56450000D01*
X178450000Y-56450000D02*
X177605758Y-55605758D01*
X177605758Y-55605758D02*
X177605758Y-53794242D01*
X177605758Y-53794242D02*
X178450000Y-52950000D01*
X178450000Y-52950000D02*
X178750000Y-52950000D01*
X173200000Y-59740000D02*
X176110000Y-59740000D01*
X176110000Y-59740000D02*
X178750000Y-57100000D01*
X178750000Y-57100000D02*
X178750000Y-56450000D01*
X164630000Y-74389427D02*
X164628356Y-74387783D01*
X164630000Y-76500000D02*
X164630000Y-74389427D01*
X145300000Y-96000000D02*
X146699911Y-96000000D01*
X146699911Y-96000000D02*
X147178959Y-96479048D01*
X147178959Y-96479048D02*
X147178959Y-97015906D01*
X147178959Y-97015906D02*
X147178959Y-97383601D01*
X139750000Y-74750000D02*
X133250000Y-74750000D01*
X186000000Y-62250000D02*
X186000000Y-76500000D01*
X185543492Y-62250000D02*
X186000000Y-62250000D01*
X184000000Y-62120000D02*
X185413492Y-62120000D01*
X185413492Y-62120000D02*
X185543492Y-62250000D01*
X157600000Y-74550000D02*
X159450000Y-74550000D01*
X159450000Y-74550000D02*
X159500000Y-74500000D01*
X151500000Y-59200000D02*
X156200000Y-59200000D01*
X156200000Y-59200000D02*
X156250000Y-59250000D01*
X151500000Y-59200000D02*
X151500000Y-54000000D01*
X133250000Y-74750000D02*
X131250000Y-76750000D01*
X142000000Y-74750000D02*
X139750000Y-74750000D01*
X137050000Y-61750000D02*
X135500000Y-61750000D01*
X136400000Y-64250000D02*
X136250000Y-64250000D01*
X136250000Y-64250000D02*
X135750000Y-64750000D01*
X137050000Y-64250000D02*
X136400000Y-64250000D01*
X177500000Y-95750000D02*
X173750000Y-95750000D01*
X161300000Y-95750000D02*
X159500000Y-95750000D01*
X131000000Y-95750000D02*
X129300000Y-95750000D01*
X129300000Y-94750000D02*
X127750000Y-94750000D01*
X129300000Y-94750000D02*
X131750000Y-94750000D01*
X185000000Y-100500000D02*
X185250000Y-100500000D01*
X185250000Y-100500000D02*
X186000000Y-101250000D01*
X185000000Y-97750000D02*
X185000000Y-100500000D01*
X169500000Y-100500000D02*
X170000000Y-101000000D01*
X169500000Y-97750000D02*
X169500000Y-100500000D01*
X136750000Y-98550000D02*
X136750000Y-100250000D01*
X136750000Y-100250000D02*
X137000000Y-100500000D01*
X136750000Y-97750000D02*
X136750000Y-98550000D01*
X152750000Y-98800000D02*
X152750000Y-100000000D01*
X152750000Y-100000000D02*
X154000000Y-101250000D01*
X152750000Y-98000000D02*
X152750000Y-98800000D01*
D31*
X134750000Y-54800000D02*
X134750000Y-55475000D01*
X134750000Y-55475000D02*
X133725000Y-56500000D01*
X133725000Y-56500000D02*
X133164213Y-56500000D01*
X133164213Y-56500000D02*
X131750000Y-56500000D01*
X131750000Y-56500000D02*
X125250000Y-56500000D01*
X134750000Y-54800000D02*
X138200000Y-54800000D01*
X138200000Y-54800000D02*
X138250000Y-54750000D01*
X138250000Y-54750000D02*
X139075000Y-54750000D01*
X139075000Y-54750000D02*
X139785000Y-54040000D01*
X139785000Y-54040000D02*
X141375000Y-54040000D01*
X141375000Y-54040000D02*
X142800000Y-54040000D01*
X134800000Y-54950000D02*
X134750000Y-55000000D01*
X138950000Y-61750000D02*
X138825135Y-61750000D01*
X138825135Y-61750000D02*
X137495616Y-63079519D01*
X137495616Y-63079519D02*
X135764340Y-63079519D01*
X135764340Y-63079519D02*
X129133859Y-69710000D01*
X129133859Y-69710000D02*
X126250000Y-69710000D01*
X138950000Y-61750000D02*
X142710000Y-61750000D01*
X142710000Y-61750000D02*
X142800000Y-61660000D01*
X138950000Y-64250000D02*
X138950000Y-65404711D01*
X136235510Y-66500000D02*
X126250000Y-76485510D01*
X138950000Y-65404711D02*
X137854711Y-66500000D01*
X137854711Y-66500000D02*
X136235510Y-66500000D01*
X126250000Y-76485510D02*
X126250000Y-77660000D01*
X138950000Y-64250000D02*
X139475000Y-64250000D01*
X139475000Y-64250000D02*
X140795000Y-62930000D01*
X140795000Y-62930000D02*
X141375000Y-62930000D01*
X141375000Y-62930000D02*
X142800000Y-62930000D01*
X164494597Y-56580000D02*
X164521785Y-56607188D01*
X160800000Y-56580000D02*
X164494597Y-56580000D01*
X164471350Y-55310000D02*
X164506761Y-55345411D01*
X160800000Y-55310000D02*
X164471350Y-55310000D01*
X155200000Y-72650000D02*
X155200000Y-72125000D01*
X155200000Y-72125000D02*
X156245000Y-71080000D01*
X156245000Y-71080000D02*
X156245000Y-70925000D01*
X156245000Y-70925000D02*
X156245000Y-69500000D01*
X157600000Y-72650000D02*
X157600000Y-69585000D01*
X157600000Y-69585000D02*
X157515000Y-69500000D01*
X164550000Y-69613938D02*
X164557025Y-69620963D01*
X164550000Y-68000000D02*
X164550000Y-69613938D01*
X173200000Y-68940000D02*
X172983319Y-69156681D01*
X160800000Y-68010000D02*
X164540000Y-68010000D01*
X164540000Y-68010000D02*
X164550000Y-68000000D01*
X147400000Y-74700000D02*
X144250000Y-74700000D01*
X144250000Y-74700000D02*
X144200000Y-74750000D01*
X178750000Y-54550000D02*
X183950000Y-54550000D01*
X183950000Y-54550000D02*
X184000000Y-54500000D01*
X184000000Y-51960000D02*
X179135000Y-51960000D01*
X179135000Y-51960000D02*
X178750000Y-51575000D01*
X178750000Y-51575000D02*
X178750000Y-51050000D01*
X160800000Y-62930000D02*
X164480000Y-62930000D01*
X164480000Y-62930000D02*
X164550000Y-63000000D01*
X147355000Y-69500000D02*
X147355000Y-72755000D01*
X147355000Y-72755000D02*
X147400000Y-72800000D01*
X138900000Y-68000000D02*
X142790000Y-68000000D01*
X142790000Y-68000000D02*
X142800000Y-68010000D01*
D30*
X145300000Y-95000000D02*
X144300000Y-95000000D01*
X144300000Y-95000000D02*
X143750000Y-95550000D01*
X143750000Y-95550000D02*
X143750000Y-96000000D01*
X186800000Y-99000000D02*
X186800000Y-96548595D01*
X186800000Y-96548595D02*
X186001405Y-95750000D01*
X186001405Y-95750000D02*
X185000000Y-95750000D01*
X155600000Y-96600000D02*
X155000000Y-96000000D01*
X155000000Y-96000000D02*
X152750000Y-96000000D01*
X155600000Y-98400000D02*
X155600000Y-96600000D01*
X172000000Y-96400000D02*
X171350000Y-95750000D01*
X171350000Y-95750000D02*
X169500000Y-95750000D01*
X172000000Y-98200000D02*
X172000000Y-96400000D01*
X138400000Y-95800000D02*
X136800000Y-95800000D01*
X136800000Y-95800000D02*
X136750000Y-95750000D01*
X181900000Y-95750000D02*
X185000000Y-95750000D01*
X165700000Y-95750000D02*
X166700000Y-95750000D01*
X166700000Y-95750000D02*
X169500000Y-95750000D01*
X152750000Y-96000000D02*
X149700000Y-96000000D01*
X133700000Y-95750000D02*
X134700000Y-95750000D01*
X134700000Y-95750000D02*
X136750000Y-95750000D01*
X162050000Y-84600000D02*
X162050000Y-81600000D01*
X162090000Y-76500000D02*
X162090000Y-81560000D01*
X162090000Y-81560000D02*
X162050000Y-81600000D01*
D31*
X138900000Y-59250000D02*
X138745867Y-59250000D01*
X138745867Y-59250000D02*
X137443432Y-60552435D01*
X127249489Y-63000511D02*
X126250000Y-64000000D01*
X137443432Y-60552435D02*
X129697565Y-60552435D01*
X129697565Y-60552435D02*
X127249489Y-63000511D01*
X138900000Y-59250000D02*
X139425000Y-59250000D01*
X139425000Y-59250000D02*
X140565000Y-60390000D01*
X140565000Y-60390000D02*
X141375000Y-60390000D01*
X141375000Y-60390000D02*
X142800000Y-60390000D01*
X175712145Y-65792085D02*
X175458146Y-65538086D01*
X179870000Y-69949940D02*
X175712145Y-65792085D01*
X179870000Y-76500000D02*
X179870000Y-69949940D01*
X163200000Y-64200000D02*
X160800000Y-64200000D01*
X160800000Y-52770000D02*
X162970000Y-52770000D01*
X162970000Y-52770000D02*
X163000000Y-52800000D01*
X165764652Y-61972209D02*
X165764652Y-64610077D01*
X160800000Y-60390000D02*
X164182443Y-60390000D01*
X165764652Y-64610077D02*
X165764652Y-64969287D01*
X164182443Y-60390000D02*
X165764652Y-61972209D01*
X165200000Y-61945481D02*
X165200000Y-65600000D01*
X164914519Y-61660000D02*
X165200000Y-61945481D01*
X160800000Y-61660000D02*
X164914519Y-61660000D01*
X163799339Y-54040000D02*
X163800769Y-54038570D01*
X160800000Y-54040000D02*
X163799339Y-54040000D01*
X159200000Y-92400000D02*
X157969291Y-93630709D01*
X157969291Y-93630709D02*
X157605183Y-93630709D01*
X157605183Y-93630709D02*
X157600000Y-93625526D01*
X152800000Y-93625526D02*
X157600000Y-93625526D01*
X157600000Y-93625526D02*
X162800000Y-93625526D01*
X161300000Y-94750000D02*
X159250000Y-94750000D01*
X159250000Y-94750000D02*
X159200000Y-94800000D01*
X162800000Y-93625526D02*
X164000000Y-93625526D01*
X163950000Y-84600000D02*
X163950000Y-92475526D01*
X163950000Y-92475526D02*
X162800000Y-93625526D01*
X164000000Y-93625526D02*
X168800000Y-93625526D01*
X163950000Y-84600000D02*
X164475000Y-84600000D01*
X164475000Y-84600000D02*
X169710000Y-79365000D01*
X169710000Y-79365000D02*
X169710000Y-77702081D01*
X169710000Y-77702081D02*
X169710000Y-76500000D01*
X180570745Y-94750000D02*
X181900000Y-94750000D01*
X168800000Y-93625526D02*
X179446271Y-93625526D01*
X179446271Y-93625526D02*
X180570745Y-94750000D01*
X165700000Y-94750000D02*
X166886339Y-94750000D01*
X166886339Y-94750000D02*
X168010813Y-93625526D01*
X168010813Y-93625526D02*
X168800000Y-93625526D01*
X149700000Y-95000000D02*
X150808514Y-95000000D01*
X150808514Y-95000000D02*
X152182988Y-93625526D01*
X152182988Y-93625526D02*
X152800000Y-93625526D01*
X136121408Y-93625526D02*
X152800000Y-93625526D01*
X133700000Y-94750000D02*
X134996934Y-94750000D01*
X134996934Y-94750000D02*
X136121408Y-93625526D01*
X164457756Y-57850000D02*
X164476721Y-57868965D01*
X160800000Y-57850000D02*
X164457756Y-57850000D01*
X183600000Y-95000000D02*
X183240790Y-95000000D01*
X183240790Y-95000000D02*
X182990790Y-95250000D01*
X182990790Y-95250000D02*
X182775000Y-95250000D01*
X182775000Y-95250000D02*
X181900000Y-95250000D01*
X163950000Y-81600000D02*
X163950000Y-82550000D01*
X163950000Y-82550000D02*
X164600000Y-83200000D01*
X163950000Y-81600000D02*
X164475000Y-81600000D01*
X164475000Y-81600000D02*
X167170000Y-78905000D01*
X167170000Y-78905000D02*
X167170000Y-77702081D01*
X167170000Y-77702081D02*
X167170000Y-76500000D01*
X133700000Y-95250000D02*
X135271156Y-95250000D01*
X135271156Y-95250000D02*
X136189362Y-94331794D01*
X136189362Y-94331794D02*
X147360848Y-94331794D01*
X147360848Y-94331794D02*
X148529054Y-95500000D01*
X148529054Y-95500000D02*
X149700000Y-95500000D01*
X149700000Y-95500000D02*
X151281591Y-95500000D01*
X151281591Y-95500000D02*
X152621451Y-94160140D01*
X152621451Y-94160140D02*
X163422540Y-94160140D01*
X163422540Y-94160140D02*
X164512400Y-95250000D01*
X164512400Y-95250000D02*
X165700000Y-95250000D01*
X165700000Y-95250000D02*
X168043551Y-95250000D01*
X168043551Y-95250000D02*
X168543551Y-94750000D01*
X168543551Y-94750000D02*
X176625000Y-94750000D01*
X176625000Y-94750000D02*
X177500000Y-94750000D01*
X181025000Y-95250000D02*
X181900000Y-95250000D01*
X180607717Y-95250000D02*
X181025000Y-95250000D01*
X177500000Y-94750000D02*
X180107717Y-94750000D01*
X180107717Y-94750000D02*
X180607717Y-95250000D01*
X128640000Y-98610000D02*
X129300000Y-97950000D01*
X129300000Y-97950000D02*
X129300000Y-96750000D01*
X128640000Y-106350000D02*
X128640000Y-98610000D01*
X126100000Y-106350000D02*
X126100000Y-97944163D01*
X126100000Y-97944163D02*
X127794163Y-96250000D01*
X127794163Y-96250000D02*
X129300000Y-96250000D01*
X133700000Y-96250000D02*
X134575000Y-96250000D01*
X134575000Y-96250000D02*
X135248774Y-96923774D01*
X135248774Y-96923774D02*
X135248774Y-100620646D01*
X135248774Y-100620646D02*
X136700000Y-102071872D01*
X136700000Y-102071872D02*
X136700000Y-106350000D01*
X133700000Y-96750000D02*
X133700000Y-105883367D01*
X133700000Y-105883367D02*
X134160000Y-106343367D01*
X134160000Y-106343367D02*
X134160000Y-106350000D01*
X145300000Y-105890000D02*
X144840000Y-106350000D01*
X145300000Y-97000000D02*
X145300000Y-105890000D01*
X142300000Y-106350000D02*
X142300000Y-98321838D01*
X142300000Y-98321838D02*
X144121838Y-96500000D01*
X144121838Y-96500000D02*
X145300000Y-96500000D01*
X149700000Y-96500000D02*
X150773914Y-96500000D01*
X150773914Y-96500000D02*
X151299451Y-97025537D01*
X151299451Y-97025537D02*
X151299451Y-100628919D01*
X151299451Y-100628919D02*
X152840000Y-102169468D01*
X152840000Y-102169468D02*
X152840000Y-106350000D01*
X149700000Y-97000000D02*
X149700000Y-105750000D01*
X149700000Y-105750000D02*
X150300000Y-106350000D01*
X161300000Y-96750000D02*
X161300000Y-105890000D01*
X161300000Y-105890000D02*
X160840000Y-106350000D01*
X158300000Y-106350000D02*
X158300000Y-98375000D01*
X158300000Y-98375000D02*
X160425000Y-96250000D01*
X160425000Y-96250000D02*
X161300000Y-96250000D01*
X165700000Y-96250000D02*
X167325855Y-96250000D01*
X167325855Y-96250000D02*
X168080084Y-97004229D01*
X168840000Y-101555398D02*
X168840000Y-106350000D01*
X168080084Y-97004229D02*
X168080084Y-100795482D01*
X168080084Y-100795482D02*
X168840000Y-101555398D01*
X165700000Y-96750000D02*
X165700000Y-105750000D01*
X165700000Y-105750000D02*
X166300000Y-106350000D01*
X177500000Y-96750000D02*
X177500000Y-105550000D01*
X177500000Y-105550000D02*
X176700000Y-106350000D01*
X174160000Y-106350000D02*
X174160000Y-96808178D01*
X176625000Y-96250000D02*
X177500000Y-96250000D01*
X174160000Y-96808178D02*
X174718178Y-96250000D01*
X174718178Y-96250000D02*
X176625000Y-96250000D01*
X181900000Y-96250000D02*
X183032901Y-96250000D01*
X183032901Y-96250000D02*
X183650133Y-96867232D01*
X183650133Y-96867232D02*
X183650133Y-100738897D01*
X183650133Y-100738897D02*
X184840000Y-101928764D01*
X184840000Y-101928764D02*
X184840000Y-106350000D01*
X181900000Y-96750000D02*
X181900000Y-105950000D01*
X181900000Y-105950000D02*
X182300000Y-106350000D01*
D32*
G36*
X176165000Y-95473690D02*
X176165000Y-95516250D01*
X176176250Y-95527500D01*
X174718183Y-95527500D01*
X174718178Y-95527499D01*
X174441689Y-95582497D01*
X174207293Y-95739115D01*
X173649115Y-96297293D01*
X173492497Y-96531689D01*
X173437500Y-96808178D01*
X173437500Y-104703070D01*
X173160510Y-104703070D01*
X172925193Y-104747348D01*
X172709069Y-104886420D01*
X172564079Y-105098620D01*
X172513070Y-105350510D01*
X172513070Y-107349490D01*
X172557348Y-107584807D01*
X172696420Y-107800931D01*
X172908620Y-107945921D01*
X173160510Y-107996930D01*
X173377322Y-107996930D01*
X173155991Y-108217875D01*
X172975206Y-108653255D01*
X172974794Y-109124677D01*
X173043104Y-109290000D01*
X169957005Y-109290000D01*
X170024794Y-109126745D01*
X170025206Y-108655323D01*
X169845180Y-108219628D01*
X169512125Y-107885991D01*
X169465189Y-107866502D01*
X169497514Y-107860072D01*
X170027781Y-107505759D01*
X170382094Y-106975492D01*
X170506512Y-106350000D01*
X170382094Y-105724508D01*
X170027781Y-105194241D01*
X169562500Y-104883350D01*
X169562500Y-101555403D01*
X169562501Y-101555398D01*
X169512965Y-101306367D01*
X169507503Y-101278909D01*
X169350885Y-101044513D01*
X169350882Y-101044511D01*
X168802584Y-100496212D01*
X168802584Y-98885000D01*
X169214250Y-98885000D01*
X169373000Y-98726250D01*
X169373000Y-97877000D01*
X169627000Y-97877000D01*
X169627000Y-98726250D01*
X169785750Y-98885000D01*
X170251310Y-98885000D01*
X170484699Y-98788327D01*
X170663327Y-98609698D01*
X170760000Y-98376309D01*
X170760000Y-98035750D01*
X170601250Y-97877000D01*
X169627000Y-97877000D01*
X169373000Y-97877000D01*
X169353000Y-97877000D01*
X169353000Y-97623000D01*
X169373000Y-97623000D01*
X169373000Y-97603000D01*
X169627000Y-97603000D01*
X169627000Y-97623000D01*
X170601250Y-97623000D01*
X170760000Y-97464250D01*
X170760000Y-97123691D01*
X170663327Y-96890302D01*
X170522090Y-96749064D01*
X170576441Y-96714090D01*
X170698808Y-96535000D01*
X171024842Y-96535000D01*
X171215000Y-96725158D01*
X171215000Y-97756657D01*
X171105156Y-98021192D01*
X171104845Y-98377245D01*
X171240814Y-98706314D01*
X171492361Y-98958302D01*
X171821192Y-99094844D01*
X172177245Y-99095155D01*
X172506314Y-98959186D01*
X172758302Y-98707639D01*
X172894844Y-98378808D01*
X172895155Y-98022755D01*
X172785000Y-97756160D01*
X172785000Y-96400000D01*
X172725245Y-96099594D01*
X172555079Y-95844921D01*
X172182658Y-95472500D01*
X176165493Y-95472500D01*
X176165000Y-95473690D01*
X176165000Y-95473690D01*
G37*
X176165000Y-95473690D02*
X176165000Y-95516250D01*
X176176250Y-95527500D01*
X174718183Y-95527500D01*
X174718178Y-95527499D01*
X174441689Y-95582497D01*
X174207293Y-95739115D01*
X173649115Y-96297293D01*
X173492497Y-96531689D01*
X173437500Y-96808178D01*
X173437500Y-104703070D01*
X173160510Y-104703070D01*
X172925193Y-104747348D01*
X172709069Y-104886420D01*
X172564079Y-105098620D01*
X172513070Y-105350510D01*
X172513070Y-107349490D01*
X172557348Y-107584807D01*
X172696420Y-107800931D01*
X172908620Y-107945921D01*
X173160510Y-107996930D01*
X173377322Y-107996930D01*
X173155991Y-108217875D01*
X172975206Y-108653255D01*
X172974794Y-109124677D01*
X173043104Y-109290000D01*
X169957005Y-109290000D01*
X170024794Y-109126745D01*
X170025206Y-108655323D01*
X169845180Y-108219628D01*
X169512125Y-107885991D01*
X169465189Y-107866502D01*
X169497514Y-107860072D01*
X170027781Y-107505759D01*
X170382094Y-106975492D01*
X170506512Y-106350000D01*
X170382094Y-105724508D01*
X170027781Y-105194241D01*
X169562500Y-104883350D01*
X169562500Y-101555403D01*
X169562501Y-101555398D01*
X169512965Y-101306367D01*
X169507503Y-101278909D01*
X169350885Y-101044513D01*
X169350882Y-101044511D01*
X168802584Y-100496212D01*
X168802584Y-98885000D01*
X169214250Y-98885000D01*
X169373000Y-98726250D01*
X169373000Y-97877000D01*
X169627000Y-97877000D01*
X169627000Y-98726250D01*
X169785750Y-98885000D01*
X170251310Y-98885000D01*
X170484699Y-98788327D01*
X170663327Y-98609698D01*
X170760000Y-98376309D01*
X170760000Y-98035750D01*
X170601250Y-97877000D01*
X169627000Y-97877000D01*
X169373000Y-97877000D01*
X169353000Y-97877000D01*
X169353000Y-97623000D01*
X169373000Y-97623000D01*
X169373000Y-97603000D01*
X169627000Y-97603000D01*
X169627000Y-97623000D01*
X170601250Y-97623000D01*
X170760000Y-97464250D01*
X170760000Y-97123691D01*
X170663327Y-96890302D01*
X170522090Y-96749064D01*
X170576441Y-96714090D01*
X170698808Y-96535000D01*
X171024842Y-96535000D01*
X171215000Y-96725158D01*
X171215000Y-97756657D01*
X171105156Y-98021192D01*
X171104845Y-98377245D01*
X171240814Y-98706314D01*
X171492361Y-98958302D01*
X171821192Y-99094844D01*
X172177245Y-99095155D01*
X172506314Y-98959186D01*
X172758302Y-98707639D01*
X172894844Y-98378808D01*
X172895155Y-98022755D01*
X172785000Y-97756160D01*
X172785000Y-96400000D01*
X172725245Y-96099594D01*
X172555079Y-95844921D01*
X172182658Y-95472500D01*
X176165493Y-95472500D01*
X176165000Y-95473690D01*
G36*
X160718039Y-77097378D02*
X161039946Y-77579147D01*
X161305000Y-77756250D01*
X161305000Y-80449591D01*
X161248559Y-80485910D01*
X161103569Y-80698110D01*
X161052560Y-80950000D01*
X161052560Y-82250000D01*
X161096838Y-82485317D01*
X161235910Y-82701441D01*
X161265000Y-82721317D01*
X161265000Y-83475331D01*
X161248559Y-83485910D01*
X161103569Y-83698110D01*
X161052560Y-83950000D01*
X161052560Y-85250000D01*
X161096838Y-85485317D01*
X161235910Y-85701441D01*
X161448110Y-85846431D01*
X161700000Y-85897440D01*
X162400000Y-85897440D01*
X162635317Y-85853162D01*
X162851441Y-85714090D01*
X162996431Y-85501890D01*
X162999081Y-85488803D01*
X163135910Y-85701441D01*
X163227500Y-85764022D01*
X163227500Y-92176257D01*
X162500730Y-92903026D01*
X159953720Y-92903026D01*
X160088846Y-92577609D01*
X160089154Y-92223943D01*
X159954097Y-91897080D01*
X159704236Y-91646782D01*
X159377609Y-91511154D01*
X159023943Y-91510846D01*
X158697080Y-91645903D01*
X158446782Y-91895764D01*
X158311154Y-92222391D01*
X158311115Y-92267116D01*
X157675204Y-92903026D01*
X152182993Y-92903026D01*
X152182988Y-92903025D01*
X152182983Y-92903026D01*
X136121408Y-92903026D01*
X135844919Y-92958023D01*
X135610523Y-93114641D01*
X135610521Y-93114644D01*
X134697664Y-94027500D01*
X134686914Y-94027500D01*
X134651890Y-94003569D01*
X134400000Y-93952560D01*
X133000000Y-93952560D01*
X132764683Y-93996838D01*
X132548559Y-94135910D01*
X132403569Y-94348110D01*
X132352560Y-94600000D01*
X132352560Y-94900000D01*
X132372067Y-95003671D01*
X132352560Y-95100000D01*
X132352560Y-95400000D01*
X132372067Y-95503671D01*
X132352560Y-95600000D01*
X132352560Y-95900000D01*
X132372067Y-96003671D01*
X132352560Y-96100000D01*
X132352560Y-96400000D01*
X132372067Y-96503671D01*
X132352560Y-96600000D01*
X132352560Y-96900000D01*
X132396838Y-97135317D01*
X132535910Y-97351441D01*
X132748110Y-97496431D01*
X132977500Y-97542884D01*
X132977500Y-104737506D01*
X132925193Y-104747348D01*
X132709069Y-104886420D01*
X132564079Y-105098620D01*
X132513070Y-105350510D01*
X132513070Y-107349490D01*
X132557348Y-107584807D01*
X132696420Y-107800931D01*
X132908620Y-107945921D01*
X133160510Y-107996930D01*
X133377322Y-107996930D01*
X133155991Y-108217875D01*
X132975206Y-108653255D01*
X132974794Y-109124677D01*
X133043104Y-109290000D01*
X129757005Y-109290000D01*
X129824794Y-109126745D01*
X129825206Y-108655323D01*
X129645180Y-108219628D01*
X129312125Y-107885991D01*
X129265189Y-107866502D01*
X129297514Y-107860072D01*
X129827781Y-107505759D01*
X130182094Y-106975492D01*
X130306512Y-106350000D01*
X130182094Y-105724508D01*
X129827781Y-105194241D01*
X129362500Y-104883350D01*
X129362500Y-98909270D01*
X129810885Y-98460885D01*
X129967503Y-98226489D01*
X130022501Y-97950000D01*
X130022500Y-97949995D01*
X130022500Y-97543206D01*
X130235317Y-97503162D01*
X130451441Y-97364090D01*
X130596431Y-97151890D01*
X130647440Y-96900000D01*
X130647440Y-96600000D01*
X130627933Y-96496329D01*
X130647440Y-96400000D01*
X130647440Y-96100000D01*
X130634020Y-96028677D01*
X130635000Y-96026310D01*
X130635000Y-95983750D01*
X130623379Y-95972129D01*
X130603162Y-95864683D01*
X130529380Y-95750022D01*
X130596431Y-95651890D01*
X130621080Y-95530170D01*
X130635000Y-95516250D01*
X130635000Y-95473690D01*
X130633333Y-95469665D01*
X130647440Y-95400000D01*
X130647440Y-95100000D01*
X130634020Y-95028677D01*
X130635000Y-95026310D01*
X130635000Y-94983750D01*
X130623379Y-94972129D01*
X130603162Y-94864683D01*
X130479204Y-94672046D01*
X130635000Y-94516250D01*
X130635000Y-94473690D01*
X130538327Y-94240301D01*
X130359698Y-94061673D01*
X130126309Y-93965000D01*
X129585750Y-93965000D01*
X129427000Y-94123750D01*
X129427000Y-94452560D01*
X129173000Y-94452560D01*
X129173000Y-94123750D01*
X129014250Y-93965000D01*
X128473691Y-93965000D01*
X128240302Y-94061673D01*
X128061673Y-94240301D01*
X127965000Y-94473690D01*
X127965000Y-94516250D01*
X128122621Y-94673871D01*
X128003569Y-94848110D01*
X127978920Y-94969830D01*
X127965000Y-94983750D01*
X127965000Y-95026310D01*
X127966667Y-95030335D01*
X127952560Y-95100000D01*
X127952560Y-95400000D01*
X127965980Y-95471323D01*
X127965000Y-95473690D01*
X127965000Y-95516250D01*
X127976250Y-95527500D01*
X127794163Y-95527500D01*
X127517674Y-95582497D01*
X127283278Y-95739115D01*
X127283276Y-95739118D01*
X125589115Y-97433278D01*
X125432497Y-97667674D01*
X125377500Y-97944163D01*
X125377500Y-104703070D01*
X125100510Y-104703070D01*
X124865193Y-104747348D01*
X124649069Y-104886420D01*
X124504079Y-105098620D01*
X124453070Y-105350510D01*
X124453070Y-107349490D01*
X124497348Y-107584807D01*
X124636420Y-107800931D01*
X124848620Y-107945921D01*
X125100510Y-107996930D01*
X125317322Y-107996930D01*
X125095991Y-108217875D01*
X124915206Y-108653255D01*
X124914794Y-109124677D01*
X124983104Y-109290000D01*
X123569930Y-109290000D01*
X123394345Y-109255074D01*
X123304774Y-109195225D01*
X123244926Y-109105655D01*
X123210000Y-108930070D01*
X123210000Y-89663403D01*
X125414682Y-89663403D01*
X125693455Y-90338086D01*
X126209199Y-90854730D01*
X126883395Y-91134681D01*
X127613403Y-91135318D01*
X128288086Y-90856545D01*
X128804730Y-90340801D01*
X129084681Y-89666605D01*
X129085318Y-88936597D01*
X128806545Y-88261914D01*
X128290801Y-87745270D01*
X128025242Y-87635000D01*
X128576310Y-87635000D01*
X128809699Y-87538327D01*
X128988327Y-87359698D01*
X129085000Y-87126309D01*
X129085000Y-86085750D01*
X128926250Y-85927000D01*
X127377000Y-85927000D01*
X127377000Y-85947000D01*
X127123000Y-85947000D01*
X127123000Y-85927000D01*
X125573750Y-85927000D01*
X125415000Y-86085750D01*
X125415000Y-87126309D01*
X125511673Y-87359698D01*
X125690301Y-87538327D01*
X125923690Y-87635000D01*
X126474395Y-87635000D01*
X126211914Y-87743455D01*
X125695270Y-88259199D01*
X125415319Y-88933395D01*
X125414682Y-89663403D01*
X123210000Y-89663403D01*
X123210000Y-84473691D01*
X125415000Y-84473691D01*
X125415000Y-85514250D01*
X125573750Y-85673000D01*
X127123000Y-85673000D01*
X127123000Y-84123750D01*
X127377000Y-84123750D01*
X127377000Y-85673000D01*
X128926250Y-85673000D01*
X129085000Y-85514250D01*
X129085000Y-84473691D01*
X128988327Y-84240302D01*
X128809699Y-84061673D01*
X128576310Y-83965000D01*
X127535750Y-83965000D01*
X127377000Y-84123750D01*
X127123000Y-84123750D01*
X126964250Y-83965000D01*
X125923690Y-83965000D01*
X125690301Y-84061673D01*
X125511673Y-84240302D01*
X125415000Y-84473691D01*
X123210000Y-84473691D01*
X123210000Y-81275481D01*
X123473255Y-81384794D01*
X123944677Y-81385206D01*
X124380372Y-81205180D01*
X124714009Y-80872125D01*
X124733498Y-80825189D01*
X124739928Y-80857514D01*
X125094241Y-81387781D01*
X125624508Y-81742094D01*
X126250000Y-81866512D01*
X126875492Y-81742094D01*
X127405759Y-81387781D01*
X127674889Y-80985000D01*
X156197248Y-80985000D01*
X156497655Y-80925245D01*
X156752327Y-80755079D01*
X160666937Y-76840469D01*
X160718039Y-77097378D01*
X160718039Y-77097378D01*
G37*
X160718039Y-77097378D02*
X161039946Y-77579147D01*
X161305000Y-77756250D01*
X161305000Y-80449591D01*
X161248559Y-80485910D01*
X161103569Y-80698110D01*
X161052560Y-80950000D01*
X161052560Y-82250000D01*
X161096838Y-82485317D01*
X161235910Y-82701441D01*
X161265000Y-82721317D01*
X161265000Y-83475331D01*
X161248559Y-83485910D01*
X161103569Y-83698110D01*
X161052560Y-83950000D01*
X161052560Y-85250000D01*
X161096838Y-85485317D01*
X161235910Y-85701441D01*
X161448110Y-85846431D01*
X161700000Y-85897440D01*
X162400000Y-85897440D01*
X162635317Y-85853162D01*
X162851441Y-85714090D01*
X162996431Y-85501890D01*
X162999081Y-85488803D01*
X163135910Y-85701441D01*
X163227500Y-85764022D01*
X163227500Y-92176257D01*
X162500730Y-92903026D01*
X159953720Y-92903026D01*
X160088846Y-92577609D01*
X160089154Y-92223943D01*
X159954097Y-91897080D01*
X159704236Y-91646782D01*
X159377609Y-91511154D01*
X159023943Y-91510846D01*
X158697080Y-91645903D01*
X158446782Y-91895764D01*
X158311154Y-92222391D01*
X158311115Y-92267116D01*
X157675204Y-92903026D01*
X152182993Y-92903026D01*
X152182988Y-92903025D01*
X152182983Y-92903026D01*
X136121408Y-92903026D01*
X135844919Y-92958023D01*
X135610523Y-93114641D01*
X135610521Y-93114644D01*
X134697664Y-94027500D01*
X134686914Y-94027500D01*
X134651890Y-94003569D01*
X134400000Y-93952560D01*
X133000000Y-93952560D01*
X132764683Y-93996838D01*
X132548559Y-94135910D01*
X132403569Y-94348110D01*
X132352560Y-94600000D01*
X132352560Y-94900000D01*
X132372067Y-95003671D01*
X132352560Y-95100000D01*
X132352560Y-95400000D01*
X132372067Y-95503671D01*
X132352560Y-95600000D01*
X132352560Y-95900000D01*
X132372067Y-96003671D01*
X132352560Y-96100000D01*
X132352560Y-96400000D01*
X132372067Y-96503671D01*
X132352560Y-96600000D01*
X132352560Y-96900000D01*
X132396838Y-97135317D01*
X132535910Y-97351441D01*
X132748110Y-97496431D01*
X132977500Y-97542884D01*
X132977500Y-104737506D01*
X132925193Y-104747348D01*
X132709069Y-104886420D01*
X132564079Y-105098620D01*
X132513070Y-105350510D01*
X132513070Y-107349490D01*
X132557348Y-107584807D01*
X132696420Y-107800931D01*
X132908620Y-107945921D01*
X133160510Y-107996930D01*
X133377322Y-107996930D01*
X133155991Y-108217875D01*
X132975206Y-108653255D01*
X132974794Y-109124677D01*
X133043104Y-109290000D01*
X129757005Y-109290000D01*
X129824794Y-109126745D01*
X129825206Y-108655323D01*
X129645180Y-108219628D01*
X129312125Y-107885991D01*
X129265189Y-107866502D01*
X129297514Y-107860072D01*
X129827781Y-107505759D01*
X130182094Y-106975492D01*
X130306512Y-106350000D01*
X130182094Y-105724508D01*
X129827781Y-105194241D01*
X129362500Y-104883350D01*
X129362500Y-98909270D01*
X129810885Y-98460885D01*
X129967503Y-98226489D01*
X130022501Y-97950000D01*
X130022500Y-97949995D01*
X130022500Y-97543206D01*
X130235317Y-97503162D01*
X130451441Y-97364090D01*
X130596431Y-97151890D01*
X130647440Y-96900000D01*
X130647440Y-96600000D01*
X130627933Y-96496329D01*
X130647440Y-96400000D01*
X130647440Y-96100000D01*
X130634020Y-96028677D01*
X130635000Y-96026310D01*
X130635000Y-95983750D01*
X130623379Y-95972129D01*
X130603162Y-95864683D01*
X130529380Y-95750022D01*
X130596431Y-95651890D01*
X130621080Y-95530170D01*
X130635000Y-95516250D01*
X130635000Y-95473690D01*
X130633333Y-95469665D01*
X130647440Y-95400000D01*
X130647440Y-95100000D01*
X130634020Y-95028677D01*
X130635000Y-95026310D01*
X130635000Y-94983750D01*
X130623379Y-94972129D01*
X130603162Y-94864683D01*
X130479204Y-94672046D01*
X130635000Y-94516250D01*
X130635000Y-94473690D01*
X130538327Y-94240301D01*
X130359698Y-94061673D01*
X130126309Y-93965000D01*
X129585750Y-93965000D01*
X129427000Y-94123750D01*
X129427000Y-94452560D01*
X129173000Y-94452560D01*
X129173000Y-94123750D01*
X129014250Y-93965000D01*
X128473691Y-93965000D01*
X128240302Y-94061673D01*
X128061673Y-94240301D01*
X127965000Y-94473690D01*
X127965000Y-94516250D01*
X128122621Y-94673871D01*
X128003569Y-94848110D01*
X127978920Y-94969830D01*
X127965000Y-94983750D01*
X127965000Y-95026310D01*
X127966667Y-95030335D01*
X127952560Y-95100000D01*
X127952560Y-95400000D01*
X127965980Y-95471323D01*
X127965000Y-95473690D01*
X127965000Y-95516250D01*
X127976250Y-95527500D01*
X127794163Y-95527500D01*
X127517674Y-95582497D01*
X127283278Y-95739115D01*
X127283276Y-95739118D01*
X125589115Y-97433278D01*
X125432497Y-97667674D01*
X125377500Y-97944163D01*
X125377500Y-104703070D01*
X125100510Y-104703070D01*
X124865193Y-104747348D01*
X124649069Y-104886420D01*
X124504079Y-105098620D01*
X124453070Y-105350510D01*
X124453070Y-107349490D01*
X124497348Y-107584807D01*
X124636420Y-107800931D01*
X124848620Y-107945921D01*
X125100510Y-107996930D01*
X125317322Y-107996930D01*
X125095991Y-108217875D01*
X124915206Y-108653255D01*
X124914794Y-109124677D01*
X124983104Y-109290000D01*
X123569930Y-109290000D01*
X123394345Y-109255074D01*
X123304774Y-109195225D01*
X123244926Y-109105655D01*
X123210000Y-108930070D01*
X123210000Y-89663403D01*
X125414682Y-89663403D01*
X125693455Y-90338086D01*
X126209199Y-90854730D01*
X126883395Y-91134681D01*
X127613403Y-91135318D01*
X128288086Y-90856545D01*
X128804730Y-90340801D01*
X129084681Y-89666605D01*
X129085318Y-88936597D01*
X128806545Y-88261914D01*
X128290801Y-87745270D01*
X128025242Y-87635000D01*
X128576310Y-87635000D01*
X128809699Y-87538327D01*
X128988327Y-87359698D01*
X129085000Y-87126309D01*
X129085000Y-86085750D01*
X128926250Y-85927000D01*
X127377000Y-85927000D01*
X127377000Y-85947000D01*
X127123000Y-85947000D01*
X127123000Y-85927000D01*
X125573750Y-85927000D01*
X125415000Y-86085750D01*
X125415000Y-87126309D01*
X125511673Y-87359698D01*
X125690301Y-87538327D01*
X125923690Y-87635000D01*
X126474395Y-87635000D01*
X126211914Y-87743455D01*
X125695270Y-88259199D01*
X125415319Y-88933395D01*
X125414682Y-89663403D01*
X123210000Y-89663403D01*
X123210000Y-84473691D01*
X125415000Y-84473691D01*
X125415000Y-85514250D01*
X125573750Y-85673000D01*
X127123000Y-85673000D01*
X127123000Y-84123750D01*
X127377000Y-84123750D01*
X127377000Y-85673000D01*
X128926250Y-85673000D01*
X129085000Y-85514250D01*
X129085000Y-84473691D01*
X128988327Y-84240302D01*
X128809699Y-84061673D01*
X128576310Y-83965000D01*
X127535750Y-83965000D01*
X127377000Y-84123750D01*
X127123000Y-84123750D01*
X126964250Y-83965000D01*
X125923690Y-83965000D01*
X125690301Y-84061673D01*
X125511673Y-84240302D01*
X125415000Y-84473691D01*
X123210000Y-84473691D01*
X123210000Y-81275481D01*
X123473255Y-81384794D01*
X123944677Y-81385206D01*
X124380372Y-81205180D01*
X124714009Y-80872125D01*
X124733498Y-80825189D01*
X124739928Y-80857514D01*
X125094241Y-81387781D01*
X125624508Y-81742094D01*
X126250000Y-81866512D01*
X126875492Y-81742094D01*
X127405759Y-81387781D01*
X127674889Y-80985000D01*
X156197248Y-80985000D01*
X156497655Y-80925245D01*
X156752327Y-80755079D01*
X160666937Y-76840469D01*
X160718039Y-77097378D01*
G36*
X158310846Y-94976057D02*
X158445903Y-95302920D01*
X158695764Y-95553218D01*
X159022391Y-95688846D01*
X159376057Y-95689154D01*
X159702920Y-95554097D01*
X159784660Y-95472500D01*
X159965493Y-95472500D01*
X159965000Y-95473690D01*
X159965000Y-95516250D01*
X159976621Y-95527871D01*
X159994520Y-95622998D01*
X159965000Y-95622998D01*
X159965000Y-95705115D01*
X159914115Y-95739115D01*
X157789115Y-97864115D01*
X157632497Y-98098511D01*
X157577500Y-98375000D01*
X157577500Y-104703070D01*
X157300510Y-104703070D01*
X157065193Y-104747348D01*
X156849069Y-104886420D01*
X156704079Y-105098620D01*
X156653070Y-105350510D01*
X156653070Y-107349490D01*
X156697348Y-107584807D01*
X156836420Y-107800931D01*
X157048620Y-107945921D01*
X157300510Y-107996930D01*
X157517322Y-107996930D01*
X157295991Y-108217875D01*
X157115206Y-108653255D01*
X157114794Y-109124677D01*
X157183104Y-109290000D01*
X153957005Y-109290000D01*
X154024794Y-109126745D01*
X154025206Y-108655323D01*
X153845180Y-108219628D01*
X153512125Y-107885991D01*
X153465189Y-107866502D01*
X153497514Y-107860072D01*
X154027781Y-107505759D01*
X154382094Y-106975492D01*
X154506512Y-106350000D01*
X154382094Y-105724508D01*
X154027781Y-105194241D01*
X153562500Y-104883350D01*
X153562500Y-102169468D01*
X153507503Y-101892979D01*
X153350885Y-101658583D01*
X153350882Y-101658581D01*
X152021951Y-100329649D01*
X152021951Y-99135000D01*
X152464250Y-99135000D01*
X152623000Y-98976250D01*
X152623000Y-98127000D01*
X152877000Y-98127000D01*
X152877000Y-98976250D01*
X153035750Y-99135000D01*
X153501310Y-99135000D01*
X153734699Y-99038327D01*
X153913327Y-98859698D01*
X154010000Y-98626309D01*
X154010000Y-98285750D01*
X153851250Y-98127000D01*
X152877000Y-98127000D01*
X152623000Y-98127000D01*
X152603000Y-98127000D01*
X152603000Y-97873000D01*
X152623000Y-97873000D01*
X152623000Y-97853000D01*
X152877000Y-97853000D01*
X152877000Y-97873000D01*
X153851250Y-97873000D01*
X154010000Y-97714250D01*
X154010000Y-97373691D01*
X153913327Y-97140302D01*
X153772090Y-96999064D01*
X153826441Y-96964090D01*
X153948808Y-96785000D01*
X154674842Y-96785000D01*
X154815000Y-96925158D01*
X154815000Y-97956657D01*
X154705156Y-98221192D01*
X154704845Y-98577245D01*
X154840814Y-98906314D01*
X155092361Y-99158302D01*
X155421192Y-99294844D01*
X155777245Y-99295155D01*
X156106314Y-99159186D01*
X156358302Y-98907639D01*
X156494844Y-98578808D01*
X156495155Y-98222755D01*
X156385000Y-97956160D01*
X156385000Y-96600000D01*
X156362188Y-96485317D01*
X156325245Y-96299593D01*
X156155079Y-96044921D01*
X155555079Y-95444921D01*
X155300407Y-95274755D01*
X155000000Y-95215000D01*
X153946192Y-95215000D01*
X153839090Y-95048559D01*
X153626890Y-94903569D01*
X153523539Y-94882640D01*
X158310927Y-94882640D01*
X158310846Y-94976057D01*
X158310846Y-94976057D01*
G37*
X158310846Y-94976057D02*
X158445903Y-95302920D01*
X158695764Y-95553218D01*
X159022391Y-95688846D01*
X159376057Y-95689154D01*
X159702920Y-95554097D01*
X159784660Y-95472500D01*
X159965493Y-95472500D01*
X159965000Y-95473690D01*
X159965000Y-95516250D01*
X159976621Y-95527871D01*
X159994520Y-95622998D01*
X159965000Y-95622998D01*
X159965000Y-95705115D01*
X159914115Y-95739115D01*
X157789115Y-97864115D01*
X157632497Y-98098511D01*
X157577500Y-98375000D01*
X157577500Y-104703070D01*
X157300510Y-104703070D01*
X157065193Y-104747348D01*
X156849069Y-104886420D01*
X156704079Y-105098620D01*
X156653070Y-105350510D01*
X156653070Y-107349490D01*
X156697348Y-107584807D01*
X156836420Y-107800931D01*
X157048620Y-107945921D01*
X157300510Y-107996930D01*
X157517322Y-107996930D01*
X157295991Y-108217875D01*
X157115206Y-108653255D01*
X157114794Y-109124677D01*
X157183104Y-109290000D01*
X153957005Y-109290000D01*
X154024794Y-109126745D01*
X154025206Y-108655323D01*
X153845180Y-108219628D01*
X153512125Y-107885991D01*
X153465189Y-107866502D01*
X153497514Y-107860072D01*
X154027781Y-107505759D01*
X154382094Y-106975492D01*
X154506512Y-106350000D01*
X154382094Y-105724508D01*
X154027781Y-105194241D01*
X153562500Y-104883350D01*
X153562500Y-102169468D01*
X153507503Y-101892979D01*
X153350885Y-101658583D01*
X153350882Y-101658581D01*
X152021951Y-100329649D01*
X152021951Y-99135000D01*
X152464250Y-99135000D01*
X152623000Y-98976250D01*
X152623000Y-98127000D01*
X152877000Y-98127000D01*
X152877000Y-98976250D01*
X153035750Y-99135000D01*
X153501310Y-99135000D01*
X153734699Y-99038327D01*
X153913327Y-98859698D01*
X154010000Y-98626309D01*
X154010000Y-98285750D01*
X153851250Y-98127000D01*
X152877000Y-98127000D01*
X152623000Y-98127000D01*
X152603000Y-98127000D01*
X152603000Y-97873000D01*
X152623000Y-97873000D01*
X152623000Y-97853000D01*
X152877000Y-97853000D01*
X152877000Y-97873000D01*
X153851250Y-97873000D01*
X154010000Y-97714250D01*
X154010000Y-97373691D01*
X153913327Y-97140302D01*
X153772090Y-96999064D01*
X153826441Y-96964090D01*
X153948808Y-96785000D01*
X154674842Y-96785000D01*
X154815000Y-96925158D01*
X154815000Y-97956657D01*
X154705156Y-98221192D01*
X154704845Y-98577245D01*
X154840814Y-98906314D01*
X155092361Y-99158302D01*
X155421192Y-99294844D01*
X155777245Y-99295155D01*
X156106314Y-99159186D01*
X156358302Y-98907639D01*
X156494844Y-98578808D01*
X156495155Y-98222755D01*
X156385000Y-97956160D01*
X156385000Y-96600000D01*
X156362188Y-96485317D01*
X156325245Y-96299593D01*
X156155079Y-96044921D01*
X155555079Y-95444921D01*
X155300407Y-95274755D01*
X155000000Y-95215000D01*
X153946192Y-95215000D01*
X153839090Y-95048559D01*
X153626890Y-94903569D01*
X153523539Y-94882640D01*
X158310927Y-94882640D01*
X158310846Y-94976057D01*
G36*
X148018167Y-96010882D02*
X148018169Y-96010885D01*
X148252565Y-96167503D01*
X148298438Y-96176628D01*
X148359870Y-96188847D01*
X148372067Y-96253671D01*
X148352560Y-96350000D01*
X148352560Y-96650000D01*
X148372067Y-96753671D01*
X148352560Y-96850000D01*
X148352560Y-97150000D01*
X148396838Y-97385317D01*
X148535910Y-97601441D01*
X148748110Y-97746431D01*
X148977500Y-97792884D01*
X148977500Y-104803777D01*
X148849069Y-104886420D01*
X148704079Y-105098620D01*
X148653070Y-105350510D01*
X148653070Y-107349490D01*
X148697348Y-107584807D01*
X148836420Y-107800931D01*
X149048620Y-107945921D01*
X149300510Y-107996930D01*
X149517322Y-107996930D01*
X149295991Y-108217875D01*
X149115206Y-108653255D01*
X149114794Y-109124677D01*
X149183104Y-109290000D01*
X145957005Y-109290000D01*
X146024794Y-109126745D01*
X146025206Y-108655323D01*
X145845180Y-108219628D01*
X145512125Y-107885991D01*
X145465189Y-107866502D01*
X145497514Y-107860072D01*
X146027781Y-107505759D01*
X146382094Y-106975492D01*
X146506512Y-106350000D01*
X146382094Y-105724508D01*
X146027781Y-105194241D01*
X146022500Y-105190712D01*
X146022500Y-97793206D01*
X146235317Y-97753162D01*
X146451441Y-97614090D01*
X146596431Y-97401890D01*
X146647440Y-97150000D01*
X146647440Y-96850000D01*
X146627933Y-96746329D01*
X146647440Y-96650000D01*
X146647440Y-96350000D01*
X146634020Y-96278677D01*
X146635000Y-96276310D01*
X146635000Y-96233750D01*
X146623379Y-96222129D01*
X146603162Y-96114683D01*
X146529380Y-96000022D01*
X146596431Y-95901890D01*
X146621080Y-95780170D01*
X146635000Y-95766250D01*
X146635000Y-95723690D01*
X146633333Y-95719665D01*
X146647440Y-95650000D01*
X146647440Y-95350000D01*
X146627933Y-95246329D01*
X146647440Y-95150000D01*
X146647440Y-95054294D01*
X147061578Y-95054294D01*
X148018167Y-96010882D01*
X148018167Y-96010882D01*
G37*
X148018167Y-96010882D02*
X148018169Y-96010885D01*
X148252565Y-96167503D01*
X148298438Y-96176628D01*
X148359870Y-96188847D01*
X148372067Y-96253671D01*
X148352560Y-96350000D01*
X148352560Y-96650000D01*
X148372067Y-96753671D01*
X148352560Y-96850000D01*
X148352560Y-97150000D01*
X148396838Y-97385317D01*
X148535910Y-97601441D01*
X148748110Y-97746431D01*
X148977500Y-97792884D01*
X148977500Y-104803777D01*
X148849069Y-104886420D01*
X148704079Y-105098620D01*
X148653070Y-105350510D01*
X148653070Y-107349490D01*
X148697348Y-107584807D01*
X148836420Y-107800931D01*
X149048620Y-107945921D01*
X149300510Y-107996930D01*
X149517322Y-107996930D01*
X149295991Y-108217875D01*
X149115206Y-108653255D01*
X149114794Y-109124677D01*
X149183104Y-109290000D01*
X145957005Y-109290000D01*
X146024794Y-109126745D01*
X146025206Y-108655323D01*
X145845180Y-108219628D01*
X145512125Y-107885991D01*
X145465189Y-107866502D01*
X145497514Y-107860072D01*
X146027781Y-107505759D01*
X146382094Y-106975492D01*
X146506512Y-106350000D01*
X146382094Y-105724508D01*
X146027781Y-105194241D01*
X146022500Y-105190712D01*
X146022500Y-97793206D01*
X146235317Y-97753162D01*
X146451441Y-97614090D01*
X146596431Y-97401890D01*
X146647440Y-97150000D01*
X146647440Y-96850000D01*
X146627933Y-96746329D01*
X146647440Y-96650000D01*
X146647440Y-96350000D01*
X146634020Y-96278677D01*
X146635000Y-96276310D01*
X146635000Y-96233750D01*
X146623379Y-96222129D01*
X146603162Y-96114683D01*
X146529380Y-96000022D01*
X146596431Y-95901890D01*
X146621080Y-95780170D01*
X146635000Y-95766250D01*
X146635000Y-95723690D01*
X146633333Y-95719665D01*
X146647440Y-95650000D01*
X146647440Y-95350000D01*
X146627933Y-95246329D01*
X146647440Y-95150000D01*
X146647440Y-95054294D01*
X147061578Y-95054294D01*
X148018167Y-96010882D01*
G36*
X185127000Y-97623000D02*
X185147000Y-97623000D01*
X185147000Y-97877000D01*
X185127000Y-97877000D01*
X185127000Y-98726250D01*
X185285750Y-98885000D01*
X185751310Y-98885000D01*
X185905156Y-98821275D01*
X185904845Y-99177245D01*
X186040814Y-99506314D01*
X186292361Y-99758302D01*
X186621192Y-99894844D01*
X186790000Y-99894991D01*
X186790000Y-108930070D01*
X186755074Y-109105655D01*
X186695225Y-109195226D01*
X186605655Y-109255074D01*
X186430070Y-109290000D01*
X185957005Y-109290000D01*
X186024794Y-109126745D01*
X186025206Y-108655323D01*
X185845180Y-108219628D01*
X185512125Y-107885991D01*
X185465189Y-107866502D01*
X185497514Y-107860072D01*
X186027781Y-107505759D01*
X186382094Y-106975492D01*
X186506512Y-106350000D01*
X186382094Y-105724508D01*
X186027781Y-105194241D01*
X185562500Y-104883350D01*
X185562500Y-101928764D01*
X185507503Y-101652275D01*
X185350885Y-101417879D01*
X184372633Y-100439627D01*
X184372633Y-98885000D01*
X184714250Y-98885000D01*
X184873000Y-98726250D01*
X184873000Y-97877000D01*
X184853000Y-97877000D01*
X184853000Y-97623000D01*
X184873000Y-97623000D01*
X184873000Y-97603000D01*
X185127000Y-97603000D01*
X185127000Y-97623000D01*
X185127000Y-97623000D01*
G37*
X185127000Y-97623000D02*
X185147000Y-97623000D01*
X185147000Y-97877000D01*
X185127000Y-97877000D01*
X185127000Y-98726250D01*
X185285750Y-98885000D01*
X185751310Y-98885000D01*
X185905156Y-98821275D01*
X185904845Y-99177245D01*
X186040814Y-99506314D01*
X186292361Y-99758302D01*
X186621192Y-99894844D01*
X186790000Y-99894991D01*
X186790000Y-108930070D01*
X186755074Y-109105655D01*
X186695225Y-109195226D01*
X186605655Y-109255074D01*
X186430070Y-109290000D01*
X185957005Y-109290000D01*
X186024794Y-109126745D01*
X186025206Y-108655323D01*
X185845180Y-108219628D01*
X185512125Y-107885991D01*
X185465189Y-107866502D01*
X185497514Y-107860072D01*
X186027781Y-107505759D01*
X186382094Y-106975492D01*
X186506512Y-106350000D01*
X186382094Y-105724508D01*
X186027781Y-105194241D01*
X185562500Y-104883350D01*
X185562500Y-101928764D01*
X185507503Y-101652275D01*
X185350885Y-101417879D01*
X184372633Y-100439627D01*
X184372633Y-98885000D01*
X184714250Y-98885000D01*
X184873000Y-98726250D01*
X184873000Y-97877000D01*
X184853000Y-97877000D01*
X184853000Y-97623000D01*
X184873000Y-97623000D01*
X184873000Y-97603000D01*
X185127000Y-97603000D01*
X185127000Y-97623000D01*
G36*
X143024755Y-95249593D02*
X142987213Y-95438327D01*
X142965000Y-95550000D01*
X142965000Y-95556657D01*
X142855156Y-95821192D01*
X142854845Y-96177245D01*
X142990814Y-96506314D01*
X143042239Y-96557829D01*
X141789115Y-97810953D01*
X141632497Y-98045349D01*
X141577500Y-98321838D01*
X141577500Y-104703070D01*
X141300510Y-104703070D01*
X141065193Y-104747348D01*
X140849069Y-104886420D01*
X140704079Y-105098620D01*
X140653070Y-105350510D01*
X140653070Y-107349490D01*
X140697348Y-107584807D01*
X140836420Y-107800931D01*
X141048620Y-107945921D01*
X141300510Y-107996930D01*
X141517322Y-107996930D01*
X141295991Y-108217875D01*
X141115206Y-108653255D01*
X141114794Y-109124677D01*
X141183104Y-109290000D01*
X137817005Y-109290000D01*
X137884794Y-109126745D01*
X137885206Y-108655323D01*
X137705180Y-108219628D01*
X137372125Y-107885991D01*
X137325189Y-107866502D01*
X137357514Y-107860072D01*
X137887781Y-107505759D01*
X138242094Y-106975492D01*
X138366512Y-106350000D01*
X138242094Y-105724508D01*
X137887781Y-105194241D01*
X137422500Y-104883350D01*
X137422500Y-102071872D01*
X137367503Y-101795383D01*
X137210885Y-101560987D01*
X137210882Y-101560985D01*
X135971274Y-100321376D01*
X135971274Y-98873644D01*
X135998690Y-98885000D01*
X136464250Y-98885000D01*
X136623000Y-98726250D01*
X136623000Y-97877000D01*
X136877000Y-97877000D01*
X136877000Y-98726250D01*
X137035750Y-98885000D01*
X137501310Y-98885000D01*
X137734699Y-98788327D01*
X137913327Y-98609698D01*
X138010000Y-98376309D01*
X138010000Y-98035750D01*
X137851250Y-97877000D01*
X136877000Y-97877000D01*
X136623000Y-97877000D01*
X136603000Y-97877000D01*
X136603000Y-97623000D01*
X136623000Y-97623000D01*
X136623000Y-97603000D01*
X136877000Y-97603000D01*
X136877000Y-97623000D01*
X137851250Y-97623000D01*
X138010000Y-97464250D01*
X138010000Y-97123691D01*
X137913327Y-96890302D01*
X137772090Y-96749064D01*
X137826441Y-96714090D01*
X137914644Y-96585000D01*
X137956657Y-96585000D01*
X138221192Y-96694844D01*
X138577245Y-96695155D01*
X138906314Y-96559186D01*
X139158302Y-96307639D01*
X139294844Y-95978808D01*
X139295155Y-95622755D01*
X139159186Y-95293686D01*
X138920213Y-95054294D01*
X143155249Y-95054294D01*
X143024755Y-95249593D01*
X143024755Y-95249593D01*
G37*
X143024755Y-95249593D02*
X142987213Y-95438327D01*
X142965000Y-95550000D01*
X142965000Y-95556657D01*
X142855156Y-95821192D01*
X142854845Y-96177245D01*
X142990814Y-96506314D01*
X143042239Y-96557829D01*
X141789115Y-97810953D01*
X141632497Y-98045349D01*
X141577500Y-98321838D01*
X141577500Y-104703070D01*
X141300510Y-104703070D01*
X141065193Y-104747348D01*
X140849069Y-104886420D01*
X140704079Y-105098620D01*
X140653070Y-105350510D01*
X140653070Y-107349490D01*
X140697348Y-107584807D01*
X140836420Y-107800931D01*
X141048620Y-107945921D01*
X141300510Y-107996930D01*
X141517322Y-107996930D01*
X141295991Y-108217875D01*
X141115206Y-108653255D01*
X141114794Y-109124677D01*
X141183104Y-109290000D01*
X137817005Y-109290000D01*
X137884794Y-109126745D01*
X137885206Y-108655323D01*
X137705180Y-108219628D01*
X137372125Y-107885991D01*
X137325189Y-107866502D01*
X137357514Y-107860072D01*
X137887781Y-107505759D01*
X138242094Y-106975492D01*
X138366512Y-106350000D01*
X138242094Y-105724508D01*
X137887781Y-105194241D01*
X137422500Y-104883350D01*
X137422500Y-102071872D01*
X137367503Y-101795383D01*
X137210885Y-101560987D01*
X137210882Y-101560985D01*
X135971274Y-100321376D01*
X135971274Y-98873644D01*
X135998690Y-98885000D01*
X136464250Y-98885000D01*
X136623000Y-98726250D01*
X136623000Y-97877000D01*
X136877000Y-97877000D01*
X136877000Y-98726250D01*
X137035750Y-98885000D01*
X137501310Y-98885000D01*
X137734699Y-98788327D01*
X137913327Y-98609698D01*
X138010000Y-98376309D01*
X138010000Y-98035750D01*
X137851250Y-97877000D01*
X136877000Y-97877000D01*
X136623000Y-97877000D01*
X136603000Y-97877000D01*
X136603000Y-97623000D01*
X136623000Y-97623000D01*
X136623000Y-97603000D01*
X136877000Y-97603000D01*
X136877000Y-97623000D01*
X137851250Y-97623000D01*
X138010000Y-97464250D01*
X138010000Y-97123691D01*
X137913327Y-96890302D01*
X137772090Y-96749064D01*
X137826441Y-96714090D01*
X137914644Y-96585000D01*
X137956657Y-96585000D01*
X138221192Y-96694844D01*
X138577245Y-96695155D01*
X138906314Y-96559186D01*
X139158302Y-96307639D01*
X139294844Y-95978808D01*
X139295155Y-95622755D01*
X139159186Y-95293686D01*
X138920213Y-95054294D01*
X143155249Y-95054294D01*
X143024755Y-95249593D01*
G36*
X186605655Y-50744926D02*
X186695225Y-50804774D01*
X186755074Y-50894345D01*
X186790000Y-51069930D01*
X186790000Y-95428437D01*
X186556484Y-95194921D01*
X186301812Y-95024755D01*
X186224784Y-95009433D01*
X186089090Y-94798559D01*
X185876890Y-94653569D01*
X185625000Y-94602560D01*
X184397680Y-94602560D01*
X184354097Y-94497080D01*
X184104236Y-94246782D01*
X183777609Y-94111154D01*
X183423943Y-94110846D01*
X183120502Y-94236225D01*
X183064090Y-94148559D01*
X182851890Y-94003569D01*
X182600000Y-93952560D01*
X181200000Y-93952560D01*
X180964683Y-93996838D01*
X180917033Y-94027500D01*
X180870014Y-94027500D01*
X179957156Y-93114641D01*
X179722760Y-92958023D01*
X179446271Y-92903026D01*
X164516601Y-92903026D01*
X164617503Y-92752015D01*
X164632526Y-92676489D01*
X164672501Y-92475526D01*
X164672500Y-92475521D01*
X164672500Y-85764887D01*
X164751441Y-85714090D01*
X164896431Y-85501890D01*
X164947440Y-85250000D01*
X164947440Y-85136573D01*
X164985885Y-85110885D01*
X170220885Y-79875885D01*
X170377503Y-79641489D01*
X170432500Y-79365000D01*
X170432500Y-77798011D01*
X170760054Y-77579147D01*
X170980000Y-77249974D01*
X171199946Y-77579147D01*
X171681715Y-77901054D01*
X172250000Y-78014093D01*
X172818285Y-77901054D01*
X173300054Y-77579147D01*
X173520000Y-77249974D01*
X173739946Y-77579147D01*
X174221715Y-77901054D01*
X174790000Y-78014093D01*
X175358285Y-77901054D01*
X175840054Y-77579147D01*
X176060000Y-77249974D01*
X176279946Y-77579147D01*
X176761715Y-77901054D01*
X177330000Y-78014093D01*
X177898285Y-77901054D01*
X178380054Y-77579147D01*
X178407850Y-77537548D01*
X178416838Y-77585317D01*
X178555910Y-77801441D01*
X178768110Y-77946431D01*
X179020000Y-77997440D01*
X180720000Y-77997440D01*
X180955317Y-77953162D01*
X181171441Y-77814090D01*
X181316431Y-77601890D01*
X181367440Y-77350000D01*
X181367440Y-75650000D01*
X181323162Y-75414683D01*
X181184090Y-75198559D01*
X180971890Y-75053569D01*
X180720000Y-75002560D01*
X180592500Y-75002560D01*
X180592500Y-69949945D01*
X180592501Y-69949940D01*
X180537503Y-69673451D01*
X180380885Y-69439055D01*
X176347262Y-65405432D01*
X176347300Y-65362029D01*
X176212243Y-65035166D01*
X175962382Y-64784868D01*
X175635755Y-64649240D01*
X175282089Y-64648932D01*
X174955226Y-64783989D01*
X174704928Y-65033850D01*
X174569300Y-65360477D01*
X174568992Y-65714143D01*
X174704049Y-66041006D01*
X174953910Y-66291304D01*
X175280537Y-66426932D01*
X175325261Y-66426971D01*
X179147500Y-70249210D01*
X179147500Y-75002560D01*
X179020000Y-75002560D01*
X178784683Y-75046838D01*
X178568559Y-75185910D01*
X178423569Y-75398110D01*
X178409914Y-75465541D01*
X178380054Y-75420853D01*
X177898285Y-75098946D01*
X177330000Y-74985907D01*
X176761715Y-75098946D01*
X176279946Y-75420853D01*
X176060000Y-75750026D01*
X175840054Y-75420853D01*
X175358285Y-75098946D01*
X174790000Y-74985907D01*
X174221715Y-75098946D01*
X173739946Y-75420853D01*
X173520000Y-75750026D01*
X173300054Y-75420853D01*
X172818285Y-75098946D01*
X172250000Y-74985907D01*
X171681715Y-75098946D01*
X171199946Y-75420853D01*
X170980000Y-75750026D01*
X170760054Y-75420853D01*
X170278285Y-75098946D01*
X169710000Y-74985907D01*
X169141715Y-75098946D01*
X168659946Y-75420853D01*
X168440000Y-75750026D01*
X168220054Y-75420853D01*
X167738285Y-75098946D01*
X167170000Y-74985907D01*
X166601715Y-75098946D01*
X166119946Y-75420853D01*
X165892298Y-75761553D01*
X165825183Y-75618642D01*
X165396924Y-75228355D01*
X164986890Y-75058524D01*
X164757000Y-75179845D01*
X164757000Y-76373000D01*
X164777000Y-76373000D01*
X164777000Y-76627000D01*
X164757000Y-76627000D01*
X164757000Y-77820155D01*
X164986890Y-77941476D01*
X165396924Y-77771645D01*
X165825183Y-77381358D01*
X165892298Y-77238447D01*
X166119946Y-77579147D01*
X166447500Y-77798011D01*
X166447500Y-78605731D01*
X164639678Y-80413552D01*
X164551890Y-80353569D01*
X164300000Y-80302560D01*
X163600000Y-80302560D01*
X163364683Y-80346838D01*
X163148559Y-80485910D01*
X163003569Y-80698110D01*
X163000919Y-80711197D01*
X162875000Y-80515514D01*
X162875000Y-77756250D01*
X163140054Y-77579147D01*
X163367702Y-77238447D01*
X163434817Y-77381358D01*
X163863076Y-77771645D01*
X164273110Y-77941476D01*
X164503000Y-77820155D01*
X164503000Y-76627000D01*
X164483000Y-76627000D01*
X164483000Y-76373000D01*
X164503000Y-76373000D01*
X164503000Y-75179845D01*
X164273110Y-75058524D01*
X163863076Y-75228355D01*
X163434817Y-75618642D01*
X163367702Y-75761553D01*
X163140054Y-75420853D01*
X162658285Y-75098946D01*
X162449909Y-75057497D01*
X166725906Y-70781500D01*
X171854060Y-70781500D01*
X171854060Y-72178500D01*
X171898338Y-72413817D01*
X172037410Y-72629941D01*
X172249610Y-72774931D01*
X172501500Y-72825940D01*
X173898500Y-72825940D01*
X174133817Y-72781662D01*
X174349941Y-72642590D01*
X174494931Y-72430390D01*
X174545940Y-72178500D01*
X174545940Y-70781500D01*
X174501662Y-70546183D01*
X174362590Y-70330059D01*
X174150390Y-70185069D01*
X173898500Y-70134060D01*
X173802116Y-70134060D01*
X173954380Y-70071146D01*
X174329827Y-69696353D01*
X174533268Y-69206413D01*
X174533731Y-68675914D01*
X174331146Y-68185620D01*
X173956353Y-67810173D01*
X173634882Y-67676686D01*
X173892929Y-67569800D01*
X173954583Y-67334188D01*
X173200000Y-66579605D01*
X172445417Y-67334188D01*
X172507071Y-67569800D01*
X172786312Y-67668083D01*
X172445620Y-67808854D01*
X172070173Y-68183647D01*
X171866732Y-68673587D01*
X171866269Y-69204086D01*
X172068854Y-69694380D01*
X172443647Y-70069827D01*
X172598337Y-70134060D01*
X172501500Y-70134060D01*
X172266183Y-70178338D01*
X172050059Y-70317410D01*
X171905069Y-70529610D01*
X171854060Y-70781500D01*
X166725906Y-70781500D01*
X168239525Y-69267881D01*
X168409691Y-69013209D01*
X168469446Y-68712802D01*
X168469446Y-66207480D01*
X171854073Y-66207480D01*
X171882852Y-66737199D01*
X172030200Y-67092929D01*
X172265812Y-67154583D01*
X173020395Y-66400000D01*
X173379605Y-66400000D01*
X174134188Y-67154583D01*
X174369800Y-67092929D01*
X174545927Y-66592520D01*
X174517148Y-66062801D01*
X174369800Y-65707071D01*
X174134188Y-65645417D01*
X173379605Y-66400000D01*
X173020395Y-66400000D01*
X172265812Y-65645417D01*
X172030200Y-65707071D01*
X171854073Y-66207480D01*
X168469446Y-66207480D01*
X168469446Y-65580712D01*
X168584346Y-65465812D01*
X172445417Y-65465812D01*
X173200000Y-66220395D01*
X173954583Y-65465812D01*
X173892929Y-65230200D01*
X173392520Y-65054073D01*
X172862801Y-65082852D01*
X172507071Y-65230200D01*
X172445417Y-65465812D01*
X168584346Y-65465812D01*
X171854060Y-62196098D01*
X171854060Y-62978500D01*
X171898338Y-63213817D01*
X172037410Y-63429941D01*
X172249610Y-63574931D01*
X172501500Y-63625940D01*
X173898500Y-63625940D01*
X174133817Y-63581662D01*
X174349941Y-63442590D01*
X174494931Y-63230390D01*
X174545940Y-62978500D01*
X174545940Y-62196098D01*
X177564921Y-65215079D01*
X177819594Y-65385245D01*
X178120000Y-65445000D01*
X182353070Y-65445000D01*
X182353070Y-65659490D01*
X182397348Y-65894807D01*
X182536420Y-66110931D01*
X182748620Y-66255921D01*
X183000510Y-66306930D01*
X184999490Y-66306930D01*
X185234807Y-66262652D01*
X185450931Y-66123580D01*
X185595921Y-65911380D01*
X185646930Y-65659490D01*
X185646930Y-63660510D01*
X185602652Y-63425193D01*
X185463580Y-63209069D01*
X185302351Y-63098906D01*
X185323068Y-63079726D01*
X185589627Y-62500355D01*
X185470807Y-62247000D01*
X184127000Y-62247000D01*
X184127000Y-62267000D01*
X183873000Y-62267000D01*
X183873000Y-62247000D01*
X182529193Y-62247000D01*
X182410373Y-62500355D01*
X182676932Y-63079726D01*
X182698863Y-63100030D01*
X182549069Y-63196420D01*
X182404079Y-63408620D01*
X182353070Y-63660510D01*
X182353070Y-63875000D01*
X178445158Y-63875000D01*
X175095158Y-60525000D01*
X176110000Y-60525000D01*
X176410407Y-60465245D01*
X176665079Y-60295079D01*
X179305079Y-57655079D01*
X179450119Y-57438009D01*
X179635317Y-57403162D01*
X179851441Y-57264090D01*
X179996431Y-57051890D01*
X180047440Y-56800000D01*
X180047440Y-56100000D01*
X180003162Y-55864683D01*
X179864090Y-55648559D01*
X179651890Y-55503569D01*
X179638803Y-55500919D01*
X179851441Y-55364090D01*
X179914022Y-55272500D01*
X182566759Y-55272500D01*
X182844241Y-55687781D01*
X182967290Y-55770000D01*
X182844241Y-55852219D01*
X182489928Y-56382486D01*
X182365510Y-57007978D01*
X182365510Y-57072022D01*
X182489928Y-57697514D01*
X182844241Y-58227781D01*
X182967290Y-58310000D01*
X182844241Y-58392219D01*
X182489928Y-58922486D01*
X182365510Y-59547978D01*
X182365510Y-59612022D01*
X182489928Y-60237514D01*
X182844241Y-60767781D01*
X182993300Y-60867379D01*
X182676932Y-61160274D01*
X182410373Y-61739645D01*
X182529193Y-61993000D01*
X183873000Y-61993000D01*
X183873000Y-61973000D01*
X184127000Y-61973000D01*
X184127000Y-61993000D01*
X185470807Y-61993000D01*
X185589627Y-61739645D01*
X185323068Y-61160274D01*
X185006700Y-60867379D01*
X185155759Y-60767781D01*
X185510072Y-60237514D01*
X185634490Y-59612022D01*
X185634490Y-59547978D01*
X185510072Y-58922486D01*
X185155759Y-58392219D01*
X185032710Y-58310000D01*
X185155759Y-58227781D01*
X185510072Y-57697514D01*
X185634490Y-57072022D01*
X185634490Y-57007978D01*
X185510072Y-56382486D01*
X185155759Y-55852219D01*
X185032710Y-55770000D01*
X185155759Y-55687781D01*
X185510072Y-55157514D01*
X185634490Y-54532022D01*
X185634490Y-54467978D01*
X185510072Y-53842486D01*
X185155759Y-53312219D01*
X185032710Y-53230000D01*
X185155759Y-53147781D01*
X185510072Y-52617514D01*
X185634490Y-51992022D01*
X185634490Y-51927978D01*
X185510072Y-51302486D01*
X185155759Y-50772219D01*
X185062642Y-50710000D01*
X186430070Y-50710000D01*
X186605655Y-50744926D01*
X186605655Y-50744926D01*
G37*
X186605655Y-50744926D02*
X186695225Y-50804774D01*
X186755074Y-50894345D01*
X186790000Y-51069930D01*
X186790000Y-95428437D01*
X186556484Y-95194921D01*
X186301812Y-95024755D01*
X186224784Y-95009433D01*
X186089090Y-94798559D01*
X185876890Y-94653569D01*
X185625000Y-94602560D01*
X184397680Y-94602560D01*
X184354097Y-94497080D01*
X184104236Y-94246782D01*
X183777609Y-94111154D01*
X183423943Y-94110846D01*
X183120502Y-94236225D01*
X183064090Y-94148559D01*
X182851890Y-94003569D01*
X182600000Y-93952560D01*
X181200000Y-93952560D01*
X180964683Y-93996838D01*
X180917033Y-94027500D01*
X180870014Y-94027500D01*
X179957156Y-93114641D01*
X179722760Y-92958023D01*
X179446271Y-92903026D01*
X164516601Y-92903026D01*
X164617503Y-92752015D01*
X164632526Y-92676489D01*
X164672501Y-92475526D01*
X164672500Y-92475521D01*
X164672500Y-85764887D01*
X164751441Y-85714090D01*
X164896431Y-85501890D01*
X164947440Y-85250000D01*
X164947440Y-85136573D01*
X164985885Y-85110885D01*
X170220885Y-79875885D01*
X170377503Y-79641489D01*
X170432500Y-79365000D01*
X170432500Y-77798011D01*
X170760054Y-77579147D01*
X170980000Y-77249974D01*
X171199946Y-77579147D01*
X171681715Y-77901054D01*
X172250000Y-78014093D01*
X172818285Y-77901054D01*
X173300054Y-77579147D01*
X173520000Y-77249974D01*
X173739946Y-77579147D01*
X174221715Y-77901054D01*
X174790000Y-78014093D01*
X175358285Y-77901054D01*
X175840054Y-77579147D01*
X176060000Y-77249974D01*
X176279946Y-77579147D01*
X176761715Y-77901054D01*
X177330000Y-78014093D01*
X177898285Y-77901054D01*
X178380054Y-77579147D01*
X178407850Y-77537548D01*
X178416838Y-77585317D01*
X178555910Y-77801441D01*
X178768110Y-77946431D01*
X179020000Y-77997440D01*
X180720000Y-77997440D01*
X180955317Y-77953162D01*
X181171441Y-77814090D01*
X181316431Y-77601890D01*
X181367440Y-77350000D01*
X181367440Y-75650000D01*
X181323162Y-75414683D01*
X181184090Y-75198559D01*
X180971890Y-75053569D01*
X180720000Y-75002560D01*
X180592500Y-75002560D01*
X180592500Y-69949945D01*
X180592501Y-69949940D01*
X180537503Y-69673451D01*
X180380885Y-69439055D01*
X176347262Y-65405432D01*
X176347300Y-65362029D01*
X176212243Y-65035166D01*
X175962382Y-64784868D01*
X175635755Y-64649240D01*
X175282089Y-64648932D01*
X174955226Y-64783989D01*
X174704928Y-65033850D01*
X174569300Y-65360477D01*
X174568992Y-65714143D01*
X174704049Y-66041006D01*
X174953910Y-66291304D01*
X175280537Y-66426932D01*
X175325261Y-66426971D01*
X179147500Y-70249210D01*
X179147500Y-75002560D01*
X179020000Y-75002560D01*
X178784683Y-75046838D01*
X178568559Y-75185910D01*
X178423569Y-75398110D01*
X178409914Y-75465541D01*
X178380054Y-75420853D01*
X177898285Y-75098946D01*
X177330000Y-74985907D01*
X176761715Y-75098946D01*
X176279946Y-75420853D01*
X176060000Y-75750026D01*
X175840054Y-75420853D01*
X175358285Y-75098946D01*
X174790000Y-74985907D01*
X174221715Y-75098946D01*
X173739946Y-75420853D01*
X173520000Y-75750026D01*
X173300054Y-75420853D01*
X172818285Y-75098946D01*
X172250000Y-74985907D01*
X171681715Y-75098946D01*
X171199946Y-75420853D01*
X170980000Y-75750026D01*
X170760054Y-75420853D01*
X170278285Y-75098946D01*
X169710000Y-74985907D01*
X169141715Y-75098946D01*
X168659946Y-75420853D01*
X168440000Y-75750026D01*
X168220054Y-75420853D01*
X167738285Y-75098946D01*
X167170000Y-74985907D01*
X166601715Y-75098946D01*
X166119946Y-75420853D01*
X165892298Y-75761553D01*
X165825183Y-75618642D01*
X165396924Y-75228355D01*
X164986890Y-75058524D01*
X164757000Y-75179845D01*
X164757000Y-76373000D01*
X164777000Y-76373000D01*
X164777000Y-76627000D01*
X164757000Y-76627000D01*
X164757000Y-77820155D01*
X164986890Y-77941476D01*
X165396924Y-77771645D01*
X165825183Y-77381358D01*
X165892298Y-77238447D01*
X166119946Y-77579147D01*
X166447500Y-77798011D01*
X166447500Y-78605731D01*
X164639678Y-80413552D01*
X164551890Y-80353569D01*
X164300000Y-80302560D01*
X163600000Y-80302560D01*
X163364683Y-80346838D01*
X163148559Y-80485910D01*
X163003569Y-80698110D01*
X163000919Y-80711197D01*
X162875000Y-80515514D01*
X162875000Y-77756250D01*
X163140054Y-77579147D01*
X163367702Y-77238447D01*
X163434817Y-77381358D01*
X163863076Y-77771645D01*
X164273110Y-77941476D01*
X164503000Y-77820155D01*
X164503000Y-76627000D01*
X164483000Y-76627000D01*
X164483000Y-76373000D01*
X164503000Y-76373000D01*
X164503000Y-75179845D01*
X164273110Y-75058524D01*
X163863076Y-75228355D01*
X163434817Y-75618642D01*
X163367702Y-75761553D01*
X163140054Y-75420853D01*
X162658285Y-75098946D01*
X162449909Y-75057497D01*
X166725906Y-70781500D01*
X171854060Y-70781500D01*
X171854060Y-72178500D01*
X171898338Y-72413817D01*
X172037410Y-72629941D01*
X172249610Y-72774931D01*
X172501500Y-72825940D01*
X173898500Y-72825940D01*
X174133817Y-72781662D01*
X174349941Y-72642590D01*
X174494931Y-72430390D01*
X174545940Y-72178500D01*
X174545940Y-70781500D01*
X174501662Y-70546183D01*
X174362590Y-70330059D01*
X174150390Y-70185069D01*
X173898500Y-70134060D01*
X173802116Y-70134060D01*
X173954380Y-70071146D01*
X174329827Y-69696353D01*
X174533268Y-69206413D01*
X174533731Y-68675914D01*
X174331146Y-68185620D01*
X173956353Y-67810173D01*
X173634882Y-67676686D01*
X173892929Y-67569800D01*
X173954583Y-67334188D01*
X173200000Y-66579605D01*
X172445417Y-67334188D01*
X172507071Y-67569800D01*
X172786312Y-67668083D01*
X172445620Y-67808854D01*
X172070173Y-68183647D01*
X171866732Y-68673587D01*
X171866269Y-69204086D01*
X172068854Y-69694380D01*
X172443647Y-70069827D01*
X172598337Y-70134060D01*
X172501500Y-70134060D01*
X172266183Y-70178338D01*
X172050059Y-70317410D01*
X171905069Y-70529610D01*
X171854060Y-70781500D01*
X166725906Y-70781500D01*
X168239525Y-69267881D01*
X168409691Y-69013209D01*
X168469446Y-68712802D01*
X168469446Y-66207480D01*
X171854073Y-66207480D01*
X171882852Y-66737199D01*
X172030200Y-67092929D01*
X172265812Y-67154583D01*
X173020395Y-66400000D01*
X173379605Y-66400000D01*
X174134188Y-67154583D01*
X174369800Y-67092929D01*
X174545927Y-66592520D01*
X174517148Y-66062801D01*
X174369800Y-65707071D01*
X174134188Y-65645417D01*
X173379605Y-66400000D01*
X173020395Y-66400000D01*
X172265812Y-65645417D01*
X172030200Y-65707071D01*
X171854073Y-66207480D01*
X168469446Y-66207480D01*
X168469446Y-65580712D01*
X168584346Y-65465812D01*
X172445417Y-65465812D01*
X173200000Y-66220395D01*
X173954583Y-65465812D01*
X173892929Y-65230200D01*
X173392520Y-65054073D01*
X172862801Y-65082852D01*
X172507071Y-65230200D01*
X172445417Y-65465812D01*
X168584346Y-65465812D01*
X171854060Y-62196098D01*
X171854060Y-62978500D01*
X171898338Y-63213817D01*
X172037410Y-63429941D01*
X172249610Y-63574931D01*
X172501500Y-63625940D01*
X173898500Y-63625940D01*
X174133817Y-63581662D01*
X174349941Y-63442590D01*
X174494931Y-63230390D01*
X174545940Y-62978500D01*
X174545940Y-62196098D01*
X177564921Y-65215079D01*
X177819594Y-65385245D01*
X178120000Y-65445000D01*
X182353070Y-65445000D01*
X182353070Y-65659490D01*
X182397348Y-65894807D01*
X182536420Y-66110931D01*
X182748620Y-66255921D01*
X183000510Y-66306930D01*
X184999490Y-66306930D01*
X185234807Y-66262652D01*
X185450931Y-66123580D01*
X185595921Y-65911380D01*
X185646930Y-65659490D01*
X185646930Y-63660510D01*
X185602652Y-63425193D01*
X185463580Y-63209069D01*
X185302351Y-63098906D01*
X185323068Y-63079726D01*
X185589627Y-62500355D01*
X185470807Y-62247000D01*
X184127000Y-62247000D01*
X184127000Y-62267000D01*
X183873000Y-62267000D01*
X183873000Y-62247000D01*
X182529193Y-62247000D01*
X182410373Y-62500355D01*
X182676932Y-63079726D01*
X182698863Y-63100030D01*
X182549069Y-63196420D01*
X182404079Y-63408620D01*
X182353070Y-63660510D01*
X182353070Y-63875000D01*
X178445158Y-63875000D01*
X175095158Y-60525000D01*
X176110000Y-60525000D01*
X176410407Y-60465245D01*
X176665079Y-60295079D01*
X179305079Y-57655079D01*
X179450119Y-57438009D01*
X179635317Y-57403162D01*
X179851441Y-57264090D01*
X179996431Y-57051890D01*
X180047440Y-56800000D01*
X180047440Y-56100000D01*
X180003162Y-55864683D01*
X179864090Y-55648559D01*
X179651890Y-55503569D01*
X179638803Y-55500919D01*
X179851441Y-55364090D01*
X179914022Y-55272500D01*
X182566759Y-55272500D01*
X182844241Y-55687781D01*
X182967290Y-55770000D01*
X182844241Y-55852219D01*
X182489928Y-56382486D01*
X182365510Y-57007978D01*
X182365510Y-57072022D01*
X182489928Y-57697514D01*
X182844241Y-58227781D01*
X182967290Y-58310000D01*
X182844241Y-58392219D01*
X182489928Y-58922486D01*
X182365510Y-59547978D01*
X182365510Y-59612022D01*
X182489928Y-60237514D01*
X182844241Y-60767781D01*
X182993300Y-60867379D01*
X182676932Y-61160274D01*
X182410373Y-61739645D01*
X182529193Y-61993000D01*
X183873000Y-61993000D01*
X183873000Y-61973000D01*
X184127000Y-61973000D01*
X184127000Y-61993000D01*
X185470807Y-61993000D01*
X185589627Y-61739645D01*
X185323068Y-61160274D01*
X185006700Y-60867379D01*
X185155759Y-60767781D01*
X185510072Y-60237514D01*
X185634490Y-59612022D01*
X185634490Y-59547978D01*
X185510072Y-58922486D01*
X185155759Y-58392219D01*
X185032710Y-58310000D01*
X185155759Y-58227781D01*
X185510072Y-57697514D01*
X185634490Y-57072022D01*
X185634490Y-57007978D01*
X185510072Y-56382486D01*
X185155759Y-55852219D01*
X185032710Y-55770000D01*
X185155759Y-55687781D01*
X185510072Y-55157514D01*
X185634490Y-54532022D01*
X185634490Y-54467978D01*
X185510072Y-53842486D01*
X185155759Y-53312219D01*
X185032710Y-53230000D01*
X185155759Y-53147781D01*
X185510072Y-52617514D01*
X185634490Y-51992022D01*
X185634490Y-51927978D01*
X185510072Y-51302486D01*
X185155759Y-50772219D01*
X185062642Y-50710000D01*
X186430070Y-50710000D01*
X186605655Y-50744926D01*
G36*
X159082498Y-51373000D02*
X160673000Y-51373000D01*
X160673000Y-51353000D01*
X160927000Y-51353000D01*
X160927000Y-51373000D01*
X162517502Y-51373000D01*
X162546075Y-51335400D01*
X165497836Y-51335400D01*
X165369946Y-51420853D01*
X165048039Y-51902622D01*
X164935000Y-52470907D01*
X164935000Y-52529093D01*
X165048039Y-53097378D01*
X165369946Y-53579147D01*
X165851715Y-53901054D01*
X166420000Y-54014093D01*
X166988285Y-53901054D01*
X167470054Y-53579147D01*
X167690000Y-53249974D01*
X167909946Y-53579147D01*
X168391715Y-53901054D01*
X168960000Y-54014093D01*
X169447286Y-53917166D01*
X169447286Y-56772286D01*
X169507041Y-57072693D01*
X169677207Y-57327365D01*
X171304842Y-58955000D01*
X169410000Y-58955000D01*
X169109593Y-59014755D01*
X168854921Y-59184921D01*
X166337282Y-61702560D01*
X166169180Y-61702560D01*
X164345736Y-59879115D01*
X164111340Y-59722497D01*
X163834851Y-59667500D01*
X162550946Y-59667500D01*
X162639338Y-59535212D01*
X162721929Y-59120000D01*
X162639338Y-58704788D01*
X162550946Y-58572500D01*
X163922889Y-58572500D01*
X163972485Y-58622183D01*
X164299112Y-58757811D01*
X164652778Y-58758119D01*
X164979641Y-58623062D01*
X165229939Y-58373201D01*
X165365567Y-58046574D01*
X165365875Y-57692908D01*
X165230818Y-57366045D01*
X165125562Y-57260604D01*
X165275003Y-57111424D01*
X165410631Y-56784797D01*
X165410939Y-56431131D01*
X165275882Y-56104268D01*
X165140634Y-55968784D01*
X165259979Y-55849647D01*
X165395607Y-55523020D01*
X165395915Y-55169354D01*
X165260858Y-54842491D01*
X165010997Y-54592193D01*
X164684370Y-54456565D01*
X164589832Y-54456483D01*
X164689615Y-54216179D01*
X164689923Y-53862513D01*
X164554866Y-53535650D01*
X164305005Y-53285352D01*
X163978378Y-53149724D01*
X163817435Y-53149584D01*
X163888846Y-52977609D01*
X163889154Y-52623943D01*
X163754097Y-52297080D01*
X163504236Y-52046782D01*
X163177609Y-51911154D01*
X162823943Y-51910846D01*
X162527414Y-52033369D01*
X162644408Y-51794001D01*
X162517502Y-51627000D01*
X160927000Y-51627000D01*
X160927000Y-51647000D01*
X160673000Y-51647000D01*
X160673000Y-51627000D01*
X159082498Y-51627000D01*
X158955592Y-51794001D01*
X159116032Y-52122259D01*
X158960662Y-52354788D01*
X158878071Y-52770000D01*
X158960662Y-53185212D01*
X159107520Y-53405000D01*
X158960662Y-53624788D01*
X158878071Y-54040000D01*
X158960662Y-54455212D01*
X159107520Y-54675000D01*
X158960662Y-54894788D01*
X158878071Y-55310000D01*
X158960662Y-55725212D01*
X159107520Y-55945000D01*
X158960662Y-56164788D01*
X158878071Y-56580000D01*
X158960662Y-56995212D01*
X159107520Y-57215000D01*
X158960662Y-57434788D01*
X158878071Y-57850000D01*
X158960662Y-58265212D01*
X159107520Y-58485000D01*
X158960662Y-58704788D01*
X158878071Y-59120000D01*
X158960662Y-59535212D01*
X159107520Y-59755000D01*
X158960662Y-59974788D01*
X158878071Y-60390000D01*
X158960662Y-60805212D01*
X159107520Y-61025000D01*
X158960662Y-61244788D01*
X158878071Y-61660000D01*
X158960662Y-62075212D01*
X159107520Y-62295000D01*
X158960662Y-62514788D01*
X158878071Y-62930000D01*
X158960662Y-63345212D01*
X159107520Y-63565000D01*
X158960662Y-63784788D01*
X158878071Y-64200000D01*
X158960662Y-64615212D01*
X159107520Y-64835000D01*
X158960662Y-65054788D01*
X158878071Y-65470000D01*
X158960662Y-65885212D01*
X159107520Y-66105000D01*
X158960662Y-66324788D01*
X158878071Y-66740000D01*
X158960662Y-67155212D01*
X159107520Y-67375000D01*
X158960662Y-67594788D01*
X158878071Y-68010000D01*
X158960662Y-68425212D01*
X159195860Y-68777211D01*
X159547859Y-69012409D01*
X159963071Y-69095000D01*
X161636929Y-69095000D01*
X162052141Y-69012409D01*
X162404140Y-68777211D01*
X162434015Y-68732500D01*
X163568083Y-68732500D01*
X163596838Y-68885317D01*
X163735910Y-69101441D01*
X163793745Y-69140958D01*
X163668179Y-69443354D01*
X163667871Y-69797020D01*
X163802928Y-70123883D01*
X164052789Y-70374181D01*
X164379416Y-70509809D01*
X164733082Y-70510117D01*
X164807878Y-70479212D01*
X158672090Y-76615000D01*
X157495100Y-76615000D01*
X156266606Y-75386506D01*
X156301441Y-75364090D01*
X156396990Y-75224250D01*
X156411673Y-75259698D01*
X156590301Y-75438327D01*
X156823690Y-75535000D01*
X157314250Y-75535000D01*
X157473000Y-75376250D01*
X157473000Y-74677000D01*
X157727000Y-74677000D01*
X157727000Y-75376250D01*
X157885750Y-75535000D01*
X158376310Y-75535000D01*
X158609699Y-75438327D01*
X158788327Y-75259698D01*
X158885000Y-75026309D01*
X158885000Y-74835750D01*
X158726250Y-74677000D01*
X157727000Y-74677000D01*
X157473000Y-74677000D01*
X157453000Y-74677000D01*
X157453000Y-74423000D01*
X157473000Y-74423000D01*
X157473000Y-74403000D01*
X157727000Y-74403000D01*
X157727000Y-74423000D01*
X158726250Y-74423000D01*
X158885000Y-74264250D01*
X158885000Y-74073691D01*
X158788327Y-73840302D01*
X158609699Y-73661673D01*
X158473713Y-73605346D01*
X158485317Y-73603162D01*
X158701441Y-73464090D01*
X158846431Y-73251890D01*
X158897440Y-73000000D01*
X158897440Y-72300000D01*
X158853162Y-72064683D01*
X158714090Y-71848559D01*
X158501890Y-71703569D01*
X158322500Y-71667242D01*
X158322500Y-71043843D01*
X158517409Y-70752141D01*
X158600000Y-70336929D01*
X158600000Y-68663071D01*
X158517409Y-68247859D01*
X158282211Y-67895860D01*
X157930212Y-67660662D01*
X157515000Y-67578071D01*
X157099788Y-67660662D01*
X156880000Y-67807520D01*
X156660212Y-67660662D01*
X156245000Y-67578071D01*
X155829788Y-67660662D01*
X155610000Y-67807520D01*
X155390212Y-67660662D01*
X154975000Y-67578071D01*
X154559788Y-67660662D01*
X154340000Y-67807520D01*
X154120212Y-67660662D01*
X153705000Y-67578071D01*
X153289788Y-67660662D01*
X153070000Y-67807520D01*
X152850212Y-67660662D01*
X152435000Y-67578071D01*
X152019788Y-67660662D01*
X151800000Y-67807520D01*
X151580212Y-67660662D01*
X151165000Y-67578071D01*
X150749788Y-67660662D01*
X150530000Y-67807520D01*
X150310212Y-67660662D01*
X149895000Y-67578071D01*
X149479788Y-67660662D01*
X149260000Y-67807520D01*
X149040212Y-67660662D01*
X148625000Y-67578071D01*
X148209788Y-67660662D01*
X147990000Y-67807520D01*
X147770212Y-67660662D01*
X147355000Y-67578071D01*
X146939788Y-67660662D01*
X146707259Y-67816032D01*
X146379001Y-67655592D01*
X146212000Y-67782498D01*
X146212000Y-69373000D01*
X146232000Y-69373000D01*
X146232000Y-69627000D01*
X146212000Y-69627000D01*
X146212000Y-71217502D01*
X146379001Y-71344408D01*
X146632500Y-71220507D01*
X146632500Y-71824669D01*
X146514683Y-71846838D01*
X146298559Y-71985910D01*
X146153569Y-72198110D01*
X146102560Y-72450000D01*
X146102560Y-73150000D01*
X146146838Y-73385317D01*
X146285910Y-73601441D01*
X146498110Y-73746431D01*
X146511197Y-73749081D01*
X146298559Y-73885910D01*
X146235978Y-73977500D01*
X145414982Y-73977500D01*
X145403162Y-73914683D01*
X145264090Y-73698559D01*
X145051890Y-73553569D01*
X144800000Y-73502560D01*
X143600000Y-73502560D01*
X143364683Y-73546838D01*
X143148559Y-73685910D01*
X143102031Y-73754006D01*
X142959698Y-73611673D01*
X142726309Y-73515000D01*
X142285750Y-73515000D01*
X142127000Y-73673750D01*
X142127000Y-74623000D01*
X142147000Y-74623000D01*
X142147000Y-74877000D01*
X142127000Y-74877000D01*
X142127000Y-75826250D01*
X142285750Y-75985000D01*
X142726309Y-75985000D01*
X142959698Y-75888327D01*
X143100936Y-75747090D01*
X143135910Y-75801441D01*
X143348110Y-75946431D01*
X143600000Y-75997440D01*
X144800000Y-75997440D01*
X145035317Y-75953162D01*
X145251441Y-75814090D01*
X145396431Y-75601890D01*
X145432758Y-75422500D01*
X146235113Y-75422500D01*
X146285910Y-75501441D01*
X146498110Y-75646431D01*
X146750000Y-75697440D01*
X148050000Y-75697440D01*
X148285317Y-75653162D01*
X148501441Y-75514090D01*
X148646431Y-75301890D01*
X148697440Y-75050000D01*
X148697440Y-74350000D01*
X148653162Y-74114683D01*
X148514090Y-73898559D01*
X148301890Y-73753569D01*
X148288803Y-73750919D01*
X148501441Y-73614090D01*
X148646431Y-73401890D01*
X148697440Y-73150000D01*
X148697440Y-72450000D01*
X148653162Y-72214683D01*
X148514090Y-71998559D01*
X148301890Y-71853569D01*
X148077500Y-71808129D01*
X148077500Y-71250946D01*
X148209788Y-71339338D01*
X148625000Y-71421929D01*
X149040212Y-71339338D01*
X149260000Y-71192480D01*
X149479788Y-71339338D01*
X149895000Y-71421929D01*
X150310212Y-71339338D01*
X150530000Y-71192480D01*
X150749788Y-71339338D01*
X151165000Y-71421929D01*
X151580212Y-71339338D01*
X151800000Y-71192480D01*
X152019788Y-71339338D01*
X152435000Y-71421929D01*
X152850212Y-71339338D01*
X153070000Y-71192480D01*
X153289788Y-71339338D01*
X153705000Y-71421929D01*
X154120212Y-71339338D01*
X154340000Y-71192480D01*
X154559788Y-71339338D01*
X154896847Y-71406383D01*
X154689115Y-71614115D01*
X154663427Y-71652560D01*
X154550000Y-71652560D01*
X154314683Y-71696838D01*
X154098559Y-71835910D01*
X153953569Y-72048110D01*
X153902560Y-72300000D01*
X153902560Y-73000000D01*
X153946838Y-73235317D01*
X154085910Y-73451441D01*
X154298110Y-73596431D01*
X154311197Y-73599081D01*
X154098559Y-73735910D01*
X153953569Y-73948110D01*
X153902560Y-74200000D01*
X153902560Y-74900000D01*
X153946838Y-75135317D01*
X154085910Y-75351441D01*
X154298110Y-75496431D01*
X154433663Y-75523881D01*
X154474755Y-75730465D01*
X154644921Y-75985137D01*
X156614863Y-77955079D01*
X156869536Y-78125245D01*
X157113347Y-78173743D01*
X155872090Y-79415000D01*
X127674889Y-79415000D01*
X127546547Y-79222923D01*
X127700931Y-79123580D01*
X127845921Y-78911380D01*
X127896930Y-78659490D01*
X127896930Y-76660510D01*
X127852652Y-76425193D01*
X127713580Y-76209069D01*
X127615337Y-76141943D01*
X128721530Y-75035750D01*
X140765000Y-75035750D01*
X140765000Y-75476310D01*
X140861673Y-75709699D01*
X141040302Y-75888327D01*
X141273691Y-75985000D01*
X141714250Y-75985000D01*
X141873000Y-75826250D01*
X141873000Y-74877000D01*
X140923750Y-74877000D01*
X140765000Y-75035750D01*
X128721530Y-75035750D01*
X129733590Y-74023690D01*
X140765000Y-74023690D01*
X140765000Y-74464250D01*
X140923750Y-74623000D01*
X141873000Y-74623000D01*
X141873000Y-73673750D01*
X141714250Y-73515000D01*
X141273691Y-73515000D01*
X141040302Y-73611673D01*
X140861673Y-73790301D01*
X140765000Y-74023690D01*
X129733590Y-74023690D01*
X134130280Y-69627000D01*
X145000000Y-69627000D01*
X145000000Y-70427000D01*
X145131192Y-70832544D01*
X145407592Y-71157013D01*
X145790999Y-71344408D01*
X145958000Y-71217502D01*
X145958000Y-69627000D01*
X145000000Y-69627000D01*
X134130280Y-69627000D01*
X135471530Y-68285750D01*
X136015000Y-68285750D01*
X136015000Y-68776310D01*
X136111673Y-69009699D01*
X136290302Y-69188327D01*
X136523691Y-69285000D01*
X136714250Y-69285000D01*
X136873000Y-69126250D01*
X136873000Y-68127000D01*
X136173750Y-68127000D01*
X136015000Y-68285750D01*
X135471530Y-68285750D01*
X136029015Y-67728265D01*
X136173750Y-67873000D01*
X136873000Y-67873000D01*
X136873000Y-67853000D01*
X137127000Y-67853000D01*
X137127000Y-67873000D01*
X137147000Y-67873000D01*
X137147000Y-68127000D01*
X137127000Y-68127000D01*
X137127000Y-69126250D01*
X137285750Y-69285000D01*
X137476309Y-69285000D01*
X137709698Y-69188327D01*
X137888327Y-69009699D01*
X137944654Y-68873713D01*
X137946838Y-68885317D01*
X138085910Y-69101441D01*
X138298110Y-69246431D01*
X138550000Y-69297440D01*
X139250000Y-69297440D01*
X139485317Y-69253162D01*
X139701441Y-69114090D01*
X139846431Y-68901890D01*
X139882758Y-68722500D01*
X141159303Y-68722500D01*
X141195860Y-68777211D01*
X141547859Y-69012409D01*
X141963071Y-69095000D01*
X143636929Y-69095000D01*
X144052141Y-69012409D01*
X144404140Y-68777211D01*
X144540589Y-68573000D01*
X145000000Y-68573000D01*
X145000000Y-69373000D01*
X145958000Y-69373000D01*
X145958000Y-67782498D01*
X145790999Y-67655592D01*
X145407592Y-67842987D01*
X145131192Y-68167456D01*
X145000000Y-68573000D01*
X144540589Y-68573000D01*
X144639338Y-68425212D01*
X144721929Y-68010000D01*
X144639338Y-67594788D01*
X144492480Y-67375000D01*
X144639338Y-67155212D01*
X144721929Y-66740000D01*
X144639338Y-66324788D01*
X144492480Y-66105000D01*
X144639338Y-65885212D01*
X144721929Y-65470000D01*
X144639338Y-65054788D01*
X144492480Y-64835000D01*
X144639338Y-64615212D01*
X144721929Y-64200000D01*
X144639338Y-63784788D01*
X144492480Y-63565000D01*
X144639338Y-63345212D01*
X144721929Y-62930000D01*
X144639338Y-62514788D01*
X144492480Y-62295000D01*
X144639338Y-62075212D01*
X144721929Y-61660000D01*
X144639338Y-61244788D01*
X144492480Y-61025000D01*
X144639338Y-60805212D01*
X144721929Y-60390000D01*
X144639338Y-59974788D01*
X144492480Y-59755000D01*
X144639338Y-59535212D01*
X144649176Y-59485750D01*
X147865000Y-59485750D01*
X147865000Y-62326310D01*
X147961673Y-62559699D01*
X148140302Y-62738327D01*
X148373691Y-62835000D01*
X151214250Y-62835000D01*
X151373000Y-62676250D01*
X151373000Y-59327000D01*
X151627000Y-59327000D01*
X151627000Y-62676250D01*
X151785750Y-62835000D01*
X154626309Y-62835000D01*
X154859698Y-62738327D01*
X155038327Y-62559699D01*
X155135000Y-62326310D01*
X155135000Y-59485750D01*
X154976250Y-59327000D01*
X151627000Y-59327000D01*
X151373000Y-59327000D01*
X148023750Y-59327000D01*
X147865000Y-59485750D01*
X144649176Y-59485750D01*
X144721929Y-59120000D01*
X144639338Y-58704788D01*
X144492480Y-58485000D01*
X144639338Y-58265212D01*
X144721929Y-57850000D01*
X144639338Y-57434788D01*
X144492480Y-57215000D01*
X144639338Y-56995212D01*
X144721929Y-56580000D01*
X144639338Y-56164788D01*
X144578469Y-56073690D01*
X147865000Y-56073690D01*
X147865000Y-58914250D01*
X148023750Y-59073000D01*
X151373000Y-59073000D01*
X151373000Y-55723750D01*
X151627000Y-55723750D01*
X151627000Y-59073000D01*
X154976250Y-59073000D01*
X155135000Y-58914250D01*
X155135000Y-56073690D01*
X155038327Y-55840301D01*
X154859698Y-55661673D01*
X154626309Y-55565000D01*
X151785750Y-55565000D01*
X151627000Y-55723750D01*
X151373000Y-55723750D01*
X151214250Y-55565000D01*
X148373691Y-55565000D01*
X148140302Y-55661673D01*
X147961673Y-55840301D01*
X147865000Y-56073690D01*
X144578469Y-56073690D01*
X144492480Y-55945000D01*
X144639338Y-55725212D01*
X144721929Y-55310000D01*
X144639338Y-54894788D01*
X144492480Y-54675000D01*
X144639338Y-54455212D01*
X144721929Y-54040000D01*
X144639338Y-53624788D01*
X144592707Y-53555000D01*
X144802108Y-53555000D01*
X145102515Y-53495245D01*
X145357187Y-53325079D01*
X147346866Y-51335400D01*
X159053925Y-51335400D01*
X159082498Y-51373000D01*
X159082498Y-51373000D01*
G37*
X159082498Y-51373000D02*
X160673000Y-51373000D01*
X160673000Y-51353000D01*
X160927000Y-51353000D01*
X160927000Y-51373000D01*
X162517502Y-51373000D01*
X162546075Y-51335400D01*
X165497836Y-51335400D01*
X165369946Y-51420853D01*
X165048039Y-51902622D01*
X164935000Y-52470907D01*
X164935000Y-52529093D01*
X165048039Y-53097378D01*
X165369946Y-53579147D01*
X165851715Y-53901054D01*
X166420000Y-54014093D01*
X166988285Y-53901054D01*
X167470054Y-53579147D01*
X167690000Y-53249974D01*
X167909946Y-53579147D01*
X168391715Y-53901054D01*
X168960000Y-54014093D01*
X169447286Y-53917166D01*
X169447286Y-56772286D01*
X169507041Y-57072693D01*
X169677207Y-57327365D01*
X171304842Y-58955000D01*
X169410000Y-58955000D01*
X169109593Y-59014755D01*
X168854921Y-59184921D01*
X166337282Y-61702560D01*
X166169180Y-61702560D01*
X164345736Y-59879115D01*
X164111340Y-59722497D01*
X163834851Y-59667500D01*
X162550946Y-59667500D01*
X162639338Y-59535212D01*
X162721929Y-59120000D01*
X162639338Y-58704788D01*
X162550946Y-58572500D01*
X163922889Y-58572500D01*
X163972485Y-58622183D01*
X164299112Y-58757811D01*
X164652778Y-58758119D01*
X164979641Y-58623062D01*
X165229939Y-58373201D01*
X165365567Y-58046574D01*
X165365875Y-57692908D01*
X165230818Y-57366045D01*
X165125562Y-57260604D01*
X165275003Y-57111424D01*
X165410631Y-56784797D01*
X165410939Y-56431131D01*
X165275882Y-56104268D01*
X165140634Y-55968784D01*
X165259979Y-55849647D01*
X165395607Y-55523020D01*
X165395915Y-55169354D01*
X165260858Y-54842491D01*
X165010997Y-54592193D01*
X164684370Y-54456565D01*
X164589832Y-54456483D01*
X164689615Y-54216179D01*
X164689923Y-53862513D01*
X164554866Y-53535650D01*
X164305005Y-53285352D01*
X163978378Y-53149724D01*
X163817435Y-53149584D01*
X163888846Y-52977609D01*
X163889154Y-52623943D01*
X163754097Y-52297080D01*
X163504236Y-52046782D01*
X163177609Y-51911154D01*
X162823943Y-51910846D01*
X162527414Y-52033369D01*
X162644408Y-51794001D01*
X162517502Y-51627000D01*
X160927000Y-51627000D01*
X160927000Y-51647000D01*
X160673000Y-51647000D01*
X160673000Y-51627000D01*
X159082498Y-51627000D01*
X158955592Y-51794001D01*
X159116032Y-52122259D01*
X158960662Y-52354788D01*
X158878071Y-52770000D01*
X158960662Y-53185212D01*
X159107520Y-53405000D01*
X158960662Y-53624788D01*
X158878071Y-54040000D01*
X158960662Y-54455212D01*
X159107520Y-54675000D01*
X158960662Y-54894788D01*
X158878071Y-55310000D01*
X158960662Y-55725212D01*
X159107520Y-55945000D01*
X158960662Y-56164788D01*
X158878071Y-56580000D01*
X158960662Y-56995212D01*
X159107520Y-57215000D01*
X158960662Y-57434788D01*
X158878071Y-57850000D01*
X158960662Y-58265212D01*
X159107520Y-58485000D01*
X158960662Y-58704788D01*
X158878071Y-59120000D01*
X158960662Y-59535212D01*
X159107520Y-59755000D01*
X158960662Y-59974788D01*
X158878071Y-60390000D01*
X158960662Y-60805212D01*
X159107520Y-61025000D01*
X158960662Y-61244788D01*
X158878071Y-61660000D01*
X158960662Y-62075212D01*
X159107520Y-62295000D01*
X158960662Y-62514788D01*
X158878071Y-62930000D01*
X158960662Y-63345212D01*
X159107520Y-63565000D01*
X158960662Y-63784788D01*
X158878071Y-64200000D01*
X158960662Y-64615212D01*
X159107520Y-64835000D01*
X158960662Y-65054788D01*
X158878071Y-65470000D01*
X158960662Y-65885212D01*
X159107520Y-66105000D01*
X158960662Y-66324788D01*
X158878071Y-66740000D01*
X158960662Y-67155212D01*
X159107520Y-67375000D01*
X158960662Y-67594788D01*
X158878071Y-68010000D01*
X158960662Y-68425212D01*
X159195860Y-68777211D01*
X159547859Y-69012409D01*
X159963071Y-69095000D01*
X161636929Y-69095000D01*
X162052141Y-69012409D01*
X162404140Y-68777211D01*
X162434015Y-68732500D01*
X163568083Y-68732500D01*
X163596838Y-68885317D01*
X163735910Y-69101441D01*
X163793745Y-69140958D01*
X163668179Y-69443354D01*
X163667871Y-69797020D01*
X163802928Y-70123883D01*
X164052789Y-70374181D01*
X164379416Y-70509809D01*
X164733082Y-70510117D01*
X164807878Y-70479212D01*
X158672090Y-76615000D01*
X157495100Y-76615000D01*
X156266606Y-75386506D01*
X156301441Y-75364090D01*
X156396990Y-75224250D01*
X156411673Y-75259698D01*
X156590301Y-75438327D01*
X156823690Y-75535000D01*
X157314250Y-75535000D01*
X157473000Y-75376250D01*
X157473000Y-74677000D01*
X157727000Y-74677000D01*
X157727000Y-75376250D01*
X157885750Y-75535000D01*
X158376310Y-75535000D01*
X158609699Y-75438327D01*
X158788327Y-75259698D01*
X158885000Y-75026309D01*
X158885000Y-74835750D01*
X158726250Y-74677000D01*
X157727000Y-74677000D01*
X157473000Y-74677000D01*
X157453000Y-74677000D01*
X157453000Y-74423000D01*
X157473000Y-74423000D01*
X157473000Y-74403000D01*
X157727000Y-74403000D01*
X157727000Y-74423000D01*
X158726250Y-74423000D01*
X158885000Y-74264250D01*
X158885000Y-74073691D01*
X158788327Y-73840302D01*
X158609699Y-73661673D01*
X158473713Y-73605346D01*
X158485317Y-73603162D01*
X158701441Y-73464090D01*
X158846431Y-73251890D01*
X158897440Y-73000000D01*
X158897440Y-72300000D01*
X158853162Y-72064683D01*
X158714090Y-71848559D01*
X158501890Y-71703569D01*
X158322500Y-71667242D01*
X158322500Y-71043843D01*
X158517409Y-70752141D01*
X158600000Y-70336929D01*
X158600000Y-68663071D01*
X158517409Y-68247859D01*
X158282211Y-67895860D01*
X157930212Y-67660662D01*
X157515000Y-67578071D01*
X157099788Y-67660662D01*
X156880000Y-67807520D01*
X156660212Y-67660662D01*
X156245000Y-67578071D01*
X155829788Y-67660662D01*
X155610000Y-67807520D01*
X155390212Y-67660662D01*
X154975000Y-67578071D01*
X154559788Y-67660662D01*
X154340000Y-67807520D01*
X154120212Y-67660662D01*
X153705000Y-67578071D01*
X153289788Y-67660662D01*
X153070000Y-67807520D01*
X152850212Y-67660662D01*
X152435000Y-67578071D01*
X152019788Y-67660662D01*
X151800000Y-67807520D01*
X151580212Y-67660662D01*
X151165000Y-67578071D01*
X150749788Y-67660662D01*
X150530000Y-67807520D01*
X150310212Y-67660662D01*
X149895000Y-67578071D01*
X149479788Y-67660662D01*
X149260000Y-67807520D01*
X149040212Y-67660662D01*
X148625000Y-67578071D01*
X148209788Y-67660662D01*
X147990000Y-67807520D01*
X147770212Y-67660662D01*
X147355000Y-67578071D01*
X146939788Y-67660662D01*
X146707259Y-67816032D01*
X146379001Y-67655592D01*
X146212000Y-67782498D01*
X146212000Y-69373000D01*
X146232000Y-69373000D01*
X146232000Y-69627000D01*
X146212000Y-69627000D01*
X146212000Y-71217502D01*
X146379001Y-71344408D01*
X146632500Y-71220507D01*
X146632500Y-71824669D01*
X146514683Y-71846838D01*
X146298559Y-71985910D01*
X146153569Y-72198110D01*
X146102560Y-72450000D01*
X146102560Y-73150000D01*
X146146838Y-73385317D01*
X146285910Y-73601441D01*
X146498110Y-73746431D01*
X146511197Y-73749081D01*
X146298559Y-73885910D01*
X146235978Y-73977500D01*
X145414982Y-73977500D01*
X145403162Y-73914683D01*
X145264090Y-73698559D01*
X145051890Y-73553569D01*
X144800000Y-73502560D01*
X143600000Y-73502560D01*
X143364683Y-73546838D01*
X143148559Y-73685910D01*
X143102031Y-73754006D01*
X142959698Y-73611673D01*
X142726309Y-73515000D01*
X142285750Y-73515000D01*
X142127000Y-73673750D01*
X142127000Y-74623000D01*
X142147000Y-74623000D01*
X142147000Y-74877000D01*
X142127000Y-74877000D01*
X142127000Y-75826250D01*
X142285750Y-75985000D01*
X142726309Y-75985000D01*
X142959698Y-75888327D01*
X143100936Y-75747090D01*
X143135910Y-75801441D01*
X143348110Y-75946431D01*
X143600000Y-75997440D01*
X144800000Y-75997440D01*
X145035317Y-75953162D01*
X145251441Y-75814090D01*
X145396431Y-75601890D01*
X145432758Y-75422500D01*
X146235113Y-75422500D01*
X146285910Y-75501441D01*
X146498110Y-75646431D01*
X146750000Y-75697440D01*
X148050000Y-75697440D01*
X148285317Y-75653162D01*
X148501441Y-75514090D01*
X148646431Y-75301890D01*
X148697440Y-75050000D01*
X148697440Y-74350000D01*
X148653162Y-74114683D01*
X148514090Y-73898559D01*
X148301890Y-73753569D01*
X148288803Y-73750919D01*
X148501441Y-73614090D01*
X148646431Y-73401890D01*
X148697440Y-73150000D01*
X148697440Y-72450000D01*
X148653162Y-72214683D01*
X148514090Y-71998559D01*
X148301890Y-71853569D01*
X148077500Y-71808129D01*
X148077500Y-71250946D01*
X148209788Y-71339338D01*
X148625000Y-71421929D01*
X149040212Y-71339338D01*
X149260000Y-71192480D01*
X149479788Y-71339338D01*
X149895000Y-71421929D01*
X150310212Y-71339338D01*
X150530000Y-71192480D01*
X150749788Y-71339338D01*
X151165000Y-71421929D01*
X151580212Y-71339338D01*
X151800000Y-71192480D01*
X152019788Y-71339338D01*
X152435000Y-71421929D01*
X152850212Y-71339338D01*
X153070000Y-71192480D01*
X153289788Y-71339338D01*
X153705000Y-71421929D01*
X154120212Y-71339338D01*
X154340000Y-71192480D01*
X154559788Y-71339338D01*
X154896847Y-71406383D01*
X154689115Y-71614115D01*
X154663427Y-71652560D01*
X154550000Y-71652560D01*
X154314683Y-71696838D01*
X154098559Y-71835910D01*
X153953569Y-72048110D01*
X153902560Y-72300000D01*
X153902560Y-73000000D01*
X153946838Y-73235317D01*
X154085910Y-73451441D01*
X154298110Y-73596431D01*
X154311197Y-73599081D01*
X154098559Y-73735910D01*
X153953569Y-73948110D01*
X153902560Y-74200000D01*
X153902560Y-74900000D01*
X153946838Y-75135317D01*
X154085910Y-75351441D01*
X154298110Y-75496431D01*
X154433663Y-75523881D01*
X154474755Y-75730465D01*
X154644921Y-75985137D01*
X156614863Y-77955079D01*
X156869536Y-78125245D01*
X157113347Y-78173743D01*
X155872090Y-79415000D01*
X127674889Y-79415000D01*
X127546547Y-79222923D01*
X127700931Y-79123580D01*
X127845921Y-78911380D01*
X127896930Y-78659490D01*
X127896930Y-76660510D01*
X127852652Y-76425193D01*
X127713580Y-76209069D01*
X127615337Y-76141943D01*
X128721530Y-75035750D01*
X140765000Y-75035750D01*
X140765000Y-75476310D01*
X140861673Y-75709699D01*
X141040302Y-75888327D01*
X141273691Y-75985000D01*
X141714250Y-75985000D01*
X141873000Y-75826250D01*
X141873000Y-74877000D01*
X140923750Y-74877000D01*
X140765000Y-75035750D01*
X128721530Y-75035750D01*
X129733590Y-74023690D01*
X140765000Y-74023690D01*
X140765000Y-74464250D01*
X140923750Y-74623000D01*
X141873000Y-74623000D01*
X141873000Y-73673750D01*
X141714250Y-73515000D01*
X141273691Y-73515000D01*
X141040302Y-73611673D01*
X140861673Y-73790301D01*
X140765000Y-74023690D01*
X129733590Y-74023690D01*
X134130280Y-69627000D01*
X145000000Y-69627000D01*
X145000000Y-70427000D01*
X145131192Y-70832544D01*
X145407592Y-71157013D01*
X145790999Y-71344408D01*
X145958000Y-71217502D01*
X145958000Y-69627000D01*
X145000000Y-69627000D01*
X134130280Y-69627000D01*
X135471530Y-68285750D01*
X136015000Y-68285750D01*
X136015000Y-68776310D01*
X136111673Y-69009699D01*
X136290302Y-69188327D01*
X136523691Y-69285000D01*
X136714250Y-69285000D01*
X136873000Y-69126250D01*
X136873000Y-68127000D01*
X136173750Y-68127000D01*
X136015000Y-68285750D01*
X135471530Y-68285750D01*
X136029015Y-67728265D01*
X136173750Y-67873000D01*
X136873000Y-67873000D01*
X136873000Y-67853000D01*
X137127000Y-67853000D01*
X137127000Y-67873000D01*
X137147000Y-67873000D01*
X137147000Y-68127000D01*
X137127000Y-68127000D01*
X137127000Y-69126250D01*
X137285750Y-69285000D01*
X137476309Y-69285000D01*
X137709698Y-69188327D01*
X137888327Y-69009699D01*
X137944654Y-68873713D01*
X137946838Y-68885317D01*
X138085910Y-69101441D01*
X138298110Y-69246431D01*
X138550000Y-69297440D01*
X139250000Y-69297440D01*
X139485317Y-69253162D01*
X139701441Y-69114090D01*
X139846431Y-68901890D01*
X139882758Y-68722500D01*
X141159303Y-68722500D01*
X141195860Y-68777211D01*
X141547859Y-69012409D01*
X141963071Y-69095000D01*
X143636929Y-69095000D01*
X144052141Y-69012409D01*
X144404140Y-68777211D01*
X144540589Y-68573000D01*
X145000000Y-68573000D01*
X145000000Y-69373000D01*
X145958000Y-69373000D01*
X145958000Y-67782498D01*
X145790999Y-67655592D01*
X145407592Y-67842987D01*
X145131192Y-68167456D01*
X145000000Y-68573000D01*
X144540589Y-68573000D01*
X144639338Y-68425212D01*
X144721929Y-68010000D01*
X144639338Y-67594788D01*
X144492480Y-67375000D01*
X144639338Y-67155212D01*
X144721929Y-66740000D01*
X144639338Y-66324788D01*
X144492480Y-66105000D01*
X144639338Y-65885212D01*
X144721929Y-65470000D01*
X144639338Y-65054788D01*
X144492480Y-64835000D01*
X144639338Y-64615212D01*
X144721929Y-64200000D01*
X144639338Y-63784788D01*
X144492480Y-63565000D01*
X144639338Y-63345212D01*
X144721929Y-62930000D01*
X144639338Y-62514788D01*
X144492480Y-62295000D01*
X144639338Y-62075212D01*
X144721929Y-61660000D01*
X144639338Y-61244788D01*
X144492480Y-61025000D01*
X144639338Y-60805212D01*
X144721929Y-60390000D01*
X144639338Y-59974788D01*
X144492480Y-59755000D01*
X144639338Y-59535212D01*
X144649176Y-59485750D01*
X147865000Y-59485750D01*
X147865000Y-62326310D01*
X147961673Y-62559699D01*
X148140302Y-62738327D01*
X148373691Y-62835000D01*
X151214250Y-62835000D01*
X151373000Y-62676250D01*
X151373000Y-59327000D01*
X151627000Y-59327000D01*
X151627000Y-62676250D01*
X151785750Y-62835000D01*
X154626309Y-62835000D01*
X154859698Y-62738327D01*
X155038327Y-62559699D01*
X155135000Y-62326310D01*
X155135000Y-59485750D01*
X154976250Y-59327000D01*
X151627000Y-59327000D01*
X151373000Y-59327000D01*
X148023750Y-59327000D01*
X147865000Y-59485750D01*
X144649176Y-59485750D01*
X144721929Y-59120000D01*
X144639338Y-58704788D01*
X144492480Y-58485000D01*
X144639338Y-58265212D01*
X144721929Y-57850000D01*
X144639338Y-57434788D01*
X144492480Y-57215000D01*
X144639338Y-56995212D01*
X144721929Y-56580000D01*
X144639338Y-56164788D01*
X144578469Y-56073690D01*
X147865000Y-56073690D01*
X147865000Y-58914250D01*
X148023750Y-59073000D01*
X151373000Y-59073000D01*
X151373000Y-55723750D01*
X151627000Y-55723750D01*
X151627000Y-59073000D01*
X154976250Y-59073000D01*
X155135000Y-58914250D01*
X155135000Y-56073690D01*
X155038327Y-55840301D01*
X154859698Y-55661673D01*
X154626309Y-55565000D01*
X151785750Y-55565000D01*
X151627000Y-55723750D01*
X151373000Y-55723750D01*
X151214250Y-55565000D01*
X148373691Y-55565000D01*
X148140302Y-55661673D01*
X147961673Y-55840301D01*
X147865000Y-56073690D01*
X144578469Y-56073690D01*
X144492480Y-55945000D01*
X144639338Y-55725212D01*
X144721929Y-55310000D01*
X144639338Y-54894788D01*
X144492480Y-54675000D01*
X144639338Y-54455212D01*
X144721929Y-54040000D01*
X144639338Y-53624788D01*
X144592707Y-53555000D01*
X144802108Y-53555000D01*
X145102515Y-53495245D01*
X145357187Y-53325079D01*
X147346866Y-51335400D01*
X159053925Y-51335400D01*
X159082498Y-51373000D01*
G36*
X136065000Y-63964250D02*
X136223750Y-64123000D01*
X136923000Y-64123000D01*
X136923000Y-64103000D01*
X137177000Y-64103000D01*
X137177000Y-64123000D01*
X137197000Y-64123000D01*
X137197000Y-64377000D01*
X137177000Y-64377000D01*
X137177000Y-65376250D01*
X137335750Y-65535000D01*
X137526309Y-65535000D01*
X137759698Y-65438327D01*
X137938327Y-65259699D01*
X137994654Y-65123713D01*
X137996838Y-65135317D01*
X138075453Y-65257488D01*
X137555441Y-65777500D01*
X136235515Y-65777500D01*
X136235510Y-65777499D01*
X136004894Y-65823372D01*
X135959021Y-65832497D01*
X135724625Y-65989115D01*
X135724623Y-65989118D01*
X125739115Y-75974625D01*
X125713427Y-76013070D01*
X125250510Y-76013070D01*
X125015193Y-76057348D01*
X124799069Y-76196420D01*
X124654079Y-76408620D01*
X124603070Y-76660510D01*
X124603070Y-76877322D01*
X124382125Y-76655991D01*
X123946745Y-76475206D01*
X123475323Y-76474794D01*
X123210000Y-76584424D01*
X123210000Y-73325481D01*
X123473255Y-73434794D01*
X123944677Y-73435206D01*
X124380372Y-73255180D01*
X124714009Y-72922125D01*
X124733498Y-72875189D01*
X124739928Y-72907514D01*
X125094241Y-73437781D01*
X125624508Y-73792094D01*
X126250000Y-73916512D01*
X126875492Y-73792094D01*
X127405759Y-73437781D01*
X127760072Y-72907514D01*
X127884490Y-72282022D01*
X127884490Y-72217978D01*
X127760072Y-71592486D01*
X127546547Y-71272923D01*
X127700931Y-71173580D01*
X127845921Y-70961380D01*
X127896930Y-70709490D01*
X127896930Y-70432500D01*
X129133859Y-70432500D01*
X129410348Y-70377503D01*
X129644744Y-70220885D01*
X135329879Y-64535750D01*
X136065000Y-64535750D01*
X136065000Y-65026310D01*
X136161673Y-65259699D01*
X136340302Y-65438327D01*
X136573691Y-65535000D01*
X136764250Y-65535000D01*
X136923000Y-65376250D01*
X136923000Y-64377000D01*
X136223750Y-64377000D01*
X136065000Y-64535750D01*
X135329879Y-64535750D01*
X136063610Y-63802019D01*
X136065000Y-63802019D01*
X136065000Y-63964250D01*
X136065000Y-63964250D01*
G37*
X136065000Y-63964250D02*
X136223750Y-64123000D01*
X136923000Y-64123000D01*
X136923000Y-64103000D01*
X137177000Y-64103000D01*
X137177000Y-64123000D01*
X137197000Y-64123000D01*
X137197000Y-64377000D01*
X137177000Y-64377000D01*
X137177000Y-65376250D01*
X137335750Y-65535000D01*
X137526309Y-65535000D01*
X137759698Y-65438327D01*
X137938327Y-65259699D01*
X137994654Y-65123713D01*
X137996838Y-65135317D01*
X138075453Y-65257488D01*
X137555441Y-65777500D01*
X136235515Y-65777500D01*
X136235510Y-65777499D01*
X136004894Y-65823372D01*
X135959021Y-65832497D01*
X135724625Y-65989115D01*
X135724623Y-65989118D01*
X125739115Y-75974625D01*
X125713427Y-76013070D01*
X125250510Y-76013070D01*
X125015193Y-76057348D01*
X124799069Y-76196420D01*
X124654079Y-76408620D01*
X124603070Y-76660510D01*
X124603070Y-76877322D01*
X124382125Y-76655991D01*
X123946745Y-76475206D01*
X123475323Y-76474794D01*
X123210000Y-76584424D01*
X123210000Y-73325481D01*
X123473255Y-73434794D01*
X123944677Y-73435206D01*
X124380372Y-73255180D01*
X124714009Y-72922125D01*
X124733498Y-72875189D01*
X124739928Y-72907514D01*
X125094241Y-73437781D01*
X125624508Y-73792094D01*
X126250000Y-73916512D01*
X126875492Y-73792094D01*
X127405759Y-73437781D01*
X127760072Y-72907514D01*
X127884490Y-72282022D01*
X127884490Y-72217978D01*
X127760072Y-71592486D01*
X127546547Y-71272923D01*
X127700931Y-71173580D01*
X127845921Y-70961380D01*
X127896930Y-70709490D01*
X127896930Y-70432500D01*
X129133859Y-70432500D01*
X129410348Y-70377503D01*
X129644744Y-70220885D01*
X135329879Y-64535750D01*
X136065000Y-64535750D01*
X136065000Y-65026310D01*
X136161673Y-65259699D01*
X136340302Y-65438327D01*
X136573691Y-65535000D01*
X136764250Y-65535000D01*
X136923000Y-65376250D01*
X136923000Y-64377000D01*
X136223750Y-64377000D01*
X136065000Y-64535750D01*
X135329879Y-64535750D01*
X136063610Y-63802019D01*
X136065000Y-63802019D01*
X136065000Y-63964250D01*
G36*
X136065000Y-61464250D02*
X136223750Y-61623000D01*
X136923000Y-61623000D01*
X136923000Y-61603000D01*
X137177000Y-61603000D01*
X137177000Y-61623000D01*
X137197000Y-61623000D01*
X137197000Y-61877000D01*
X137177000Y-61877000D01*
X137177000Y-61897000D01*
X136923000Y-61897000D01*
X136923000Y-61877000D01*
X136223750Y-61877000D01*
X136065000Y-62035750D01*
X136065000Y-62357019D01*
X135764340Y-62357019D01*
X135487851Y-62412016D01*
X135253455Y-62568634D01*
X128834589Y-68987500D01*
X127896930Y-68987500D01*
X127896930Y-68710510D01*
X127852652Y-68475193D01*
X127713580Y-68259069D01*
X127501380Y-68114079D01*
X127249490Y-68063070D01*
X125250510Y-68063070D01*
X125015193Y-68107348D01*
X124799069Y-68246420D01*
X124654079Y-68458620D01*
X124603070Y-68710510D01*
X124603070Y-68927322D01*
X124382125Y-68705991D01*
X123946745Y-68525206D01*
X123475323Y-68524794D01*
X123210000Y-68634424D01*
X123210000Y-65075481D01*
X123473255Y-65184794D01*
X123944677Y-65185206D01*
X124380372Y-65005180D01*
X124714009Y-64672125D01*
X124733498Y-64625189D01*
X124739928Y-64657514D01*
X125094241Y-65187781D01*
X125624508Y-65542094D01*
X126250000Y-65666512D01*
X126875492Y-65542094D01*
X127405759Y-65187781D01*
X127760072Y-64657514D01*
X127884490Y-64032022D01*
X127884490Y-63967978D01*
X127788146Y-63483624D01*
X129996834Y-61274935D01*
X136065000Y-61274935D01*
X136065000Y-61464250D01*
X136065000Y-61464250D01*
G37*
X136065000Y-61464250D02*
X136223750Y-61623000D01*
X136923000Y-61623000D01*
X136923000Y-61603000D01*
X137177000Y-61603000D01*
X137177000Y-61623000D01*
X137197000Y-61623000D01*
X137197000Y-61877000D01*
X137177000Y-61877000D01*
X137177000Y-61897000D01*
X136923000Y-61897000D01*
X136923000Y-61877000D01*
X136223750Y-61877000D01*
X136065000Y-62035750D01*
X136065000Y-62357019D01*
X135764340Y-62357019D01*
X135487851Y-62412016D01*
X135253455Y-62568634D01*
X128834589Y-68987500D01*
X127896930Y-68987500D01*
X127896930Y-68710510D01*
X127852652Y-68475193D01*
X127713580Y-68259069D01*
X127501380Y-68114079D01*
X127249490Y-68063070D01*
X125250510Y-68063070D01*
X125015193Y-68107348D01*
X124799069Y-68246420D01*
X124654079Y-68458620D01*
X124603070Y-68710510D01*
X124603070Y-68927322D01*
X124382125Y-68705991D01*
X123946745Y-68525206D01*
X123475323Y-68524794D01*
X123210000Y-68634424D01*
X123210000Y-65075481D01*
X123473255Y-65184794D01*
X123944677Y-65185206D01*
X124380372Y-65005180D01*
X124714009Y-64672125D01*
X124733498Y-64625189D01*
X124739928Y-64657514D01*
X125094241Y-65187781D01*
X125624508Y-65542094D01*
X126250000Y-65666512D01*
X126875492Y-65542094D01*
X127405759Y-65187781D01*
X127760072Y-64657514D01*
X127884490Y-64032022D01*
X127884490Y-63967978D01*
X127788146Y-63483624D01*
X129996834Y-61274935D01*
X136065000Y-61274935D01*
X136065000Y-61464250D01*
G36*
X124277073Y-50847468D02*
X125250000Y-51820395D01*
X126222927Y-50847468D01*
X126172102Y-50710000D01*
X130827898Y-50710000D01*
X130777073Y-50847468D01*
X131750000Y-51820395D01*
X132722927Y-50847468D01*
X132672102Y-50710000D01*
X141275160Y-50710000D01*
X141142987Y-50822592D01*
X140955592Y-51205999D01*
X141082498Y-51373000D01*
X142673000Y-51373000D01*
X142673000Y-51353000D01*
X142927000Y-51353000D01*
X142927000Y-51373000D01*
X144517502Y-51373000D01*
X144644408Y-51205999D01*
X144457013Y-50822592D01*
X144324840Y-50710000D01*
X145751950Y-50710000D01*
X144621902Y-51840048D01*
X144644408Y-51794001D01*
X144517502Y-51627000D01*
X142927000Y-51627000D01*
X142927000Y-51647000D01*
X142673000Y-51647000D01*
X142673000Y-51627000D01*
X141082498Y-51627000D01*
X140955592Y-51794001D01*
X141048945Y-51985000D01*
X139271068Y-51985000D01*
X139151890Y-51903569D01*
X138900000Y-51852560D01*
X137600000Y-51852560D01*
X137364683Y-51896838D01*
X137148559Y-52035910D01*
X137003569Y-52248110D01*
X136952560Y-52500000D01*
X136952560Y-53200000D01*
X136996838Y-53435317D01*
X137135910Y-53651441D01*
X137348110Y-53796431D01*
X137361197Y-53799081D01*
X137148559Y-53935910D01*
X137051815Y-54077500D01*
X135980574Y-54077500D01*
X135978162Y-54064683D01*
X135839090Y-53848559D01*
X135770994Y-53802031D01*
X135913327Y-53659698D01*
X136010000Y-53426309D01*
X136010000Y-53085750D01*
X135851250Y-52927000D01*
X134877000Y-52927000D01*
X134877000Y-52947000D01*
X134623000Y-52947000D01*
X134623000Y-52927000D01*
X133648750Y-52927000D01*
X133490000Y-53085750D01*
X133490000Y-53426309D01*
X133586673Y-53659698D01*
X133727910Y-53800936D01*
X133673559Y-53835910D01*
X133528569Y-54048110D01*
X133477560Y-54300000D01*
X133477560Y-55300000D01*
X133521838Y-55535317D01*
X133579032Y-55624198D01*
X133425730Y-55777500D01*
X133220542Y-55777500D01*
X133136894Y-55575057D01*
X132677363Y-55114722D01*
X132076648Y-54865284D01*
X131426205Y-54864716D01*
X130825057Y-55113106D01*
X130364722Y-55572637D01*
X130279656Y-55777500D01*
X126720542Y-55777500D01*
X126636894Y-55575057D01*
X126177363Y-55114722D01*
X125576648Y-54865284D01*
X124926205Y-54864716D01*
X124325057Y-55113106D01*
X123864722Y-55572637D01*
X123615284Y-56173352D01*
X123614716Y-56823795D01*
X123863106Y-57424943D01*
X124322637Y-57885278D01*
X124923352Y-58134716D01*
X125573795Y-58135284D01*
X126174943Y-57886894D01*
X126635278Y-57427363D01*
X126720344Y-57222500D01*
X130279458Y-57222500D01*
X130363106Y-57424943D01*
X130822637Y-57885278D01*
X131423352Y-58134716D01*
X132073795Y-58135284D01*
X132674943Y-57886894D01*
X133135278Y-57427363D01*
X133220344Y-57222500D01*
X133725000Y-57222500D01*
X134001489Y-57167503D01*
X134235885Y-57010885D01*
X135260885Y-55985885D01*
X135286573Y-55947440D01*
X135375000Y-55947440D01*
X135610317Y-55903162D01*
X135826441Y-55764090D01*
X135971431Y-55551890D01*
X135977383Y-55522500D01*
X137117287Y-55522500D01*
X137135910Y-55551441D01*
X137348110Y-55696431D01*
X137600000Y-55747440D01*
X138900000Y-55747440D01*
X139135317Y-55703162D01*
X139351441Y-55564090D01*
X139496431Y-55351890D01*
X139503746Y-55315769D01*
X139585885Y-55260885D01*
X139585886Y-55260884D01*
X140084269Y-54762500D01*
X141049054Y-54762500D01*
X140960662Y-54894788D01*
X140878071Y-55310000D01*
X140960662Y-55725212D01*
X141107520Y-55945000D01*
X140960662Y-56164788D01*
X140878071Y-56580000D01*
X140960662Y-56995212D01*
X141107520Y-57215000D01*
X140960662Y-57434788D01*
X140878071Y-57850000D01*
X140960662Y-58265212D01*
X141107520Y-58485000D01*
X140960662Y-58704788D01*
X140878071Y-59120000D01*
X140960662Y-59535212D01*
X141049054Y-59667500D01*
X140864269Y-59667500D01*
X139935885Y-58739115D01*
X139897440Y-58713427D01*
X139897440Y-58600000D01*
X139853162Y-58364683D01*
X139714090Y-58148559D01*
X139501890Y-58003569D01*
X139250000Y-57952560D01*
X138550000Y-57952560D01*
X138314683Y-57996838D01*
X138098559Y-58135910D01*
X137953569Y-58348110D01*
X137946809Y-58381490D01*
X137888327Y-58240301D01*
X137709698Y-58061673D01*
X137476309Y-57965000D01*
X137285750Y-57965000D01*
X137127000Y-58123750D01*
X137127000Y-59123000D01*
X137147000Y-59123000D01*
X137147000Y-59377000D01*
X137127000Y-59377000D01*
X137127000Y-59397000D01*
X136873000Y-59397000D01*
X136873000Y-59377000D01*
X136173750Y-59377000D01*
X136015000Y-59535750D01*
X136015000Y-59829935D01*
X129697565Y-59829935D01*
X129421076Y-59884932D01*
X129186680Y-60041550D01*
X129186678Y-60041553D01*
X127896930Y-61331300D01*
X127896930Y-60460510D01*
X127852652Y-60225193D01*
X127713580Y-60009069D01*
X127501380Y-59864079D01*
X127249490Y-59813070D01*
X125250510Y-59813070D01*
X125015193Y-59857348D01*
X124799069Y-59996420D01*
X124654079Y-60208620D01*
X124603070Y-60460510D01*
X124603070Y-60677322D01*
X124382125Y-60455991D01*
X123946745Y-60275206D01*
X123475323Y-60274794D01*
X123210000Y-60384424D01*
X123210000Y-58473690D01*
X136015000Y-58473690D01*
X136015000Y-58964250D01*
X136173750Y-59123000D01*
X136873000Y-59123000D01*
X136873000Y-58123750D01*
X136714250Y-57965000D01*
X136523691Y-57965000D01*
X136290302Y-58061673D01*
X136111673Y-58240301D01*
X136015000Y-58473690D01*
X123210000Y-58473690D01*
X123210000Y-53152532D01*
X124277073Y-53152532D01*
X124375736Y-53419387D01*
X124985461Y-53645908D01*
X125635460Y-53621856D01*
X126124264Y-53419387D01*
X126222927Y-53152532D01*
X130777073Y-53152532D01*
X130875736Y-53419387D01*
X131485461Y-53645908D01*
X132135460Y-53621856D01*
X132624264Y-53419387D01*
X132722927Y-53152532D01*
X131750000Y-52179605D01*
X130777073Y-53152532D01*
X126222927Y-53152532D01*
X125250000Y-52179605D01*
X124277073Y-53152532D01*
X123210000Y-53152532D01*
X123210000Y-51735461D01*
X123604092Y-51735461D01*
X123628144Y-52385460D01*
X123830613Y-52874264D01*
X124097468Y-52972927D01*
X125070395Y-52000000D01*
X125429605Y-52000000D01*
X126402532Y-52972927D01*
X126669387Y-52874264D01*
X126895908Y-52264539D01*
X126876331Y-51735461D01*
X130104092Y-51735461D01*
X130128144Y-52385460D01*
X130330613Y-52874264D01*
X130597468Y-52972927D01*
X131570395Y-52000000D01*
X131929605Y-52000000D01*
X132902532Y-52972927D01*
X133169387Y-52874264D01*
X133395908Y-52264539D01*
X133392547Y-52173691D01*
X133490000Y-52173691D01*
X133490000Y-52514250D01*
X133648750Y-52673000D01*
X134623000Y-52673000D01*
X134623000Y-51823750D01*
X134877000Y-51823750D01*
X134877000Y-52673000D01*
X135851250Y-52673000D01*
X136010000Y-52514250D01*
X136010000Y-52173691D01*
X135913327Y-51940302D01*
X135734699Y-51761673D01*
X135501310Y-51665000D01*
X135035750Y-51665000D01*
X134877000Y-51823750D01*
X134623000Y-51823750D01*
X134464250Y-51665000D01*
X133998690Y-51665000D01*
X133765301Y-51761673D01*
X133586673Y-51940302D01*
X133490000Y-52173691D01*
X133392547Y-52173691D01*
X133371856Y-51614540D01*
X133169387Y-51125736D01*
X132902532Y-51027073D01*
X131929605Y-52000000D01*
X131570395Y-52000000D01*
X130597468Y-51027073D01*
X130330613Y-51125736D01*
X130104092Y-51735461D01*
X126876331Y-51735461D01*
X126871856Y-51614540D01*
X126669387Y-51125736D01*
X126402532Y-51027073D01*
X125429605Y-52000000D01*
X125070395Y-52000000D01*
X124097468Y-51027073D01*
X123830613Y-51125736D01*
X123604092Y-51735461D01*
X123210000Y-51735461D01*
X123210000Y-51069930D01*
X123244926Y-50894345D01*
X123304774Y-50804775D01*
X123394345Y-50744926D01*
X123569930Y-50710000D01*
X124327898Y-50710000D01*
X124277073Y-50847468D01*
X124277073Y-50847468D01*
G37*
X124277073Y-50847468D02*
X125250000Y-51820395D01*
X126222927Y-50847468D01*
X126172102Y-50710000D01*
X130827898Y-50710000D01*
X130777073Y-50847468D01*
X131750000Y-51820395D01*
X132722927Y-50847468D01*
X132672102Y-50710000D01*
X141275160Y-50710000D01*
X141142987Y-50822592D01*
X140955592Y-51205999D01*
X141082498Y-51373000D01*
X142673000Y-51373000D01*
X142673000Y-51353000D01*
X142927000Y-51353000D01*
X142927000Y-51373000D01*
X144517502Y-51373000D01*
X144644408Y-51205999D01*
X144457013Y-50822592D01*
X144324840Y-50710000D01*
X145751950Y-50710000D01*
X144621902Y-51840048D01*
X144644408Y-51794001D01*
X144517502Y-51627000D01*
X142927000Y-51627000D01*
X142927000Y-51647000D01*
X142673000Y-51647000D01*
X142673000Y-51627000D01*
X141082498Y-51627000D01*
X140955592Y-51794001D01*
X141048945Y-51985000D01*
X139271068Y-51985000D01*
X139151890Y-51903569D01*
X138900000Y-51852560D01*
X137600000Y-51852560D01*
X137364683Y-51896838D01*
X137148559Y-52035910D01*
X137003569Y-52248110D01*
X136952560Y-52500000D01*
X136952560Y-53200000D01*
X136996838Y-53435317D01*
X137135910Y-53651441D01*
X137348110Y-53796431D01*
X137361197Y-53799081D01*
X137148559Y-53935910D01*
X137051815Y-54077500D01*
X135980574Y-54077500D01*
X135978162Y-54064683D01*
X135839090Y-53848559D01*
X135770994Y-53802031D01*
X135913327Y-53659698D01*
X136010000Y-53426309D01*
X136010000Y-53085750D01*
X135851250Y-52927000D01*
X134877000Y-52927000D01*
X134877000Y-52947000D01*
X134623000Y-52947000D01*
X134623000Y-52927000D01*
X133648750Y-52927000D01*
X133490000Y-53085750D01*
X133490000Y-53426309D01*
X133586673Y-53659698D01*
X133727910Y-53800936D01*
X133673559Y-53835910D01*
X133528569Y-54048110D01*
X133477560Y-54300000D01*
X133477560Y-55300000D01*
X133521838Y-55535317D01*
X133579032Y-55624198D01*
X133425730Y-55777500D01*
X133220542Y-55777500D01*
X133136894Y-55575057D01*
X132677363Y-55114722D01*
X132076648Y-54865284D01*
X131426205Y-54864716D01*
X130825057Y-55113106D01*
X130364722Y-55572637D01*
X130279656Y-55777500D01*
X126720542Y-55777500D01*
X126636894Y-55575057D01*
X126177363Y-55114722D01*
X125576648Y-54865284D01*
X124926205Y-54864716D01*
X124325057Y-55113106D01*
X123864722Y-55572637D01*
X123615284Y-56173352D01*
X123614716Y-56823795D01*
X123863106Y-57424943D01*
X124322637Y-57885278D01*
X124923352Y-58134716D01*
X125573795Y-58135284D01*
X126174943Y-57886894D01*
X126635278Y-57427363D01*
X126720344Y-57222500D01*
X130279458Y-57222500D01*
X130363106Y-57424943D01*
X130822637Y-57885278D01*
X131423352Y-58134716D01*
X132073795Y-58135284D01*
X132674943Y-57886894D01*
X133135278Y-57427363D01*
X133220344Y-57222500D01*
X133725000Y-57222500D01*
X134001489Y-57167503D01*
X134235885Y-57010885D01*
X135260885Y-55985885D01*
X135286573Y-55947440D01*
X135375000Y-55947440D01*
X135610317Y-55903162D01*
X135826441Y-55764090D01*
X135971431Y-55551890D01*
X135977383Y-55522500D01*
X137117287Y-55522500D01*
X137135910Y-55551441D01*
X137348110Y-55696431D01*
X137600000Y-55747440D01*
X138900000Y-55747440D01*
X139135317Y-55703162D01*
X139351441Y-55564090D01*
X139496431Y-55351890D01*
X139503746Y-55315769D01*
X139585885Y-55260885D01*
X139585886Y-55260884D01*
X140084269Y-54762500D01*
X141049054Y-54762500D01*
X140960662Y-54894788D01*
X140878071Y-55310000D01*
X140960662Y-55725212D01*
X141107520Y-55945000D01*
X140960662Y-56164788D01*
X140878071Y-56580000D01*
X140960662Y-56995212D01*
X141107520Y-57215000D01*
X140960662Y-57434788D01*
X140878071Y-57850000D01*
X140960662Y-58265212D01*
X141107520Y-58485000D01*
X140960662Y-58704788D01*
X140878071Y-59120000D01*
X140960662Y-59535212D01*
X141049054Y-59667500D01*
X140864269Y-59667500D01*
X139935885Y-58739115D01*
X139897440Y-58713427D01*
X139897440Y-58600000D01*
X139853162Y-58364683D01*
X139714090Y-58148559D01*
X139501890Y-58003569D01*
X139250000Y-57952560D01*
X138550000Y-57952560D01*
X138314683Y-57996838D01*
X138098559Y-58135910D01*
X137953569Y-58348110D01*
X137946809Y-58381490D01*
X137888327Y-58240301D01*
X137709698Y-58061673D01*
X137476309Y-57965000D01*
X137285750Y-57965000D01*
X137127000Y-58123750D01*
X137127000Y-59123000D01*
X137147000Y-59123000D01*
X137147000Y-59377000D01*
X137127000Y-59377000D01*
X137127000Y-59397000D01*
X136873000Y-59397000D01*
X136873000Y-59377000D01*
X136173750Y-59377000D01*
X136015000Y-59535750D01*
X136015000Y-59829935D01*
X129697565Y-59829935D01*
X129421076Y-59884932D01*
X129186680Y-60041550D01*
X129186678Y-60041553D01*
X127896930Y-61331300D01*
X127896930Y-60460510D01*
X127852652Y-60225193D01*
X127713580Y-60009069D01*
X127501380Y-59864079D01*
X127249490Y-59813070D01*
X125250510Y-59813070D01*
X125015193Y-59857348D01*
X124799069Y-59996420D01*
X124654079Y-60208620D01*
X124603070Y-60460510D01*
X124603070Y-60677322D01*
X124382125Y-60455991D01*
X123946745Y-60275206D01*
X123475323Y-60274794D01*
X123210000Y-60384424D01*
X123210000Y-58473690D01*
X136015000Y-58473690D01*
X136015000Y-58964250D01*
X136173750Y-59123000D01*
X136873000Y-59123000D01*
X136873000Y-58123750D01*
X136714250Y-57965000D01*
X136523691Y-57965000D01*
X136290302Y-58061673D01*
X136111673Y-58240301D01*
X136015000Y-58473690D01*
X123210000Y-58473690D01*
X123210000Y-53152532D01*
X124277073Y-53152532D01*
X124375736Y-53419387D01*
X124985461Y-53645908D01*
X125635460Y-53621856D01*
X126124264Y-53419387D01*
X126222927Y-53152532D01*
X130777073Y-53152532D01*
X130875736Y-53419387D01*
X131485461Y-53645908D01*
X132135460Y-53621856D01*
X132624264Y-53419387D01*
X132722927Y-53152532D01*
X131750000Y-52179605D01*
X130777073Y-53152532D01*
X126222927Y-53152532D01*
X125250000Y-52179605D01*
X124277073Y-53152532D01*
X123210000Y-53152532D01*
X123210000Y-51735461D01*
X123604092Y-51735461D01*
X123628144Y-52385460D01*
X123830613Y-52874264D01*
X124097468Y-52972927D01*
X125070395Y-52000000D01*
X125429605Y-52000000D01*
X126402532Y-52972927D01*
X126669387Y-52874264D01*
X126895908Y-52264539D01*
X126876331Y-51735461D01*
X130104092Y-51735461D01*
X130128144Y-52385460D01*
X130330613Y-52874264D01*
X130597468Y-52972927D01*
X131570395Y-52000000D01*
X131929605Y-52000000D01*
X132902532Y-52972927D01*
X133169387Y-52874264D01*
X133395908Y-52264539D01*
X133392547Y-52173691D01*
X133490000Y-52173691D01*
X133490000Y-52514250D01*
X133648750Y-52673000D01*
X134623000Y-52673000D01*
X134623000Y-51823750D01*
X134877000Y-51823750D01*
X134877000Y-52673000D01*
X135851250Y-52673000D01*
X136010000Y-52514250D01*
X136010000Y-52173691D01*
X135913327Y-51940302D01*
X135734699Y-51761673D01*
X135501310Y-51665000D01*
X135035750Y-51665000D01*
X134877000Y-51823750D01*
X134623000Y-51823750D01*
X134464250Y-51665000D01*
X133998690Y-51665000D01*
X133765301Y-51761673D01*
X133586673Y-51940302D01*
X133490000Y-52173691D01*
X133392547Y-52173691D01*
X133371856Y-51614540D01*
X133169387Y-51125736D01*
X132902532Y-51027073D01*
X131929605Y-52000000D01*
X131570395Y-52000000D01*
X130597468Y-51027073D01*
X130330613Y-51125736D01*
X130104092Y-51735461D01*
X126876331Y-51735461D01*
X126871856Y-51614540D01*
X126669387Y-51125736D01*
X126402532Y-51027073D01*
X125429605Y-52000000D01*
X125070395Y-52000000D01*
X124097468Y-51027073D01*
X123830613Y-51125736D01*
X123604092Y-51735461D01*
X123210000Y-51735461D01*
X123210000Y-51069930D01*
X123244926Y-50894345D01*
X123304774Y-50804775D01*
X123394345Y-50744926D01*
X123569930Y-50710000D01*
X124327898Y-50710000D01*
X124277073Y-50847468D01*
G36*
X177452560Y-51400000D02*
X177496838Y-51635317D01*
X177635910Y-51851441D01*
X177848110Y-51996431D01*
X177861197Y-51999081D01*
X177648559Y-52135910D01*
X177503569Y-52348110D01*
X177452560Y-52600000D01*
X177452560Y-52837282D01*
X177050679Y-53239163D01*
X176880513Y-53493835D01*
X176847521Y-53659698D01*
X176820758Y-53794242D01*
X176820758Y-55605758D01*
X176880513Y-55906165D01*
X177050679Y-56160837D01*
X177452560Y-56562718D01*
X177452560Y-56800000D01*
X177496838Y-57035317D01*
X177578155Y-57161687D01*
X175784842Y-58955000D01*
X174300579Y-58955000D01*
X173956353Y-58610173D01*
X173618554Y-58469906D01*
X173954380Y-58331146D01*
X174329827Y-57956353D01*
X174533268Y-57466413D01*
X174533731Y-56935914D01*
X174331146Y-56445620D01*
X173956353Y-56070173D01*
X173466413Y-55866732D01*
X172935914Y-55866269D01*
X172445620Y-56068854D01*
X172070173Y-56443647D01*
X171866732Y-56933587D01*
X171866415Y-57296257D01*
X171017286Y-56447128D01*
X171017286Y-53918075D01*
X171500000Y-54014093D01*
X172068285Y-53901054D01*
X172550054Y-53579147D01*
X172579403Y-53535223D01*
X172651673Y-53709698D01*
X172830301Y-53888327D01*
X173063690Y-53985000D01*
X173754250Y-53985000D01*
X173913000Y-53826250D01*
X173913000Y-52627000D01*
X174167000Y-52627000D01*
X174167000Y-53826250D01*
X174325750Y-53985000D01*
X175016310Y-53985000D01*
X175249699Y-53888327D01*
X175428327Y-53709698D01*
X175525000Y-53476309D01*
X175525000Y-52785750D01*
X175366250Y-52627000D01*
X174167000Y-52627000D01*
X173913000Y-52627000D01*
X173893000Y-52627000D01*
X173893000Y-52373000D01*
X173913000Y-52373000D01*
X173913000Y-51173750D01*
X174167000Y-51173750D01*
X174167000Y-52373000D01*
X175366250Y-52373000D01*
X175525000Y-52214250D01*
X175525000Y-51523691D01*
X175428327Y-51290302D01*
X175249699Y-51111673D01*
X175016310Y-51015000D01*
X174325750Y-51015000D01*
X174167000Y-51173750D01*
X173913000Y-51173750D01*
X173754250Y-51015000D01*
X173063690Y-51015000D01*
X172830301Y-51111673D01*
X172651673Y-51290302D01*
X172579403Y-51464777D01*
X172550054Y-51420853D01*
X172068285Y-51098946D01*
X171500000Y-50985907D01*
X170931715Y-51098946D01*
X170745310Y-51223497D01*
X170231813Y-50710000D01*
X177452560Y-50710000D01*
X177452560Y-51400000D01*
X177452560Y-51400000D01*
G37*
X177452560Y-51400000D02*
X177496838Y-51635317D01*
X177635910Y-51851441D01*
X177848110Y-51996431D01*
X177861197Y-51999081D01*
X177648559Y-52135910D01*
X177503569Y-52348110D01*
X177452560Y-52600000D01*
X177452560Y-52837282D01*
X177050679Y-53239163D01*
X176880513Y-53493835D01*
X176847521Y-53659698D01*
X176820758Y-53794242D01*
X176820758Y-55605758D01*
X176880513Y-55906165D01*
X177050679Y-56160837D01*
X177452560Y-56562718D01*
X177452560Y-56800000D01*
X177496838Y-57035317D01*
X177578155Y-57161687D01*
X175784842Y-58955000D01*
X174300579Y-58955000D01*
X173956353Y-58610173D01*
X173618554Y-58469906D01*
X173954380Y-58331146D01*
X174329827Y-57956353D01*
X174533268Y-57466413D01*
X174533731Y-56935914D01*
X174331146Y-56445620D01*
X173956353Y-56070173D01*
X173466413Y-55866732D01*
X172935914Y-55866269D01*
X172445620Y-56068854D01*
X172070173Y-56443647D01*
X171866732Y-56933587D01*
X171866415Y-57296257D01*
X171017286Y-56447128D01*
X171017286Y-53918075D01*
X171500000Y-54014093D01*
X172068285Y-53901054D01*
X172550054Y-53579147D01*
X172579403Y-53535223D01*
X172651673Y-53709698D01*
X172830301Y-53888327D01*
X173063690Y-53985000D01*
X173754250Y-53985000D01*
X173913000Y-53826250D01*
X173913000Y-52627000D01*
X174167000Y-52627000D01*
X174167000Y-53826250D01*
X174325750Y-53985000D01*
X175016310Y-53985000D01*
X175249699Y-53888327D01*
X175428327Y-53709698D01*
X175525000Y-53476309D01*
X175525000Y-52785750D01*
X175366250Y-52627000D01*
X174167000Y-52627000D01*
X173913000Y-52627000D01*
X173893000Y-52627000D01*
X173893000Y-52373000D01*
X173913000Y-52373000D01*
X173913000Y-51173750D01*
X174167000Y-51173750D01*
X174167000Y-52373000D01*
X175366250Y-52373000D01*
X175525000Y-52214250D01*
X175525000Y-51523691D01*
X175428327Y-51290302D01*
X175249699Y-51111673D01*
X175016310Y-51015000D01*
X174325750Y-51015000D01*
X174167000Y-51173750D01*
X173913000Y-51173750D01*
X173754250Y-51015000D01*
X173063690Y-51015000D01*
X172830301Y-51111673D01*
X172651673Y-51290302D01*
X172579403Y-51464777D01*
X172550054Y-51420853D01*
X172068285Y-51098946D01*
X171500000Y-50985907D01*
X170931715Y-51098946D01*
X170745310Y-51223497D01*
X170231813Y-50710000D01*
X177452560Y-50710000D01*
X177452560Y-51400000D01*
M02*
