M48
;DRILL file {KiCad 4.0.7-e2-6376~58~ubuntu16.04.1} date Thu Jan 18 15:29:02 2018
;FORMAT={-:-/ absolute / inch / decimal}
FMAT,2
INCH,TZ
T1C0.013
T2C0.026
T3C0.032
T4C0.039
T5C0.043
T6C0.043
%
G90
G05
M72
T1
X7.4606Y-3.7992
X7.4606Y-4.0748
X7.6476Y-3.878
X7.6772Y-4.1732
X7.6772Y-4.3209
X8.7165Y-4.1654
X8.7362Y-4.0315
X8.8031Y-3.9094
X8.8228Y-3.7126
X8.8228Y-3.7835
T2
X7.8839Y-3.5433
X7.8839Y-3.622
X7.8839Y-3.7008
X7.8839Y-3.7795
X7.8839Y-3.8583
X7.8839Y-3.937
X7.8839Y-4.0157
X7.8839Y-4.0945
X8.435Y-3.5433
X8.435Y-3.622
X8.435Y-3.7008
X8.435Y-3.7795
X8.435Y-3.8583
X8.435Y-3.937
X8.435Y-4.0157
X8.435Y-4.0945
T3
X8.1677Y-4.3799
X8.2677Y-4.3799
X8.3677Y-4.3799
X8.5614Y-4.3799
X8.6614Y-4.3799
X8.7614Y-4.3799
T4
X8.6811Y-3.3433
X8.6811Y-3.4433
X8.6811Y-3.5433
X8.6811Y-3.6433
T5
X7.1358Y-3.3169
X7.1358Y-3.4169
X7.1358Y-3.6713
X7.1358Y-3.7713
X7.1358Y-4.0551
X7.1358Y-4.1551
X7.1358Y-4.3799
X7.1358Y-4.4799
X9.0453Y-3.3122
X9.0453Y-3.4122
X9.0453Y-3.5122
X9.0453Y-3.6122
X9.0453Y-3.7122
X9.0453Y-3.8122
X9.0453Y-4.0126
X9.0453Y-4.1126
X9.0453Y-4.2126
X9.0453Y-4.3126
X9.0453Y-4.4126
T6
X7.5Y-3.2579
X7.5Y-3.5138
X7.6772Y-3.2579
X7.6772Y-3.5138
T0
M30
