G04 #@! TF.FileFunction,Copper,L2,Bot,Signal*
%FSLAX46Y46*%
G04 Gerber Fmt 4.6, Leading zero omitted, Abs format (unit mm)*
G04 Created by KiCad (PCBNEW 4.0.7-e2-6376~58~ubuntu16.04.1) date Thu Jan 18 15:28:59 2018*
%MOMM*%
%LPD*%
G01*
G04 APERTURE LIST*
%ADD10C,0.100000*%
%ADD11O,1.998980X1.998980*%
%ADD12R,1.998980X1.998980*%
%ADD13R,1.700000X1.700000*%
%ADD14O,1.700000X1.700000*%
%ADD15R,1.397000X1.397000*%
%ADD16C,1.397000*%
%ADD17R,2.500000X1.100000*%
%ADD18O,2.500000X1.100000*%
%ADD19C,2.000000*%
%ADD20R,3.800000X2.000000*%
%ADD21R,1.500000X2.000000*%
%ADD22C,0.508000*%
%ADD23C,0.152400*%
%ADD24C,0.300000*%
%ADD25C,0.254000*%
G04 APERTURE END LIST*
D10*
D11*
X181250000Y-84250000D03*
D12*
X181250000Y-86790000D03*
D11*
X181250000Y-111250000D03*
D12*
X181250000Y-113790000D03*
D11*
X229750000Y-109540000D03*
D12*
X229750000Y-101920000D03*
D11*
X229750000Y-104460000D03*
X229750000Y-107000000D03*
X229750000Y-112080000D03*
X229750000Y-91750000D03*
D12*
X229750000Y-84130000D03*
D11*
X229750000Y-86670000D03*
X229750000Y-89210000D03*
X229750000Y-94290000D03*
X229750000Y-96830000D03*
X181250000Y-93250000D03*
D12*
X181250000Y-95790000D03*
D11*
X181250000Y-103000000D03*
D12*
X181250000Y-105540000D03*
D13*
X220500000Y-92540000D03*
D14*
X220500000Y-90000000D03*
X220500000Y-87460000D03*
X220500000Y-84920000D03*
D15*
X222540000Y-111250000D03*
D16*
X220000000Y-111250000D03*
X217460000Y-111250000D03*
D17*
X199550000Y-90000000D03*
D18*
X199550000Y-92000000D03*
X199550000Y-94000000D03*
X199550000Y-96000000D03*
X199550000Y-98000000D03*
X199550000Y-100000000D03*
X199550000Y-102000000D03*
X199550000Y-104000000D03*
X214950000Y-104000000D03*
X214850000Y-102000000D03*
X214950000Y-100000000D03*
X214950000Y-98000000D03*
X214950000Y-96000000D03*
X214950000Y-94000000D03*
X214950000Y-92000000D03*
X214950000Y-90000000D03*
D15*
X207460000Y-111250000D03*
D16*
X210000000Y-111250000D03*
X212540000Y-111250000D03*
D19*
X190500000Y-82750000D03*
X195000000Y-82750000D03*
X190500000Y-89250000D03*
X195000000Y-89250000D03*
D20*
X192250000Y-106100000D03*
D21*
X192250000Y-112400000D03*
X189950000Y-112400000D03*
X194550000Y-112400000D03*
D22*
X224100000Y-94300000D03*
X224100000Y-96100000D03*
X221900000Y-102400000D03*
X223600000Y-99300000D03*
X189500000Y-103500000D03*
X189500000Y-96500000D03*
X221400000Y-105800000D03*
X194250000Y-98500000D03*
X195000000Y-109750000D03*
X195000000Y-106000000D03*
D23*
X224100000Y-96100000D02*
X224100000Y-94300000D01*
D24*
X222153999Y-102653999D02*
X225000000Y-105500000D01*
X221900000Y-102400000D02*
X222153999Y-102653999D01*
X225000000Y-105300000D02*
X225000000Y-105500000D01*
X225000000Y-105500000D02*
X225000000Y-113500000D01*
X229750000Y-101920000D02*
X226363110Y-101920000D01*
X226363110Y-101920000D02*
X225000000Y-103283110D01*
X225000000Y-103283110D02*
X225000000Y-105300000D01*
X225000000Y-100700000D02*
X225000000Y-105300000D01*
X223600000Y-99300000D02*
X225000000Y-100700000D01*
X225000000Y-113500000D02*
X224000000Y-114500000D01*
X224000000Y-114500000D02*
X211500000Y-114500000D01*
X211500000Y-114500000D02*
X210000000Y-113000000D01*
X210000000Y-113000000D02*
X210000000Y-111250000D01*
X229750000Y-96830000D02*
X226405511Y-96830000D01*
X225000000Y-98235511D02*
X225000000Y-100700000D01*
X226405511Y-96830000D02*
X225000000Y-98235511D01*
X225000000Y-100700000D02*
X225000000Y-98000000D01*
X229750000Y-94290000D02*
X226283855Y-94290000D01*
X226283855Y-94290000D02*
X225000000Y-95573855D01*
X225000000Y-95573855D02*
X225000000Y-98000000D01*
X225000000Y-98000000D02*
X225000000Y-85269696D01*
X225000000Y-85269696D02*
X226139696Y-84130000D01*
X226139696Y-84130000D02*
X229750000Y-84130000D01*
X186750000Y-106750000D02*
X186750000Y-105500000D01*
X186750000Y-105500000D02*
X186750000Y-104000000D01*
X189500000Y-103500000D02*
X188750000Y-103500000D01*
X188750000Y-103500000D02*
X186750000Y-105500000D01*
X189500000Y-96500000D02*
X187513931Y-96500000D01*
X187513931Y-96500000D02*
X186750000Y-97263931D01*
X186750000Y-97263931D02*
X186750000Y-99000000D01*
X186750000Y-104000000D02*
X186750000Y-99000000D01*
X186750000Y-99000000D02*
X186750000Y-97500000D01*
X181250000Y-93250000D02*
X185614601Y-93250000D01*
X185614601Y-93250000D02*
X186750000Y-94385399D01*
X186750000Y-94385399D02*
X186750000Y-97500000D01*
X181250000Y-103000000D02*
X185750000Y-103000000D01*
X185750000Y-103000000D02*
X186750000Y-104000000D01*
X186750000Y-97500000D02*
X186750000Y-88000000D01*
X186750000Y-88000000D02*
X185540000Y-86790000D01*
X185540000Y-86790000D02*
X181250000Y-86790000D01*
X188500000Y-108500000D02*
X186750000Y-106750000D01*
X207250000Y-108500000D02*
X188500000Y-108500000D01*
X210000000Y-111250000D02*
X207250000Y-108500000D01*
X210000000Y-111250000D02*
X210000000Y-108904961D01*
X210000000Y-108904961D02*
X205095039Y-104000000D01*
X205095039Y-104000000D02*
X200250000Y-104000000D01*
X220500000Y-90000000D02*
X218631827Y-90000000D01*
X218631827Y-90000000D02*
X217503125Y-91128702D01*
X217503125Y-91128702D02*
X217503125Y-106286875D01*
X217503125Y-106286875D02*
X213238499Y-110551501D01*
X213238499Y-110551501D02*
X212540000Y-111250000D01*
X184750000Y-111250000D02*
X185900000Y-112400000D01*
X185900000Y-112400000D02*
X189950000Y-112400000D01*
X181250000Y-111250000D02*
X184750000Y-111250000D01*
X192250000Y-112400000D02*
X192250000Y-113882625D01*
X192250000Y-113882625D02*
X192918003Y-114550628D01*
X192918003Y-114550628D02*
X202483484Y-114550628D01*
X202483484Y-114550628D02*
X205784112Y-111250000D01*
X205784112Y-111250000D02*
X207460000Y-111250000D01*
D25*
G36*
X188854092Y-82485461D02*
X188878144Y-83135460D01*
X189080613Y-83624264D01*
X189347468Y-83722927D01*
X190320395Y-82750000D01*
X190306253Y-82735858D01*
X190485858Y-82556253D01*
X190500000Y-82570395D01*
X190514143Y-82556253D01*
X190693748Y-82735858D01*
X190679605Y-82750000D01*
X191652532Y-83722927D01*
X191919387Y-83624264D01*
X192145908Y-83014539D01*
X192121856Y-82364540D01*
X191954290Y-81960000D01*
X193557684Y-81960000D01*
X193365284Y-82423352D01*
X193364716Y-83073795D01*
X193613106Y-83674943D01*
X194072637Y-84135278D01*
X194673352Y-84384716D01*
X195323795Y-84385284D01*
X195924943Y-84136894D01*
X196385278Y-83677363D01*
X196634716Y-83076648D01*
X196635284Y-82426205D01*
X196442651Y-81960000D01*
X232430070Y-81960000D01*
X232509985Y-81975896D01*
X232518448Y-81981551D01*
X232524104Y-81990016D01*
X232540000Y-82069930D01*
X232540000Y-115430070D01*
X232524104Y-115509984D01*
X232518448Y-115518449D01*
X232509985Y-115524104D01*
X232430070Y-115540000D01*
X178569930Y-115540000D01*
X178490016Y-115524104D01*
X178481551Y-115518448D01*
X178475896Y-115509985D01*
X178460000Y-115430070D01*
X178460000Y-114075750D01*
X179615510Y-114075750D01*
X179615510Y-114915799D01*
X179712183Y-115149188D01*
X179890811Y-115327817D01*
X180124200Y-115424490D01*
X180964250Y-115424490D01*
X181123000Y-115265740D01*
X181123000Y-113917000D01*
X181377000Y-113917000D01*
X181377000Y-115265740D01*
X181535750Y-115424490D01*
X182375800Y-115424490D01*
X182609189Y-115327817D01*
X182787817Y-115149188D01*
X182884490Y-114915799D01*
X182884490Y-114075750D01*
X182725740Y-113917000D01*
X181377000Y-113917000D01*
X181123000Y-113917000D01*
X179774260Y-113917000D01*
X179615510Y-114075750D01*
X178460000Y-114075750D01*
X178460000Y-85790510D01*
X179603070Y-85790510D01*
X179603070Y-87789490D01*
X179647348Y-88024807D01*
X179786420Y-88240931D01*
X179998620Y-88385921D01*
X180250510Y-88436930D01*
X182249490Y-88436930D01*
X182484807Y-88392652D01*
X182700931Y-88253580D01*
X182845921Y-88041380D01*
X182896930Y-87789490D01*
X182896930Y-87575000D01*
X185214842Y-87575000D01*
X185965000Y-88325158D01*
X185965000Y-92558159D01*
X185915008Y-92524755D01*
X185614601Y-92465000D01*
X182674889Y-92465000D01*
X182405759Y-92062219D01*
X181875492Y-91707906D01*
X181250000Y-91583488D01*
X180624508Y-91707906D01*
X180094241Y-92062219D01*
X179739928Y-92592486D01*
X179615510Y-93217978D01*
X179615510Y-93282022D01*
X179739928Y-93907514D01*
X179953453Y-94227077D01*
X179799069Y-94326420D01*
X179654079Y-94538620D01*
X179603070Y-94790510D01*
X179603070Y-96789490D01*
X179647348Y-97024807D01*
X179786420Y-97240931D01*
X179998620Y-97385921D01*
X180250510Y-97436930D01*
X182249490Y-97436930D01*
X182484807Y-97392652D01*
X182700931Y-97253580D01*
X182845921Y-97041380D01*
X182896930Y-96789490D01*
X182896930Y-94790510D01*
X182852652Y-94555193D01*
X182713580Y-94339069D01*
X182547527Y-94225610D01*
X182674889Y-94035000D01*
X185289443Y-94035000D01*
X185965000Y-94710557D01*
X185965000Y-102257766D01*
X185750000Y-102215000D01*
X182674889Y-102215000D01*
X182405759Y-101812219D01*
X181875492Y-101457906D01*
X181250000Y-101333488D01*
X180624508Y-101457906D01*
X180094241Y-101812219D01*
X179739928Y-102342486D01*
X179615510Y-102967978D01*
X179615510Y-103032022D01*
X179739928Y-103657514D01*
X179953453Y-103977077D01*
X179799069Y-104076420D01*
X179654079Y-104288620D01*
X179603070Y-104540510D01*
X179603070Y-106539490D01*
X179647348Y-106774807D01*
X179786420Y-106990931D01*
X179998620Y-107135921D01*
X180250510Y-107186930D01*
X182249490Y-107186930D01*
X182484807Y-107142652D01*
X182700931Y-107003580D01*
X182845921Y-106791380D01*
X182896930Y-106539490D01*
X182896930Y-104540510D01*
X182852652Y-104305193D01*
X182713580Y-104089069D01*
X182547527Y-103975610D01*
X182674889Y-103785000D01*
X185424842Y-103785000D01*
X185965000Y-104325158D01*
X185965000Y-106750000D01*
X186024755Y-107050407D01*
X186194921Y-107305079D01*
X187944921Y-109055079D01*
X188199594Y-109225245D01*
X188500000Y-109285000D01*
X206924842Y-109285000D01*
X207543902Y-109904060D01*
X206761500Y-109904060D01*
X206526183Y-109948338D01*
X206310059Y-110087410D01*
X206165069Y-110299610D01*
X206131577Y-110465000D01*
X205784112Y-110465000D01*
X205483706Y-110524755D01*
X205229033Y-110694921D01*
X202158326Y-113765628D01*
X195832397Y-113765628D01*
X195838327Y-113759698D01*
X195935000Y-113526309D01*
X195935000Y-112685750D01*
X195776250Y-112527000D01*
X194677000Y-112527000D01*
X194677000Y-112547000D01*
X194423000Y-112547000D01*
X194423000Y-112527000D01*
X194403000Y-112527000D01*
X194403000Y-112273000D01*
X194423000Y-112273000D01*
X194423000Y-110923750D01*
X194677000Y-110923750D01*
X194677000Y-112273000D01*
X195776250Y-112273000D01*
X195935000Y-112114250D01*
X195935000Y-111273691D01*
X195838327Y-111040302D01*
X195659699Y-110861673D01*
X195426310Y-110765000D01*
X194835750Y-110765000D01*
X194677000Y-110923750D01*
X194423000Y-110923750D01*
X194264250Y-110765000D01*
X193673690Y-110765000D01*
X193440301Y-110861673D01*
X193398340Y-110903634D01*
X193251890Y-110803569D01*
X193000000Y-110752560D01*
X191500000Y-110752560D01*
X191264683Y-110796838D01*
X191098523Y-110903759D01*
X190951890Y-110803569D01*
X190700000Y-110752560D01*
X189200000Y-110752560D01*
X188964683Y-110796838D01*
X188748559Y-110935910D01*
X188603569Y-111148110D01*
X188552560Y-111400000D01*
X188552560Y-111615000D01*
X186225158Y-111615000D01*
X185305079Y-110694921D01*
X185050407Y-110524755D01*
X184750000Y-110465000D01*
X182674889Y-110465000D01*
X182405759Y-110062219D01*
X181875492Y-109707906D01*
X181250000Y-109583488D01*
X180624508Y-109707906D01*
X180094241Y-110062219D01*
X179739928Y-110592486D01*
X179615510Y-111217978D01*
X179615510Y-111282022D01*
X179739928Y-111907514D01*
X179953013Y-112226418D01*
X179890811Y-112252183D01*
X179712183Y-112430812D01*
X179615510Y-112664201D01*
X179615510Y-113504250D01*
X179774260Y-113663000D01*
X181123000Y-113663000D01*
X181123000Y-113643000D01*
X181377000Y-113643000D01*
X181377000Y-113663000D01*
X182725740Y-113663000D01*
X182884490Y-113504250D01*
X182884490Y-112664201D01*
X182787817Y-112430812D01*
X182609189Y-112252183D01*
X182546987Y-112226418D01*
X182674889Y-112035000D01*
X184424842Y-112035000D01*
X185344921Y-112955079D01*
X185599594Y-113125245D01*
X185900000Y-113185001D01*
X185900005Y-113185000D01*
X188552560Y-113185000D01*
X188552560Y-113400000D01*
X188596838Y-113635317D01*
X188735910Y-113851441D01*
X188948110Y-113996431D01*
X189200000Y-114047440D01*
X190700000Y-114047440D01*
X190935317Y-114003162D01*
X191101477Y-113896241D01*
X191248110Y-113996431D01*
X191497691Y-114046972D01*
X191524755Y-114183032D01*
X191694921Y-114437704D01*
X192362924Y-115105707D01*
X192617597Y-115275873D01*
X192918003Y-115335628D01*
X202483484Y-115335628D01*
X202783891Y-115275873D01*
X203038563Y-115105707D01*
X206109270Y-112035000D01*
X206130336Y-112035000D01*
X206158338Y-112183817D01*
X206297410Y-112399941D01*
X206509610Y-112544931D01*
X206761500Y-112595940D01*
X208158500Y-112595940D01*
X208393817Y-112551662D01*
X208609941Y-112412590D01*
X208754931Y-112200390D01*
X208805940Y-111948500D01*
X208805940Y-111852116D01*
X208868854Y-112004380D01*
X209215000Y-112351130D01*
X209215000Y-113000000D01*
X209274755Y-113300407D01*
X209444921Y-113555079D01*
X210944921Y-115055079D01*
X211199593Y-115225245D01*
X211500000Y-115285000D01*
X224000000Y-115285000D01*
X224300407Y-115225245D01*
X224555079Y-115055079D01*
X225555079Y-114055079D01*
X225725245Y-113800406D01*
X225785001Y-113500000D01*
X225785000Y-113499995D01*
X225785000Y-112460355D01*
X228160373Y-112460355D01*
X228426932Y-113039726D01*
X228894916Y-113472987D01*
X229369646Y-113669619D01*
X229623000Y-113550265D01*
X229623000Y-112207000D01*
X229877000Y-112207000D01*
X229877000Y-113550265D01*
X230130354Y-113669619D01*
X230605084Y-113472987D01*
X231073068Y-113039726D01*
X231339627Y-112460355D01*
X231220807Y-112207000D01*
X229877000Y-112207000D01*
X229623000Y-112207000D01*
X228279193Y-112207000D01*
X228160373Y-112460355D01*
X225785000Y-112460355D01*
X225785000Y-103608268D01*
X226688268Y-102705000D01*
X228103070Y-102705000D01*
X228103070Y-102919490D01*
X228147348Y-103154807D01*
X228286420Y-103370931D01*
X228452473Y-103484390D01*
X228239928Y-103802486D01*
X228115510Y-104427978D01*
X228115510Y-104492022D01*
X228239928Y-105117514D01*
X228594241Y-105647781D01*
X228717290Y-105730000D01*
X228594241Y-105812219D01*
X228239928Y-106342486D01*
X228115510Y-106967978D01*
X228115510Y-107032022D01*
X228239928Y-107657514D01*
X228594241Y-108187781D01*
X228717290Y-108270000D01*
X228594241Y-108352219D01*
X228239928Y-108882486D01*
X228115510Y-109507978D01*
X228115510Y-109572022D01*
X228239928Y-110197514D01*
X228594241Y-110727781D01*
X228743300Y-110827379D01*
X228426932Y-111120274D01*
X228160373Y-111699645D01*
X228279193Y-111953000D01*
X229623000Y-111953000D01*
X229623000Y-111933000D01*
X229877000Y-111933000D01*
X229877000Y-111953000D01*
X231220807Y-111953000D01*
X231339627Y-111699645D01*
X231073068Y-111120274D01*
X230756700Y-110827379D01*
X230905759Y-110727781D01*
X231260072Y-110197514D01*
X231384490Y-109572022D01*
X231384490Y-109507978D01*
X231260072Y-108882486D01*
X230905759Y-108352219D01*
X230782710Y-108270000D01*
X230905759Y-108187781D01*
X231260072Y-107657514D01*
X231384490Y-107032022D01*
X231384490Y-106967978D01*
X231260072Y-106342486D01*
X230905759Y-105812219D01*
X230782710Y-105730000D01*
X230905759Y-105647781D01*
X231260072Y-105117514D01*
X231384490Y-104492022D01*
X231384490Y-104427978D01*
X231260072Y-103802486D01*
X231046547Y-103482923D01*
X231200931Y-103383580D01*
X231345921Y-103171380D01*
X231396930Y-102919490D01*
X231396930Y-100920510D01*
X231352652Y-100685193D01*
X231213580Y-100469069D01*
X231001380Y-100324079D01*
X230749490Y-100273070D01*
X228750510Y-100273070D01*
X228515193Y-100317348D01*
X228299069Y-100456420D01*
X228154079Y-100668620D01*
X228103070Y-100920510D01*
X228103070Y-101135000D01*
X226363110Y-101135000D01*
X226062704Y-101194755D01*
X225808031Y-101364921D01*
X225785000Y-101387952D01*
X225785000Y-98560669D01*
X226730669Y-97615000D01*
X228325111Y-97615000D01*
X228594241Y-98017781D01*
X229124508Y-98372094D01*
X229750000Y-98496512D01*
X230375492Y-98372094D01*
X230905759Y-98017781D01*
X231260072Y-97487514D01*
X231384490Y-96862022D01*
X231384490Y-96797978D01*
X231260072Y-96172486D01*
X230905759Y-95642219D01*
X230782710Y-95560000D01*
X230905759Y-95477781D01*
X231260072Y-94947514D01*
X231384490Y-94322022D01*
X231384490Y-94257978D01*
X231260072Y-93632486D01*
X230905759Y-93102219D01*
X230782710Y-93020000D01*
X230905759Y-92937781D01*
X231260072Y-92407514D01*
X231384490Y-91782022D01*
X231384490Y-91717978D01*
X231260072Y-91092486D01*
X230905759Y-90562219D01*
X230782710Y-90480000D01*
X230905759Y-90397781D01*
X231260072Y-89867514D01*
X231384490Y-89242022D01*
X231384490Y-89177978D01*
X231260072Y-88552486D01*
X230905759Y-88022219D01*
X230756700Y-87922621D01*
X231073068Y-87629726D01*
X231339627Y-87050355D01*
X231220807Y-86797000D01*
X229877000Y-86797000D01*
X229877000Y-86817000D01*
X229623000Y-86817000D01*
X229623000Y-86797000D01*
X228279193Y-86797000D01*
X228160373Y-87050355D01*
X228426932Y-87629726D01*
X228743300Y-87922621D01*
X228594241Y-88022219D01*
X228239928Y-88552486D01*
X228115510Y-89177978D01*
X228115510Y-89242022D01*
X228239928Y-89867514D01*
X228594241Y-90397781D01*
X228717290Y-90480000D01*
X228594241Y-90562219D01*
X228239928Y-91092486D01*
X228115510Y-91717978D01*
X228115510Y-91782022D01*
X228239928Y-92407514D01*
X228594241Y-92937781D01*
X228717290Y-93020000D01*
X228594241Y-93102219D01*
X228325111Y-93505000D01*
X226283855Y-93505000D01*
X225983448Y-93564755D01*
X225785000Y-93697353D01*
X225785000Y-85594854D01*
X226464853Y-84915000D01*
X228103070Y-84915000D01*
X228103070Y-85129490D01*
X228147348Y-85364807D01*
X228286420Y-85580931D01*
X228447649Y-85691094D01*
X228426932Y-85710274D01*
X228160373Y-86289645D01*
X228279193Y-86543000D01*
X229623000Y-86543000D01*
X229623000Y-86523000D01*
X229877000Y-86523000D01*
X229877000Y-86543000D01*
X231220807Y-86543000D01*
X231339627Y-86289645D01*
X231073068Y-85710274D01*
X231051137Y-85689970D01*
X231200931Y-85593580D01*
X231345921Y-85381380D01*
X231396930Y-85129490D01*
X231396930Y-83130510D01*
X231352652Y-82895193D01*
X231213580Y-82679069D01*
X231001380Y-82534079D01*
X230749490Y-82483070D01*
X228750510Y-82483070D01*
X228515193Y-82527348D01*
X228299069Y-82666420D01*
X228154079Y-82878620D01*
X228103070Y-83130510D01*
X228103070Y-83345000D01*
X226139701Y-83345000D01*
X226139696Y-83344999D01*
X225839290Y-83404755D01*
X225584617Y-83574921D01*
X225584615Y-83574924D01*
X224444921Y-84714617D01*
X224274755Y-84969289D01*
X224274755Y-84969290D01*
X224215000Y-85269696D01*
X224215000Y-93411099D01*
X223923943Y-93410846D01*
X223597080Y-93545903D01*
X223346782Y-93795764D01*
X223211154Y-94122391D01*
X223210846Y-94476057D01*
X223345903Y-94802920D01*
X223388800Y-94845892D01*
X223388800Y-95553819D01*
X223346782Y-95595764D01*
X223211154Y-95922391D01*
X223210846Y-96276057D01*
X223345903Y-96602920D01*
X223595764Y-96853218D01*
X223922391Y-96988846D01*
X224215000Y-96989101D01*
X224215000Y-98657740D01*
X224104236Y-98546782D01*
X223777609Y-98411154D01*
X223423943Y-98410846D01*
X223097080Y-98545903D01*
X222846782Y-98795764D01*
X222711154Y-99122391D01*
X222710846Y-99476057D01*
X222845903Y-99802920D01*
X223095764Y-100053218D01*
X223347655Y-100157813D01*
X224215000Y-101025158D01*
X224215000Y-103604842D01*
X222757505Y-102147347D01*
X222654097Y-101897080D01*
X222404236Y-101646782D01*
X222077609Y-101511154D01*
X221723943Y-101510846D01*
X221397080Y-101645903D01*
X221146782Y-101895764D01*
X221011154Y-102222391D01*
X221010846Y-102576057D01*
X221145903Y-102902920D01*
X221395764Y-103153218D01*
X221647655Y-103257813D01*
X224215000Y-105825158D01*
X224215000Y-113174842D01*
X223674842Y-113715000D01*
X211825158Y-113715000D01*
X210785000Y-112674842D01*
X210785000Y-112350579D01*
X211129827Y-112006353D01*
X211270094Y-111668554D01*
X211408854Y-112004380D01*
X211783647Y-112379827D01*
X212273587Y-112583268D01*
X212804086Y-112583731D01*
X213294380Y-112381146D01*
X213669827Y-112006353D01*
X213873268Y-111516413D01*
X213873270Y-111514086D01*
X216126269Y-111514086D01*
X216328854Y-112004380D01*
X216703647Y-112379827D01*
X217193587Y-112583268D01*
X217724086Y-112583731D01*
X218214380Y-112381146D01*
X218411681Y-112184188D01*
X219245417Y-112184188D01*
X219307071Y-112419800D01*
X219807480Y-112595927D01*
X220337199Y-112567148D01*
X220692929Y-112419800D01*
X220754583Y-112184188D01*
X220000000Y-111429605D01*
X219245417Y-112184188D01*
X218411681Y-112184188D01*
X218589827Y-112006353D01*
X218723314Y-111684882D01*
X218830200Y-111942929D01*
X219065812Y-112004583D01*
X219820395Y-111250000D01*
X220179605Y-111250000D01*
X220934188Y-112004583D01*
X221169800Y-111942929D01*
X221194060Y-111874002D01*
X221194060Y-111948500D01*
X221238338Y-112183817D01*
X221377410Y-112399941D01*
X221589610Y-112544931D01*
X221841500Y-112595940D01*
X223238500Y-112595940D01*
X223473817Y-112551662D01*
X223689941Y-112412590D01*
X223834931Y-112200390D01*
X223885940Y-111948500D01*
X223885940Y-110551500D01*
X223841662Y-110316183D01*
X223702590Y-110100059D01*
X223490390Y-109955069D01*
X223238500Y-109904060D01*
X221841500Y-109904060D01*
X221606183Y-109948338D01*
X221390059Y-110087410D01*
X221245069Y-110299610D01*
X221194060Y-110551500D01*
X221194060Y-110615640D01*
X221169800Y-110557071D01*
X220934188Y-110495417D01*
X220179605Y-111250000D01*
X219820395Y-111250000D01*
X219065812Y-110495417D01*
X218830200Y-110557071D01*
X218731917Y-110836312D01*
X218591146Y-110495620D01*
X218411652Y-110315812D01*
X219245417Y-110315812D01*
X220000000Y-111070395D01*
X220754583Y-110315812D01*
X220692929Y-110080200D01*
X220192520Y-109904073D01*
X219662801Y-109932852D01*
X219307071Y-110080200D01*
X219245417Y-110315812D01*
X218411652Y-110315812D01*
X218216353Y-110120173D01*
X217726413Y-109916732D01*
X217195914Y-109916269D01*
X216705620Y-110118854D01*
X216330173Y-110493647D01*
X216126732Y-110983587D01*
X216126269Y-111514086D01*
X213873270Y-111514086D01*
X213873696Y-111026462D01*
X218058204Y-106841954D01*
X218228370Y-106587281D01*
X218288125Y-106286875D01*
X218288125Y-92825750D01*
X219015000Y-92825750D01*
X219015000Y-93516310D01*
X219111673Y-93749699D01*
X219290302Y-93928327D01*
X219523691Y-94025000D01*
X220214250Y-94025000D01*
X220373000Y-93866250D01*
X220373000Y-92667000D01*
X220627000Y-92667000D01*
X220627000Y-93866250D01*
X220785750Y-94025000D01*
X221476309Y-94025000D01*
X221709698Y-93928327D01*
X221888327Y-93749699D01*
X221985000Y-93516310D01*
X221985000Y-92825750D01*
X221826250Y-92667000D01*
X220627000Y-92667000D01*
X220373000Y-92667000D01*
X219173750Y-92667000D01*
X219015000Y-92825750D01*
X218288125Y-92825750D01*
X218288125Y-91453860D01*
X218956985Y-90785000D01*
X219243750Y-90785000D01*
X219420853Y-91050054D01*
X219464777Y-91079403D01*
X219290302Y-91151673D01*
X219111673Y-91330301D01*
X219015000Y-91563690D01*
X219015000Y-92254250D01*
X219173750Y-92413000D01*
X220373000Y-92413000D01*
X220373000Y-92393000D01*
X220627000Y-92393000D01*
X220627000Y-92413000D01*
X221826250Y-92413000D01*
X221985000Y-92254250D01*
X221985000Y-91563690D01*
X221888327Y-91330301D01*
X221709698Y-91151673D01*
X221535223Y-91079403D01*
X221579147Y-91050054D01*
X221901054Y-90568285D01*
X222014093Y-90000000D01*
X221901054Y-89431715D01*
X221579147Y-88949946D01*
X221249974Y-88730000D01*
X221579147Y-88510054D01*
X221901054Y-88028285D01*
X222014093Y-87460000D01*
X221901054Y-86891715D01*
X221579147Y-86409946D01*
X221249974Y-86190000D01*
X221579147Y-85970054D01*
X221901054Y-85488285D01*
X222014093Y-84920000D01*
X221901054Y-84351715D01*
X221579147Y-83869946D01*
X221097378Y-83548039D01*
X220529093Y-83435000D01*
X220470907Y-83435000D01*
X219902622Y-83548039D01*
X219420853Y-83869946D01*
X219098946Y-84351715D01*
X218985907Y-84920000D01*
X219098946Y-85488285D01*
X219420853Y-85970054D01*
X219750026Y-86190000D01*
X219420853Y-86409946D01*
X219098946Y-86891715D01*
X218985907Y-87460000D01*
X219098946Y-88028285D01*
X219420853Y-88510054D01*
X219750026Y-88730000D01*
X219420853Y-88949946D01*
X219243750Y-89215000D01*
X218631827Y-89215000D01*
X218331421Y-89274755D01*
X218076748Y-89444921D01*
X216948046Y-90573623D01*
X216777880Y-90828295D01*
X216777880Y-90828296D01*
X216718125Y-91128702D01*
X216718125Y-91451334D01*
X216524851Y-91162078D01*
X216282283Y-91000000D01*
X216524851Y-90837922D01*
X216781726Y-90453480D01*
X216871929Y-90000000D01*
X216781726Y-89546520D01*
X216524851Y-89162078D01*
X216140409Y-88905203D01*
X215686929Y-88815000D01*
X214213071Y-88815000D01*
X213759591Y-88905203D01*
X213375149Y-89162078D01*
X213118274Y-89546520D01*
X213028071Y-90000000D01*
X213118274Y-90453480D01*
X213375149Y-90837922D01*
X213617717Y-91000000D01*
X213375149Y-91162078D01*
X213118274Y-91546520D01*
X213028071Y-92000000D01*
X213118274Y-92453480D01*
X213375149Y-92837922D01*
X213617717Y-93000000D01*
X213375149Y-93162078D01*
X213118274Y-93546520D01*
X213028071Y-94000000D01*
X213118274Y-94453480D01*
X213375149Y-94837922D01*
X213617717Y-95000000D01*
X213375149Y-95162078D01*
X213118274Y-95546520D01*
X213028071Y-96000000D01*
X213118274Y-96453480D01*
X213375149Y-96837922D01*
X213617717Y-97000000D01*
X213375149Y-97162078D01*
X213118274Y-97546520D01*
X213028071Y-98000000D01*
X213118274Y-98453480D01*
X213375149Y-98837922D01*
X213617717Y-99000000D01*
X213375149Y-99162078D01*
X213118274Y-99546520D01*
X213028071Y-100000000D01*
X213118274Y-100453480D01*
X213375149Y-100837922D01*
X213567717Y-100966591D01*
X213275149Y-101162078D01*
X213018274Y-101546520D01*
X212928071Y-102000000D01*
X213018274Y-102453480D01*
X213275149Y-102837922D01*
X213576691Y-103039405D01*
X213322276Y-103251882D01*
X213106602Y-103663854D01*
X213106197Y-103690256D01*
X213231639Y-103873000D01*
X214823000Y-103873000D01*
X214823000Y-103853000D01*
X215077000Y-103853000D01*
X215077000Y-103873000D01*
X215097000Y-103873000D01*
X215097000Y-104127000D01*
X215077000Y-104127000D01*
X215077000Y-105185000D01*
X215777000Y-105185000D01*
X216220813Y-105046196D01*
X216577724Y-104748118D01*
X216718125Y-104479930D01*
X216718125Y-105961717D01*
X212763148Y-109916694D01*
X212275914Y-109916269D01*
X211785620Y-110118854D01*
X211410173Y-110493647D01*
X211269906Y-110831446D01*
X211131146Y-110495620D01*
X210785000Y-110148870D01*
X210785000Y-108904961D01*
X210725245Y-108604555D01*
X210725245Y-108604554D01*
X210555079Y-108349882D01*
X206514941Y-104309744D01*
X213106197Y-104309744D01*
X213106602Y-104336146D01*
X213322276Y-104748118D01*
X213679187Y-105046196D01*
X214123000Y-105185000D01*
X214823000Y-105185000D01*
X214823000Y-104127000D01*
X213231639Y-104127000D01*
X213106197Y-104309744D01*
X206514941Y-104309744D01*
X205650118Y-103444921D01*
X205395446Y-103274755D01*
X205095039Y-103215000D01*
X201160212Y-103215000D01*
X201124851Y-103162078D01*
X200882283Y-103000000D01*
X201124851Y-102837922D01*
X201381726Y-102453480D01*
X201471929Y-102000000D01*
X201381726Y-101546520D01*
X201124851Y-101162078D01*
X200882283Y-101000000D01*
X201124851Y-100837922D01*
X201381726Y-100453480D01*
X201471929Y-100000000D01*
X201381726Y-99546520D01*
X201124851Y-99162078D01*
X200882283Y-99000000D01*
X201124851Y-98837922D01*
X201381726Y-98453480D01*
X201471929Y-98000000D01*
X201381726Y-97546520D01*
X201124851Y-97162078D01*
X200882283Y-97000000D01*
X201124851Y-96837922D01*
X201381726Y-96453480D01*
X201471929Y-96000000D01*
X201381726Y-95546520D01*
X201124851Y-95162078D01*
X200882283Y-95000000D01*
X201124851Y-94837922D01*
X201381726Y-94453480D01*
X201471929Y-94000000D01*
X201381726Y-93546520D01*
X201124851Y-93162078D01*
X200882283Y-93000000D01*
X201124851Y-92837922D01*
X201381726Y-92453480D01*
X201471929Y-92000000D01*
X201381726Y-91546520D01*
X201124851Y-91162078D01*
X201074129Y-91128187D01*
X201251441Y-91014090D01*
X201396431Y-90801890D01*
X201447440Y-90550000D01*
X201447440Y-89450000D01*
X201403162Y-89214683D01*
X201264090Y-88998559D01*
X201051890Y-88853569D01*
X200800000Y-88802560D01*
X198300000Y-88802560D01*
X198064683Y-88846838D01*
X197848559Y-88985910D01*
X197703569Y-89198110D01*
X197652560Y-89450000D01*
X197652560Y-90550000D01*
X197696838Y-90785317D01*
X197835910Y-91001441D01*
X198023615Y-91129694D01*
X197975149Y-91162078D01*
X197718274Y-91546520D01*
X197628071Y-92000000D01*
X197718274Y-92453480D01*
X197975149Y-92837922D01*
X198217717Y-93000000D01*
X197975149Y-93162078D01*
X197718274Y-93546520D01*
X197628071Y-94000000D01*
X197718274Y-94453480D01*
X197975149Y-94837922D01*
X198217717Y-95000000D01*
X197975149Y-95162078D01*
X197718274Y-95546520D01*
X197628071Y-96000000D01*
X197718274Y-96453480D01*
X197975149Y-96837922D01*
X198217717Y-97000000D01*
X197975149Y-97162078D01*
X197718274Y-97546520D01*
X197628071Y-98000000D01*
X197718274Y-98453480D01*
X197975149Y-98837922D01*
X198217717Y-99000000D01*
X197975149Y-99162078D01*
X197718274Y-99546520D01*
X197628071Y-100000000D01*
X197718274Y-100453480D01*
X197975149Y-100837922D01*
X198217717Y-101000000D01*
X197975149Y-101162078D01*
X197718274Y-101546520D01*
X197628071Y-102000000D01*
X197718274Y-102453480D01*
X197975149Y-102837922D01*
X198217717Y-103000000D01*
X197975149Y-103162078D01*
X197718274Y-103546520D01*
X197628071Y-104000000D01*
X197718274Y-104453480D01*
X197975149Y-104837922D01*
X198359591Y-105094797D01*
X198813071Y-105185000D01*
X200286929Y-105185000D01*
X200740409Y-105094797D01*
X201124851Y-104837922D01*
X201160212Y-104785000D01*
X204769881Y-104785000D01*
X209215000Y-109230119D01*
X209215000Y-109354842D01*
X207805079Y-107944921D01*
X207550407Y-107774755D01*
X207250000Y-107715000D01*
X194322404Y-107715000D01*
X194385317Y-107703162D01*
X194601441Y-107564090D01*
X194746431Y-107351890D01*
X194797440Y-107100000D01*
X194797440Y-105100000D01*
X194753162Y-104864683D01*
X194614090Y-104648559D01*
X194401890Y-104503569D01*
X194150000Y-104452560D01*
X190350000Y-104452560D01*
X190114683Y-104496838D01*
X189898559Y-104635910D01*
X189753569Y-104848110D01*
X189702560Y-105100000D01*
X189702560Y-107100000D01*
X189746838Y-107335317D01*
X189885910Y-107551441D01*
X190098110Y-107696431D01*
X190189806Y-107715000D01*
X188825158Y-107715000D01*
X187535000Y-106424842D01*
X187535000Y-105825158D01*
X189074320Y-104285838D01*
X189322391Y-104388846D01*
X189676057Y-104389154D01*
X190002920Y-104254097D01*
X190253218Y-104004236D01*
X190388846Y-103677609D01*
X190389154Y-103323943D01*
X190254097Y-102997080D01*
X190004236Y-102746782D01*
X189677609Y-102611154D01*
X189323943Y-102610846D01*
X189071871Y-102715000D01*
X188750000Y-102715000D01*
X188449593Y-102774755D01*
X188194921Y-102944921D01*
X187535000Y-103604842D01*
X187535000Y-97589089D01*
X187839089Y-97285000D01*
X189072303Y-97285000D01*
X189322391Y-97388846D01*
X189676057Y-97389154D01*
X190002920Y-97254097D01*
X190253218Y-97004236D01*
X190388846Y-96677609D01*
X190389154Y-96323943D01*
X190254097Y-95997080D01*
X190004236Y-95746782D01*
X189677609Y-95611154D01*
X189323943Y-95610846D01*
X189071871Y-95715000D01*
X187535000Y-95715000D01*
X187535000Y-90402532D01*
X189527073Y-90402532D01*
X189625736Y-90669387D01*
X190235461Y-90895908D01*
X190885460Y-90871856D01*
X191374264Y-90669387D01*
X191472927Y-90402532D01*
X190500000Y-89429605D01*
X189527073Y-90402532D01*
X187535000Y-90402532D01*
X187535000Y-88985461D01*
X188854092Y-88985461D01*
X188878144Y-89635460D01*
X189080613Y-90124264D01*
X189347468Y-90222927D01*
X190320395Y-89250000D01*
X190679605Y-89250000D01*
X191652532Y-90222927D01*
X191919387Y-90124264D01*
X192123893Y-89573795D01*
X193364716Y-89573795D01*
X193613106Y-90174943D01*
X194072637Y-90635278D01*
X194673352Y-90884716D01*
X195323795Y-90885284D01*
X195924943Y-90636894D01*
X196385278Y-90177363D01*
X196634716Y-89576648D01*
X196635284Y-88926205D01*
X196386894Y-88325057D01*
X195927363Y-87864722D01*
X195326648Y-87615284D01*
X194676205Y-87614716D01*
X194075057Y-87863106D01*
X193614722Y-88322637D01*
X193365284Y-88923352D01*
X193364716Y-89573795D01*
X192123893Y-89573795D01*
X192145908Y-89514539D01*
X192121856Y-88864540D01*
X191919387Y-88375736D01*
X191652532Y-88277073D01*
X190679605Y-89250000D01*
X190320395Y-89250000D01*
X189347468Y-88277073D01*
X189080613Y-88375736D01*
X188854092Y-88985461D01*
X187535000Y-88985461D01*
X187535000Y-88097468D01*
X189527073Y-88097468D01*
X190500000Y-89070395D01*
X191472927Y-88097468D01*
X191374264Y-87830613D01*
X190764539Y-87604092D01*
X190114540Y-87628144D01*
X189625736Y-87830613D01*
X189527073Y-88097468D01*
X187535000Y-88097468D01*
X187535000Y-88000000D01*
X187475245Y-87699594D01*
X187305079Y-87444921D01*
X186095079Y-86234921D01*
X185840407Y-86064755D01*
X185540000Y-86005000D01*
X182896930Y-86005000D01*
X182896930Y-85790510D01*
X182852652Y-85555193D01*
X182713580Y-85339069D01*
X182547527Y-85225610D01*
X182760072Y-84907514D01*
X182884490Y-84282022D01*
X182884490Y-84217978D01*
X182821744Y-83902532D01*
X189527073Y-83902532D01*
X189625736Y-84169387D01*
X190235461Y-84395908D01*
X190885460Y-84371856D01*
X191374264Y-84169387D01*
X191472927Y-83902532D01*
X190500000Y-82929605D01*
X189527073Y-83902532D01*
X182821744Y-83902532D01*
X182760072Y-83592486D01*
X182405759Y-83062219D01*
X181875492Y-82707906D01*
X181250000Y-82583488D01*
X180624508Y-82707906D01*
X180094241Y-83062219D01*
X179739928Y-83592486D01*
X179615510Y-84217978D01*
X179615510Y-84282022D01*
X179739928Y-84907514D01*
X179953453Y-85227077D01*
X179799069Y-85326420D01*
X179654079Y-85538620D01*
X179603070Y-85790510D01*
X178460000Y-85790510D01*
X178460000Y-82069930D01*
X178475896Y-81990015D01*
X178481551Y-81981552D01*
X178490016Y-81975896D01*
X178569930Y-81960000D01*
X189049308Y-81960000D01*
X188854092Y-82485461D01*
X188854092Y-82485461D01*
G37*
X188854092Y-82485461D02*
X188878144Y-83135460D01*
X189080613Y-83624264D01*
X189347468Y-83722927D01*
X190320395Y-82750000D01*
X190306253Y-82735858D01*
X190485858Y-82556253D01*
X190500000Y-82570395D01*
X190514143Y-82556253D01*
X190693748Y-82735858D01*
X190679605Y-82750000D01*
X191652532Y-83722927D01*
X191919387Y-83624264D01*
X192145908Y-83014539D01*
X192121856Y-82364540D01*
X191954290Y-81960000D01*
X193557684Y-81960000D01*
X193365284Y-82423352D01*
X193364716Y-83073795D01*
X193613106Y-83674943D01*
X194072637Y-84135278D01*
X194673352Y-84384716D01*
X195323795Y-84385284D01*
X195924943Y-84136894D01*
X196385278Y-83677363D01*
X196634716Y-83076648D01*
X196635284Y-82426205D01*
X196442651Y-81960000D01*
X232430070Y-81960000D01*
X232509985Y-81975896D01*
X232518448Y-81981551D01*
X232524104Y-81990016D01*
X232540000Y-82069930D01*
X232540000Y-115430070D01*
X232524104Y-115509984D01*
X232518448Y-115518449D01*
X232509985Y-115524104D01*
X232430070Y-115540000D01*
X178569930Y-115540000D01*
X178490016Y-115524104D01*
X178481551Y-115518448D01*
X178475896Y-115509985D01*
X178460000Y-115430070D01*
X178460000Y-114075750D01*
X179615510Y-114075750D01*
X179615510Y-114915799D01*
X179712183Y-115149188D01*
X179890811Y-115327817D01*
X180124200Y-115424490D01*
X180964250Y-115424490D01*
X181123000Y-115265740D01*
X181123000Y-113917000D01*
X181377000Y-113917000D01*
X181377000Y-115265740D01*
X181535750Y-115424490D01*
X182375800Y-115424490D01*
X182609189Y-115327817D01*
X182787817Y-115149188D01*
X182884490Y-114915799D01*
X182884490Y-114075750D01*
X182725740Y-113917000D01*
X181377000Y-113917000D01*
X181123000Y-113917000D01*
X179774260Y-113917000D01*
X179615510Y-114075750D01*
X178460000Y-114075750D01*
X178460000Y-85790510D01*
X179603070Y-85790510D01*
X179603070Y-87789490D01*
X179647348Y-88024807D01*
X179786420Y-88240931D01*
X179998620Y-88385921D01*
X180250510Y-88436930D01*
X182249490Y-88436930D01*
X182484807Y-88392652D01*
X182700931Y-88253580D01*
X182845921Y-88041380D01*
X182896930Y-87789490D01*
X182896930Y-87575000D01*
X185214842Y-87575000D01*
X185965000Y-88325158D01*
X185965000Y-92558159D01*
X185915008Y-92524755D01*
X185614601Y-92465000D01*
X182674889Y-92465000D01*
X182405759Y-92062219D01*
X181875492Y-91707906D01*
X181250000Y-91583488D01*
X180624508Y-91707906D01*
X180094241Y-92062219D01*
X179739928Y-92592486D01*
X179615510Y-93217978D01*
X179615510Y-93282022D01*
X179739928Y-93907514D01*
X179953453Y-94227077D01*
X179799069Y-94326420D01*
X179654079Y-94538620D01*
X179603070Y-94790510D01*
X179603070Y-96789490D01*
X179647348Y-97024807D01*
X179786420Y-97240931D01*
X179998620Y-97385921D01*
X180250510Y-97436930D01*
X182249490Y-97436930D01*
X182484807Y-97392652D01*
X182700931Y-97253580D01*
X182845921Y-97041380D01*
X182896930Y-96789490D01*
X182896930Y-94790510D01*
X182852652Y-94555193D01*
X182713580Y-94339069D01*
X182547527Y-94225610D01*
X182674889Y-94035000D01*
X185289443Y-94035000D01*
X185965000Y-94710557D01*
X185965000Y-102257766D01*
X185750000Y-102215000D01*
X182674889Y-102215000D01*
X182405759Y-101812219D01*
X181875492Y-101457906D01*
X181250000Y-101333488D01*
X180624508Y-101457906D01*
X180094241Y-101812219D01*
X179739928Y-102342486D01*
X179615510Y-102967978D01*
X179615510Y-103032022D01*
X179739928Y-103657514D01*
X179953453Y-103977077D01*
X179799069Y-104076420D01*
X179654079Y-104288620D01*
X179603070Y-104540510D01*
X179603070Y-106539490D01*
X179647348Y-106774807D01*
X179786420Y-106990931D01*
X179998620Y-107135921D01*
X180250510Y-107186930D01*
X182249490Y-107186930D01*
X182484807Y-107142652D01*
X182700931Y-107003580D01*
X182845921Y-106791380D01*
X182896930Y-106539490D01*
X182896930Y-104540510D01*
X182852652Y-104305193D01*
X182713580Y-104089069D01*
X182547527Y-103975610D01*
X182674889Y-103785000D01*
X185424842Y-103785000D01*
X185965000Y-104325158D01*
X185965000Y-106750000D01*
X186024755Y-107050407D01*
X186194921Y-107305079D01*
X187944921Y-109055079D01*
X188199594Y-109225245D01*
X188500000Y-109285000D01*
X206924842Y-109285000D01*
X207543902Y-109904060D01*
X206761500Y-109904060D01*
X206526183Y-109948338D01*
X206310059Y-110087410D01*
X206165069Y-110299610D01*
X206131577Y-110465000D01*
X205784112Y-110465000D01*
X205483706Y-110524755D01*
X205229033Y-110694921D01*
X202158326Y-113765628D01*
X195832397Y-113765628D01*
X195838327Y-113759698D01*
X195935000Y-113526309D01*
X195935000Y-112685750D01*
X195776250Y-112527000D01*
X194677000Y-112527000D01*
X194677000Y-112547000D01*
X194423000Y-112547000D01*
X194423000Y-112527000D01*
X194403000Y-112527000D01*
X194403000Y-112273000D01*
X194423000Y-112273000D01*
X194423000Y-110923750D01*
X194677000Y-110923750D01*
X194677000Y-112273000D01*
X195776250Y-112273000D01*
X195935000Y-112114250D01*
X195935000Y-111273691D01*
X195838327Y-111040302D01*
X195659699Y-110861673D01*
X195426310Y-110765000D01*
X194835750Y-110765000D01*
X194677000Y-110923750D01*
X194423000Y-110923750D01*
X194264250Y-110765000D01*
X193673690Y-110765000D01*
X193440301Y-110861673D01*
X193398340Y-110903634D01*
X193251890Y-110803569D01*
X193000000Y-110752560D01*
X191500000Y-110752560D01*
X191264683Y-110796838D01*
X191098523Y-110903759D01*
X190951890Y-110803569D01*
X190700000Y-110752560D01*
X189200000Y-110752560D01*
X188964683Y-110796838D01*
X188748559Y-110935910D01*
X188603569Y-111148110D01*
X188552560Y-111400000D01*
X188552560Y-111615000D01*
X186225158Y-111615000D01*
X185305079Y-110694921D01*
X185050407Y-110524755D01*
X184750000Y-110465000D01*
X182674889Y-110465000D01*
X182405759Y-110062219D01*
X181875492Y-109707906D01*
X181250000Y-109583488D01*
X180624508Y-109707906D01*
X180094241Y-110062219D01*
X179739928Y-110592486D01*
X179615510Y-111217978D01*
X179615510Y-111282022D01*
X179739928Y-111907514D01*
X179953013Y-112226418D01*
X179890811Y-112252183D01*
X179712183Y-112430812D01*
X179615510Y-112664201D01*
X179615510Y-113504250D01*
X179774260Y-113663000D01*
X181123000Y-113663000D01*
X181123000Y-113643000D01*
X181377000Y-113643000D01*
X181377000Y-113663000D01*
X182725740Y-113663000D01*
X182884490Y-113504250D01*
X182884490Y-112664201D01*
X182787817Y-112430812D01*
X182609189Y-112252183D01*
X182546987Y-112226418D01*
X182674889Y-112035000D01*
X184424842Y-112035000D01*
X185344921Y-112955079D01*
X185599594Y-113125245D01*
X185900000Y-113185001D01*
X185900005Y-113185000D01*
X188552560Y-113185000D01*
X188552560Y-113400000D01*
X188596838Y-113635317D01*
X188735910Y-113851441D01*
X188948110Y-113996431D01*
X189200000Y-114047440D01*
X190700000Y-114047440D01*
X190935317Y-114003162D01*
X191101477Y-113896241D01*
X191248110Y-113996431D01*
X191497691Y-114046972D01*
X191524755Y-114183032D01*
X191694921Y-114437704D01*
X192362924Y-115105707D01*
X192617597Y-115275873D01*
X192918003Y-115335628D01*
X202483484Y-115335628D01*
X202783891Y-115275873D01*
X203038563Y-115105707D01*
X206109270Y-112035000D01*
X206130336Y-112035000D01*
X206158338Y-112183817D01*
X206297410Y-112399941D01*
X206509610Y-112544931D01*
X206761500Y-112595940D01*
X208158500Y-112595940D01*
X208393817Y-112551662D01*
X208609941Y-112412590D01*
X208754931Y-112200390D01*
X208805940Y-111948500D01*
X208805940Y-111852116D01*
X208868854Y-112004380D01*
X209215000Y-112351130D01*
X209215000Y-113000000D01*
X209274755Y-113300407D01*
X209444921Y-113555079D01*
X210944921Y-115055079D01*
X211199593Y-115225245D01*
X211500000Y-115285000D01*
X224000000Y-115285000D01*
X224300407Y-115225245D01*
X224555079Y-115055079D01*
X225555079Y-114055079D01*
X225725245Y-113800406D01*
X225785001Y-113500000D01*
X225785000Y-113499995D01*
X225785000Y-112460355D01*
X228160373Y-112460355D01*
X228426932Y-113039726D01*
X228894916Y-113472987D01*
X229369646Y-113669619D01*
X229623000Y-113550265D01*
X229623000Y-112207000D01*
X229877000Y-112207000D01*
X229877000Y-113550265D01*
X230130354Y-113669619D01*
X230605084Y-113472987D01*
X231073068Y-113039726D01*
X231339627Y-112460355D01*
X231220807Y-112207000D01*
X229877000Y-112207000D01*
X229623000Y-112207000D01*
X228279193Y-112207000D01*
X228160373Y-112460355D01*
X225785000Y-112460355D01*
X225785000Y-103608268D01*
X226688268Y-102705000D01*
X228103070Y-102705000D01*
X228103070Y-102919490D01*
X228147348Y-103154807D01*
X228286420Y-103370931D01*
X228452473Y-103484390D01*
X228239928Y-103802486D01*
X228115510Y-104427978D01*
X228115510Y-104492022D01*
X228239928Y-105117514D01*
X228594241Y-105647781D01*
X228717290Y-105730000D01*
X228594241Y-105812219D01*
X228239928Y-106342486D01*
X228115510Y-106967978D01*
X228115510Y-107032022D01*
X228239928Y-107657514D01*
X228594241Y-108187781D01*
X228717290Y-108270000D01*
X228594241Y-108352219D01*
X228239928Y-108882486D01*
X228115510Y-109507978D01*
X228115510Y-109572022D01*
X228239928Y-110197514D01*
X228594241Y-110727781D01*
X228743300Y-110827379D01*
X228426932Y-111120274D01*
X228160373Y-111699645D01*
X228279193Y-111953000D01*
X229623000Y-111953000D01*
X229623000Y-111933000D01*
X229877000Y-111933000D01*
X229877000Y-111953000D01*
X231220807Y-111953000D01*
X231339627Y-111699645D01*
X231073068Y-111120274D01*
X230756700Y-110827379D01*
X230905759Y-110727781D01*
X231260072Y-110197514D01*
X231384490Y-109572022D01*
X231384490Y-109507978D01*
X231260072Y-108882486D01*
X230905759Y-108352219D01*
X230782710Y-108270000D01*
X230905759Y-108187781D01*
X231260072Y-107657514D01*
X231384490Y-107032022D01*
X231384490Y-106967978D01*
X231260072Y-106342486D01*
X230905759Y-105812219D01*
X230782710Y-105730000D01*
X230905759Y-105647781D01*
X231260072Y-105117514D01*
X231384490Y-104492022D01*
X231384490Y-104427978D01*
X231260072Y-103802486D01*
X231046547Y-103482923D01*
X231200931Y-103383580D01*
X231345921Y-103171380D01*
X231396930Y-102919490D01*
X231396930Y-100920510D01*
X231352652Y-100685193D01*
X231213580Y-100469069D01*
X231001380Y-100324079D01*
X230749490Y-100273070D01*
X228750510Y-100273070D01*
X228515193Y-100317348D01*
X228299069Y-100456420D01*
X228154079Y-100668620D01*
X228103070Y-100920510D01*
X228103070Y-101135000D01*
X226363110Y-101135000D01*
X226062704Y-101194755D01*
X225808031Y-101364921D01*
X225785000Y-101387952D01*
X225785000Y-98560669D01*
X226730669Y-97615000D01*
X228325111Y-97615000D01*
X228594241Y-98017781D01*
X229124508Y-98372094D01*
X229750000Y-98496512D01*
X230375492Y-98372094D01*
X230905759Y-98017781D01*
X231260072Y-97487514D01*
X231384490Y-96862022D01*
X231384490Y-96797978D01*
X231260072Y-96172486D01*
X230905759Y-95642219D01*
X230782710Y-95560000D01*
X230905759Y-95477781D01*
X231260072Y-94947514D01*
X231384490Y-94322022D01*
X231384490Y-94257978D01*
X231260072Y-93632486D01*
X230905759Y-93102219D01*
X230782710Y-93020000D01*
X230905759Y-92937781D01*
X231260072Y-92407514D01*
X231384490Y-91782022D01*
X231384490Y-91717978D01*
X231260072Y-91092486D01*
X230905759Y-90562219D01*
X230782710Y-90480000D01*
X230905759Y-90397781D01*
X231260072Y-89867514D01*
X231384490Y-89242022D01*
X231384490Y-89177978D01*
X231260072Y-88552486D01*
X230905759Y-88022219D01*
X230756700Y-87922621D01*
X231073068Y-87629726D01*
X231339627Y-87050355D01*
X231220807Y-86797000D01*
X229877000Y-86797000D01*
X229877000Y-86817000D01*
X229623000Y-86817000D01*
X229623000Y-86797000D01*
X228279193Y-86797000D01*
X228160373Y-87050355D01*
X228426932Y-87629726D01*
X228743300Y-87922621D01*
X228594241Y-88022219D01*
X228239928Y-88552486D01*
X228115510Y-89177978D01*
X228115510Y-89242022D01*
X228239928Y-89867514D01*
X228594241Y-90397781D01*
X228717290Y-90480000D01*
X228594241Y-90562219D01*
X228239928Y-91092486D01*
X228115510Y-91717978D01*
X228115510Y-91782022D01*
X228239928Y-92407514D01*
X228594241Y-92937781D01*
X228717290Y-93020000D01*
X228594241Y-93102219D01*
X228325111Y-93505000D01*
X226283855Y-93505000D01*
X225983448Y-93564755D01*
X225785000Y-93697353D01*
X225785000Y-85594854D01*
X226464853Y-84915000D01*
X228103070Y-84915000D01*
X228103070Y-85129490D01*
X228147348Y-85364807D01*
X228286420Y-85580931D01*
X228447649Y-85691094D01*
X228426932Y-85710274D01*
X228160373Y-86289645D01*
X228279193Y-86543000D01*
X229623000Y-86543000D01*
X229623000Y-86523000D01*
X229877000Y-86523000D01*
X229877000Y-86543000D01*
X231220807Y-86543000D01*
X231339627Y-86289645D01*
X231073068Y-85710274D01*
X231051137Y-85689970D01*
X231200931Y-85593580D01*
X231345921Y-85381380D01*
X231396930Y-85129490D01*
X231396930Y-83130510D01*
X231352652Y-82895193D01*
X231213580Y-82679069D01*
X231001380Y-82534079D01*
X230749490Y-82483070D01*
X228750510Y-82483070D01*
X228515193Y-82527348D01*
X228299069Y-82666420D01*
X228154079Y-82878620D01*
X228103070Y-83130510D01*
X228103070Y-83345000D01*
X226139701Y-83345000D01*
X226139696Y-83344999D01*
X225839290Y-83404755D01*
X225584617Y-83574921D01*
X225584615Y-83574924D01*
X224444921Y-84714617D01*
X224274755Y-84969289D01*
X224274755Y-84969290D01*
X224215000Y-85269696D01*
X224215000Y-93411099D01*
X223923943Y-93410846D01*
X223597080Y-93545903D01*
X223346782Y-93795764D01*
X223211154Y-94122391D01*
X223210846Y-94476057D01*
X223345903Y-94802920D01*
X223388800Y-94845892D01*
X223388800Y-95553819D01*
X223346782Y-95595764D01*
X223211154Y-95922391D01*
X223210846Y-96276057D01*
X223345903Y-96602920D01*
X223595764Y-96853218D01*
X223922391Y-96988846D01*
X224215000Y-96989101D01*
X224215000Y-98657740D01*
X224104236Y-98546782D01*
X223777609Y-98411154D01*
X223423943Y-98410846D01*
X223097080Y-98545903D01*
X222846782Y-98795764D01*
X222711154Y-99122391D01*
X222710846Y-99476057D01*
X222845903Y-99802920D01*
X223095764Y-100053218D01*
X223347655Y-100157813D01*
X224215000Y-101025158D01*
X224215000Y-103604842D01*
X222757505Y-102147347D01*
X222654097Y-101897080D01*
X222404236Y-101646782D01*
X222077609Y-101511154D01*
X221723943Y-101510846D01*
X221397080Y-101645903D01*
X221146782Y-101895764D01*
X221011154Y-102222391D01*
X221010846Y-102576057D01*
X221145903Y-102902920D01*
X221395764Y-103153218D01*
X221647655Y-103257813D01*
X224215000Y-105825158D01*
X224215000Y-113174842D01*
X223674842Y-113715000D01*
X211825158Y-113715000D01*
X210785000Y-112674842D01*
X210785000Y-112350579D01*
X211129827Y-112006353D01*
X211270094Y-111668554D01*
X211408854Y-112004380D01*
X211783647Y-112379827D01*
X212273587Y-112583268D01*
X212804086Y-112583731D01*
X213294380Y-112381146D01*
X213669827Y-112006353D01*
X213873268Y-111516413D01*
X213873270Y-111514086D01*
X216126269Y-111514086D01*
X216328854Y-112004380D01*
X216703647Y-112379827D01*
X217193587Y-112583268D01*
X217724086Y-112583731D01*
X218214380Y-112381146D01*
X218411681Y-112184188D01*
X219245417Y-112184188D01*
X219307071Y-112419800D01*
X219807480Y-112595927D01*
X220337199Y-112567148D01*
X220692929Y-112419800D01*
X220754583Y-112184188D01*
X220000000Y-111429605D01*
X219245417Y-112184188D01*
X218411681Y-112184188D01*
X218589827Y-112006353D01*
X218723314Y-111684882D01*
X218830200Y-111942929D01*
X219065812Y-112004583D01*
X219820395Y-111250000D01*
X220179605Y-111250000D01*
X220934188Y-112004583D01*
X221169800Y-111942929D01*
X221194060Y-111874002D01*
X221194060Y-111948500D01*
X221238338Y-112183817D01*
X221377410Y-112399941D01*
X221589610Y-112544931D01*
X221841500Y-112595940D01*
X223238500Y-112595940D01*
X223473817Y-112551662D01*
X223689941Y-112412590D01*
X223834931Y-112200390D01*
X223885940Y-111948500D01*
X223885940Y-110551500D01*
X223841662Y-110316183D01*
X223702590Y-110100059D01*
X223490390Y-109955069D01*
X223238500Y-109904060D01*
X221841500Y-109904060D01*
X221606183Y-109948338D01*
X221390059Y-110087410D01*
X221245069Y-110299610D01*
X221194060Y-110551500D01*
X221194060Y-110615640D01*
X221169800Y-110557071D01*
X220934188Y-110495417D01*
X220179605Y-111250000D01*
X219820395Y-111250000D01*
X219065812Y-110495417D01*
X218830200Y-110557071D01*
X218731917Y-110836312D01*
X218591146Y-110495620D01*
X218411652Y-110315812D01*
X219245417Y-110315812D01*
X220000000Y-111070395D01*
X220754583Y-110315812D01*
X220692929Y-110080200D01*
X220192520Y-109904073D01*
X219662801Y-109932852D01*
X219307071Y-110080200D01*
X219245417Y-110315812D01*
X218411652Y-110315812D01*
X218216353Y-110120173D01*
X217726413Y-109916732D01*
X217195914Y-109916269D01*
X216705620Y-110118854D01*
X216330173Y-110493647D01*
X216126732Y-110983587D01*
X216126269Y-111514086D01*
X213873270Y-111514086D01*
X213873696Y-111026462D01*
X218058204Y-106841954D01*
X218228370Y-106587281D01*
X218288125Y-106286875D01*
X218288125Y-92825750D01*
X219015000Y-92825750D01*
X219015000Y-93516310D01*
X219111673Y-93749699D01*
X219290302Y-93928327D01*
X219523691Y-94025000D01*
X220214250Y-94025000D01*
X220373000Y-93866250D01*
X220373000Y-92667000D01*
X220627000Y-92667000D01*
X220627000Y-93866250D01*
X220785750Y-94025000D01*
X221476309Y-94025000D01*
X221709698Y-93928327D01*
X221888327Y-93749699D01*
X221985000Y-93516310D01*
X221985000Y-92825750D01*
X221826250Y-92667000D01*
X220627000Y-92667000D01*
X220373000Y-92667000D01*
X219173750Y-92667000D01*
X219015000Y-92825750D01*
X218288125Y-92825750D01*
X218288125Y-91453860D01*
X218956985Y-90785000D01*
X219243750Y-90785000D01*
X219420853Y-91050054D01*
X219464777Y-91079403D01*
X219290302Y-91151673D01*
X219111673Y-91330301D01*
X219015000Y-91563690D01*
X219015000Y-92254250D01*
X219173750Y-92413000D01*
X220373000Y-92413000D01*
X220373000Y-92393000D01*
X220627000Y-92393000D01*
X220627000Y-92413000D01*
X221826250Y-92413000D01*
X221985000Y-92254250D01*
X221985000Y-91563690D01*
X221888327Y-91330301D01*
X221709698Y-91151673D01*
X221535223Y-91079403D01*
X221579147Y-91050054D01*
X221901054Y-90568285D01*
X222014093Y-90000000D01*
X221901054Y-89431715D01*
X221579147Y-88949946D01*
X221249974Y-88730000D01*
X221579147Y-88510054D01*
X221901054Y-88028285D01*
X222014093Y-87460000D01*
X221901054Y-86891715D01*
X221579147Y-86409946D01*
X221249974Y-86190000D01*
X221579147Y-85970054D01*
X221901054Y-85488285D01*
X222014093Y-84920000D01*
X221901054Y-84351715D01*
X221579147Y-83869946D01*
X221097378Y-83548039D01*
X220529093Y-83435000D01*
X220470907Y-83435000D01*
X219902622Y-83548039D01*
X219420853Y-83869946D01*
X219098946Y-84351715D01*
X218985907Y-84920000D01*
X219098946Y-85488285D01*
X219420853Y-85970054D01*
X219750026Y-86190000D01*
X219420853Y-86409946D01*
X219098946Y-86891715D01*
X218985907Y-87460000D01*
X219098946Y-88028285D01*
X219420853Y-88510054D01*
X219750026Y-88730000D01*
X219420853Y-88949946D01*
X219243750Y-89215000D01*
X218631827Y-89215000D01*
X218331421Y-89274755D01*
X218076748Y-89444921D01*
X216948046Y-90573623D01*
X216777880Y-90828295D01*
X216777880Y-90828296D01*
X216718125Y-91128702D01*
X216718125Y-91451334D01*
X216524851Y-91162078D01*
X216282283Y-91000000D01*
X216524851Y-90837922D01*
X216781726Y-90453480D01*
X216871929Y-90000000D01*
X216781726Y-89546520D01*
X216524851Y-89162078D01*
X216140409Y-88905203D01*
X215686929Y-88815000D01*
X214213071Y-88815000D01*
X213759591Y-88905203D01*
X213375149Y-89162078D01*
X213118274Y-89546520D01*
X213028071Y-90000000D01*
X213118274Y-90453480D01*
X213375149Y-90837922D01*
X213617717Y-91000000D01*
X213375149Y-91162078D01*
X213118274Y-91546520D01*
X213028071Y-92000000D01*
X213118274Y-92453480D01*
X213375149Y-92837922D01*
X213617717Y-93000000D01*
X213375149Y-93162078D01*
X213118274Y-93546520D01*
X213028071Y-94000000D01*
X213118274Y-94453480D01*
X213375149Y-94837922D01*
X213617717Y-95000000D01*
X213375149Y-95162078D01*
X213118274Y-95546520D01*
X213028071Y-96000000D01*
X213118274Y-96453480D01*
X213375149Y-96837922D01*
X213617717Y-97000000D01*
X213375149Y-97162078D01*
X213118274Y-97546520D01*
X213028071Y-98000000D01*
X213118274Y-98453480D01*
X213375149Y-98837922D01*
X213617717Y-99000000D01*
X213375149Y-99162078D01*
X213118274Y-99546520D01*
X213028071Y-100000000D01*
X213118274Y-100453480D01*
X213375149Y-100837922D01*
X213567717Y-100966591D01*
X213275149Y-101162078D01*
X213018274Y-101546520D01*
X212928071Y-102000000D01*
X213018274Y-102453480D01*
X213275149Y-102837922D01*
X213576691Y-103039405D01*
X213322276Y-103251882D01*
X213106602Y-103663854D01*
X213106197Y-103690256D01*
X213231639Y-103873000D01*
X214823000Y-103873000D01*
X214823000Y-103853000D01*
X215077000Y-103853000D01*
X215077000Y-103873000D01*
X215097000Y-103873000D01*
X215097000Y-104127000D01*
X215077000Y-104127000D01*
X215077000Y-105185000D01*
X215777000Y-105185000D01*
X216220813Y-105046196D01*
X216577724Y-104748118D01*
X216718125Y-104479930D01*
X216718125Y-105961717D01*
X212763148Y-109916694D01*
X212275914Y-109916269D01*
X211785620Y-110118854D01*
X211410173Y-110493647D01*
X211269906Y-110831446D01*
X211131146Y-110495620D01*
X210785000Y-110148870D01*
X210785000Y-108904961D01*
X210725245Y-108604555D01*
X210725245Y-108604554D01*
X210555079Y-108349882D01*
X206514941Y-104309744D01*
X213106197Y-104309744D01*
X213106602Y-104336146D01*
X213322276Y-104748118D01*
X213679187Y-105046196D01*
X214123000Y-105185000D01*
X214823000Y-105185000D01*
X214823000Y-104127000D01*
X213231639Y-104127000D01*
X213106197Y-104309744D01*
X206514941Y-104309744D01*
X205650118Y-103444921D01*
X205395446Y-103274755D01*
X205095039Y-103215000D01*
X201160212Y-103215000D01*
X201124851Y-103162078D01*
X200882283Y-103000000D01*
X201124851Y-102837922D01*
X201381726Y-102453480D01*
X201471929Y-102000000D01*
X201381726Y-101546520D01*
X201124851Y-101162078D01*
X200882283Y-101000000D01*
X201124851Y-100837922D01*
X201381726Y-100453480D01*
X201471929Y-100000000D01*
X201381726Y-99546520D01*
X201124851Y-99162078D01*
X200882283Y-99000000D01*
X201124851Y-98837922D01*
X201381726Y-98453480D01*
X201471929Y-98000000D01*
X201381726Y-97546520D01*
X201124851Y-97162078D01*
X200882283Y-97000000D01*
X201124851Y-96837922D01*
X201381726Y-96453480D01*
X201471929Y-96000000D01*
X201381726Y-95546520D01*
X201124851Y-95162078D01*
X200882283Y-95000000D01*
X201124851Y-94837922D01*
X201381726Y-94453480D01*
X201471929Y-94000000D01*
X201381726Y-93546520D01*
X201124851Y-93162078D01*
X200882283Y-93000000D01*
X201124851Y-92837922D01*
X201381726Y-92453480D01*
X201471929Y-92000000D01*
X201381726Y-91546520D01*
X201124851Y-91162078D01*
X201074129Y-91128187D01*
X201251441Y-91014090D01*
X201396431Y-90801890D01*
X201447440Y-90550000D01*
X201447440Y-89450000D01*
X201403162Y-89214683D01*
X201264090Y-88998559D01*
X201051890Y-88853569D01*
X200800000Y-88802560D01*
X198300000Y-88802560D01*
X198064683Y-88846838D01*
X197848559Y-88985910D01*
X197703569Y-89198110D01*
X197652560Y-89450000D01*
X197652560Y-90550000D01*
X197696838Y-90785317D01*
X197835910Y-91001441D01*
X198023615Y-91129694D01*
X197975149Y-91162078D01*
X197718274Y-91546520D01*
X197628071Y-92000000D01*
X197718274Y-92453480D01*
X197975149Y-92837922D01*
X198217717Y-93000000D01*
X197975149Y-93162078D01*
X197718274Y-93546520D01*
X197628071Y-94000000D01*
X197718274Y-94453480D01*
X197975149Y-94837922D01*
X198217717Y-95000000D01*
X197975149Y-95162078D01*
X197718274Y-95546520D01*
X197628071Y-96000000D01*
X197718274Y-96453480D01*
X197975149Y-96837922D01*
X198217717Y-97000000D01*
X197975149Y-97162078D01*
X197718274Y-97546520D01*
X197628071Y-98000000D01*
X197718274Y-98453480D01*
X197975149Y-98837922D01*
X198217717Y-99000000D01*
X197975149Y-99162078D01*
X197718274Y-99546520D01*
X197628071Y-100000000D01*
X197718274Y-100453480D01*
X197975149Y-100837922D01*
X198217717Y-101000000D01*
X197975149Y-101162078D01*
X197718274Y-101546520D01*
X197628071Y-102000000D01*
X197718274Y-102453480D01*
X197975149Y-102837922D01*
X198217717Y-103000000D01*
X197975149Y-103162078D01*
X197718274Y-103546520D01*
X197628071Y-104000000D01*
X197718274Y-104453480D01*
X197975149Y-104837922D01*
X198359591Y-105094797D01*
X198813071Y-105185000D01*
X200286929Y-105185000D01*
X200740409Y-105094797D01*
X201124851Y-104837922D01*
X201160212Y-104785000D01*
X204769881Y-104785000D01*
X209215000Y-109230119D01*
X209215000Y-109354842D01*
X207805079Y-107944921D01*
X207550407Y-107774755D01*
X207250000Y-107715000D01*
X194322404Y-107715000D01*
X194385317Y-107703162D01*
X194601441Y-107564090D01*
X194746431Y-107351890D01*
X194797440Y-107100000D01*
X194797440Y-105100000D01*
X194753162Y-104864683D01*
X194614090Y-104648559D01*
X194401890Y-104503569D01*
X194150000Y-104452560D01*
X190350000Y-104452560D01*
X190114683Y-104496838D01*
X189898559Y-104635910D01*
X189753569Y-104848110D01*
X189702560Y-105100000D01*
X189702560Y-107100000D01*
X189746838Y-107335317D01*
X189885910Y-107551441D01*
X190098110Y-107696431D01*
X190189806Y-107715000D01*
X188825158Y-107715000D01*
X187535000Y-106424842D01*
X187535000Y-105825158D01*
X189074320Y-104285838D01*
X189322391Y-104388846D01*
X189676057Y-104389154D01*
X190002920Y-104254097D01*
X190253218Y-104004236D01*
X190388846Y-103677609D01*
X190389154Y-103323943D01*
X190254097Y-102997080D01*
X190004236Y-102746782D01*
X189677609Y-102611154D01*
X189323943Y-102610846D01*
X189071871Y-102715000D01*
X188750000Y-102715000D01*
X188449593Y-102774755D01*
X188194921Y-102944921D01*
X187535000Y-103604842D01*
X187535000Y-97589089D01*
X187839089Y-97285000D01*
X189072303Y-97285000D01*
X189322391Y-97388846D01*
X189676057Y-97389154D01*
X190002920Y-97254097D01*
X190253218Y-97004236D01*
X190388846Y-96677609D01*
X190389154Y-96323943D01*
X190254097Y-95997080D01*
X190004236Y-95746782D01*
X189677609Y-95611154D01*
X189323943Y-95610846D01*
X189071871Y-95715000D01*
X187535000Y-95715000D01*
X187535000Y-90402532D01*
X189527073Y-90402532D01*
X189625736Y-90669387D01*
X190235461Y-90895908D01*
X190885460Y-90871856D01*
X191374264Y-90669387D01*
X191472927Y-90402532D01*
X190500000Y-89429605D01*
X189527073Y-90402532D01*
X187535000Y-90402532D01*
X187535000Y-88985461D01*
X188854092Y-88985461D01*
X188878144Y-89635460D01*
X189080613Y-90124264D01*
X189347468Y-90222927D01*
X190320395Y-89250000D01*
X190679605Y-89250000D01*
X191652532Y-90222927D01*
X191919387Y-90124264D01*
X192123893Y-89573795D01*
X193364716Y-89573795D01*
X193613106Y-90174943D01*
X194072637Y-90635278D01*
X194673352Y-90884716D01*
X195323795Y-90885284D01*
X195924943Y-90636894D01*
X196385278Y-90177363D01*
X196634716Y-89576648D01*
X196635284Y-88926205D01*
X196386894Y-88325057D01*
X195927363Y-87864722D01*
X195326648Y-87615284D01*
X194676205Y-87614716D01*
X194075057Y-87863106D01*
X193614722Y-88322637D01*
X193365284Y-88923352D01*
X193364716Y-89573795D01*
X192123893Y-89573795D01*
X192145908Y-89514539D01*
X192121856Y-88864540D01*
X191919387Y-88375736D01*
X191652532Y-88277073D01*
X190679605Y-89250000D01*
X190320395Y-89250000D01*
X189347468Y-88277073D01*
X189080613Y-88375736D01*
X188854092Y-88985461D01*
X187535000Y-88985461D01*
X187535000Y-88097468D01*
X189527073Y-88097468D01*
X190500000Y-89070395D01*
X191472927Y-88097468D01*
X191374264Y-87830613D01*
X190764539Y-87604092D01*
X190114540Y-87628144D01*
X189625736Y-87830613D01*
X189527073Y-88097468D01*
X187535000Y-88097468D01*
X187535000Y-88000000D01*
X187475245Y-87699594D01*
X187305079Y-87444921D01*
X186095079Y-86234921D01*
X185840407Y-86064755D01*
X185540000Y-86005000D01*
X182896930Y-86005000D01*
X182896930Y-85790510D01*
X182852652Y-85555193D01*
X182713580Y-85339069D01*
X182547527Y-85225610D01*
X182760072Y-84907514D01*
X182884490Y-84282022D01*
X182884490Y-84217978D01*
X182821744Y-83902532D01*
X189527073Y-83902532D01*
X189625736Y-84169387D01*
X190235461Y-84395908D01*
X190885460Y-84371856D01*
X191374264Y-84169387D01*
X191472927Y-83902532D01*
X190500000Y-82929605D01*
X189527073Y-83902532D01*
X182821744Y-83902532D01*
X182760072Y-83592486D01*
X182405759Y-83062219D01*
X181875492Y-82707906D01*
X181250000Y-82583488D01*
X180624508Y-82707906D01*
X180094241Y-83062219D01*
X179739928Y-83592486D01*
X179615510Y-84217978D01*
X179615510Y-84282022D01*
X179739928Y-84907514D01*
X179953453Y-85227077D01*
X179799069Y-85326420D01*
X179654079Y-85538620D01*
X179603070Y-85790510D01*
X178460000Y-85790510D01*
X178460000Y-82069930D01*
X178475896Y-81990015D01*
X178481551Y-81981552D01*
X178490016Y-81975896D01*
X178569930Y-81960000D01*
X189049308Y-81960000D01*
X188854092Y-82485461D01*
M02*
