M48
;DRILL file {KiCad 4.0.7-e2-6376~58~ubuntu16.04.1} date Mon Jan 15 14:57:34 2018
;FORMAT={-:-/ absolute / inch / decimal}
FMAT,2
INCH,TZ
T1C0.013
T2C0.030
T3C0.043
%
G90
G05
M72
T1
X5.374Y-1.7618
X6.7913Y-2.1949
X6.7913Y-2.4114
X6.9138Y-2.2211
T2
X5.5315Y-1.6362
X5.5315Y-1.7362
X5.5315Y-1.8362
X5.5315Y-1.9362
X5.5315Y-2.0362
X5.5315Y-2.1362
X5.5315Y-2.2362
X5.5315Y-2.3362
X5.5315Y-2.4362
X5.5315Y-2.5362
X5.5315Y-2.6362
X5.5315Y-2.7362
X5.5315Y-2.8362
X5.5315Y-2.9362
X5.5315Y-3.0362
X6.6315Y-1.6362
X6.6315Y-1.7362
X6.6315Y-1.8362
X6.6315Y-1.9362
X6.6315Y-2.0362
X6.6315Y-2.1362
X6.6315Y-2.2362
X6.6315Y-2.3362
X6.6315Y-2.4362
X6.6315Y-2.5362
X6.6315Y-2.6362
X6.6315Y-2.7362
X6.6315Y-2.8362
X6.6315Y-2.9362
X6.6315Y-3.0362
T3
X5.1181Y-1.6323
X5.1181Y-1.7323
X5.1181Y-2.9315
X5.1181Y-3.0315
X7.0571Y-1.3535
X7.0571Y-1.4535
X7.0571Y-1.5535
X7.0571Y-1.6535
X7.0571Y-1.7535
X7.0571Y-2.0228
X7.0571Y-2.1228
X7.0571Y-2.2228
X7.0571Y-2.3228
X7.0571Y-2.4228
X7.0571Y-2.5228
X7.0571Y-2.7756
X7.0571Y-2.8756
X7.0571Y-3.148
X7.0571Y-3.248
T0
M30
