G04 #@! TF.FileFunction,Soldermask,Bot*
%FSLAX46Y46*%
G04 Gerber Fmt 4.6, Leading zero omitted, Abs format (unit mm)*
G04 Created by KiCad (PCBNEW 4.0.7-e2-6376~58~ubuntu16.04.1) date Thu Jan 18 15:28:59 2018*
%MOMM*%
%LPD*%
G01*
G04 APERTURE LIST*
%ADD10C,0.100000*%
%ADD11O,2.398980X2.398980*%
%ADD12R,2.398980X2.398980*%
%ADD13R,2.100000X2.100000*%
%ADD14O,2.100000X2.100000*%
%ADD15R,1.797000X1.797000*%
%ADD16C,1.797000*%
%ADD17R,2.900000X1.500000*%
%ADD18O,2.900000X1.500000*%
%ADD19C,2.400000*%
%ADD20R,4.200000X2.400000*%
%ADD21R,1.900000X2.400000*%
G04 APERTURE END LIST*
D10*
D11*
X181250000Y-84250000D03*
D12*
X181250000Y-86790000D03*
D11*
X181250000Y-111250000D03*
D12*
X181250000Y-113790000D03*
D11*
X229750000Y-109540000D03*
D12*
X229750000Y-101920000D03*
D11*
X229750000Y-104460000D03*
X229750000Y-107000000D03*
X229750000Y-112080000D03*
X229750000Y-91750000D03*
D12*
X229750000Y-84130000D03*
D11*
X229750000Y-86670000D03*
X229750000Y-89210000D03*
X229750000Y-94290000D03*
X229750000Y-96830000D03*
X181250000Y-93250000D03*
D12*
X181250000Y-95790000D03*
D11*
X181250000Y-103000000D03*
D12*
X181250000Y-105540000D03*
D13*
X220500000Y-92540000D03*
D14*
X220500000Y-90000000D03*
X220500000Y-87460000D03*
X220500000Y-84920000D03*
D15*
X222540000Y-111250000D03*
D16*
X220000000Y-111250000D03*
X217460000Y-111250000D03*
D17*
X199550000Y-90000000D03*
D18*
X199550000Y-92000000D03*
X199550000Y-94000000D03*
X199550000Y-96000000D03*
X199550000Y-98000000D03*
X199550000Y-100000000D03*
X199550000Y-102000000D03*
X199550000Y-104000000D03*
X214950000Y-104000000D03*
X214850000Y-102000000D03*
X214950000Y-100000000D03*
X214950000Y-98000000D03*
X214950000Y-96000000D03*
X214950000Y-94000000D03*
X214950000Y-92000000D03*
X214950000Y-90000000D03*
D15*
X207460000Y-111250000D03*
D16*
X210000000Y-111250000D03*
X212540000Y-111250000D03*
D19*
X190500000Y-82750000D03*
X195000000Y-82750000D03*
X190500000Y-89250000D03*
X195000000Y-89250000D03*
D20*
X192250000Y-106100000D03*
D21*
X192250000Y-112400000D03*
X189950000Y-112400000D03*
X194550000Y-112400000D03*
M02*
