G04 #@! TF.FileFunction,Copper,L2,Bot,Signal*
%FSLAX46Y46*%
G04 Gerber Fmt 4.6, Leading zero omitted, Abs format (unit mm)*
G04 Created by KiCad (PCBNEW 4.0.7-e2-6376~58~ubuntu16.04.1) date Mon Jan 15 14:59:09 2018*
%MOMM*%
%LPD*%
G01*
G04 APERTURE LIST*
%ADD10C,0.100000*%
%ADD11O,1.998980X1.998980*%
%ADD12R,1.998980X1.998980*%
%ADD13C,1.524000*%
%ADD14C,0.508000*%
%ADD15C,0.152400*%
%ADD16C,0.254000*%
G04 APERTURE END LIST*
D10*
D11*
X179250000Y-82500000D03*
D12*
X179250000Y-79960000D03*
D11*
X130000000Y-41460000D03*
D12*
X130000000Y-44000000D03*
D11*
X130000000Y-74460000D03*
D12*
X130000000Y-77000000D03*
D11*
X179250000Y-42000000D03*
D12*
X179250000Y-34380000D03*
D11*
X179250000Y-36920000D03*
X179250000Y-39460000D03*
X179250000Y-44540000D03*
X179250000Y-59000000D03*
D12*
X179250000Y-51380000D03*
D11*
X179250000Y-53920000D03*
X179250000Y-56460000D03*
X179250000Y-61540000D03*
X179250000Y-64080000D03*
X179250000Y-73040000D03*
D12*
X179250000Y-70500000D03*
D13*
X140500000Y-41560000D03*
X140500000Y-44100000D03*
X140500000Y-46640000D03*
X140500000Y-49180000D03*
X140500000Y-51720000D03*
X140500000Y-54260000D03*
X140500000Y-56800000D03*
X140500000Y-59340000D03*
X140500000Y-61880000D03*
X140500000Y-64420000D03*
X140500000Y-66960000D03*
X140500000Y-69500000D03*
X140500000Y-72040000D03*
X140500000Y-74580000D03*
X140500000Y-77120000D03*
X168440000Y-77120000D03*
X168440000Y-74580000D03*
X168440000Y-72040000D03*
X168440000Y-69500000D03*
X168440000Y-66960000D03*
X168440000Y-64420000D03*
X168440000Y-61880000D03*
X168440000Y-59340000D03*
X168440000Y-56800000D03*
X168440000Y-54260000D03*
X168440000Y-51720000D03*
X168440000Y-49180000D03*
X168440000Y-46640000D03*
X168440000Y-44100000D03*
X168440000Y-41560000D03*
D14*
X175611098Y-56415641D03*
X172500000Y-55750000D03*
X172500000Y-61250000D03*
X136500000Y-44750000D03*
D15*
X168440000Y-44100000D02*
X170411184Y-44100000D01*
X170411184Y-44100000D02*
X175611098Y-49299914D01*
X175611098Y-49299914D02*
X175611098Y-56056431D01*
X175611098Y-56056431D02*
X175611098Y-56415641D01*
D16*
G36*
X181759985Y-30725896D02*
X181768448Y-30731551D01*
X181774104Y-30740016D01*
X181790000Y-30819930D01*
X181790000Y-88180070D01*
X181774104Y-88259984D01*
X181768448Y-88268449D01*
X181759985Y-88274104D01*
X181680070Y-88290000D01*
X127319930Y-88290000D01*
X127240016Y-88274104D01*
X127231551Y-88268448D01*
X127225896Y-88259985D01*
X127210000Y-88180070D01*
X127210000Y-78960510D01*
X177603070Y-78960510D01*
X177603070Y-80959490D01*
X177647348Y-81194807D01*
X177786420Y-81410931D01*
X177952473Y-81524390D01*
X177739928Y-81842486D01*
X177615510Y-82467978D01*
X177615510Y-82532022D01*
X177739928Y-83157514D01*
X178094241Y-83687781D01*
X178624508Y-84042094D01*
X179250000Y-84166512D01*
X179875492Y-84042094D01*
X180405759Y-83687781D01*
X180760072Y-83157514D01*
X180884490Y-82532022D01*
X180884490Y-82467978D01*
X180760072Y-81842486D01*
X180546547Y-81522923D01*
X180700931Y-81423580D01*
X180845921Y-81211380D01*
X180896930Y-80959490D01*
X180896930Y-78960510D01*
X180852652Y-78725193D01*
X180713580Y-78509069D01*
X180501380Y-78364079D01*
X180249490Y-78313070D01*
X178250510Y-78313070D01*
X178015193Y-78357348D01*
X177799069Y-78496420D01*
X177654079Y-78708620D01*
X177603070Y-78960510D01*
X127210000Y-78960510D01*
X127210000Y-76000510D01*
X128353070Y-76000510D01*
X128353070Y-77999490D01*
X128397348Y-78234807D01*
X128536420Y-78450931D01*
X128748620Y-78595921D01*
X129000510Y-78646930D01*
X130999490Y-78646930D01*
X131234807Y-78602652D01*
X131450931Y-78463580D01*
X131595921Y-78251380D01*
X131646930Y-77999490D01*
X131646930Y-77396661D01*
X139102758Y-77396661D01*
X139314990Y-77910303D01*
X139707630Y-78303629D01*
X140220900Y-78516757D01*
X140776661Y-78517242D01*
X141290303Y-78305010D01*
X141683629Y-77912370D01*
X141896757Y-77399100D01*
X141896759Y-77396661D01*
X167042758Y-77396661D01*
X167254990Y-77910303D01*
X167647630Y-78303629D01*
X168160900Y-78516757D01*
X168716661Y-78517242D01*
X169230303Y-78305010D01*
X169623629Y-77912370D01*
X169836757Y-77399100D01*
X169837242Y-76843339D01*
X169625010Y-76329697D01*
X169232370Y-75936371D01*
X169040273Y-75856605D01*
X169171143Y-75802397D01*
X169240608Y-75560213D01*
X168440000Y-74759605D01*
X167639392Y-75560213D01*
X167708857Y-75802397D01*
X167849318Y-75852509D01*
X167649697Y-75934990D01*
X167256371Y-76327630D01*
X167043243Y-76840900D01*
X167042758Y-77396661D01*
X141896759Y-77396661D01*
X141897242Y-76843339D01*
X141685010Y-76329697D01*
X141292370Y-75936371D01*
X141100273Y-75856605D01*
X141231143Y-75802397D01*
X141300608Y-75560213D01*
X140500000Y-74759605D01*
X139699392Y-75560213D01*
X139768857Y-75802397D01*
X139909318Y-75852509D01*
X139709697Y-75934990D01*
X139316371Y-76327630D01*
X139103243Y-76840900D01*
X139102758Y-77396661D01*
X131646930Y-77396661D01*
X131646930Y-76000510D01*
X131602652Y-75765193D01*
X131463580Y-75549069D01*
X131302351Y-75438906D01*
X131323068Y-75419726D01*
X131589627Y-74840355D01*
X131470807Y-74587000D01*
X130127000Y-74587000D01*
X130127000Y-74607000D01*
X129873000Y-74607000D01*
X129873000Y-74587000D01*
X128529193Y-74587000D01*
X128410373Y-74840355D01*
X128676932Y-75419726D01*
X128698863Y-75440030D01*
X128549069Y-75536420D01*
X128404079Y-75748620D01*
X128353070Y-76000510D01*
X127210000Y-76000510D01*
X127210000Y-74372302D01*
X139090856Y-74372302D01*
X139118638Y-74927368D01*
X139277603Y-75311143D01*
X139519787Y-75380608D01*
X140320395Y-74580000D01*
X140679605Y-74580000D01*
X141480213Y-75380608D01*
X141722397Y-75311143D01*
X141909144Y-74787698D01*
X141888353Y-74372302D01*
X167030856Y-74372302D01*
X167058638Y-74927368D01*
X167217603Y-75311143D01*
X167459787Y-75380608D01*
X168260395Y-74580000D01*
X168619605Y-74580000D01*
X169420213Y-75380608D01*
X169662397Y-75311143D01*
X169849144Y-74787698D01*
X169821362Y-74232632D01*
X169662397Y-73848857D01*
X169420213Y-73779392D01*
X168619605Y-74580000D01*
X168260395Y-74580000D01*
X167459787Y-73779392D01*
X167217603Y-73848857D01*
X167030856Y-74372302D01*
X141888353Y-74372302D01*
X141881362Y-74232632D01*
X141722397Y-73848857D01*
X141480213Y-73779392D01*
X140679605Y-74580000D01*
X140320395Y-74580000D01*
X139519787Y-73779392D01*
X139277603Y-73848857D01*
X139090856Y-74372302D01*
X127210000Y-74372302D01*
X127210000Y-74079645D01*
X128410373Y-74079645D01*
X128529193Y-74333000D01*
X129873000Y-74333000D01*
X129873000Y-72989735D01*
X130127000Y-72989735D01*
X130127000Y-74333000D01*
X131470807Y-74333000D01*
X131589627Y-74079645D01*
X131323068Y-73500274D01*
X130855084Y-73067013D01*
X130380354Y-72870381D01*
X130127000Y-72989735D01*
X129873000Y-72989735D01*
X129619646Y-72870381D01*
X129144916Y-73067013D01*
X128676932Y-73500274D01*
X128410373Y-74079645D01*
X127210000Y-74079645D01*
X127210000Y-67236661D01*
X139102758Y-67236661D01*
X139314990Y-67750303D01*
X139707630Y-68143629D01*
X139915512Y-68229949D01*
X139709697Y-68314990D01*
X139316371Y-68707630D01*
X139103243Y-69220900D01*
X139102758Y-69776661D01*
X139314990Y-70290303D01*
X139707630Y-70683629D01*
X139915512Y-70769949D01*
X139709697Y-70854990D01*
X139316371Y-71247630D01*
X139103243Y-71760900D01*
X139102758Y-72316661D01*
X139314990Y-72830303D01*
X139707630Y-73223629D01*
X139899727Y-73303395D01*
X139768857Y-73357603D01*
X139699392Y-73599787D01*
X140500000Y-74400395D01*
X141300608Y-73599787D01*
X141231143Y-73357603D01*
X141090682Y-73307491D01*
X141290303Y-73225010D01*
X141683629Y-72832370D01*
X141896757Y-72319100D01*
X141897242Y-71763339D01*
X141685010Y-71249697D01*
X141292370Y-70856371D01*
X141084488Y-70770051D01*
X141290303Y-70685010D01*
X141683629Y-70292370D01*
X141896757Y-69779100D01*
X141897242Y-69223339D01*
X141685010Y-68709697D01*
X141292370Y-68316371D01*
X141084488Y-68230051D01*
X141290303Y-68145010D01*
X141683629Y-67752370D01*
X141896757Y-67239100D01*
X141897242Y-66683339D01*
X141685010Y-66169697D01*
X141292370Y-65776371D01*
X141100273Y-65696605D01*
X141231143Y-65642397D01*
X141300608Y-65400213D01*
X140500000Y-64599605D01*
X139699392Y-65400213D01*
X139768857Y-65642397D01*
X139909318Y-65692509D01*
X139709697Y-65774990D01*
X139316371Y-66167630D01*
X139103243Y-66680900D01*
X139102758Y-67236661D01*
X127210000Y-67236661D01*
X127210000Y-64212302D01*
X139090856Y-64212302D01*
X139118638Y-64767368D01*
X139277603Y-65151143D01*
X139519787Y-65220608D01*
X140320395Y-64420000D01*
X140679605Y-64420000D01*
X141480213Y-65220608D01*
X141722397Y-65151143D01*
X141909144Y-64627698D01*
X141881362Y-64072632D01*
X141722397Y-63688857D01*
X141480213Y-63619392D01*
X140679605Y-64420000D01*
X140320395Y-64420000D01*
X139519787Y-63619392D01*
X139277603Y-63688857D01*
X139090856Y-64212302D01*
X127210000Y-64212302D01*
X127210000Y-43000510D01*
X128353070Y-43000510D01*
X128353070Y-44999490D01*
X128397348Y-45234807D01*
X128536420Y-45450931D01*
X128748620Y-45595921D01*
X129000510Y-45646930D01*
X130999490Y-45646930D01*
X131234807Y-45602652D01*
X131450931Y-45463580D01*
X131595921Y-45251380D01*
X131646930Y-44999490D01*
X131646930Y-43000510D01*
X131602652Y-42765193D01*
X131463580Y-42549069D01*
X131297527Y-42435610D01*
X131510072Y-42117514D01*
X131565937Y-41836661D01*
X139102758Y-41836661D01*
X139314990Y-42350303D01*
X139707630Y-42743629D01*
X139915512Y-42829949D01*
X139709697Y-42914990D01*
X139316371Y-43307630D01*
X139103243Y-43820900D01*
X139102758Y-44376661D01*
X139314990Y-44890303D01*
X139707630Y-45283629D01*
X139915512Y-45369949D01*
X139709697Y-45454990D01*
X139316371Y-45847630D01*
X139103243Y-46360900D01*
X139102758Y-46916661D01*
X139314990Y-47430303D01*
X139707630Y-47823629D01*
X139915512Y-47909949D01*
X139709697Y-47994990D01*
X139316371Y-48387630D01*
X139103243Y-48900900D01*
X139102758Y-49456661D01*
X139314990Y-49970303D01*
X139707630Y-50363629D01*
X139915512Y-50449949D01*
X139709697Y-50534990D01*
X139316371Y-50927630D01*
X139103243Y-51440900D01*
X139102758Y-51996661D01*
X139314990Y-52510303D01*
X139707630Y-52903629D01*
X139915512Y-52989949D01*
X139709697Y-53074990D01*
X139316371Y-53467630D01*
X139103243Y-53980900D01*
X139102758Y-54536661D01*
X139314990Y-55050303D01*
X139707630Y-55443629D01*
X139915512Y-55529949D01*
X139709697Y-55614990D01*
X139316371Y-56007630D01*
X139103243Y-56520900D01*
X139102758Y-57076661D01*
X139314990Y-57590303D01*
X139707630Y-57983629D01*
X139915512Y-58069949D01*
X139709697Y-58154990D01*
X139316371Y-58547630D01*
X139103243Y-59060900D01*
X139102758Y-59616661D01*
X139314990Y-60130303D01*
X139707630Y-60523629D01*
X139915512Y-60609949D01*
X139709697Y-60694990D01*
X139316371Y-61087630D01*
X139103243Y-61600900D01*
X139102758Y-62156661D01*
X139314990Y-62670303D01*
X139707630Y-63063629D01*
X139899727Y-63143395D01*
X139768857Y-63197603D01*
X139699392Y-63439787D01*
X140500000Y-64240395D01*
X141300608Y-63439787D01*
X141231143Y-63197603D01*
X141090682Y-63147491D01*
X141290303Y-63065010D01*
X141683629Y-62672370D01*
X141896757Y-62159100D01*
X141897242Y-61603339D01*
X141685010Y-61089697D01*
X141292370Y-60696371D01*
X141084488Y-60610051D01*
X141290303Y-60525010D01*
X141683629Y-60132370D01*
X141896757Y-59619100D01*
X141897242Y-59063339D01*
X141685010Y-58549697D01*
X141292370Y-58156371D01*
X141084488Y-58070051D01*
X141290303Y-57985010D01*
X141683629Y-57592370D01*
X141896757Y-57079100D01*
X141897242Y-56523339D01*
X141685010Y-56009697D01*
X141292370Y-55616371D01*
X141084488Y-55530051D01*
X141290303Y-55445010D01*
X141683629Y-55052370D01*
X141896757Y-54539100D01*
X141897242Y-53983339D01*
X141685010Y-53469697D01*
X141292370Y-53076371D01*
X141084488Y-52990051D01*
X141290303Y-52905010D01*
X141683629Y-52512370D01*
X141896757Y-51999100D01*
X141897242Y-51443339D01*
X141685010Y-50929697D01*
X141292370Y-50536371D01*
X141084488Y-50450051D01*
X141290303Y-50365010D01*
X141683629Y-49972370D01*
X141896757Y-49459100D01*
X141897242Y-48903339D01*
X141685010Y-48389697D01*
X141292370Y-47996371D01*
X141084488Y-47910051D01*
X141290303Y-47825010D01*
X141683629Y-47432370D01*
X141896757Y-46919100D01*
X141897242Y-46363339D01*
X141685010Y-45849697D01*
X141292370Y-45456371D01*
X141084488Y-45370051D01*
X141290303Y-45285010D01*
X141683629Y-44892370D01*
X141896757Y-44379100D01*
X141897242Y-43823339D01*
X141685010Y-43309697D01*
X141292370Y-42916371D01*
X141084488Y-42830051D01*
X141290303Y-42745010D01*
X141683629Y-42352370D01*
X141896757Y-41839100D01*
X141896759Y-41836661D01*
X167042758Y-41836661D01*
X167254990Y-42350303D01*
X167647630Y-42743629D01*
X167855512Y-42829949D01*
X167649697Y-42914990D01*
X167256371Y-43307630D01*
X167043243Y-43820900D01*
X167042758Y-44376661D01*
X167254990Y-44890303D01*
X167647630Y-45283629D01*
X167855512Y-45369949D01*
X167649697Y-45454990D01*
X167256371Y-45847630D01*
X167043243Y-46360900D01*
X167042758Y-46916661D01*
X167254990Y-47430303D01*
X167647630Y-47823629D01*
X167855512Y-47909949D01*
X167649697Y-47994990D01*
X167256371Y-48387630D01*
X167043243Y-48900900D01*
X167042758Y-49456661D01*
X167254990Y-49970303D01*
X167647630Y-50363629D01*
X167855512Y-50449949D01*
X167649697Y-50534990D01*
X167256371Y-50927630D01*
X167043243Y-51440900D01*
X167042758Y-51996661D01*
X167254990Y-52510303D01*
X167647630Y-52903629D01*
X167855512Y-52989949D01*
X167649697Y-53074990D01*
X167256371Y-53467630D01*
X167043243Y-53980900D01*
X167042758Y-54536661D01*
X167254990Y-55050303D01*
X167647630Y-55443629D01*
X167855512Y-55529949D01*
X167649697Y-55614990D01*
X167256371Y-56007630D01*
X167043243Y-56520900D01*
X167042758Y-57076661D01*
X167254990Y-57590303D01*
X167647630Y-57983629D01*
X167855512Y-58069949D01*
X167649697Y-58154990D01*
X167256371Y-58547630D01*
X167043243Y-59060900D01*
X167042758Y-59616661D01*
X167254990Y-60130303D01*
X167647630Y-60523629D01*
X167855512Y-60609949D01*
X167649697Y-60694990D01*
X167256371Y-61087630D01*
X167043243Y-61600900D01*
X167042758Y-62156661D01*
X167254990Y-62670303D01*
X167647630Y-63063629D01*
X167855512Y-63149949D01*
X167649697Y-63234990D01*
X167256371Y-63627630D01*
X167043243Y-64140900D01*
X167042758Y-64696661D01*
X167254990Y-65210303D01*
X167647630Y-65603629D01*
X167855512Y-65689949D01*
X167649697Y-65774990D01*
X167256371Y-66167630D01*
X167043243Y-66680900D01*
X167042758Y-67236661D01*
X167254990Y-67750303D01*
X167647630Y-68143629D01*
X167855512Y-68229949D01*
X167649697Y-68314990D01*
X167256371Y-68707630D01*
X167043243Y-69220900D01*
X167042758Y-69776661D01*
X167254990Y-70290303D01*
X167647630Y-70683629D01*
X167855512Y-70769949D01*
X167649697Y-70854990D01*
X167256371Y-71247630D01*
X167043243Y-71760900D01*
X167042758Y-72316661D01*
X167254990Y-72830303D01*
X167647630Y-73223629D01*
X167839727Y-73303395D01*
X167708857Y-73357603D01*
X167639392Y-73599787D01*
X168440000Y-74400395D01*
X169240608Y-73599787D01*
X169171143Y-73357603D01*
X169030682Y-73307491D01*
X169230303Y-73225010D01*
X169623629Y-72832370D01*
X169836757Y-72319100D01*
X169837242Y-71763339D01*
X169625010Y-71249697D01*
X169232370Y-70856371D01*
X169024488Y-70770051D01*
X169230303Y-70685010D01*
X169623629Y-70292370D01*
X169836757Y-69779100D01*
X169837000Y-69500510D01*
X177603070Y-69500510D01*
X177603070Y-71499490D01*
X177647348Y-71734807D01*
X177786420Y-71950931D01*
X177952473Y-72064390D01*
X177739928Y-72382486D01*
X177615510Y-73007978D01*
X177615510Y-73072022D01*
X177739928Y-73697514D01*
X178094241Y-74227781D01*
X178624508Y-74582094D01*
X179250000Y-74706512D01*
X179875492Y-74582094D01*
X180405759Y-74227781D01*
X180760072Y-73697514D01*
X180884490Y-73072022D01*
X180884490Y-73007978D01*
X180760072Y-72382486D01*
X180546547Y-72062923D01*
X180700931Y-71963580D01*
X180845921Y-71751380D01*
X180896930Y-71499490D01*
X180896930Y-69500510D01*
X180852652Y-69265193D01*
X180713580Y-69049069D01*
X180501380Y-68904079D01*
X180249490Y-68853070D01*
X178250510Y-68853070D01*
X178015193Y-68897348D01*
X177799069Y-69036420D01*
X177654079Y-69248620D01*
X177603070Y-69500510D01*
X169837000Y-69500510D01*
X169837242Y-69223339D01*
X169625010Y-68709697D01*
X169232370Y-68316371D01*
X169024488Y-68230051D01*
X169230303Y-68145010D01*
X169623629Y-67752370D01*
X169836757Y-67239100D01*
X169837242Y-66683339D01*
X169625010Y-66169697D01*
X169232370Y-65776371D01*
X169024488Y-65690051D01*
X169230303Y-65605010D01*
X169623629Y-65212370D01*
X169836757Y-64699100D01*
X169837242Y-64143339D01*
X169625010Y-63629697D01*
X169232370Y-63236371D01*
X169024488Y-63150051D01*
X169230303Y-63065010D01*
X169623629Y-62672370D01*
X169836757Y-62159100D01*
X169837242Y-61603339D01*
X169625010Y-61089697D01*
X169232370Y-60696371D01*
X169024488Y-60610051D01*
X169230303Y-60525010D01*
X169623629Y-60132370D01*
X169836757Y-59619100D01*
X169837242Y-59063339D01*
X169625010Y-58549697D01*
X169232370Y-58156371D01*
X169024488Y-58070051D01*
X169230303Y-57985010D01*
X169623629Y-57592370D01*
X169836757Y-57079100D01*
X169837242Y-56523339D01*
X169625010Y-56009697D01*
X169232370Y-55616371D01*
X169024488Y-55530051D01*
X169230303Y-55445010D01*
X169623629Y-55052370D01*
X169836757Y-54539100D01*
X169837242Y-53983339D01*
X169625010Y-53469697D01*
X169232370Y-53076371D01*
X169024488Y-52990051D01*
X169230303Y-52905010D01*
X169623629Y-52512370D01*
X169836757Y-51999100D01*
X169837242Y-51443339D01*
X169625010Y-50929697D01*
X169232370Y-50536371D01*
X169024488Y-50450051D01*
X169230303Y-50365010D01*
X169623629Y-49972370D01*
X169836757Y-49459100D01*
X169837242Y-48903339D01*
X169625010Y-48389697D01*
X169232370Y-47996371D01*
X169024488Y-47910051D01*
X169230303Y-47825010D01*
X169623629Y-47432370D01*
X169836757Y-46919100D01*
X169837242Y-46363339D01*
X169625010Y-45849697D01*
X169232370Y-45456371D01*
X169024488Y-45370051D01*
X169230303Y-45285010D01*
X169623629Y-44892370D01*
X169657334Y-44811200D01*
X170116596Y-44811200D01*
X174899898Y-49594502D01*
X174899898Y-55869460D01*
X174857880Y-55911405D01*
X174722252Y-56238032D01*
X174721944Y-56591698D01*
X174857001Y-56918561D01*
X175106862Y-57168859D01*
X175433489Y-57304487D01*
X175787155Y-57304795D01*
X176114018Y-57169738D01*
X176364316Y-56919877D01*
X176499944Y-56593250D01*
X176500087Y-56427978D01*
X177615510Y-56427978D01*
X177615510Y-56492022D01*
X177739928Y-57117514D01*
X178094241Y-57647781D01*
X178217290Y-57730000D01*
X178094241Y-57812219D01*
X177739928Y-58342486D01*
X177615510Y-58967978D01*
X177615510Y-59032022D01*
X177739928Y-59657514D01*
X178094241Y-60187781D01*
X178217290Y-60270000D01*
X178094241Y-60352219D01*
X177739928Y-60882486D01*
X177615510Y-61507978D01*
X177615510Y-61572022D01*
X177739928Y-62197514D01*
X178094241Y-62727781D01*
X178217290Y-62810000D01*
X178094241Y-62892219D01*
X177739928Y-63422486D01*
X177615510Y-64047978D01*
X177615510Y-64112022D01*
X177739928Y-64737514D01*
X178094241Y-65267781D01*
X178624508Y-65622094D01*
X179250000Y-65746512D01*
X179875492Y-65622094D01*
X180405759Y-65267781D01*
X180760072Y-64737514D01*
X180884490Y-64112022D01*
X180884490Y-64047978D01*
X180760072Y-63422486D01*
X180405759Y-62892219D01*
X180282710Y-62810000D01*
X180405759Y-62727781D01*
X180760072Y-62197514D01*
X180884490Y-61572022D01*
X180884490Y-61507978D01*
X180760072Y-60882486D01*
X180405759Y-60352219D01*
X180282710Y-60270000D01*
X180405759Y-60187781D01*
X180760072Y-59657514D01*
X180884490Y-59032022D01*
X180884490Y-58967978D01*
X180760072Y-58342486D01*
X180405759Y-57812219D01*
X180282710Y-57730000D01*
X180405759Y-57647781D01*
X180760072Y-57117514D01*
X180884490Y-56492022D01*
X180884490Y-56427978D01*
X180760072Y-55802486D01*
X180405759Y-55272219D01*
X180256700Y-55172621D01*
X180573068Y-54879726D01*
X180839627Y-54300355D01*
X180720807Y-54047000D01*
X179377000Y-54047000D01*
X179377000Y-54067000D01*
X179123000Y-54067000D01*
X179123000Y-54047000D01*
X177779193Y-54047000D01*
X177660373Y-54300355D01*
X177926932Y-54879726D01*
X178243300Y-55172621D01*
X178094241Y-55272219D01*
X177739928Y-55802486D01*
X177615510Y-56427978D01*
X176500087Y-56427978D01*
X176500252Y-56239584D01*
X176365195Y-55912721D01*
X176322298Y-55869749D01*
X176322298Y-50380510D01*
X177603070Y-50380510D01*
X177603070Y-52379490D01*
X177647348Y-52614807D01*
X177786420Y-52830931D01*
X177947649Y-52941094D01*
X177926932Y-52960274D01*
X177660373Y-53539645D01*
X177779193Y-53793000D01*
X179123000Y-53793000D01*
X179123000Y-53773000D01*
X179377000Y-53773000D01*
X179377000Y-53793000D01*
X180720807Y-53793000D01*
X180839627Y-53539645D01*
X180573068Y-52960274D01*
X180551137Y-52939970D01*
X180700931Y-52843580D01*
X180845921Y-52631380D01*
X180896930Y-52379490D01*
X180896930Y-50380510D01*
X180852652Y-50145193D01*
X180713580Y-49929069D01*
X180501380Y-49784079D01*
X180249490Y-49733070D01*
X178250510Y-49733070D01*
X178015193Y-49777348D01*
X177799069Y-49916420D01*
X177654079Y-50128620D01*
X177603070Y-50380510D01*
X176322298Y-50380510D01*
X176322298Y-49299914D01*
X176268161Y-49027750D01*
X176268161Y-49027749D01*
X176113992Y-48797020D01*
X172237327Y-44920355D01*
X177660373Y-44920355D01*
X177926932Y-45499726D01*
X178394916Y-45932987D01*
X178869646Y-46129619D01*
X179123000Y-46010265D01*
X179123000Y-44667000D01*
X179377000Y-44667000D01*
X179377000Y-46010265D01*
X179630354Y-46129619D01*
X180105084Y-45932987D01*
X180573068Y-45499726D01*
X180839627Y-44920355D01*
X180720807Y-44667000D01*
X179377000Y-44667000D01*
X179123000Y-44667000D01*
X177779193Y-44667000D01*
X177660373Y-44920355D01*
X172237327Y-44920355D01*
X170914078Y-43597106D01*
X170683349Y-43442937D01*
X170411184Y-43388800D01*
X169657695Y-43388800D01*
X169625010Y-43309697D01*
X169232370Y-42916371D01*
X169024488Y-42830051D01*
X169230303Y-42745010D01*
X169623629Y-42352370D01*
X169836757Y-41839100D01*
X169837242Y-41283339D01*
X169625010Y-40769697D01*
X169232370Y-40376371D01*
X168719100Y-40163243D01*
X168163339Y-40162758D01*
X167649697Y-40374990D01*
X167256371Y-40767630D01*
X167043243Y-41280900D01*
X167042758Y-41836661D01*
X141896759Y-41836661D01*
X141897242Y-41283339D01*
X141685010Y-40769697D01*
X141292370Y-40376371D01*
X140779100Y-40163243D01*
X140223339Y-40162758D01*
X139709697Y-40374990D01*
X139316371Y-40767630D01*
X139103243Y-41280900D01*
X139102758Y-41836661D01*
X131565937Y-41836661D01*
X131634490Y-41492022D01*
X131634490Y-41427978D01*
X131510072Y-40802486D01*
X131155759Y-40272219D01*
X130625492Y-39917906D01*
X130000000Y-39793488D01*
X129374508Y-39917906D01*
X128844241Y-40272219D01*
X128489928Y-40802486D01*
X128365510Y-41427978D01*
X128365510Y-41492022D01*
X128489928Y-42117514D01*
X128703453Y-42437077D01*
X128549069Y-42536420D01*
X128404079Y-42748620D01*
X128353070Y-43000510D01*
X127210000Y-43000510D01*
X127210000Y-33380510D01*
X177603070Y-33380510D01*
X177603070Y-35379490D01*
X177647348Y-35614807D01*
X177786420Y-35830931D01*
X177952473Y-35944390D01*
X177739928Y-36262486D01*
X177615510Y-36887978D01*
X177615510Y-36952022D01*
X177739928Y-37577514D01*
X178094241Y-38107781D01*
X178217290Y-38190000D01*
X178094241Y-38272219D01*
X177739928Y-38802486D01*
X177615510Y-39427978D01*
X177615510Y-39492022D01*
X177739928Y-40117514D01*
X178094241Y-40647781D01*
X178217290Y-40730000D01*
X178094241Y-40812219D01*
X177739928Y-41342486D01*
X177615510Y-41967978D01*
X177615510Y-42032022D01*
X177739928Y-42657514D01*
X178094241Y-43187781D01*
X178243300Y-43287379D01*
X177926932Y-43580274D01*
X177660373Y-44159645D01*
X177779193Y-44413000D01*
X179123000Y-44413000D01*
X179123000Y-44393000D01*
X179377000Y-44393000D01*
X179377000Y-44413000D01*
X180720807Y-44413000D01*
X180839627Y-44159645D01*
X180573068Y-43580274D01*
X180256700Y-43287379D01*
X180405759Y-43187781D01*
X180760072Y-42657514D01*
X180884490Y-42032022D01*
X180884490Y-41967978D01*
X180760072Y-41342486D01*
X180405759Y-40812219D01*
X180282710Y-40730000D01*
X180405759Y-40647781D01*
X180760072Y-40117514D01*
X180884490Y-39492022D01*
X180884490Y-39427978D01*
X180760072Y-38802486D01*
X180405759Y-38272219D01*
X180282710Y-38190000D01*
X180405759Y-38107781D01*
X180760072Y-37577514D01*
X180884490Y-36952022D01*
X180884490Y-36887978D01*
X180760072Y-36262486D01*
X180546547Y-35942923D01*
X180700931Y-35843580D01*
X180845921Y-35631380D01*
X180896930Y-35379490D01*
X180896930Y-33380510D01*
X180852652Y-33145193D01*
X180713580Y-32929069D01*
X180501380Y-32784079D01*
X180249490Y-32733070D01*
X178250510Y-32733070D01*
X178015193Y-32777348D01*
X177799069Y-32916420D01*
X177654079Y-33128620D01*
X177603070Y-33380510D01*
X127210000Y-33380510D01*
X127210000Y-30819930D01*
X127225896Y-30740015D01*
X127231551Y-30731552D01*
X127240016Y-30725896D01*
X127319930Y-30710000D01*
X181680070Y-30710000D01*
X181759985Y-30725896D01*
X181759985Y-30725896D01*
G37*
X181759985Y-30725896D02*
X181768448Y-30731551D01*
X181774104Y-30740016D01*
X181790000Y-30819930D01*
X181790000Y-88180070D01*
X181774104Y-88259984D01*
X181768448Y-88268449D01*
X181759985Y-88274104D01*
X181680070Y-88290000D01*
X127319930Y-88290000D01*
X127240016Y-88274104D01*
X127231551Y-88268448D01*
X127225896Y-88259985D01*
X127210000Y-88180070D01*
X127210000Y-78960510D01*
X177603070Y-78960510D01*
X177603070Y-80959490D01*
X177647348Y-81194807D01*
X177786420Y-81410931D01*
X177952473Y-81524390D01*
X177739928Y-81842486D01*
X177615510Y-82467978D01*
X177615510Y-82532022D01*
X177739928Y-83157514D01*
X178094241Y-83687781D01*
X178624508Y-84042094D01*
X179250000Y-84166512D01*
X179875492Y-84042094D01*
X180405759Y-83687781D01*
X180760072Y-83157514D01*
X180884490Y-82532022D01*
X180884490Y-82467978D01*
X180760072Y-81842486D01*
X180546547Y-81522923D01*
X180700931Y-81423580D01*
X180845921Y-81211380D01*
X180896930Y-80959490D01*
X180896930Y-78960510D01*
X180852652Y-78725193D01*
X180713580Y-78509069D01*
X180501380Y-78364079D01*
X180249490Y-78313070D01*
X178250510Y-78313070D01*
X178015193Y-78357348D01*
X177799069Y-78496420D01*
X177654079Y-78708620D01*
X177603070Y-78960510D01*
X127210000Y-78960510D01*
X127210000Y-76000510D01*
X128353070Y-76000510D01*
X128353070Y-77999490D01*
X128397348Y-78234807D01*
X128536420Y-78450931D01*
X128748620Y-78595921D01*
X129000510Y-78646930D01*
X130999490Y-78646930D01*
X131234807Y-78602652D01*
X131450931Y-78463580D01*
X131595921Y-78251380D01*
X131646930Y-77999490D01*
X131646930Y-77396661D01*
X139102758Y-77396661D01*
X139314990Y-77910303D01*
X139707630Y-78303629D01*
X140220900Y-78516757D01*
X140776661Y-78517242D01*
X141290303Y-78305010D01*
X141683629Y-77912370D01*
X141896757Y-77399100D01*
X141896759Y-77396661D01*
X167042758Y-77396661D01*
X167254990Y-77910303D01*
X167647630Y-78303629D01*
X168160900Y-78516757D01*
X168716661Y-78517242D01*
X169230303Y-78305010D01*
X169623629Y-77912370D01*
X169836757Y-77399100D01*
X169837242Y-76843339D01*
X169625010Y-76329697D01*
X169232370Y-75936371D01*
X169040273Y-75856605D01*
X169171143Y-75802397D01*
X169240608Y-75560213D01*
X168440000Y-74759605D01*
X167639392Y-75560213D01*
X167708857Y-75802397D01*
X167849318Y-75852509D01*
X167649697Y-75934990D01*
X167256371Y-76327630D01*
X167043243Y-76840900D01*
X167042758Y-77396661D01*
X141896759Y-77396661D01*
X141897242Y-76843339D01*
X141685010Y-76329697D01*
X141292370Y-75936371D01*
X141100273Y-75856605D01*
X141231143Y-75802397D01*
X141300608Y-75560213D01*
X140500000Y-74759605D01*
X139699392Y-75560213D01*
X139768857Y-75802397D01*
X139909318Y-75852509D01*
X139709697Y-75934990D01*
X139316371Y-76327630D01*
X139103243Y-76840900D01*
X139102758Y-77396661D01*
X131646930Y-77396661D01*
X131646930Y-76000510D01*
X131602652Y-75765193D01*
X131463580Y-75549069D01*
X131302351Y-75438906D01*
X131323068Y-75419726D01*
X131589627Y-74840355D01*
X131470807Y-74587000D01*
X130127000Y-74587000D01*
X130127000Y-74607000D01*
X129873000Y-74607000D01*
X129873000Y-74587000D01*
X128529193Y-74587000D01*
X128410373Y-74840355D01*
X128676932Y-75419726D01*
X128698863Y-75440030D01*
X128549069Y-75536420D01*
X128404079Y-75748620D01*
X128353070Y-76000510D01*
X127210000Y-76000510D01*
X127210000Y-74372302D01*
X139090856Y-74372302D01*
X139118638Y-74927368D01*
X139277603Y-75311143D01*
X139519787Y-75380608D01*
X140320395Y-74580000D01*
X140679605Y-74580000D01*
X141480213Y-75380608D01*
X141722397Y-75311143D01*
X141909144Y-74787698D01*
X141888353Y-74372302D01*
X167030856Y-74372302D01*
X167058638Y-74927368D01*
X167217603Y-75311143D01*
X167459787Y-75380608D01*
X168260395Y-74580000D01*
X168619605Y-74580000D01*
X169420213Y-75380608D01*
X169662397Y-75311143D01*
X169849144Y-74787698D01*
X169821362Y-74232632D01*
X169662397Y-73848857D01*
X169420213Y-73779392D01*
X168619605Y-74580000D01*
X168260395Y-74580000D01*
X167459787Y-73779392D01*
X167217603Y-73848857D01*
X167030856Y-74372302D01*
X141888353Y-74372302D01*
X141881362Y-74232632D01*
X141722397Y-73848857D01*
X141480213Y-73779392D01*
X140679605Y-74580000D01*
X140320395Y-74580000D01*
X139519787Y-73779392D01*
X139277603Y-73848857D01*
X139090856Y-74372302D01*
X127210000Y-74372302D01*
X127210000Y-74079645D01*
X128410373Y-74079645D01*
X128529193Y-74333000D01*
X129873000Y-74333000D01*
X129873000Y-72989735D01*
X130127000Y-72989735D01*
X130127000Y-74333000D01*
X131470807Y-74333000D01*
X131589627Y-74079645D01*
X131323068Y-73500274D01*
X130855084Y-73067013D01*
X130380354Y-72870381D01*
X130127000Y-72989735D01*
X129873000Y-72989735D01*
X129619646Y-72870381D01*
X129144916Y-73067013D01*
X128676932Y-73500274D01*
X128410373Y-74079645D01*
X127210000Y-74079645D01*
X127210000Y-67236661D01*
X139102758Y-67236661D01*
X139314990Y-67750303D01*
X139707630Y-68143629D01*
X139915512Y-68229949D01*
X139709697Y-68314990D01*
X139316371Y-68707630D01*
X139103243Y-69220900D01*
X139102758Y-69776661D01*
X139314990Y-70290303D01*
X139707630Y-70683629D01*
X139915512Y-70769949D01*
X139709697Y-70854990D01*
X139316371Y-71247630D01*
X139103243Y-71760900D01*
X139102758Y-72316661D01*
X139314990Y-72830303D01*
X139707630Y-73223629D01*
X139899727Y-73303395D01*
X139768857Y-73357603D01*
X139699392Y-73599787D01*
X140500000Y-74400395D01*
X141300608Y-73599787D01*
X141231143Y-73357603D01*
X141090682Y-73307491D01*
X141290303Y-73225010D01*
X141683629Y-72832370D01*
X141896757Y-72319100D01*
X141897242Y-71763339D01*
X141685010Y-71249697D01*
X141292370Y-70856371D01*
X141084488Y-70770051D01*
X141290303Y-70685010D01*
X141683629Y-70292370D01*
X141896757Y-69779100D01*
X141897242Y-69223339D01*
X141685010Y-68709697D01*
X141292370Y-68316371D01*
X141084488Y-68230051D01*
X141290303Y-68145010D01*
X141683629Y-67752370D01*
X141896757Y-67239100D01*
X141897242Y-66683339D01*
X141685010Y-66169697D01*
X141292370Y-65776371D01*
X141100273Y-65696605D01*
X141231143Y-65642397D01*
X141300608Y-65400213D01*
X140500000Y-64599605D01*
X139699392Y-65400213D01*
X139768857Y-65642397D01*
X139909318Y-65692509D01*
X139709697Y-65774990D01*
X139316371Y-66167630D01*
X139103243Y-66680900D01*
X139102758Y-67236661D01*
X127210000Y-67236661D01*
X127210000Y-64212302D01*
X139090856Y-64212302D01*
X139118638Y-64767368D01*
X139277603Y-65151143D01*
X139519787Y-65220608D01*
X140320395Y-64420000D01*
X140679605Y-64420000D01*
X141480213Y-65220608D01*
X141722397Y-65151143D01*
X141909144Y-64627698D01*
X141881362Y-64072632D01*
X141722397Y-63688857D01*
X141480213Y-63619392D01*
X140679605Y-64420000D01*
X140320395Y-64420000D01*
X139519787Y-63619392D01*
X139277603Y-63688857D01*
X139090856Y-64212302D01*
X127210000Y-64212302D01*
X127210000Y-43000510D01*
X128353070Y-43000510D01*
X128353070Y-44999490D01*
X128397348Y-45234807D01*
X128536420Y-45450931D01*
X128748620Y-45595921D01*
X129000510Y-45646930D01*
X130999490Y-45646930D01*
X131234807Y-45602652D01*
X131450931Y-45463580D01*
X131595921Y-45251380D01*
X131646930Y-44999490D01*
X131646930Y-43000510D01*
X131602652Y-42765193D01*
X131463580Y-42549069D01*
X131297527Y-42435610D01*
X131510072Y-42117514D01*
X131565937Y-41836661D01*
X139102758Y-41836661D01*
X139314990Y-42350303D01*
X139707630Y-42743629D01*
X139915512Y-42829949D01*
X139709697Y-42914990D01*
X139316371Y-43307630D01*
X139103243Y-43820900D01*
X139102758Y-44376661D01*
X139314990Y-44890303D01*
X139707630Y-45283629D01*
X139915512Y-45369949D01*
X139709697Y-45454990D01*
X139316371Y-45847630D01*
X139103243Y-46360900D01*
X139102758Y-46916661D01*
X139314990Y-47430303D01*
X139707630Y-47823629D01*
X139915512Y-47909949D01*
X139709697Y-47994990D01*
X139316371Y-48387630D01*
X139103243Y-48900900D01*
X139102758Y-49456661D01*
X139314990Y-49970303D01*
X139707630Y-50363629D01*
X139915512Y-50449949D01*
X139709697Y-50534990D01*
X139316371Y-50927630D01*
X139103243Y-51440900D01*
X139102758Y-51996661D01*
X139314990Y-52510303D01*
X139707630Y-52903629D01*
X139915512Y-52989949D01*
X139709697Y-53074990D01*
X139316371Y-53467630D01*
X139103243Y-53980900D01*
X139102758Y-54536661D01*
X139314990Y-55050303D01*
X139707630Y-55443629D01*
X139915512Y-55529949D01*
X139709697Y-55614990D01*
X139316371Y-56007630D01*
X139103243Y-56520900D01*
X139102758Y-57076661D01*
X139314990Y-57590303D01*
X139707630Y-57983629D01*
X139915512Y-58069949D01*
X139709697Y-58154990D01*
X139316371Y-58547630D01*
X139103243Y-59060900D01*
X139102758Y-59616661D01*
X139314990Y-60130303D01*
X139707630Y-60523629D01*
X139915512Y-60609949D01*
X139709697Y-60694990D01*
X139316371Y-61087630D01*
X139103243Y-61600900D01*
X139102758Y-62156661D01*
X139314990Y-62670303D01*
X139707630Y-63063629D01*
X139899727Y-63143395D01*
X139768857Y-63197603D01*
X139699392Y-63439787D01*
X140500000Y-64240395D01*
X141300608Y-63439787D01*
X141231143Y-63197603D01*
X141090682Y-63147491D01*
X141290303Y-63065010D01*
X141683629Y-62672370D01*
X141896757Y-62159100D01*
X141897242Y-61603339D01*
X141685010Y-61089697D01*
X141292370Y-60696371D01*
X141084488Y-60610051D01*
X141290303Y-60525010D01*
X141683629Y-60132370D01*
X141896757Y-59619100D01*
X141897242Y-59063339D01*
X141685010Y-58549697D01*
X141292370Y-58156371D01*
X141084488Y-58070051D01*
X141290303Y-57985010D01*
X141683629Y-57592370D01*
X141896757Y-57079100D01*
X141897242Y-56523339D01*
X141685010Y-56009697D01*
X141292370Y-55616371D01*
X141084488Y-55530051D01*
X141290303Y-55445010D01*
X141683629Y-55052370D01*
X141896757Y-54539100D01*
X141897242Y-53983339D01*
X141685010Y-53469697D01*
X141292370Y-53076371D01*
X141084488Y-52990051D01*
X141290303Y-52905010D01*
X141683629Y-52512370D01*
X141896757Y-51999100D01*
X141897242Y-51443339D01*
X141685010Y-50929697D01*
X141292370Y-50536371D01*
X141084488Y-50450051D01*
X141290303Y-50365010D01*
X141683629Y-49972370D01*
X141896757Y-49459100D01*
X141897242Y-48903339D01*
X141685010Y-48389697D01*
X141292370Y-47996371D01*
X141084488Y-47910051D01*
X141290303Y-47825010D01*
X141683629Y-47432370D01*
X141896757Y-46919100D01*
X141897242Y-46363339D01*
X141685010Y-45849697D01*
X141292370Y-45456371D01*
X141084488Y-45370051D01*
X141290303Y-45285010D01*
X141683629Y-44892370D01*
X141896757Y-44379100D01*
X141897242Y-43823339D01*
X141685010Y-43309697D01*
X141292370Y-42916371D01*
X141084488Y-42830051D01*
X141290303Y-42745010D01*
X141683629Y-42352370D01*
X141896757Y-41839100D01*
X141896759Y-41836661D01*
X167042758Y-41836661D01*
X167254990Y-42350303D01*
X167647630Y-42743629D01*
X167855512Y-42829949D01*
X167649697Y-42914990D01*
X167256371Y-43307630D01*
X167043243Y-43820900D01*
X167042758Y-44376661D01*
X167254990Y-44890303D01*
X167647630Y-45283629D01*
X167855512Y-45369949D01*
X167649697Y-45454990D01*
X167256371Y-45847630D01*
X167043243Y-46360900D01*
X167042758Y-46916661D01*
X167254990Y-47430303D01*
X167647630Y-47823629D01*
X167855512Y-47909949D01*
X167649697Y-47994990D01*
X167256371Y-48387630D01*
X167043243Y-48900900D01*
X167042758Y-49456661D01*
X167254990Y-49970303D01*
X167647630Y-50363629D01*
X167855512Y-50449949D01*
X167649697Y-50534990D01*
X167256371Y-50927630D01*
X167043243Y-51440900D01*
X167042758Y-51996661D01*
X167254990Y-52510303D01*
X167647630Y-52903629D01*
X167855512Y-52989949D01*
X167649697Y-53074990D01*
X167256371Y-53467630D01*
X167043243Y-53980900D01*
X167042758Y-54536661D01*
X167254990Y-55050303D01*
X167647630Y-55443629D01*
X167855512Y-55529949D01*
X167649697Y-55614990D01*
X167256371Y-56007630D01*
X167043243Y-56520900D01*
X167042758Y-57076661D01*
X167254990Y-57590303D01*
X167647630Y-57983629D01*
X167855512Y-58069949D01*
X167649697Y-58154990D01*
X167256371Y-58547630D01*
X167043243Y-59060900D01*
X167042758Y-59616661D01*
X167254990Y-60130303D01*
X167647630Y-60523629D01*
X167855512Y-60609949D01*
X167649697Y-60694990D01*
X167256371Y-61087630D01*
X167043243Y-61600900D01*
X167042758Y-62156661D01*
X167254990Y-62670303D01*
X167647630Y-63063629D01*
X167855512Y-63149949D01*
X167649697Y-63234990D01*
X167256371Y-63627630D01*
X167043243Y-64140900D01*
X167042758Y-64696661D01*
X167254990Y-65210303D01*
X167647630Y-65603629D01*
X167855512Y-65689949D01*
X167649697Y-65774990D01*
X167256371Y-66167630D01*
X167043243Y-66680900D01*
X167042758Y-67236661D01*
X167254990Y-67750303D01*
X167647630Y-68143629D01*
X167855512Y-68229949D01*
X167649697Y-68314990D01*
X167256371Y-68707630D01*
X167043243Y-69220900D01*
X167042758Y-69776661D01*
X167254990Y-70290303D01*
X167647630Y-70683629D01*
X167855512Y-70769949D01*
X167649697Y-70854990D01*
X167256371Y-71247630D01*
X167043243Y-71760900D01*
X167042758Y-72316661D01*
X167254990Y-72830303D01*
X167647630Y-73223629D01*
X167839727Y-73303395D01*
X167708857Y-73357603D01*
X167639392Y-73599787D01*
X168440000Y-74400395D01*
X169240608Y-73599787D01*
X169171143Y-73357603D01*
X169030682Y-73307491D01*
X169230303Y-73225010D01*
X169623629Y-72832370D01*
X169836757Y-72319100D01*
X169837242Y-71763339D01*
X169625010Y-71249697D01*
X169232370Y-70856371D01*
X169024488Y-70770051D01*
X169230303Y-70685010D01*
X169623629Y-70292370D01*
X169836757Y-69779100D01*
X169837000Y-69500510D01*
X177603070Y-69500510D01*
X177603070Y-71499490D01*
X177647348Y-71734807D01*
X177786420Y-71950931D01*
X177952473Y-72064390D01*
X177739928Y-72382486D01*
X177615510Y-73007978D01*
X177615510Y-73072022D01*
X177739928Y-73697514D01*
X178094241Y-74227781D01*
X178624508Y-74582094D01*
X179250000Y-74706512D01*
X179875492Y-74582094D01*
X180405759Y-74227781D01*
X180760072Y-73697514D01*
X180884490Y-73072022D01*
X180884490Y-73007978D01*
X180760072Y-72382486D01*
X180546547Y-72062923D01*
X180700931Y-71963580D01*
X180845921Y-71751380D01*
X180896930Y-71499490D01*
X180896930Y-69500510D01*
X180852652Y-69265193D01*
X180713580Y-69049069D01*
X180501380Y-68904079D01*
X180249490Y-68853070D01*
X178250510Y-68853070D01*
X178015193Y-68897348D01*
X177799069Y-69036420D01*
X177654079Y-69248620D01*
X177603070Y-69500510D01*
X169837000Y-69500510D01*
X169837242Y-69223339D01*
X169625010Y-68709697D01*
X169232370Y-68316371D01*
X169024488Y-68230051D01*
X169230303Y-68145010D01*
X169623629Y-67752370D01*
X169836757Y-67239100D01*
X169837242Y-66683339D01*
X169625010Y-66169697D01*
X169232370Y-65776371D01*
X169024488Y-65690051D01*
X169230303Y-65605010D01*
X169623629Y-65212370D01*
X169836757Y-64699100D01*
X169837242Y-64143339D01*
X169625010Y-63629697D01*
X169232370Y-63236371D01*
X169024488Y-63150051D01*
X169230303Y-63065010D01*
X169623629Y-62672370D01*
X169836757Y-62159100D01*
X169837242Y-61603339D01*
X169625010Y-61089697D01*
X169232370Y-60696371D01*
X169024488Y-60610051D01*
X169230303Y-60525010D01*
X169623629Y-60132370D01*
X169836757Y-59619100D01*
X169837242Y-59063339D01*
X169625010Y-58549697D01*
X169232370Y-58156371D01*
X169024488Y-58070051D01*
X169230303Y-57985010D01*
X169623629Y-57592370D01*
X169836757Y-57079100D01*
X169837242Y-56523339D01*
X169625010Y-56009697D01*
X169232370Y-55616371D01*
X169024488Y-55530051D01*
X169230303Y-55445010D01*
X169623629Y-55052370D01*
X169836757Y-54539100D01*
X169837242Y-53983339D01*
X169625010Y-53469697D01*
X169232370Y-53076371D01*
X169024488Y-52990051D01*
X169230303Y-52905010D01*
X169623629Y-52512370D01*
X169836757Y-51999100D01*
X169837242Y-51443339D01*
X169625010Y-50929697D01*
X169232370Y-50536371D01*
X169024488Y-50450051D01*
X169230303Y-50365010D01*
X169623629Y-49972370D01*
X169836757Y-49459100D01*
X169837242Y-48903339D01*
X169625010Y-48389697D01*
X169232370Y-47996371D01*
X169024488Y-47910051D01*
X169230303Y-47825010D01*
X169623629Y-47432370D01*
X169836757Y-46919100D01*
X169837242Y-46363339D01*
X169625010Y-45849697D01*
X169232370Y-45456371D01*
X169024488Y-45370051D01*
X169230303Y-45285010D01*
X169623629Y-44892370D01*
X169657334Y-44811200D01*
X170116596Y-44811200D01*
X174899898Y-49594502D01*
X174899898Y-55869460D01*
X174857880Y-55911405D01*
X174722252Y-56238032D01*
X174721944Y-56591698D01*
X174857001Y-56918561D01*
X175106862Y-57168859D01*
X175433489Y-57304487D01*
X175787155Y-57304795D01*
X176114018Y-57169738D01*
X176364316Y-56919877D01*
X176499944Y-56593250D01*
X176500087Y-56427978D01*
X177615510Y-56427978D01*
X177615510Y-56492022D01*
X177739928Y-57117514D01*
X178094241Y-57647781D01*
X178217290Y-57730000D01*
X178094241Y-57812219D01*
X177739928Y-58342486D01*
X177615510Y-58967978D01*
X177615510Y-59032022D01*
X177739928Y-59657514D01*
X178094241Y-60187781D01*
X178217290Y-60270000D01*
X178094241Y-60352219D01*
X177739928Y-60882486D01*
X177615510Y-61507978D01*
X177615510Y-61572022D01*
X177739928Y-62197514D01*
X178094241Y-62727781D01*
X178217290Y-62810000D01*
X178094241Y-62892219D01*
X177739928Y-63422486D01*
X177615510Y-64047978D01*
X177615510Y-64112022D01*
X177739928Y-64737514D01*
X178094241Y-65267781D01*
X178624508Y-65622094D01*
X179250000Y-65746512D01*
X179875492Y-65622094D01*
X180405759Y-65267781D01*
X180760072Y-64737514D01*
X180884490Y-64112022D01*
X180884490Y-64047978D01*
X180760072Y-63422486D01*
X180405759Y-62892219D01*
X180282710Y-62810000D01*
X180405759Y-62727781D01*
X180760072Y-62197514D01*
X180884490Y-61572022D01*
X180884490Y-61507978D01*
X180760072Y-60882486D01*
X180405759Y-60352219D01*
X180282710Y-60270000D01*
X180405759Y-60187781D01*
X180760072Y-59657514D01*
X180884490Y-59032022D01*
X180884490Y-58967978D01*
X180760072Y-58342486D01*
X180405759Y-57812219D01*
X180282710Y-57730000D01*
X180405759Y-57647781D01*
X180760072Y-57117514D01*
X180884490Y-56492022D01*
X180884490Y-56427978D01*
X180760072Y-55802486D01*
X180405759Y-55272219D01*
X180256700Y-55172621D01*
X180573068Y-54879726D01*
X180839627Y-54300355D01*
X180720807Y-54047000D01*
X179377000Y-54047000D01*
X179377000Y-54067000D01*
X179123000Y-54067000D01*
X179123000Y-54047000D01*
X177779193Y-54047000D01*
X177660373Y-54300355D01*
X177926932Y-54879726D01*
X178243300Y-55172621D01*
X178094241Y-55272219D01*
X177739928Y-55802486D01*
X177615510Y-56427978D01*
X176500087Y-56427978D01*
X176500252Y-56239584D01*
X176365195Y-55912721D01*
X176322298Y-55869749D01*
X176322298Y-50380510D01*
X177603070Y-50380510D01*
X177603070Y-52379490D01*
X177647348Y-52614807D01*
X177786420Y-52830931D01*
X177947649Y-52941094D01*
X177926932Y-52960274D01*
X177660373Y-53539645D01*
X177779193Y-53793000D01*
X179123000Y-53793000D01*
X179123000Y-53773000D01*
X179377000Y-53773000D01*
X179377000Y-53793000D01*
X180720807Y-53793000D01*
X180839627Y-53539645D01*
X180573068Y-52960274D01*
X180551137Y-52939970D01*
X180700931Y-52843580D01*
X180845921Y-52631380D01*
X180896930Y-52379490D01*
X180896930Y-50380510D01*
X180852652Y-50145193D01*
X180713580Y-49929069D01*
X180501380Y-49784079D01*
X180249490Y-49733070D01*
X178250510Y-49733070D01*
X178015193Y-49777348D01*
X177799069Y-49916420D01*
X177654079Y-50128620D01*
X177603070Y-50380510D01*
X176322298Y-50380510D01*
X176322298Y-49299914D01*
X176268161Y-49027750D01*
X176268161Y-49027749D01*
X176113992Y-48797020D01*
X172237327Y-44920355D01*
X177660373Y-44920355D01*
X177926932Y-45499726D01*
X178394916Y-45932987D01*
X178869646Y-46129619D01*
X179123000Y-46010265D01*
X179123000Y-44667000D01*
X179377000Y-44667000D01*
X179377000Y-46010265D01*
X179630354Y-46129619D01*
X180105084Y-45932987D01*
X180573068Y-45499726D01*
X180839627Y-44920355D01*
X180720807Y-44667000D01*
X179377000Y-44667000D01*
X179123000Y-44667000D01*
X177779193Y-44667000D01*
X177660373Y-44920355D01*
X172237327Y-44920355D01*
X170914078Y-43597106D01*
X170683349Y-43442937D01*
X170411184Y-43388800D01*
X169657695Y-43388800D01*
X169625010Y-43309697D01*
X169232370Y-42916371D01*
X169024488Y-42830051D01*
X169230303Y-42745010D01*
X169623629Y-42352370D01*
X169836757Y-41839100D01*
X169837242Y-41283339D01*
X169625010Y-40769697D01*
X169232370Y-40376371D01*
X168719100Y-40163243D01*
X168163339Y-40162758D01*
X167649697Y-40374990D01*
X167256371Y-40767630D01*
X167043243Y-41280900D01*
X167042758Y-41836661D01*
X141896759Y-41836661D01*
X141897242Y-41283339D01*
X141685010Y-40769697D01*
X141292370Y-40376371D01*
X140779100Y-40163243D01*
X140223339Y-40162758D01*
X139709697Y-40374990D01*
X139316371Y-40767630D01*
X139103243Y-41280900D01*
X139102758Y-41836661D01*
X131565937Y-41836661D01*
X131634490Y-41492022D01*
X131634490Y-41427978D01*
X131510072Y-40802486D01*
X131155759Y-40272219D01*
X130625492Y-39917906D01*
X130000000Y-39793488D01*
X129374508Y-39917906D01*
X128844241Y-40272219D01*
X128489928Y-40802486D01*
X128365510Y-41427978D01*
X128365510Y-41492022D01*
X128489928Y-42117514D01*
X128703453Y-42437077D01*
X128549069Y-42536420D01*
X128404079Y-42748620D01*
X128353070Y-43000510D01*
X127210000Y-43000510D01*
X127210000Y-33380510D01*
X177603070Y-33380510D01*
X177603070Y-35379490D01*
X177647348Y-35614807D01*
X177786420Y-35830931D01*
X177952473Y-35944390D01*
X177739928Y-36262486D01*
X177615510Y-36887978D01*
X177615510Y-36952022D01*
X177739928Y-37577514D01*
X178094241Y-38107781D01*
X178217290Y-38190000D01*
X178094241Y-38272219D01*
X177739928Y-38802486D01*
X177615510Y-39427978D01*
X177615510Y-39492022D01*
X177739928Y-40117514D01*
X178094241Y-40647781D01*
X178217290Y-40730000D01*
X178094241Y-40812219D01*
X177739928Y-41342486D01*
X177615510Y-41967978D01*
X177615510Y-42032022D01*
X177739928Y-42657514D01*
X178094241Y-43187781D01*
X178243300Y-43287379D01*
X177926932Y-43580274D01*
X177660373Y-44159645D01*
X177779193Y-44413000D01*
X179123000Y-44413000D01*
X179123000Y-44393000D01*
X179377000Y-44393000D01*
X179377000Y-44413000D01*
X180720807Y-44413000D01*
X180839627Y-44159645D01*
X180573068Y-43580274D01*
X180256700Y-43287379D01*
X180405759Y-43187781D01*
X180760072Y-42657514D01*
X180884490Y-42032022D01*
X180884490Y-41967978D01*
X180760072Y-41342486D01*
X180405759Y-40812219D01*
X180282710Y-40730000D01*
X180405759Y-40647781D01*
X180760072Y-40117514D01*
X180884490Y-39492022D01*
X180884490Y-39427978D01*
X180760072Y-38802486D01*
X180405759Y-38272219D01*
X180282710Y-38190000D01*
X180405759Y-38107781D01*
X180760072Y-37577514D01*
X180884490Y-36952022D01*
X180884490Y-36887978D01*
X180760072Y-36262486D01*
X180546547Y-35942923D01*
X180700931Y-35843580D01*
X180845921Y-35631380D01*
X180896930Y-35379490D01*
X180896930Y-33380510D01*
X180852652Y-33145193D01*
X180713580Y-32929069D01*
X180501380Y-32784079D01*
X180249490Y-32733070D01*
X178250510Y-32733070D01*
X178015193Y-32777348D01*
X177799069Y-32916420D01*
X177654079Y-33128620D01*
X177603070Y-33380510D01*
X127210000Y-33380510D01*
X127210000Y-30819930D01*
X127225896Y-30740015D01*
X127231551Y-30731552D01*
X127240016Y-30725896D01*
X127319930Y-30710000D01*
X181680070Y-30710000D01*
X181759985Y-30725896D01*
M02*
