G04 #@! TF.FileFunction,Legend,Top*
%FSLAX46Y46*%
G04 Gerber Fmt 4.6, Leading zero omitted, Abs format (unit mm)*
G04 Created by KiCad (PCBNEW 4.0.7-e2-6376~58~ubuntu16.04.1) date Thu Jan 18 15:28:59 2018*
%MOMM*%
%LPD*%
G01*
G04 APERTURE LIST*
%ADD10C,0.100000*%
%ADD11C,0.250000*%
%ADD12C,0.120000*%
%ADD13C,0.150000*%
%ADD14C,0.152400*%
G04 APERTURE END LIST*
D10*
D11*
X211523810Y-113428571D02*
X211190476Y-113428571D01*
X211190476Y-113952381D02*
X211190476Y-112952381D01*
X211666667Y-112952381D01*
X211904762Y-112952381D02*
X212476191Y-112952381D01*
X212190476Y-113952381D02*
X212190476Y-112952381D01*
X212809524Y-113952381D02*
X212809524Y-112952381D01*
X213047619Y-112952381D01*
X213190477Y-113000000D01*
X213285715Y-113095238D01*
X213333334Y-113190476D01*
X213380953Y-113380952D01*
X213380953Y-113523810D01*
X213333334Y-113714286D01*
X213285715Y-113809524D01*
X213190477Y-113904762D01*
X213047619Y-113952381D01*
X212809524Y-113952381D01*
X213809524Y-113952381D02*
X213809524Y-112952381D01*
X206066667Y-113952381D02*
X206066667Y-112952381D01*
X206447620Y-112952381D01*
X206542858Y-113000000D01*
X206590477Y-113047619D01*
X206638096Y-113142857D01*
X206638096Y-113285714D01*
X206590477Y-113380952D01*
X206542858Y-113428571D01*
X206447620Y-113476190D01*
X206066667Y-113476190D01*
X206971429Y-112952381D02*
X207209524Y-113952381D01*
X207400001Y-113238095D01*
X207590477Y-113952381D01*
X207828572Y-112952381D01*
X208780953Y-113952381D02*
X208447619Y-113476190D01*
X208209524Y-113952381D02*
X208209524Y-112952381D01*
X208590477Y-112952381D01*
X208685715Y-113000000D01*
X208733334Y-113047619D01*
X208780953Y-113142857D01*
X208780953Y-113285714D01*
X208733334Y-113380952D01*
X208685715Y-113428571D01*
X208590477Y-113476190D01*
X208209524Y-113476190D01*
X225128571Y-111071428D02*
X225176190Y-110928571D01*
X225223810Y-110880952D01*
X225319048Y-110833333D01*
X225461905Y-110833333D01*
X225557143Y-110880952D01*
X225604762Y-110928571D01*
X225652381Y-111023809D01*
X225652381Y-111404762D01*
X224652381Y-111404762D01*
X224652381Y-111071428D01*
X224700000Y-110976190D01*
X224747619Y-110928571D01*
X224842857Y-110880952D01*
X224938095Y-110880952D01*
X225033333Y-110928571D01*
X225080952Y-110976190D01*
X225128571Y-111071428D01*
X225128571Y-111404762D01*
X225652381Y-110404762D02*
X224652381Y-110404762D01*
X225128571Y-110404762D02*
X225128571Y-109833333D01*
X225652381Y-109833333D02*
X224652381Y-109833333D01*
X225652381Y-108833333D02*
X225652381Y-109404762D01*
X225652381Y-109119048D02*
X224652381Y-109119048D01*
X224795238Y-109214286D01*
X224890476Y-109309524D01*
X224938095Y-109404762D01*
X224652381Y-108500000D02*
X224652381Y-107833333D01*
X225652381Y-108261905D01*
X224652381Y-106976190D02*
X224652381Y-107452381D01*
X225128571Y-107500000D01*
X225080952Y-107452381D01*
X225033333Y-107357143D01*
X225033333Y-107119047D01*
X225080952Y-107023809D01*
X225128571Y-106976190D01*
X225223810Y-106928571D01*
X225461905Y-106928571D01*
X225557143Y-106976190D01*
X225604762Y-107023809D01*
X225652381Y-107119047D01*
X225652381Y-107357143D01*
X225604762Y-107452381D01*
X225557143Y-107500000D01*
X224652381Y-106309524D02*
X224652381Y-106214285D01*
X224700000Y-106119047D01*
X224747619Y-106071428D01*
X224842857Y-106023809D01*
X225033333Y-105976190D01*
X225271429Y-105976190D01*
X225461905Y-106023809D01*
X225557143Y-106071428D01*
X225604762Y-106119047D01*
X225652381Y-106214285D01*
X225652381Y-106309524D01*
X225604762Y-106404762D01*
X225557143Y-106452381D01*
X225461905Y-106500000D01*
X225271429Y-106547619D01*
X225033333Y-106547619D01*
X224842857Y-106500000D01*
X224747619Y-106452381D01*
X224700000Y-106404762D01*
X224652381Y-106309524D01*
X225271429Y-105547619D02*
X225271429Y-104785714D01*
X225128571Y-103976190D02*
X225128571Y-104309524D01*
X225652381Y-104309524D02*
X224652381Y-104309524D01*
X224652381Y-103833333D01*
X224652381Y-103595238D02*
X225652381Y-103261905D01*
X224652381Y-102928571D01*
X225652381Y-102595238D02*
X224652381Y-102595238D01*
X225128571Y-92880952D02*
X225176190Y-92738095D01*
X225223810Y-92690476D01*
X225319048Y-92642857D01*
X225461905Y-92642857D01*
X225557143Y-92690476D01*
X225604762Y-92738095D01*
X225652381Y-92833333D01*
X225652381Y-93214286D01*
X224652381Y-93214286D01*
X224652381Y-92880952D01*
X224700000Y-92785714D01*
X224747619Y-92738095D01*
X224842857Y-92690476D01*
X224938095Y-92690476D01*
X225033333Y-92738095D01*
X225080952Y-92785714D01*
X225128571Y-92880952D01*
X225128571Y-93214286D01*
X225652381Y-92214286D02*
X224652381Y-92214286D01*
X225366667Y-91880952D01*
X224652381Y-91547619D01*
X225652381Y-91547619D01*
X225128571Y-91071429D02*
X225128571Y-90738095D01*
X225652381Y-90595238D02*
X225652381Y-91071429D01*
X224652381Y-91071429D01*
X224652381Y-90595238D01*
X224747619Y-90214286D02*
X224700000Y-90166667D01*
X224652381Y-90071429D01*
X224652381Y-89833333D01*
X224700000Y-89738095D01*
X224747619Y-89690476D01*
X224842857Y-89642857D01*
X224938095Y-89642857D01*
X225080952Y-89690476D01*
X225652381Y-90261905D01*
X225652381Y-89642857D01*
X225080952Y-89071429D02*
X225033333Y-89166667D01*
X224985714Y-89214286D01*
X224890476Y-89261905D01*
X224842857Y-89261905D01*
X224747619Y-89214286D01*
X224700000Y-89166667D01*
X224652381Y-89071429D01*
X224652381Y-88880952D01*
X224700000Y-88785714D01*
X224747619Y-88738095D01*
X224842857Y-88690476D01*
X224890476Y-88690476D01*
X224985714Y-88738095D01*
X225033333Y-88785714D01*
X225080952Y-88880952D01*
X225080952Y-89071429D01*
X225128571Y-89166667D01*
X225176190Y-89214286D01*
X225271429Y-89261905D01*
X225461905Y-89261905D01*
X225557143Y-89214286D01*
X225604762Y-89166667D01*
X225652381Y-89071429D01*
X225652381Y-88880952D01*
X225604762Y-88785714D01*
X225557143Y-88738095D01*
X225461905Y-88690476D01*
X225271429Y-88690476D01*
X225176190Y-88738095D01*
X225128571Y-88785714D01*
X225080952Y-88880952D01*
X224652381Y-88071429D02*
X224652381Y-87976190D01*
X224700000Y-87880952D01*
X224747619Y-87833333D01*
X224842857Y-87785714D01*
X225033333Y-87738095D01*
X225271429Y-87738095D01*
X225461905Y-87785714D01*
X225557143Y-87833333D01*
X225604762Y-87880952D01*
X225652381Y-87976190D01*
X225652381Y-88071429D01*
X225604762Y-88166667D01*
X225557143Y-88214286D01*
X225461905Y-88261905D01*
X225271429Y-88309524D01*
X225033333Y-88309524D01*
X224842857Y-88261905D01*
X224747619Y-88214286D01*
X224700000Y-88166667D01*
X224652381Y-88071429D01*
X185728571Y-87166666D02*
X185776190Y-87023809D01*
X185823810Y-86976190D01*
X185919048Y-86928571D01*
X186061905Y-86928571D01*
X186157143Y-86976190D01*
X186204762Y-87023809D01*
X186252381Y-87119047D01*
X186252381Y-87500000D01*
X185252381Y-87500000D01*
X185252381Y-87166666D01*
X185300000Y-87071428D01*
X185347619Y-87023809D01*
X185442857Y-86976190D01*
X185538095Y-86976190D01*
X185633333Y-87023809D01*
X185680952Y-87071428D01*
X185728571Y-87166666D01*
X185728571Y-87500000D01*
X186252381Y-86500000D02*
X185585714Y-86500000D01*
X185252381Y-86500000D02*
X185300000Y-86547619D01*
X185347619Y-86500000D01*
X185300000Y-86452381D01*
X185252381Y-86500000D01*
X185347619Y-86500000D01*
X186252381Y-86023810D02*
X185585714Y-86023810D01*
X185776190Y-86023810D02*
X185680952Y-85976191D01*
X185633333Y-85928572D01*
X185585714Y-85833334D01*
X185585714Y-85738095D01*
X185585714Y-84976190D02*
X186252381Y-84976190D01*
X185585714Y-85404762D02*
X186109524Y-85404762D01*
X186204762Y-85357143D01*
X186252381Y-85261905D01*
X186252381Y-85119047D01*
X186204762Y-85023809D01*
X186157143Y-84976190D01*
X185585714Y-84642857D02*
X185585714Y-84261905D01*
X185252381Y-84500000D02*
X186109524Y-84500000D01*
X186204762Y-84452381D01*
X186252381Y-84357143D01*
X186252381Y-84261905D01*
X186252381Y-83499999D02*
X185728571Y-83499999D01*
X185633333Y-83547618D01*
X185585714Y-83642856D01*
X185585714Y-83833333D01*
X185633333Y-83928571D01*
X186204762Y-83499999D02*
X186252381Y-83595237D01*
X186252381Y-83833333D01*
X186204762Y-83928571D01*
X186109524Y-83976190D01*
X186014286Y-83976190D01*
X185919048Y-83928571D01*
X185871429Y-83833333D01*
X185871429Y-83595237D01*
X185823810Y-83499999D01*
X186152381Y-98690477D02*
X185152381Y-98690477D01*
X185152381Y-98309524D01*
X185200000Y-98214286D01*
X185247619Y-98166667D01*
X185342857Y-98119048D01*
X185485714Y-98119048D01*
X185580952Y-98166667D01*
X185628571Y-98214286D01*
X185676190Y-98309524D01*
X185676190Y-98690477D01*
X186152381Y-97547620D02*
X186104762Y-97642858D01*
X186009524Y-97690477D01*
X185152381Y-97690477D01*
X185485714Y-96738095D02*
X186152381Y-96738095D01*
X185485714Y-97166667D02*
X186009524Y-97166667D01*
X186104762Y-97119048D01*
X186152381Y-97023810D01*
X186152381Y-96880952D01*
X186104762Y-96785714D01*
X186057143Y-96738095D01*
X185485714Y-96357143D02*
X186152381Y-96119048D01*
X185485714Y-95880952D01*
X186152381Y-95500000D02*
X185485714Y-95500000D01*
X185152381Y-95500000D02*
X185200000Y-95547619D01*
X185247619Y-95500000D01*
X185200000Y-95452381D01*
X185152381Y-95500000D01*
X185247619Y-95500000D01*
X186152381Y-94880953D02*
X186104762Y-94976191D01*
X186057143Y-95023810D01*
X185961905Y-95071429D01*
X185676190Y-95071429D01*
X185580952Y-95023810D01*
X185533333Y-94976191D01*
X185485714Y-94880953D01*
X185485714Y-94738095D01*
X185533333Y-94642857D01*
X185580952Y-94595238D01*
X185676190Y-94547619D01*
X185961905Y-94547619D01*
X186057143Y-94595238D01*
X186104762Y-94642857D01*
X186152381Y-94738095D01*
X186152381Y-94880953D01*
X186152381Y-94119048D02*
X185485714Y-94119048D01*
X185580952Y-94119048D02*
X185533333Y-94071429D01*
X185485714Y-93976191D01*
X185485714Y-93833333D01*
X185533333Y-93738095D01*
X185628571Y-93690476D01*
X186152381Y-93690476D01*
X185628571Y-93690476D02*
X185533333Y-93642857D01*
X185485714Y-93547619D01*
X185485714Y-93404762D01*
X185533333Y-93309524D01*
X185628571Y-93261905D01*
X186152381Y-93261905D01*
X186104762Y-92404762D02*
X186152381Y-92500000D01*
X186152381Y-92690477D01*
X186104762Y-92785715D01*
X186009524Y-92833334D01*
X185628571Y-92833334D01*
X185533333Y-92785715D01*
X185485714Y-92690477D01*
X185485714Y-92500000D01*
X185533333Y-92404762D01*
X185628571Y-92357143D01*
X185723810Y-92357143D01*
X185819048Y-92833334D01*
X185485714Y-92071429D02*
X185485714Y-91690477D01*
X185152381Y-91928572D02*
X186009524Y-91928572D01*
X186104762Y-91880953D01*
X186152381Y-91785715D01*
X186152381Y-91690477D01*
X186152381Y-91357143D02*
X185485714Y-91357143D01*
X185676190Y-91357143D02*
X185580952Y-91309524D01*
X185533333Y-91261905D01*
X185485714Y-91166667D01*
X185485714Y-91071428D01*
X186152381Y-90595238D02*
X186104762Y-90690476D01*
X186057143Y-90738095D01*
X185961905Y-90785714D01*
X185676190Y-90785714D01*
X185580952Y-90738095D01*
X185533333Y-90690476D01*
X185485714Y-90595238D01*
X185485714Y-90452380D01*
X185533333Y-90357142D01*
X185580952Y-90309523D01*
X185676190Y-90261904D01*
X185961905Y-90261904D01*
X186057143Y-90309523D01*
X186104762Y-90357142D01*
X186152381Y-90452380D01*
X186152381Y-90595238D01*
X185916667Y-108630953D02*
X185916667Y-108154762D01*
X186202381Y-108726191D02*
X185202381Y-108392858D01*
X186202381Y-108059524D01*
X185535714Y-107726191D02*
X186202381Y-107726191D01*
X185630952Y-107726191D02*
X185583333Y-107678572D01*
X185535714Y-107583334D01*
X185535714Y-107440476D01*
X185583333Y-107345238D01*
X185678571Y-107297619D01*
X186202381Y-107297619D01*
X186154762Y-106440476D02*
X186202381Y-106535714D01*
X186202381Y-106726191D01*
X186154762Y-106821429D01*
X186059524Y-106869048D01*
X185678571Y-106869048D01*
X185583333Y-106821429D01*
X185535714Y-106726191D01*
X185535714Y-106535714D01*
X185583333Y-106440476D01*
X185678571Y-106392857D01*
X185773810Y-106392857D01*
X185869048Y-106869048D01*
X186202381Y-105964286D02*
X185535714Y-105964286D01*
X185630952Y-105964286D02*
X185583333Y-105916667D01*
X185535714Y-105821429D01*
X185535714Y-105678571D01*
X185583333Y-105583333D01*
X185678571Y-105535714D01*
X186202381Y-105535714D01*
X185678571Y-105535714D02*
X185583333Y-105488095D01*
X185535714Y-105392857D01*
X185535714Y-105250000D01*
X185583333Y-105154762D01*
X185678571Y-105107143D01*
X186202381Y-105107143D01*
X186202381Y-104488096D02*
X186154762Y-104583334D01*
X186107143Y-104630953D01*
X186011905Y-104678572D01*
X185726190Y-104678572D01*
X185630952Y-104630953D01*
X185583333Y-104583334D01*
X185535714Y-104488096D01*
X185535714Y-104345238D01*
X185583333Y-104250000D01*
X185630952Y-104202381D01*
X185726190Y-104154762D01*
X186011905Y-104154762D01*
X186107143Y-104202381D01*
X186154762Y-104250000D01*
X186202381Y-104345238D01*
X186202381Y-104488096D01*
X186202381Y-103726191D02*
X185535714Y-103726191D01*
X185630952Y-103726191D02*
X185583333Y-103678572D01*
X185535714Y-103583334D01*
X185535714Y-103440476D01*
X185583333Y-103345238D01*
X185678571Y-103297619D01*
X186202381Y-103297619D01*
X185678571Y-103297619D02*
X185583333Y-103250000D01*
X185535714Y-103154762D01*
X185535714Y-103011905D01*
X185583333Y-102916667D01*
X185678571Y-102869048D01*
X186202381Y-102869048D01*
X186154762Y-102011905D02*
X186202381Y-102107143D01*
X186202381Y-102297620D01*
X186154762Y-102392858D01*
X186059524Y-102440477D01*
X185678571Y-102440477D01*
X185583333Y-102392858D01*
X185535714Y-102297620D01*
X185535714Y-102107143D01*
X185583333Y-102011905D01*
X185678571Y-101964286D01*
X185773810Y-101964286D01*
X185869048Y-102440477D01*
X185535714Y-101678572D02*
X185535714Y-101297620D01*
X185202381Y-101535715D02*
X186059524Y-101535715D01*
X186154762Y-101488096D01*
X186202381Y-101392858D01*
X186202381Y-101297620D01*
X186202381Y-100964286D02*
X185535714Y-100964286D01*
X185726190Y-100964286D02*
X185630952Y-100916667D01*
X185583333Y-100869048D01*
X185535714Y-100773810D01*
X185535714Y-100678571D01*
X186202381Y-100202381D02*
X186154762Y-100297619D01*
X186107143Y-100345238D01*
X186011905Y-100392857D01*
X185726190Y-100392857D01*
X185630952Y-100345238D01*
X185583333Y-100297619D01*
X185535714Y-100202381D01*
X185535714Y-100059523D01*
X185583333Y-99964285D01*
X185630952Y-99916666D01*
X185726190Y-99869047D01*
X186011905Y-99869047D01*
X186107143Y-99916666D01*
X186154762Y-99964285D01*
X186202381Y-100059523D01*
X186202381Y-100202381D01*
X186152381Y-114476191D02*
X185152381Y-114476191D01*
X185152381Y-114095238D01*
X185200000Y-114000000D01*
X185247619Y-113952381D01*
X185342857Y-113904762D01*
X185485714Y-113904762D01*
X185580952Y-113952381D01*
X185628571Y-114000000D01*
X185676190Y-114095238D01*
X185676190Y-114476191D01*
X186152381Y-113333334D02*
X186104762Y-113428572D01*
X186057143Y-113476191D01*
X185961905Y-113523810D01*
X185676190Y-113523810D01*
X185580952Y-113476191D01*
X185533333Y-113428572D01*
X185485714Y-113333334D01*
X185485714Y-113190476D01*
X185533333Y-113095238D01*
X185580952Y-113047619D01*
X185676190Y-113000000D01*
X185961905Y-113000000D01*
X186057143Y-113047619D01*
X186104762Y-113095238D01*
X186152381Y-113190476D01*
X186152381Y-113333334D01*
X185485714Y-112666667D02*
X186152381Y-112476191D01*
X185676190Y-112285714D01*
X186152381Y-112095238D01*
X185485714Y-111904762D01*
X186104762Y-111142857D02*
X186152381Y-111238095D01*
X186152381Y-111428572D01*
X186104762Y-111523810D01*
X186009524Y-111571429D01*
X185628571Y-111571429D01*
X185533333Y-111523810D01*
X185485714Y-111428572D01*
X185485714Y-111238095D01*
X185533333Y-111142857D01*
X185628571Y-111095238D01*
X185723810Y-111095238D01*
X185819048Y-111571429D01*
X186152381Y-110666667D02*
X185485714Y-110666667D01*
X185676190Y-110666667D02*
X185580952Y-110619048D01*
X185533333Y-110571429D01*
X185485714Y-110476191D01*
X185485714Y-110380952D01*
D12*
X193000000Y-92150000D02*
X192000000Y-92150000D01*
X192000000Y-93850000D02*
X193000000Y-93850000D01*
D13*
X183850960Y-82720920D02*
X183850960Y-88319080D01*
X184348800Y-88120960D02*
X183850960Y-88120960D01*
X183850960Y-82919040D02*
X184348800Y-82919040D01*
X184348800Y-85520000D02*
X183850960Y-85520000D01*
X178549980Y-88319080D02*
X178549980Y-82720920D01*
X184348800Y-88319080D02*
X184348800Y-82720920D01*
X184348800Y-82720920D02*
X178151200Y-82720920D01*
X178151200Y-82720920D02*
X178151200Y-88319080D01*
X178151200Y-88319080D02*
X184348800Y-88319080D01*
X183850960Y-109720920D02*
X183850960Y-115319080D01*
X184348800Y-115120960D02*
X183850960Y-115120960D01*
X183850960Y-109919040D02*
X184348800Y-109919040D01*
X184348800Y-112520000D02*
X183850960Y-112520000D01*
X178549980Y-115319080D02*
X178549980Y-109720920D01*
X184348800Y-115319080D02*
X184348800Y-109720920D01*
X184348800Y-109720920D02*
X178151200Y-109720920D01*
X178151200Y-109720920D02*
X178151200Y-115319080D01*
X178151200Y-115319080D02*
X184348800Y-115319080D01*
X227149040Y-110799840D02*
X226651200Y-110799840D01*
X226651200Y-113598920D02*
X226651200Y-100401080D01*
X227149040Y-100401080D02*
X227149040Y-113598920D01*
X232450020Y-100401080D02*
X232450020Y-113598920D01*
X232848800Y-113598920D02*
X232848800Y-100401080D01*
X227149040Y-108297940D02*
X226651200Y-108297940D01*
X227149040Y-105699520D02*
X226651200Y-105699520D01*
X226651200Y-100601740D02*
X227149040Y-100601740D01*
X227149040Y-113398260D02*
X226651200Y-113398260D01*
X226651200Y-103202700D02*
X227149040Y-103202700D01*
X226651200Y-113596380D02*
X232848800Y-113596380D01*
X232848800Y-100403620D02*
X226651200Y-100403620D01*
X232848800Y-98379400D02*
X232848800Y-82580600D01*
X232450020Y-98379400D02*
X232450020Y-82580600D01*
X226651200Y-82580600D02*
X226651200Y-98379400D01*
X227149040Y-98379400D02*
X227149040Y-82580600D01*
X227149040Y-95580320D02*
X226651200Y-95580320D01*
X227149040Y-92979360D02*
X226651200Y-92979360D01*
X227149040Y-90477460D02*
X226651200Y-90477460D01*
X227149040Y-87980640D02*
X226651200Y-87980640D01*
X226651200Y-82783800D02*
X227149040Y-82783800D01*
X227149040Y-98176200D02*
X226651200Y-98176200D01*
X226651200Y-85382220D02*
X227149040Y-85382220D01*
X226651200Y-98374320D02*
X232848800Y-98374320D01*
X232848800Y-82585680D02*
X226651200Y-82585680D01*
X183850960Y-91720920D02*
X183850960Y-97319080D01*
X184348800Y-97120960D02*
X183850960Y-97120960D01*
X183850960Y-91919040D02*
X184348800Y-91919040D01*
X184348800Y-94520000D02*
X183850960Y-94520000D01*
X178549980Y-97319080D02*
X178549980Y-91720920D01*
X184348800Y-97319080D02*
X184348800Y-91720920D01*
X184348800Y-91720920D02*
X178151200Y-91720920D01*
X178151200Y-91720920D02*
X178151200Y-97319080D01*
X178151200Y-97319080D02*
X184348800Y-97319080D01*
X183850960Y-101470920D02*
X183850960Y-107069080D01*
X184348800Y-106870960D02*
X183850960Y-106870960D01*
X183850960Y-101669040D02*
X184348800Y-101669040D01*
X184348800Y-104270000D02*
X183850960Y-104270000D01*
X178549980Y-107069080D02*
X178549980Y-101470920D01*
X184348800Y-107069080D02*
X184348800Y-101470920D01*
X184348800Y-101470920D02*
X178151200Y-101470920D01*
X178151200Y-101470920D02*
X178151200Y-107069080D01*
X178151200Y-107069080D02*
X184348800Y-107069080D01*
D12*
X221830000Y-83590000D02*
X219170000Y-83590000D01*
X221830000Y-91270000D02*
X221830000Y-83590000D01*
X219170000Y-91270000D02*
X219170000Y-83590000D01*
X221830000Y-91270000D02*
X219170000Y-91270000D01*
X221830000Y-92540000D02*
X221830000Y-93870000D01*
X221830000Y-93870000D02*
X220500000Y-93870000D01*
X193100000Y-100880000D02*
X191900000Y-100880000D01*
X191900000Y-99120000D02*
X193100000Y-99120000D01*
X191900000Y-106120000D02*
X193100000Y-106120000D01*
X193100000Y-107880000D02*
X191900000Y-107880000D01*
X193100000Y-111380000D02*
X191900000Y-111380000D01*
X191900000Y-109620000D02*
X193100000Y-109620000D01*
X191900000Y-102620000D02*
X193100000Y-102620000D01*
X193100000Y-104380000D02*
X191900000Y-104380000D01*
X191900000Y-95620000D02*
X193100000Y-95620000D01*
X193100000Y-97380000D02*
X191900000Y-97380000D01*
X221050000Y-105130000D02*
X219850000Y-105130000D01*
X219850000Y-103370000D02*
X221050000Y-103370000D01*
X221050000Y-101630000D02*
X219850000Y-101630000D01*
X219850000Y-99870000D02*
X221050000Y-99870000D01*
X221100000Y-98130000D02*
X219900000Y-98130000D01*
X219900000Y-96370000D02*
X221100000Y-96370000D01*
D13*
X223810000Y-109980000D02*
X223810000Y-112520000D01*
X223810000Y-112520000D02*
X216190000Y-112520000D01*
X216190000Y-112520000D02*
X216190000Y-109980000D01*
X216190000Y-109980000D02*
X223810000Y-109980000D01*
X221270000Y-112520000D02*
X221270000Y-109980000D01*
D14*
X199234000Y-104859000D02*
X199234000Y-105621000D01*
X199234000Y-105621000D02*
X215236000Y-105621000D01*
X215236000Y-105621000D02*
X215236000Y-104859000D01*
D13*
X206190000Y-112520000D02*
X206190000Y-109980000D01*
X206190000Y-109980000D02*
X213810000Y-109980000D01*
X213810000Y-109980000D02*
X213810000Y-112520000D01*
X213810000Y-112520000D02*
X206190000Y-112520000D01*
X208730000Y-109980000D02*
X208730000Y-112520000D01*
D12*
X189500000Y-83750000D02*
X189500000Y-88250000D01*
X193500000Y-82500000D02*
X192000000Y-82500000D01*
X196000000Y-88250000D02*
X196000000Y-83750000D01*
X192000000Y-89500000D02*
X193500000Y-89500000D01*
D13*
X192333334Y-91857143D02*
X192285715Y-91904762D01*
X192142858Y-91952381D01*
X192047620Y-91952381D01*
X191904762Y-91904762D01*
X191809524Y-91809524D01*
X191761905Y-91714286D01*
X191714286Y-91523810D01*
X191714286Y-91380952D01*
X191761905Y-91190476D01*
X191809524Y-91095238D01*
X191904762Y-91000000D01*
X192047620Y-90952381D01*
X192142858Y-90952381D01*
X192285715Y-91000000D01*
X192333334Y-91047619D01*
X193285715Y-91952381D02*
X192714286Y-91952381D01*
X193000000Y-91952381D02*
X193000000Y-90952381D01*
X192904762Y-91095238D01*
X192809524Y-91190476D01*
X192714286Y-91238095D01*
X180966667Y-81452381D02*
X180966667Y-82166667D01*
X180919047Y-82309524D01*
X180823809Y-82404762D01*
X180680952Y-82452381D01*
X180585714Y-82452381D01*
X181966667Y-82452381D02*
X181395238Y-82452381D01*
X181680952Y-82452381D02*
X181680952Y-81452381D01*
X181585714Y-81595238D01*
X181490476Y-81690476D01*
X181395238Y-81738095D01*
X180866667Y-108352381D02*
X180866667Y-109066667D01*
X180819047Y-109209524D01*
X180723809Y-109304762D01*
X180580952Y-109352381D01*
X180485714Y-109352381D01*
X181295238Y-108447619D02*
X181342857Y-108400000D01*
X181438095Y-108352381D01*
X181676191Y-108352381D01*
X181771429Y-108400000D01*
X181819048Y-108447619D01*
X181866667Y-108542857D01*
X181866667Y-108638095D01*
X181819048Y-108780952D01*
X181247619Y-109352381D01*
X181866667Y-109352381D01*
X229366667Y-99052381D02*
X229366667Y-99766667D01*
X229319047Y-99909524D01*
X229223809Y-100004762D01*
X229080952Y-100052381D01*
X228985714Y-100052381D01*
X229747619Y-99052381D02*
X230366667Y-99052381D01*
X230033333Y-99433333D01*
X230176191Y-99433333D01*
X230271429Y-99480952D01*
X230319048Y-99528571D01*
X230366667Y-99623810D01*
X230366667Y-99861905D01*
X230319048Y-99957143D01*
X230271429Y-100004762D01*
X230176191Y-100052381D01*
X229890476Y-100052381D01*
X229795238Y-100004762D01*
X229747619Y-99957143D01*
X229366667Y-81452381D02*
X229366667Y-82166667D01*
X229319047Y-82309524D01*
X229223809Y-82404762D01*
X229080952Y-82452381D01*
X228985714Y-82452381D01*
X230271429Y-81785714D02*
X230271429Y-82452381D01*
X230033333Y-81404762D02*
X229795238Y-82119048D01*
X230414286Y-82119048D01*
X180866667Y-90352381D02*
X180866667Y-91066667D01*
X180819047Y-91209524D01*
X180723809Y-91304762D01*
X180580952Y-91352381D01*
X180485714Y-91352381D01*
X181819048Y-90352381D02*
X181342857Y-90352381D01*
X181295238Y-90828571D01*
X181342857Y-90780952D01*
X181438095Y-90733333D01*
X181676191Y-90733333D01*
X181771429Y-90780952D01*
X181819048Y-90828571D01*
X181866667Y-90923810D01*
X181866667Y-91161905D01*
X181819048Y-91257143D01*
X181771429Y-91304762D01*
X181676191Y-91352381D01*
X181438095Y-91352381D01*
X181342857Y-91304762D01*
X181295238Y-91257143D01*
X180866667Y-100052381D02*
X180866667Y-100766667D01*
X180819047Y-100909524D01*
X180723809Y-101004762D01*
X180580952Y-101052381D01*
X180485714Y-101052381D01*
X181771429Y-100052381D02*
X181580952Y-100052381D01*
X181485714Y-100100000D01*
X181438095Y-100147619D01*
X181342857Y-100290476D01*
X181295238Y-100480952D01*
X181295238Y-100861905D01*
X181342857Y-100957143D01*
X181390476Y-101004762D01*
X181485714Y-101052381D01*
X181676191Y-101052381D01*
X181771429Y-101004762D01*
X181819048Y-100957143D01*
X181866667Y-100861905D01*
X181866667Y-100623810D01*
X181819048Y-100528571D01*
X181771429Y-100480952D01*
X181676191Y-100433333D01*
X181485714Y-100433333D01*
X181390476Y-100480952D01*
X181342857Y-100528571D01*
X181295238Y-100623810D01*
X220066667Y-81952381D02*
X220066667Y-82666667D01*
X220019047Y-82809524D01*
X219923809Y-82904762D01*
X219780952Y-82952381D01*
X219685714Y-82952381D01*
X220447619Y-81952381D02*
X221114286Y-81952381D01*
X220685714Y-82952381D01*
X192333334Y-98952381D02*
X192000000Y-98476190D01*
X191761905Y-98952381D02*
X191761905Y-97952381D01*
X192142858Y-97952381D01*
X192238096Y-98000000D01*
X192285715Y-98047619D01*
X192333334Y-98142857D01*
X192333334Y-98285714D01*
X192285715Y-98380952D01*
X192238096Y-98428571D01*
X192142858Y-98476190D01*
X191761905Y-98476190D01*
X193285715Y-98952381D02*
X192714286Y-98952381D01*
X193000000Y-98952381D02*
X193000000Y-97952381D01*
X192904762Y-98095238D01*
X192809524Y-98190476D01*
X192714286Y-98238095D01*
X192333334Y-105952381D02*
X192000000Y-105476190D01*
X191761905Y-105952381D02*
X191761905Y-104952381D01*
X192142858Y-104952381D01*
X192238096Y-105000000D01*
X192285715Y-105047619D01*
X192333334Y-105142857D01*
X192333334Y-105285714D01*
X192285715Y-105380952D01*
X192238096Y-105428571D01*
X192142858Y-105476190D01*
X191761905Y-105476190D01*
X192714286Y-105047619D02*
X192761905Y-105000000D01*
X192857143Y-104952381D01*
X193095239Y-104952381D01*
X193190477Y-105000000D01*
X193238096Y-105047619D01*
X193285715Y-105142857D01*
X193285715Y-105238095D01*
X193238096Y-105380952D01*
X192666667Y-105952381D01*
X193285715Y-105952381D01*
X192333334Y-109452381D02*
X192000000Y-108976190D01*
X191761905Y-109452381D02*
X191761905Y-108452381D01*
X192142858Y-108452381D01*
X192238096Y-108500000D01*
X192285715Y-108547619D01*
X192333334Y-108642857D01*
X192333334Y-108785714D01*
X192285715Y-108880952D01*
X192238096Y-108928571D01*
X192142858Y-108976190D01*
X191761905Y-108976190D01*
X192666667Y-108452381D02*
X193285715Y-108452381D01*
X192952381Y-108833333D01*
X193095239Y-108833333D01*
X193190477Y-108880952D01*
X193238096Y-108928571D01*
X193285715Y-109023810D01*
X193285715Y-109261905D01*
X193238096Y-109357143D01*
X193190477Y-109404762D01*
X193095239Y-109452381D01*
X192809524Y-109452381D01*
X192714286Y-109404762D01*
X192666667Y-109357143D01*
X192333334Y-102452381D02*
X192000000Y-101976190D01*
X191761905Y-102452381D02*
X191761905Y-101452381D01*
X192142858Y-101452381D01*
X192238096Y-101500000D01*
X192285715Y-101547619D01*
X192333334Y-101642857D01*
X192333334Y-101785714D01*
X192285715Y-101880952D01*
X192238096Y-101928571D01*
X192142858Y-101976190D01*
X191761905Y-101976190D01*
X193190477Y-101785714D02*
X193190477Y-102452381D01*
X192952381Y-101404762D02*
X192714286Y-102119048D01*
X193333334Y-102119048D01*
X192333334Y-95452381D02*
X192000000Y-94976190D01*
X191761905Y-95452381D02*
X191761905Y-94452381D01*
X192142858Y-94452381D01*
X192238096Y-94500000D01*
X192285715Y-94547619D01*
X192333334Y-94642857D01*
X192333334Y-94785714D01*
X192285715Y-94880952D01*
X192238096Y-94928571D01*
X192142858Y-94976190D01*
X191761905Y-94976190D01*
X193238096Y-94452381D02*
X192761905Y-94452381D01*
X192714286Y-94928571D01*
X192761905Y-94880952D01*
X192857143Y-94833333D01*
X193095239Y-94833333D01*
X193190477Y-94880952D01*
X193238096Y-94928571D01*
X193285715Y-95023810D01*
X193285715Y-95261905D01*
X193238096Y-95357143D01*
X193190477Y-95404762D01*
X193095239Y-95452381D01*
X192857143Y-95452381D01*
X192761905Y-95404762D01*
X192714286Y-95357143D01*
X220283334Y-103052381D02*
X219950000Y-102576190D01*
X219711905Y-103052381D02*
X219711905Y-102052381D01*
X220092858Y-102052381D01*
X220188096Y-102100000D01*
X220235715Y-102147619D01*
X220283334Y-102242857D01*
X220283334Y-102385714D01*
X220235715Y-102480952D01*
X220188096Y-102528571D01*
X220092858Y-102576190D01*
X219711905Y-102576190D01*
X221140477Y-102052381D02*
X220950000Y-102052381D01*
X220854762Y-102100000D01*
X220807143Y-102147619D01*
X220711905Y-102290476D01*
X220664286Y-102480952D01*
X220664286Y-102861905D01*
X220711905Y-102957143D01*
X220759524Y-103004762D01*
X220854762Y-103052381D01*
X221045239Y-103052381D01*
X221140477Y-103004762D01*
X221188096Y-102957143D01*
X221235715Y-102861905D01*
X221235715Y-102623810D01*
X221188096Y-102528571D01*
X221140477Y-102480952D01*
X221045239Y-102433333D01*
X220854762Y-102433333D01*
X220759524Y-102480952D01*
X220711905Y-102528571D01*
X220664286Y-102623810D01*
X220283334Y-99552381D02*
X219950000Y-99076190D01*
X219711905Y-99552381D02*
X219711905Y-98552381D01*
X220092858Y-98552381D01*
X220188096Y-98600000D01*
X220235715Y-98647619D01*
X220283334Y-98742857D01*
X220283334Y-98885714D01*
X220235715Y-98980952D01*
X220188096Y-99028571D01*
X220092858Y-99076190D01*
X219711905Y-99076190D01*
X220616667Y-98552381D02*
X221283334Y-98552381D01*
X220854762Y-99552381D01*
X220333334Y-96052381D02*
X220000000Y-95576190D01*
X219761905Y-96052381D02*
X219761905Y-95052381D01*
X220142858Y-95052381D01*
X220238096Y-95100000D01*
X220285715Y-95147619D01*
X220333334Y-95242857D01*
X220333334Y-95385714D01*
X220285715Y-95480952D01*
X220238096Y-95528571D01*
X220142858Y-95576190D01*
X219761905Y-95576190D01*
X220904762Y-95480952D02*
X220809524Y-95433333D01*
X220761905Y-95385714D01*
X220714286Y-95290476D01*
X220714286Y-95242857D01*
X220761905Y-95147619D01*
X220809524Y-95100000D01*
X220904762Y-95052381D01*
X221095239Y-95052381D01*
X221190477Y-95100000D01*
X221238096Y-95147619D01*
X221285715Y-95242857D01*
X221285715Y-95290476D01*
X221238096Y-95385714D01*
X221190477Y-95433333D01*
X221095239Y-95480952D01*
X220904762Y-95480952D01*
X220809524Y-95528571D01*
X220761905Y-95576190D01*
X220714286Y-95671429D01*
X220714286Y-95861905D01*
X220761905Y-95957143D01*
X220809524Y-96004762D01*
X220904762Y-96052381D01*
X221095239Y-96052381D01*
X221190477Y-96004762D01*
X221238096Y-95957143D01*
X221285715Y-95861905D01*
X221285715Y-95671429D01*
X221238096Y-95576190D01*
X221190477Y-95528571D01*
X221095239Y-95480952D01*
X218666667Y-109404762D02*
X218809524Y-109452381D01*
X219047620Y-109452381D01*
X219142858Y-109404762D01*
X219190477Y-109357143D01*
X219238096Y-109261905D01*
X219238096Y-109166667D01*
X219190477Y-109071429D01*
X219142858Y-109023810D01*
X219047620Y-108976190D01*
X218857143Y-108928571D01*
X218761905Y-108880952D01*
X218714286Y-108833333D01*
X218666667Y-108738095D01*
X218666667Y-108642857D01*
X218714286Y-108547619D01*
X218761905Y-108500000D01*
X218857143Y-108452381D01*
X219095239Y-108452381D01*
X219238096Y-108500000D01*
X219571429Y-108452381D02*
X219809524Y-109452381D01*
X220000001Y-108738095D01*
X220190477Y-109452381D01*
X220428572Y-108452381D01*
X220714286Y-108452381D02*
X221333334Y-108452381D01*
X221000000Y-108833333D01*
X221142858Y-108833333D01*
X221238096Y-108880952D01*
X221285715Y-108928571D01*
X221333334Y-109023810D01*
X221333334Y-109261905D01*
X221285715Y-109357143D01*
X221238096Y-109404762D01*
X221142858Y-109452381D01*
X220857143Y-109452381D01*
X220761905Y-109404762D01*
X220714286Y-109357143D01*
X215438095Y-83852381D02*
X215438095Y-84661905D01*
X215485714Y-84757143D01*
X215533333Y-84804762D01*
X215628571Y-84852381D01*
X215819048Y-84852381D01*
X215914286Y-84804762D01*
X215961905Y-84757143D01*
X216009524Y-84661905D01*
X216009524Y-83852381D01*
X216438095Y-83947619D02*
X216485714Y-83900000D01*
X216580952Y-83852381D01*
X216819048Y-83852381D01*
X216914286Y-83900000D01*
X216961905Y-83947619D01*
X217009524Y-84042857D01*
X217009524Y-84138095D01*
X216961905Y-84280952D01*
X216390476Y-84852381D01*
X217009524Y-84852381D01*
X208666667Y-109304762D02*
X208809524Y-109352381D01*
X209047620Y-109352381D01*
X209142858Y-109304762D01*
X209190477Y-109257143D01*
X209238096Y-109161905D01*
X209238096Y-109066667D01*
X209190477Y-108971429D01*
X209142858Y-108923810D01*
X209047620Y-108876190D01*
X208857143Y-108828571D01*
X208761905Y-108780952D01*
X208714286Y-108733333D01*
X208666667Y-108638095D01*
X208666667Y-108542857D01*
X208714286Y-108447619D01*
X208761905Y-108400000D01*
X208857143Y-108352381D01*
X209095239Y-108352381D01*
X209238096Y-108400000D01*
X209571429Y-108352381D02*
X209809524Y-109352381D01*
X210000001Y-108638095D01*
X210190477Y-109352381D01*
X210428572Y-108352381D01*
X211333334Y-109352381D02*
X210761905Y-109352381D01*
X211047619Y-109352381D02*
X211047619Y-108352381D01*
X210952381Y-108495238D01*
X210857143Y-108590476D01*
X210761905Y-108638095D01*
X196166667Y-86204762D02*
X196309524Y-86252381D01*
X196547620Y-86252381D01*
X196642858Y-86204762D01*
X196690477Y-86157143D01*
X196738096Y-86061905D01*
X196738096Y-85966667D01*
X196690477Y-85871429D01*
X196642858Y-85823810D01*
X196547620Y-85776190D01*
X196357143Y-85728571D01*
X196261905Y-85680952D01*
X196214286Y-85633333D01*
X196166667Y-85538095D01*
X196166667Y-85442857D01*
X196214286Y-85347619D01*
X196261905Y-85300000D01*
X196357143Y-85252381D01*
X196595239Y-85252381D01*
X196738096Y-85300000D01*
X197071429Y-85252381D02*
X197309524Y-86252381D01*
X197500001Y-85538095D01*
X197690477Y-86252381D01*
X197928572Y-85252381D01*
X198261905Y-85347619D02*
X198309524Y-85300000D01*
X198404762Y-85252381D01*
X198642858Y-85252381D01*
X198738096Y-85300000D01*
X198785715Y-85347619D01*
X198833334Y-85442857D01*
X198833334Y-85538095D01*
X198785715Y-85680952D01*
X198214286Y-86252381D01*
X198833334Y-86252381D01*
M02*
