G04 #@! TF.FileFunction,Legend,Top*
%FSLAX46Y46*%
G04 Gerber Fmt 4.6, Leading zero omitted, Abs format (unit mm)*
G04 Created by KiCad (PCBNEW 4.0.7-e2-6376~58~ubuntu16.04.1) date Mon Jan 15 14:59:09 2018*
%MOMM*%
%LPD*%
G01*
G04 APERTURE LIST*
%ADD10C,0.100000*%
%ADD11C,0.250000*%
%ADD12C,0.150000*%
%ADD13C,0.120000*%
G04 APERTURE END LIST*
D10*
D11*
X174678571Y-43571428D02*
X174726190Y-43428571D01*
X174773810Y-43380952D01*
X174869048Y-43333333D01*
X175011905Y-43333333D01*
X175107143Y-43380952D01*
X175154762Y-43428571D01*
X175202381Y-43523809D01*
X175202381Y-43904762D01*
X174202381Y-43904762D01*
X174202381Y-43571428D01*
X174250000Y-43476190D01*
X174297619Y-43428571D01*
X174392857Y-43380952D01*
X174488095Y-43380952D01*
X174583333Y-43428571D01*
X174630952Y-43476190D01*
X174678571Y-43571428D01*
X174678571Y-43904762D01*
X175202381Y-42904762D02*
X174202381Y-42904762D01*
X174678571Y-42904762D02*
X174678571Y-42333333D01*
X175202381Y-42333333D02*
X174202381Y-42333333D01*
X175202381Y-41333333D02*
X175202381Y-41904762D01*
X175202381Y-41619048D02*
X174202381Y-41619048D01*
X174345238Y-41714286D01*
X174440476Y-41809524D01*
X174488095Y-41904762D01*
X174202381Y-41000000D02*
X174202381Y-40333333D01*
X175202381Y-40761905D01*
X174202381Y-39476190D02*
X174202381Y-39952381D01*
X174678571Y-40000000D01*
X174630952Y-39952381D01*
X174583333Y-39857143D01*
X174583333Y-39619047D01*
X174630952Y-39523809D01*
X174678571Y-39476190D01*
X174773810Y-39428571D01*
X175011905Y-39428571D01*
X175107143Y-39476190D01*
X175154762Y-39523809D01*
X175202381Y-39619047D01*
X175202381Y-39857143D01*
X175154762Y-39952381D01*
X175107143Y-40000000D01*
X174202381Y-38809524D02*
X174202381Y-38714285D01*
X174250000Y-38619047D01*
X174297619Y-38571428D01*
X174392857Y-38523809D01*
X174583333Y-38476190D01*
X174821429Y-38476190D01*
X175011905Y-38523809D01*
X175107143Y-38571428D01*
X175154762Y-38619047D01*
X175202381Y-38714285D01*
X175202381Y-38809524D01*
X175154762Y-38904762D01*
X175107143Y-38952381D01*
X175011905Y-39000000D01*
X174821429Y-39047619D01*
X174583333Y-39047619D01*
X174392857Y-39000000D01*
X174297619Y-38952381D01*
X174250000Y-38904762D01*
X174202381Y-38809524D01*
X174821429Y-38047619D02*
X174821429Y-37285714D01*
X174678571Y-36476190D02*
X174678571Y-36809524D01*
X175202381Y-36809524D02*
X174202381Y-36809524D01*
X174202381Y-36333333D01*
X174202381Y-36095238D02*
X175202381Y-35761905D01*
X174202381Y-35428571D01*
X175202381Y-35095238D02*
X174202381Y-35095238D01*
X174678571Y-60130952D02*
X174726190Y-59988095D01*
X174773810Y-59940476D01*
X174869048Y-59892857D01*
X175011905Y-59892857D01*
X175107143Y-59940476D01*
X175154762Y-59988095D01*
X175202381Y-60083333D01*
X175202381Y-60464286D01*
X174202381Y-60464286D01*
X174202381Y-60130952D01*
X174250000Y-60035714D01*
X174297619Y-59988095D01*
X174392857Y-59940476D01*
X174488095Y-59940476D01*
X174583333Y-59988095D01*
X174630952Y-60035714D01*
X174678571Y-60130952D01*
X174678571Y-60464286D01*
X175202381Y-59464286D02*
X174202381Y-59464286D01*
X174916667Y-59130952D01*
X174202381Y-58797619D01*
X175202381Y-58797619D01*
X174678571Y-58321429D02*
X174678571Y-57988095D01*
X175202381Y-57845238D02*
X175202381Y-58321429D01*
X174202381Y-58321429D01*
X174202381Y-57845238D01*
X174297619Y-57464286D02*
X174250000Y-57416667D01*
X174202381Y-57321429D01*
X174202381Y-57083333D01*
X174250000Y-56988095D01*
X174297619Y-56940476D01*
X174392857Y-56892857D01*
X174488095Y-56892857D01*
X174630952Y-56940476D01*
X175202381Y-57511905D01*
X175202381Y-56892857D01*
X174630952Y-56321429D02*
X174583333Y-56416667D01*
X174535714Y-56464286D01*
X174440476Y-56511905D01*
X174392857Y-56511905D01*
X174297619Y-56464286D01*
X174250000Y-56416667D01*
X174202381Y-56321429D01*
X174202381Y-56130952D01*
X174250000Y-56035714D01*
X174297619Y-55988095D01*
X174392857Y-55940476D01*
X174440476Y-55940476D01*
X174535714Y-55988095D01*
X174583333Y-56035714D01*
X174630952Y-56130952D01*
X174630952Y-56321429D01*
X174678571Y-56416667D01*
X174726190Y-56464286D01*
X174821429Y-56511905D01*
X175011905Y-56511905D01*
X175107143Y-56464286D01*
X175154762Y-56416667D01*
X175202381Y-56321429D01*
X175202381Y-56130952D01*
X175154762Y-56035714D01*
X175107143Y-55988095D01*
X175011905Y-55940476D01*
X174821429Y-55940476D01*
X174726190Y-55988095D01*
X174678571Y-56035714D01*
X174630952Y-56130952D01*
X174202381Y-55321429D02*
X174202381Y-55226190D01*
X174250000Y-55130952D01*
X174297619Y-55083333D01*
X174392857Y-55035714D01*
X174583333Y-54988095D01*
X174821429Y-54988095D01*
X175011905Y-55035714D01*
X175107143Y-55083333D01*
X175154762Y-55130952D01*
X175202381Y-55226190D01*
X175202381Y-55321429D01*
X175154762Y-55416667D01*
X175107143Y-55464286D01*
X175011905Y-55511905D01*
X174821429Y-55559524D01*
X174583333Y-55559524D01*
X174392857Y-55511905D01*
X174297619Y-55464286D01*
X174250000Y-55416667D01*
X174202381Y-55321429D01*
X175202381Y-75940477D02*
X174202381Y-75940477D01*
X174202381Y-75559524D01*
X174250000Y-75464286D01*
X174297619Y-75416667D01*
X174392857Y-75369048D01*
X174535714Y-75369048D01*
X174630952Y-75416667D01*
X174678571Y-75464286D01*
X174726190Y-75559524D01*
X174726190Y-75940477D01*
X175202381Y-74797620D02*
X175154762Y-74892858D01*
X175059524Y-74940477D01*
X174202381Y-74940477D01*
X174535714Y-73988095D02*
X175202381Y-73988095D01*
X174535714Y-74416667D02*
X175059524Y-74416667D01*
X175154762Y-74369048D01*
X175202381Y-74273810D01*
X175202381Y-74130952D01*
X175154762Y-74035714D01*
X175107143Y-73988095D01*
X174535714Y-73607143D02*
X175202381Y-73369048D01*
X174535714Y-73130952D01*
X175202381Y-72750000D02*
X174535714Y-72750000D01*
X174202381Y-72750000D02*
X174250000Y-72797619D01*
X174297619Y-72750000D01*
X174250000Y-72702381D01*
X174202381Y-72750000D01*
X174297619Y-72750000D01*
X175202381Y-72130953D02*
X175154762Y-72226191D01*
X175107143Y-72273810D01*
X175011905Y-72321429D01*
X174726190Y-72321429D01*
X174630952Y-72273810D01*
X174583333Y-72226191D01*
X174535714Y-72130953D01*
X174535714Y-71988095D01*
X174583333Y-71892857D01*
X174630952Y-71845238D01*
X174726190Y-71797619D01*
X175011905Y-71797619D01*
X175107143Y-71845238D01*
X175154762Y-71892857D01*
X175202381Y-71988095D01*
X175202381Y-72130953D01*
X175202381Y-71369048D02*
X174535714Y-71369048D01*
X174630952Y-71369048D02*
X174583333Y-71321429D01*
X174535714Y-71226191D01*
X174535714Y-71083333D01*
X174583333Y-70988095D01*
X174678571Y-70940476D01*
X175202381Y-70940476D01*
X174678571Y-70940476D02*
X174583333Y-70892857D01*
X174535714Y-70797619D01*
X174535714Y-70654762D01*
X174583333Y-70559524D01*
X174678571Y-70511905D01*
X175202381Y-70511905D01*
X175154762Y-69654762D02*
X175202381Y-69750000D01*
X175202381Y-69940477D01*
X175154762Y-70035715D01*
X175059524Y-70083334D01*
X174678571Y-70083334D01*
X174583333Y-70035715D01*
X174535714Y-69940477D01*
X174535714Y-69750000D01*
X174583333Y-69654762D01*
X174678571Y-69607143D01*
X174773810Y-69607143D01*
X174869048Y-70083334D01*
X174535714Y-69321429D02*
X174535714Y-68940477D01*
X174202381Y-69178572D02*
X175059524Y-69178572D01*
X175154762Y-69130953D01*
X175202381Y-69035715D01*
X175202381Y-68940477D01*
X175202381Y-68607143D02*
X174535714Y-68607143D01*
X174726190Y-68607143D02*
X174630952Y-68559524D01*
X174583333Y-68511905D01*
X174535714Y-68416667D01*
X174535714Y-68321428D01*
X175202381Y-67845238D02*
X175154762Y-67940476D01*
X175107143Y-67988095D01*
X175011905Y-68035714D01*
X174726190Y-68035714D01*
X174630952Y-67988095D01*
X174583333Y-67940476D01*
X174535714Y-67845238D01*
X174535714Y-67702380D01*
X174583333Y-67607142D01*
X174630952Y-67559523D01*
X174726190Y-67511904D01*
X175011905Y-67511904D01*
X175107143Y-67559523D01*
X175154762Y-67607142D01*
X175202381Y-67702380D01*
X175202381Y-67845238D01*
X174916667Y-85630953D02*
X174916667Y-85154762D01*
X175202381Y-85726191D02*
X174202381Y-85392858D01*
X175202381Y-85059524D01*
X174535714Y-84726191D02*
X175202381Y-84726191D01*
X174630952Y-84726191D02*
X174583333Y-84678572D01*
X174535714Y-84583334D01*
X174535714Y-84440476D01*
X174583333Y-84345238D01*
X174678571Y-84297619D01*
X175202381Y-84297619D01*
X175154762Y-83440476D02*
X175202381Y-83535714D01*
X175202381Y-83726191D01*
X175154762Y-83821429D01*
X175059524Y-83869048D01*
X174678571Y-83869048D01*
X174583333Y-83821429D01*
X174535714Y-83726191D01*
X174535714Y-83535714D01*
X174583333Y-83440476D01*
X174678571Y-83392857D01*
X174773810Y-83392857D01*
X174869048Y-83869048D01*
X175202381Y-82964286D02*
X174535714Y-82964286D01*
X174630952Y-82964286D02*
X174583333Y-82916667D01*
X174535714Y-82821429D01*
X174535714Y-82678571D01*
X174583333Y-82583333D01*
X174678571Y-82535714D01*
X175202381Y-82535714D01*
X174678571Y-82535714D02*
X174583333Y-82488095D01*
X174535714Y-82392857D01*
X174535714Y-82250000D01*
X174583333Y-82154762D01*
X174678571Y-82107143D01*
X175202381Y-82107143D01*
X175202381Y-81488096D02*
X175154762Y-81583334D01*
X175107143Y-81630953D01*
X175011905Y-81678572D01*
X174726190Y-81678572D01*
X174630952Y-81630953D01*
X174583333Y-81583334D01*
X174535714Y-81488096D01*
X174535714Y-81345238D01*
X174583333Y-81250000D01*
X174630952Y-81202381D01*
X174726190Y-81154762D01*
X175011905Y-81154762D01*
X175107143Y-81202381D01*
X175154762Y-81250000D01*
X175202381Y-81345238D01*
X175202381Y-81488096D01*
X175202381Y-80726191D02*
X174535714Y-80726191D01*
X174630952Y-80726191D02*
X174583333Y-80678572D01*
X174535714Y-80583334D01*
X174535714Y-80440476D01*
X174583333Y-80345238D01*
X174678571Y-80297619D01*
X175202381Y-80297619D01*
X174678571Y-80297619D02*
X174583333Y-80250000D01*
X174535714Y-80154762D01*
X174535714Y-80011905D01*
X174583333Y-79916667D01*
X174678571Y-79869048D01*
X175202381Y-79869048D01*
X175154762Y-79011905D02*
X175202381Y-79107143D01*
X175202381Y-79297620D01*
X175154762Y-79392858D01*
X175059524Y-79440477D01*
X174678571Y-79440477D01*
X174583333Y-79392858D01*
X174535714Y-79297620D01*
X174535714Y-79107143D01*
X174583333Y-79011905D01*
X174678571Y-78964286D01*
X174773810Y-78964286D01*
X174869048Y-79440477D01*
X174535714Y-78678572D02*
X174535714Y-78297620D01*
X174202381Y-78535715D02*
X175059524Y-78535715D01*
X175154762Y-78488096D01*
X175202381Y-78392858D01*
X175202381Y-78297620D01*
X175202381Y-77964286D02*
X174535714Y-77964286D01*
X174726190Y-77964286D02*
X174630952Y-77916667D01*
X174583333Y-77869048D01*
X174535714Y-77773810D01*
X174535714Y-77678571D01*
X175202381Y-77202381D02*
X175154762Y-77297619D01*
X175107143Y-77345238D01*
X175011905Y-77392857D01*
X174726190Y-77392857D01*
X174630952Y-77345238D01*
X174583333Y-77297619D01*
X174535714Y-77202381D01*
X174535714Y-77059523D01*
X174583333Y-76964285D01*
X174630952Y-76916666D01*
X174726190Y-76869047D01*
X175011905Y-76869047D01*
X175107143Y-76916666D01*
X175154762Y-76964285D01*
X175202381Y-77059523D01*
X175202381Y-77202381D01*
X134952381Y-77726191D02*
X133952381Y-77726191D01*
X133952381Y-77345238D01*
X134000000Y-77250000D01*
X134047619Y-77202381D01*
X134142857Y-77154762D01*
X134285714Y-77154762D01*
X134380952Y-77202381D01*
X134428571Y-77250000D01*
X134476190Y-77345238D01*
X134476190Y-77726191D01*
X134952381Y-76583334D02*
X134904762Y-76678572D01*
X134857143Y-76726191D01*
X134761905Y-76773810D01*
X134476190Y-76773810D01*
X134380952Y-76726191D01*
X134333333Y-76678572D01*
X134285714Y-76583334D01*
X134285714Y-76440476D01*
X134333333Y-76345238D01*
X134380952Y-76297619D01*
X134476190Y-76250000D01*
X134761905Y-76250000D01*
X134857143Y-76297619D01*
X134904762Y-76345238D01*
X134952381Y-76440476D01*
X134952381Y-76583334D01*
X134285714Y-75916667D02*
X134952381Y-75726191D01*
X134476190Y-75535714D01*
X134952381Y-75345238D01*
X134285714Y-75154762D01*
X134904762Y-74392857D02*
X134952381Y-74488095D01*
X134952381Y-74678572D01*
X134904762Y-74773810D01*
X134809524Y-74821429D01*
X134428571Y-74821429D01*
X134333333Y-74773810D01*
X134285714Y-74678572D01*
X134285714Y-74488095D01*
X134333333Y-74392857D01*
X134428571Y-74345238D01*
X134523810Y-74345238D01*
X134619048Y-74821429D01*
X134952381Y-73916667D02*
X134285714Y-73916667D01*
X134476190Y-73916667D02*
X134380952Y-73869048D01*
X134333333Y-73821429D01*
X134285714Y-73726191D01*
X134285714Y-73630952D01*
X134428571Y-44416666D02*
X134476190Y-44273809D01*
X134523810Y-44226190D01*
X134619048Y-44178571D01*
X134761905Y-44178571D01*
X134857143Y-44226190D01*
X134904762Y-44273809D01*
X134952381Y-44369047D01*
X134952381Y-44750000D01*
X133952381Y-44750000D01*
X133952381Y-44416666D01*
X134000000Y-44321428D01*
X134047619Y-44273809D01*
X134142857Y-44226190D01*
X134238095Y-44226190D01*
X134333333Y-44273809D01*
X134380952Y-44321428D01*
X134428571Y-44416666D01*
X134428571Y-44750000D01*
X134952381Y-43750000D02*
X134285714Y-43750000D01*
X133952381Y-43750000D02*
X134000000Y-43797619D01*
X134047619Y-43750000D01*
X134000000Y-43702381D01*
X133952381Y-43750000D01*
X134047619Y-43750000D01*
X134952381Y-43273810D02*
X134285714Y-43273810D01*
X134476190Y-43273810D02*
X134380952Y-43226191D01*
X134333333Y-43178572D01*
X134285714Y-43083334D01*
X134285714Y-42988095D01*
X134285714Y-42226190D02*
X134952381Y-42226190D01*
X134285714Y-42654762D02*
X134809524Y-42654762D01*
X134904762Y-42607143D01*
X134952381Y-42511905D01*
X134952381Y-42369047D01*
X134904762Y-42273809D01*
X134857143Y-42226190D01*
X134285714Y-41892857D02*
X134285714Y-41511905D01*
X133952381Y-41750000D02*
X134809524Y-41750000D01*
X134904762Y-41702381D01*
X134952381Y-41607143D01*
X134952381Y-41511905D01*
X134952381Y-40749999D02*
X134428571Y-40749999D01*
X134333333Y-40797618D01*
X134285714Y-40892856D01*
X134285714Y-41083333D01*
X134333333Y-41178571D01*
X134904762Y-40749999D02*
X134952381Y-40845237D01*
X134952381Y-41083333D01*
X134904762Y-41178571D01*
X134809524Y-41226190D01*
X134714286Y-41226190D01*
X134619048Y-41178571D01*
X134571429Y-41083333D01*
X134571429Y-40845237D01*
X134523810Y-40749999D01*
D12*
X176649040Y-84029080D02*
X176649040Y-78430920D01*
X176151200Y-78629040D02*
X176649040Y-78629040D01*
X176649040Y-83830960D02*
X176151200Y-83830960D01*
X176151200Y-81230000D02*
X176649040Y-81230000D01*
X181950020Y-78430920D02*
X181950020Y-84029080D01*
X176151200Y-78430920D02*
X176151200Y-84029080D01*
X176151200Y-84029080D02*
X182348800Y-84029080D01*
X182348800Y-84029080D02*
X182348800Y-78430920D01*
X182348800Y-78430920D02*
X176151200Y-78430920D01*
X132600960Y-39930920D02*
X132600960Y-45529080D01*
X133098800Y-45330960D02*
X132600960Y-45330960D01*
X132600960Y-40129040D02*
X133098800Y-40129040D01*
X133098800Y-42730000D02*
X132600960Y-42730000D01*
X127299980Y-45529080D02*
X127299980Y-39930920D01*
X133098800Y-45529080D02*
X133098800Y-39930920D01*
X133098800Y-39930920D02*
X126901200Y-39930920D01*
X126901200Y-39930920D02*
X126901200Y-45529080D01*
X126901200Y-45529080D02*
X133098800Y-45529080D01*
X132600960Y-72930920D02*
X132600960Y-78529080D01*
X133098800Y-78330960D02*
X132600960Y-78330960D01*
X132600960Y-73129040D02*
X133098800Y-73129040D01*
X133098800Y-75730000D02*
X132600960Y-75730000D01*
X127299980Y-78529080D02*
X127299980Y-72930920D01*
X133098800Y-78529080D02*
X133098800Y-72930920D01*
X133098800Y-72930920D02*
X126901200Y-72930920D01*
X126901200Y-72930920D02*
X126901200Y-78529080D01*
X126901200Y-78529080D02*
X133098800Y-78529080D01*
X176649040Y-43259840D02*
X176151200Y-43259840D01*
X176151200Y-46058920D02*
X176151200Y-32861080D01*
X176649040Y-32861080D02*
X176649040Y-46058920D01*
X181950020Y-32861080D02*
X181950020Y-46058920D01*
X182348800Y-46058920D02*
X182348800Y-32861080D01*
X176649040Y-40757940D02*
X176151200Y-40757940D01*
X176649040Y-38159520D02*
X176151200Y-38159520D01*
X176151200Y-33061740D02*
X176649040Y-33061740D01*
X176649040Y-45858260D02*
X176151200Y-45858260D01*
X176151200Y-35662700D02*
X176649040Y-35662700D01*
X176151200Y-46056380D02*
X182348800Y-46056380D01*
X182348800Y-32863620D02*
X176151200Y-32863620D01*
X182348800Y-65629400D02*
X182348800Y-49830600D01*
X181950020Y-65629400D02*
X181950020Y-49830600D01*
X176151200Y-49830600D02*
X176151200Y-65629400D01*
X176649040Y-65629400D02*
X176649040Y-49830600D01*
X176649040Y-62830320D02*
X176151200Y-62830320D01*
X176649040Y-60229360D02*
X176151200Y-60229360D01*
X176649040Y-57727460D02*
X176151200Y-57727460D01*
X176649040Y-55230640D02*
X176151200Y-55230640D01*
X176151200Y-50033800D02*
X176649040Y-50033800D01*
X176649040Y-65426200D02*
X176151200Y-65426200D01*
X176151200Y-52632220D02*
X176649040Y-52632220D01*
X176151200Y-65624320D02*
X182348800Y-65624320D01*
X182348800Y-49835680D02*
X176151200Y-49835680D01*
X176649040Y-74569080D02*
X176649040Y-68970920D01*
X176151200Y-69169040D02*
X176649040Y-69169040D01*
X176649040Y-74370960D02*
X176151200Y-74370960D01*
X176151200Y-71770000D02*
X176649040Y-71770000D01*
X181950020Y-68970920D02*
X181950020Y-74569080D01*
X176151200Y-68970920D02*
X176151200Y-74569080D01*
X176151200Y-74569080D02*
X182348800Y-74569080D01*
X182348800Y-74569080D02*
X182348800Y-68970920D01*
X182348800Y-68970920D02*
X176151200Y-68970920D01*
X168966051Y-86010000D02*
G75*
G03X168966051Y-86010000I-1796051J0D01*
G01*
X143566051Y-86010000D02*
G75*
G03X143566051Y-86010000I-1796051J0D01*
G01*
X143566051Y-33940000D02*
G75*
G03X143566051Y-33940000I-1796051J0D01*
G01*
X168966051Y-33940000D02*
G75*
G03X168966051Y-33940000I-1796051J0D01*
G01*
X169720000Y-31380000D02*
X139720000Y-31380000D01*
X139720000Y-31380000D02*
X139220000Y-31380000D01*
X139220000Y-31380000D02*
X139220000Y-88380000D01*
X139220000Y-88380000D02*
X169720000Y-88380000D01*
X169720000Y-88380000D02*
X169720000Y-31380000D01*
D13*
X135620000Y-43100000D02*
X135620000Y-41900000D01*
X137380000Y-41900000D02*
X137380000Y-43100000D01*
X173380000Y-57350000D02*
X173380000Y-58550000D01*
X171620000Y-58550000D02*
X171620000Y-57350000D01*
X173380000Y-62950000D02*
X173380000Y-64150000D01*
X171620000Y-64150000D02*
X171620000Y-62950000D01*
D12*
X178702381Y-77293333D02*
X179416667Y-77293333D01*
X179559524Y-77340953D01*
X179654762Y-77436191D01*
X179702381Y-77579048D01*
X179702381Y-77674286D01*
X178702381Y-76388571D02*
X178702381Y-76579048D01*
X178750000Y-76674286D01*
X178797619Y-76721905D01*
X178940476Y-76817143D01*
X179130952Y-76864762D01*
X179511905Y-76864762D01*
X179607143Y-76817143D01*
X179654762Y-76769524D01*
X179702381Y-76674286D01*
X179702381Y-76483809D01*
X179654762Y-76388571D01*
X179607143Y-76340952D01*
X179511905Y-76293333D01*
X179273810Y-76293333D01*
X179178571Y-76340952D01*
X179130952Y-76388571D01*
X179083333Y-76483809D01*
X179083333Y-76674286D01*
X179130952Y-76769524D01*
X179178571Y-76817143D01*
X179273810Y-76864762D01*
X129452381Y-38833333D02*
X130166667Y-38833333D01*
X130309524Y-38880953D01*
X130404762Y-38976191D01*
X130452381Y-39119048D01*
X130452381Y-39214286D01*
X130452381Y-37833333D02*
X130452381Y-38404762D01*
X130452381Y-38119048D02*
X129452381Y-38119048D01*
X129595238Y-38214286D01*
X129690476Y-38309524D01*
X129738095Y-38404762D01*
X129452381Y-71793333D02*
X130166667Y-71793333D01*
X130309524Y-71840953D01*
X130404762Y-71936191D01*
X130452381Y-72079048D01*
X130452381Y-72174286D01*
X129547619Y-71364762D02*
X129500000Y-71317143D01*
X129452381Y-71221905D01*
X129452381Y-70983809D01*
X129500000Y-70888571D01*
X129547619Y-70840952D01*
X129642857Y-70793333D01*
X129738095Y-70793333D01*
X129880952Y-70840952D01*
X130452381Y-71412381D01*
X130452381Y-70793333D01*
X178702381Y-31873333D02*
X179416667Y-31873333D01*
X179559524Y-31920953D01*
X179654762Y-32016191D01*
X179702381Y-32159048D01*
X179702381Y-32254286D01*
X178702381Y-31492381D02*
X178702381Y-30873333D01*
X179083333Y-31206667D01*
X179083333Y-31063809D01*
X179130952Y-30968571D01*
X179178571Y-30920952D01*
X179273810Y-30873333D01*
X179511905Y-30873333D01*
X179607143Y-30920952D01*
X179654762Y-30968571D01*
X179702381Y-31063809D01*
X179702381Y-31349524D01*
X179654762Y-31444762D01*
X179607143Y-31492381D01*
X178702381Y-48833333D02*
X179416667Y-48833333D01*
X179559524Y-48880953D01*
X179654762Y-48976191D01*
X179702381Y-49119048D01*
X179702381Y-49214286D01*
X179035714Y-47928571D02*
X179702381Y-47928571D01*
X178654762Y-48166667D02*
X179369048Y-48404762D01*
X179369048Y-47785714D01*
X178702381Y-67833333D02*
X179416667Y-67833333D01*
X179559524Y-67880953D01*
X179654762Y-67976191D01*
X179702381Y-68119048D01*
X179702381Y-68214286D01*
X178702381Y-66880952D02*
X178702381Y-67357143D01*
X179178571Y-67404762D01*
X179130952Y-67357143D01*
X179083333Y-67261905D01*
X179083333Y-67023809D01*
X179130952Y-66928571D01*
X179178571Y-66880952D01*
X179273810Y-66833333D01*
X179511905Y-66833333D01*
X179607143Y-66880952D01*
X179654762Y-66928571D01*
X179702381Y-67023809D01*
X179702381Y-67261905D01*
X179654762Y-67357143D01*
X179607143Y-67404762D01*
X153922381Y-62641905D02*
X154731905Y-62641905D01*
X154827143Y-62594286D01*
X154874762Y-62546667D01*
X154922381Y-62451429D01*
X154922381Y-62260952D01*
X154874762Y-62165714D01*
X154827143Y-62118095D01*
X154731905Y-62070476D01*
X153922381Y-62070476D01*
X154922381Y-61070476D02*
X154922381Y-61641905D01*
X154922381Y-61356191D02*
X153922381Y-61356191D01*
X154065238Y-61451429D01*
X154160476Y-61546667D01*
X154208095Y-61641905D01*
X141944762Y-76572381D02*
X142278095Y-77572381D01*
X142611429Y-76572381D01*
X142944762Y-77572381D02*
X142944762Y-76572381D01*
X143420952Y-77572381D02*
X143420952Y-76572381D01*
X143992381Y-77572381D01*
X143992381Y-76572381D01*
X143301905Y-74080000D02*
X143206667Y-74032381D01*
X143063810Y-74032381D01*
X142920952Y-74080000D01*
X142825714Y-74175238D01*
X142778095Y-74270476D01*
X142730476Y-74460952D01*
X142730476Y-74603810D01*
X142778095Y-74794286D01*
X142825714Y-74889524D01*
X142920952Y-74984762D01*
X143063810Y-75032381D01*
X143159048Y-75032381D01*
X143301905Y-74984762D01*
X143349524Y-74937143D01*
X143349524Y-74603810D01*
X143159048Y-74603810D01*
X142492381Y-72492381D02*
X142159047Y-72016190D01*
X141920952Y-72492381D02*
X141920952Y-71492381D01*
X142301905Y-71492381D01*
X142397143Y-71540000D01*
X142444762Y-71587619D01*
X142492381Y-71682857D01*
X142492381Y-71825714D01*
X142444762Y-71920952D01*
X142397143Y-71968571D01*
X142301905Y-72016190D01*
X141920952Y-72016190D01*
X142873333Y-72444762D02*
X143016190Y-72492381D01*
X143254286Y-72492381D01*
X143349524Y-72444762D01*
X143397143Y-72397143D01*
X143444762Y-72301905D01*
X143444762Y-72206667D01*
X143397143Y-72111429D01*
X143349524Y-72063810D01*
X143254286Y-72016190D01*
X143063809Y-71968571D01*
X142968571Y-71920952D01*
X142920952Y-71873333D01*
X142873333Y-71778095D01*
X142873333Y-71682857D01*
X142920952Y-71587619D01*
X142968571Y-71540000D01*
X143063809Y-71492381D01*
X143301905Y-71492381D01*
X143444762Y-71540000D01*
X143730476Y-71492381D02*
X144301905Y-71492381D01*
X144016190Y-72492381D02*
X144016190Y-71492381D01*
X142301905Y-69428571D02*
X142635239Y-69428571D01*
X142778096Y-69952381D02*
X142301905Y-69952381D01*
X142301905Y-68952381D01*
X142778096Y-68952381D01*
X143206667Y-69952381D02*
X143206667Y-68952381D01*
X143778096Y-69952381D01*
X143778096Y-68952381D01*
X142278095Y-66412381D02*
X142897143Y-66412381D01*
X142563809Y-66793333D01*
X142706667Y-66793333D01*
X142801905Y-66840952D01*
X142849524Y-66888571D01*
X142897143Y-66983810D01*
X142897143Y-67221905D01*
X142849524Y-67317143D01*
X142801905Y-67364762D01*
X142706667Y-67412381D01*
X142420952Y-67412381D01*
X142325714Y-67364762D01*
X142278095Y-67317143D01*
X143182857Y-66412381D02*
X143516190Y-67412381D01*
X143849524Y-66412381D01*
X143301905Y-63920000D02*
X143206667Y-63872381D01*
X143063810Y-63872381D01*
X142920952Y-63920000D01*
X142825714Y-64015238D01*
X142778095Y-64110476D01*
X142730476Y-64300952D01*
X142730476Y-64443810D01*
X142778095Y-64634286D01*
X142825714Y-64729524D01*
X142920952Y-64824762D01*
X143063810Y-64872381D01*
X143159048Y-64872381D01*
X143301905Y-64824762D01*
X143349524Y-64777143D01*
X143349524Y-64443810D01*
X143159048Y-64443810D01*
X142254286Y-62284762D02*
X142397143Y-62332381D01*
X142635239Y-62332381D01*
X142730477Y-62284762D01*
X142778096Y-62237143D01*
X142825715Y-62141905D01*
X142825715Y-62046667D01*
X142778096Y-61951429D01*
X142730477Y-61903810D01*
X142635239Y-61856190D01*
X142444762Y-61808571D01*
X142349524Y-61760952D01*
X142301905Y-61713333D01*
X142254286Y-61618095D01*
X142254286Y-61522857D01*
X142301905Y-61427619D01*
X142349524Y-61380000D01*
X142444762Y-61332381D01*
X142682858Y-61332381D01*
X142825715Y-61380000D01*
X143254286Y-62332381D02*
X143254286Y-61332381D01*
X143825715Y-62332381D02*
X143397143Y-61760952D01*
X143825715Y-61332381D02*
X143254286Y-61903810D01*
X142230476Y-59744762D02*
X142373333Y-59792381D01*
X142611429Y-59792381D01*
X142706667Y-59744762D01*
X142754286Y-59697143D01*
X142801905Y-59601905D01*
X142801905Y-59506667D01*
X142754286Y-59411429D01*
X142706667Y-59363810D01*
X142611429Y-59316190D01*
X142420952Y-59268571D01*
X142325714Y-59220952D01*
X142278095Y-59173333D01*
X142230476Y-59078095D01*
X142230476Y-58982857D01*
X142278095Y-58887619D01*
X142325714Y-58840000D01*
X142420952Y-58792381D01*
X142659048Y-58792381D01*
X142801905Y-58840000D01*
X143420952Y-58792381D02*
X143611429Y-58792381D01*
X143706667Y-58840000D01*
X143801905Y-58935238D01*
X143849524Y-59125714D01*
X143849524Y-59459048D01*
X143801905Y-59649524D01*
X143706667Y-59744762D01*
X143611429Y-59792381D01*
X143420952Y-59792381D01*
X143325714Y-59744762D01*
X143230476Y-59649524D01*
X143182857Y-59459048D01*
X143182857Y-59125714D01*
X143230476Y-58935238D01*
X143325714Y-58840000D01*
X143420952Y-58792381D01*
X142254286Y-57204762D02*
X142397143Y-57252381D01*
X142635239Y-57252381D01*
X142730477Y-57204762D01*
X142778096Y-57157143D01*
X142825715Y-57061905D01*
X142825715Y-56966667D01*
X142778096Y-56871429D01*
X142730477Y-56823810D01*
X142635239Y-56776190D01*
X142444762Y-56728571D01*
X142349524Y-56680952D01*
X142301905Y-56633333D01*
X142254286Y-56538095D01*
X142254286Y-56442857D01*
X142301905Y-56347619D01*
X142349524Y-56300000D01*
X142444762Y-56252381D01*
X142682858Y-56252381D01*
X142825715Y-56300000D01*
X143825715Y-57157143D02*
X143778096Y-57204762D01*
X143635239Y-57252381D01*
X143540001Y-57252381D01*
X143397143Y-57204762D01*
X143301905Y-57109524D01*
X143254286Y-57014286D01*
X143206667Y-56823810D01*
X143206667Y-56680952D01*
X143254286Y-56490476D01*
X143301905Y-56395238D01*
X143397143Y-56300000D01*
X143540001Y-56252381D01*
X143635239Y-56252381D01*
X143778096Y-56300000D01*
X143825715Y-56347619D01*
X142278095Y-54664762D02*
X142420952Y-54712381D01*
X142659048Y-54712381D01*
X142754286Y-54664762D01*
X142801905Y-54617143D01*
X142849524Y-54521905D01*
X142849524Y-54426667D01*
X142801905Y-54331429D01*
X142754286Y-54283810D01*
X142659048Y-54236190D01*
X142468571Y-54188571D01*
X142373333Y-54140952D01*
X142325714Y-54093333D01*
X142278095Y-53998095D01*
X142278095Y-53902857D01*
X142325714Y-53807619D01*
X142373333Y-53760000D01*
X142468571Y-53712381D01*
X142706667Y-53712381D01*
X142849524Y-53760000D01*
X143801905Y-54712381D02*
X143230476Y-54712381D01*
X143516190Y-54712381D02*
X143516190Y-53712381D01*
X143420952Y-53855238D01*
X143325714Y-53950476D01*
X143230476Y-53998095D01*
X142278095Y-52124762D02*
X142420952Y-52172381D01*
X142659048Y-52172381D01*
X142754286Y-52124762D01*
X142801905Y-52077143D01*
X142849524Y-51981905D01*
X142849524Y-51886667D01*
X142801905Y-51791429D01*
X142754286Y-51743810D01*
X142659048Y-51696190D01*
X142468571Y-51648571D01*
X142373333Y-51600952D01*
X142325714Y-51553333D01*
X142278095Y-51458095D01*
X142278095Y-51362857D01*
X142325714Y-51267619D01*
X142373333Y-51220000D01*
X142468571Y-51172381D01*
X142706667Y-51172381D01*
X142849524Y-51220000D01*
X143230476Y-51267619D02*
X143278095Y-51220000D01*
X143373333Y-51172381D01*
X143611429Y-51172381D01*
X143706667Y-51220000D01*
X143754286Y-51267619D01*
X143801905Y-51362857D01*
X143801905Y-51458095D01*
X143754286Y-51600952D01*
X143182857Y-52172381D01*
X143801905Y-52172381D01*
X142278095Y-49584762D02*
X142420952Y-49632381D01*
X142659048Y-49632381D01*
X142754286Y-49584762D01*
X142801905Y-49537143D01*
X142849524Y-49441905D01*
X142849524Y-49346667D01*
X142801905Y-49251429D01*
X142754286Y-49203810D01*
X142659048Y-49156190D01*
X142468571Y-49108571D01*
X142373333Y-49060952D01*
X142325714Y-49013333D01*
X142278095Y-48918095D01*
X142278095Y-48822857D01*
X142325714Y-48727619D01*
X142373333Y-48680000D01*
X142468571Y-48632381D01*
X142706667Y-48632381D01*
X142849524Y-48680000D01*
X143182857Y-48632381D02*
X143801905Y-48632381D01*
X143468571Y-49013333D01*
X143611429Y-49013333D01*
X143706667Y-49060952D01*
X143754286Y-49108571D01*
X143801905Y-49203810D01*
X143801905Y-49441905D01*
X143754286Y-49537143D01*
X143706667Y-49584762D01*
X143611429Y-49632381D01*
X143325714Y-49632381D01*
X143230476Y-49584762D01*
X143182857Y-49537143D01*
X142182857Y-46092381D02*
X142516190Y-47092381D01*
X142849524Y-46092381D01*
X143182857Y-46092381D02*
X143182857Y-46901905D01*
X143230476Y-46997143D01*
X143278095Y-47044762D01*
X143373333Y-47092381D01*
X143563810Y-47092381D01*
X143659048Y-47044762D01*
X143706667Y-46997143D01*
X143754286Y-46901905D01*
X143754286Y-46092381D01*
X143301905Y-43600000D02*
X143206667Y-43552381D01*
X143063810Y-43552381D01*
X142920952Y-43600000D01*
X142825714Y-43695238D01*
X142778095Y-43790476D01*
X142730476Y-43980952D01*
X142730476Y-44123810D01*
X142778095Y-44314286D01*
X142825714Y-44409524D01*
X142920952Y-44504762D01*
X143063810Y-44552381D01*
X143159048Y-44552381D01*
X143301905Y-44504762D01*
X143349524Y-44457143D01*
X143349524Y-44123810D01*
X143159048Y-44123810D01*
X142325714Y-41726667D02*
X142801905Y-41726667D01*
X142230476Y-42012381D02*
X142563809Y-41012381D01*
X142897143Y-42012381D01*
X143420952Y-41012381D02*
X143516191Y-41012381D01*
X143611429Y-41060000D01*
X143659048Y-41107619D01*
X143706667Y-41202857D01*
X143754286Y-41393333D01*
X143754286Y-41631429D01*
X143706667Y-41821905D01*
X143659048Y-41917143D01*
X143611429Y-41964762D01*
X143516191Y-42012381D01*
X143420952Y-42012381D01*
X143325714Y-41964762D01*
X143278095Y-41917143D01*
X143230476Y-41821905D01*
X143182857Y-41631429D01*
X143182857Y-41393333D01*
X143230476Y-41202857D01*
X143278095Y-41107619D01*
X143325714Y-41060000D01*
X143420952Y-41012381D01*
X165138095Y-76572381D02*
X165757143Y-76572381D01*
X165423809Y-76953333D01*
X165566667Y-76953333D01*
X165661905Y-77000952D01*
X165709524Y-77048571D01*
X165757143Y-77143810D01*
X165757143Y-77381905D01*
X165709524Y-77477143D01*
X165661905Y-77524762D01*
X165566667Y-77572381D01*
X165280952Y-77572381D01*
X165185714Y-77524762D01*
X165138095Y-77477143D01*
X166042857Y-76572381D02*
X166376190Y-77572381D01*
X166709524Y-76572381D01*
X166161905Y-74080000D02*
X166066667Y-74032381D01*
X165923810Y-74032381D01*
X165780952Y-74080000D01*
X165685714Y-74175238D01*
X165638095Y-74270476D01*
X165590476Y-74460952D01*
X165590476Y-74603810D01*
X165638095Y-74794286D01*
X165685714Y-74889524D01*
X165780952Y-74984762D01*
X165923810Y-75032381D01*
X166019048Y-75032381D01*
X166161905Y-74984762D01*
X166209524Y-74937143D01*
X166209524Y-74603810D01*
X166019048Y-74603810D01*
X165138095Y-71492381D02*
X165709524Y-71492381D01*
X165423809Y-72492381D02*
X165423809Y-71492381D01*
X165947619Y-71492381D02*
X166614286Y-72492381D01*
X166614286Y-71492381D02*
X165947619Y-72492381D01*
X165733334Y-69952381D02*
X165400000Y-69476190D01*
X165161905Y-69952381D02*
X165161905Y-68952381D01*
X165542858Y-68952381D01*
X165638096Y-69000000D01*
X165685715Y-69047619D01*
X165733334Y-69142857D01*
X165733334Y-69285714D01*
X165685715Y-69380952D01*
X165638096Y-69428571D01*
X165542858Y-69476190D01*
X165161905Y-69476190D01*
X166066667Y-68952381D02*
X166733334Y-69952381D01*
X166733334Y-68952381D02*
X166066667Y-69952381D01*
X165161905Y-67412381D02*
X165161905Y-66412381D01*
X165400000Y-66412381D01*
X165542858Y-66460000D01*
X165638096Y-66555238D01*
X165685715Y-66650476D01*
X165733334Y-66840952D01*
X165733334Y-66983810D01*
X165685715Y-67174286D01*
X165638096Y-67269524D01*
X165542858Y-67364762D01*
X165400000Y-67412381D01*
X165161905Y-67412381D01*
X166304762Y-66840952D02*
X166209524Y-66793333D01*
X166161905Y-66745714D01*
X166114286Y-66650476D01*
X166114286Y-66602857D01*
X166161905Y-66507619D01*
X166209524Y-66460000D01*
X166304762Y-66412381D01*
X166495239Y-66412381D01*
X166590477Y-66460000D01*
X166638096Y-66507619D01*
X166685715Y-66602857D01*
X166685715Y-66650476D01*
X166638096Y-66745714D01*
X166590477Y-66793333D01*
X166495239Y-66840952D01*
X166304762Y-66840952D01*
X166209524Y-66888571D01*
X166161905Y-66936190D01*
X166114286Y-67031429D01*
X166114286Y-67221905D01*
X166161905Y-67317143D01*
X166209524Y-67364762D01*
X166304762Y-67412381D01*
X166495239Y-67412381D01*
X166590477Y-67364762D01*
X166638096Y-67317143D01*
X166685715Y-67221905D01*
X166685715Y-67031429D01*
X166638096Y-66936190D01*
X166590477Y-66888571D01*
X166495239Y-66840952D01*
X165161905Y-64872381D02*
X165161905Y-63872381D01*
X165400000Y-63872381D01*
X165542858Y-63920000D01*
X165638096Y-64015238D01*
X165685715Y-64110476D01*
X165733334Y-64300952D01*
X165733334Y-64443810D01*
X165685715Y-64634286D01*
X165638096Y-64729524D01*
X165542858Y-64824762D01*
X165400000Y-64872381D01*
X165161905Y-64872381D01*
X166066667Y-63872381D02*
X166733334Y-63872381D01*
X166304762Y-64872381D01*
X165161905Y-62332381D02*
X165161905Y-61332381D01*
X165400000Y-61332381D01*
X165542858Y-61380000D01*
X165638096Y-61475238D01*
X165685715Y-61570476D01*
X165733334Y-61760952D01*
X165733334Y-61903810D01*
X165685715Y-62094286D01*
X165638096Y-62189524D01*
X165542858Y-62284762D01*
X165400000Y-62332381D01*
X165161905Y-62332381D01*
X166590477Y-61332381D02*
X166400000Y-61332381D01*
X166304762Y-61380000D01*
X166257143Y-61427619D01*
X166161905Y-61570476D01*
X166114286Y-61760952D01*
X166114286Y-62141905D01*
X166161905Y-62237143D01*
X166209524Y-62284762D01*
X166304762Y-62332381D01*
X166495239Y-62332381D01*
X166590477Y-62284762D01*
X166638096Y-62237143D01*
X166685715Y-62141905D01*
X166685715Y-61903810D01*
X166638096Y-61808571D01*
X166590477Y-61760952D01*
X166495239Y-61713333D01*
X166304762Y-61713333D01*
X166209524Y-61760952D01*
X166161905Y-61808571D01*
X166114286Y-61903810D01*
X165161905Y-59792381D02*
X165161905Y-58792381D01*
X165400000Y-58792381D01*
X165542858Y-58840000D01*
X165638096Y-58935238D01*
X165685715Y-59030476D01*
X165733334Y-59220952D01*
X165733334Y-59363810D01*
X165685715Y-59554286D01*
X165638096Y-59649524D01*
X165542858Y-59744762D01*
X165400000Y-59792381D01*
X165161905Y-59792381D01*
X166638096Y-58792381D02*
X166161905Y-58792381D01*
X166114286Y-59268571D01*
X166161905Y-59220952D01*
X166257143Y-59173333D01*
X166495239Y-59173333D01*
X166590477Y-59220952D01*
X166638096Y-59268571D01*
X166685715Y-59363810D01*
X166685715Y-59601905D01*
X166638096Y-59697143D01*
X166590477Y-59744762D01*
X166495239Y-59792381D01*
X166257143Y-59792381D01*
X166161905Y-59744762D01*
X166114286Y-59697143D01*
X166161905Y-56300000D02*
X166066667Y-56252381D01*
X165923810Y-56252381D01*
X165780952Y-56300000D01*
X165685714Y-56395238D01*
X165638095Y-56490476D01*
X165590476Y-56680952D01*
X165590476Y-56823810D01*
X165638095Y-57014286D01*
X165685714Y-57109524D01*
X165780952Y-57204762D01*
X165923810Y-57252381D01*
X166019048Y-57252381D01*
X166161905Y-57204762D01*
X166209524Y-57157143D01*
X166209524Y-56823810D01*
X166019048Y-56823810D01*
X165138095Y-53712381D02*
X165757143Y-53712381D01*
X165423809Y-54093333D01*
X165566667Y-54093333D01*
X165661905Y-54140952D01*
X165709524Y-54188571D01*
X165757143Y-54283810D01*
X165757143Y-54521905D01*
X165709524Y-54617143D01*
X165661905Y-54664762D01*
X165566667Y-54712381D01*
X165280952Y-54712381D01*
X165185714Y-54664762D01*
X165138095Y-54617143D01*
X166042857Y-53712381D02*
X166376190Y-54712381D01*
X166709524Y-53712381D01*
X165161905Y-52172381D02*
X165161905Y-51172381D01*
X165400000Y-51172381D01*
X165542858Y-51220000D01*
X165638096Y-51315238D01*
X165685715Y-51410476D01*
X165733334Y-51600952D01*
X165733334Y-51743810D01*
X165685715Y-51934286D01*
X165638096Y-52029524D01*
X165542858Y-52124762D01*
X165400000Y-52172381D01*
X165161905Y-52172381D01*
X166590477Y-51505714D02*
X166590477Y-52172381D01*
X166352381Y-51124762D02*
X166114286Y-51839048D01*
X166733334Y-51839048D01*
X165161905Y-49632381D02*
X165161905Y-48632381D01*
X165400000Y-48632381D01*
X165542858Y-48680000D01*
X165638096Y-48775238D01*
X165685715Y-48870476D01*
X165733334Y-49060952D01*
X165733334Y-49203810D01*
X165685715Y-49394286D01*
X165638096Y-49489524D01*
X165542858Y-49584762D01*
X165400000Y-49632381D01*
X165161905Y-49632381D01*
X166066667Y-48632381D02*
X166685715Y-48632381D01*
X166352381Y-49013333D01*
X166495239Y-49013333D01*
X166590477Y-49060952D01*
X166638096Y-49108571D01*
X166685715Y-49203810D01*
X166685715Y-49441905D01*
X166638096Y-49537143D01*
X166590477Y-49584762D01*
X166495239Y-49632381D01*
X166209524Y-49632381D01*
X166114286Y-49584762D01*
X166066667Y-49537143D01*
X165161905Y-47092381D02*
X165161905Y-46092381D01*
X165400000Y-46092381D01*
X165542858Y-46140000D01*
X165638096Y-46235238D01*
X165685715Y-46330476D01*
X165733334Y-46520952D01*
X165733334Y-46663810D01*
X165685715Y-46854286D01*
X165638096Y-46949524D01*
X165542858Y-47044762D01*
X165400000Y-47092381D01*
X165161905Y-47092381D01*
X166114286Y-46187619D02*
X166161905Y-46140000D01*
X166257143Y-46092381D01*
X166495239Y-46092381D01*
X166590477Y-46140000D01*
X166638096Y-46187619D01*
X166685715Y-46282857D01*
X166685715Y-46378095D01*
X166638096Y-46520952D01*
X166066667Y-47092381D01*
X166685715Y-47092381D01*
X165161905Y-44552381D02*
X165161905Y-43552381D01*
X165400000Y-43552381D01*
X165542858Y-43600000D01*
X165638096Y-43695238D01*
X165685715Y-43790476D01*
X165733334Y-43980952D01*
X165733334Y-44123810D01*
X165685715Y-44314286D01*
X165638096Y-44409524D01*
X165542858Y-44504762D01*
X165400000Y-44552381D01*
X165161905Y-44552381D01*
X166685715Y-44552381D02*
X166114286Y-44552381D01*
X166400000Y-44552381D02*
X166400000Y-43552381D01*
X166304762Y-43695238D01*
X166209524Y-43790476D01*
X166114286Y-43838095D01*
X165161905Y-42012381D02*
X165161905Y-41012381D01*
X165400000Y-41012381D01*
X165542858Y-41060000D01*
X165638096Y-41155238D01*
X165685715Y-41250476D01*
X165733334Y-41440952D01*
X165733334Y-41583810D01*
X165685715Y-41774286D01*
X165638096Y-41869524D01*
X165542858Y-41964762D01*
X165400000Y-42012381D01*
X165161905Y-42012381D01*
X166352381Y-41012381D02*
X166447620Y-41012381D01*
X166542858Y-41060000D01*
X166590477Y-41107619D01*
X166638096Y-41202857D01*
X166685715Y-41393333D01*
X166685715Y-41631429D01*
X166638096Y-41821905D01*
X166590477Y-41917143D01*
X166542858Y-41964762D01*
X166447620Y-42012381D01*
X166352381Y-42012381D01*
X166257143Y-41964762D01*
X166209524Y-41917143D01*
X166161905Y-41821905D01*
X166114286Y-41631429D01*
X166114286Y-41393333D01*
X166161905Y-41202857D01*
X166209524Y-41107619D01*
X166257143Y-41060000D01*
X166352381Y-41012381D01*
X136952381Y-39716666D02*
X136476190Y-40050000D01*
X136952381Y-40288095D02*
X135952381Y-40288095D01*
X135952381Y-39907142D01*
X136000000Y-39811904D01*
X136047619Y-39764285D01*
X136142857Y-39716666D01*
X136285714Y-39716666D01*
X136380952Y-39764285D01*
X136428571Y-39811904D01*
X136476190Y-39907142D01*
X136476190Y-40288095D01*
X136952381Y-38764285D02*
X136952381Y-39335714D01*
X136952381Y-39050000D02*
X135952381Y-39050000D01*
X136095238Y-39145238D01*
X136190476Y-39240476D01*
X136238095Y-39335714D01*
X172952381Y-55416666D02*
X172476190Y-55750000D01*
X172952381Y-55988095D02*
X171952381Y-55988095D01*
X171952381Y-55607142D01*
X172000000Y-55511904D01*
X172047619Y-55464285D01*
X172142857Y-55416666D01*
X172285714Y-55416666D01*
X172380952Y-55464285D01*
X172428571Y-55511904D01*
X172476190Y-55607142D01*
X172476190Y-55988095D01*
X172047619Y-55035714D02*
X172000000Y-54988095D01*
X171952381Y-54892857D01*
X171952381Y-54654761D01*
X172000000Y-54559523D01*
X172047619Y-54511904D01*
X172142857Y-54464285D01*
X172238095Y-54464285D01*
X172380952Y-54511904D01*
X172952381Y-55083333D01*
X172952381Y-54464285D01*
X172952381Y-61166666D02*
X172476190Y-61500000D01*
X172952381Y-61738095D02*
X171952381Y-61738095D01*
X171952381Y-61357142D01*
X172000000Y-61261904D01*
X172047619Y-61214285D01*
X172142857Y-61166666D01*
X172285714Y-61166666D01*
X172380952Y-61214285D01*
X172428571Y-61261904D01*
X172476190Y-61357142D01*
X172476190Y-61738095D01*
X171952381Y-60833333D02*
X171952381Y-60214285D01*
X172333333Y-60547619D01*
X172333333Y-60404761D01*
X172380952Y-60309523D01*
X172428571Y-60261904D01*
X172523810Y-60214285D01*
X172761905Y-60214285D01*
X172857143Y-60261904D01*
X172904762Y-60309523D01*
X172952381Y-60404761D01*
X172952381Y-60690476D01*
X172904762Y-60785714D01*
X172857143Y-60833333D01*
M02*
