G04 #@! TF.FileFunction,Soldermask,Top*
%FSLAX46Y46*%
G04 Gerber Fmt 4.6, Leading zero omitted, Abs format (unit mm)*
G04 Created by KiCad (PCBNEW 4.0.7-e2-6376~58~ubuntu16.04.1) date Thu Jan 18 15:28:59 2018*
%MOMM*%
%LPD*%
G01*
G04 APERTURE LIST*
%ADD10C,0.100000*%
%ADD11R,1.400000X1.650000*%
%ADD12O,2.398980X2.398980*%
%ADD13R,2.398980X2.398980*%
%ADD14R,2.100000X2.100000*%
%ADD15O,2.100000X2.100000*%
%ADD16R,1.100000X1.700000*%
%ADD17R,1.797000X1.797000*%
%ADD18C,1.797000*%
%ADD19R,2.900000X1.500000*%
%ADD20O,2.900000X1.500000*%
%ADD21O,1.500000X2.800000*%
%ADD22C,2.400000*%
G04 APERTURE END LIST*
D10*
D11*
X191500000Y-93000000D03*
X193500000Y-93000000D03*
D12*
X181250000Y-84250000D03*
D13*
X181250000Y-86790000D03*
D12*
X181250000Y-111250000D03*
D13*
X181250000Y-113790000D03*
D12*
X229750000Y-109540000D03*
D13*
X229750000Y-101920000D03*
D12*
X229750000Y-104460000D03*
X229750000Y-107000000D03*
X229750000Y-112080000D03*
X229750000Y-91750000D03*
D13*
X229750000Y-84130000D03*
D12*
X229750000Y-86670000D03*
X229750000Y-89210000D03*
X229750000Y-94290000D03*
X229750000Y-96830000D03*
X181250000Y-93250000D03*
D13*
X181250000Y-95790000D03*
D12*
X181250000Y-103000000D03*
D13*
X181250000Y-105540000D03*
D14*
X220500000Y-92540000D03*
D15*
X220500000Y-90000000D03*
X220500000Y-87460000D03*
X220500000Y-84920000D03*
D16*
X191550000Y-100000000D03*
X193450000Y-100000000D03*
X193450000Y-107000000D03*
X191550000Y-107000000D03*
X191550000Y-110500000D03*
X193450000Y-110500000D03*
X193450000Y-103500000D03*
X191550000Y-103500000D03*
X193450000Y-96500000D03*
X191550000Y-96500000D03*
X219500000Y-104250000D03*
X221400000Y-104250000D03*
X219500000Y-100750000D03*
X221400000Y-100750000D03*
X219550000Y-97250000D03*
X221450000Y-97250000D03*
D17*
X222540000Y-111250000D03*
D18*
X220000000Y-111250000D03*
X217460000Y-111250000D03*
D19*
X199550000Y-90000000D03*
D20*
X199550000Y-92000000D03*
X199550000Y-94000000D03*
X199550000Y-96000000D03*
X199550000Y-98000000D03*
X199550000Y-100000000D03*
X199550000Y-102000000D03*
X199550000Y-104000000D03*
X214950000Y-104000000D03*
X214850000Y-102000000D03*
X214950000Y-100000000D03*
X214950000Y-98000000D03*
X214950000Y-96000000D03*
X214950000Y-94000000D03*
X214950000Y-92000000D03*
X214950000Y-90000000D03*
D21*
X202240000Y-105750000D03*
X204240000Y-105750000D03*
X206240000Y-105750000D03*
X208240000Y-105750000D03*
X210240000Y-105750000D03*
X212240000Y-105750000D03*
D17*
X207460000Y-111250000D03*
D18*
X210000000Y-111250000D03*
X212540000Y-111250000D03*
D22*
X190500000Y-82750000D03*
X195000000Y-82750000D03*
X190500000Y-89250000D03*
X195000000Y-89250000D03*
M02*
